<svg xmlns="http://www.w3.org/2000/svg" xmlns:xlink="http://www.w3.org/1999/xlink" width="656.569" height="669.782" viewBox="0 0 656.569 669.782"><defs><style>.a{fill:#29218c;}.b{fill:#d1a3ef;}.c{fill:#0e1724;}.d{fill:#001738;}.e{fill:#bf83ed;}.f{fill:#c17bef;}.g{fill:#ab66d8;}.h{fill:#9ce5ff;}.i{fill:#cf92ff;}.j{fill:#fff;}.k,.o{fill:none;stroke-linecap:round;stroke-linejoin:round;}.k{stroke:#3d439b;stroke-width:3px;stroke-dasharray:15;}.k,.s{opacity:0.3;}.l,.p,.q,.s,.t{fill:#3d439b;}.l{opacity:0.2;}.m{fill:#5d4fc5;}.n{fill:url(#a);}.o{stroke:#fff;stroke-width:7px;}.p{opacity:0.1;}.q{opacity:0.05;}.r{fill:#48d5f0;}.t{opacity:0.15;}</style><linearGradient id="a" y1="0.5" x2="1" y2="0.5" gradientUnits="objectBoundingBox"><stop offset="0.07" stop-color="#00d8bc"/><stop offset="1" stop-color="#48c7e2"/></linearGradient></defs><g transform="translate(-98.437 -51.374)"><path class="a" d="M188.362,370.044c46.5-80.532-15.34-219.94,69.415-289.1,94.737-77.3,303.773,1.66,309.644,181.77S503.291,649.819,281.3,710.832C80.762,765.95,68.313,585.642,84.417,517.862,107,422.8,162.448,414.923,188.362,370.044Z" transform="translate(19.015 0)"/><path class="b" d="M132,873.362a57.511,57.511,0,0,0,5.148,30.3,6.46,6.46,0,0,0,1.878,2.63,5.674,5.674,0,0,0,4.537.488c9.028-2.039,10.975-13.584,12.826-22.651s4.748-16.461,7.245-25.372c2.5-8.931,7.945-16.7,13.293-24.28l12.535-17.761a71.305,71.305,0,0,1-20.006-12.29,80.266,80.266,0,0,1-19.292,21.36c-2.58,1.984-5.328,3.855-7.265,6.471-2.191,2.959-3.163,6.622-4.035,10.2" transform="translate(-13.726 -197.713)"/><path class="b" d="M245.054,641.764c-3.805-.216-7.08,2.568-9.635,5.4-5.723,6.332-10.155,13.75-15.954,20.014-2.967,3.206-6.295,6.112-8.814,9.681s-4.192,8.032-3.276,12.3a4.583,4.583,0,0,0,.619,1.622c1.014,1.5,3.26,1.689,4.9.927a12.447,12.447,0,0,0,3.992-3.612c4.077-4.869,8.648-9.47,14.238-12.484s12.344-4.3,18.388-2.351c1.755.566,3.6,1.4,5.366.873a7.38,7.38,0,0,0,2.493-1.563c4.193-3.49,17.312-13.3,9.779-18.893-3.508-2.6-8.191-3.031-11.806-5.7C252.172,645.63,249.294,642,245.054,641.764Z" transform="translate(-33.528 -155.003)"/><path class="c" d="M426.868,501.981a6.748,6.748,0,0,0-1.646-4.3c-1.2-1.119-2.988-1.285-4.63-1.292-14.3-.057-27.941,7.717-37.033,18.756S369.542,540.173,367.3,554.3s-1.968,28.513-1.687,42.812q.335,17.037.67,34.074l-17-6.762a110.311,110.311,0,0,0-17.4-5.826c-18.131-3.9-32.5-2.445-50.834-5.247-3.827,15.254-10.543,34.895-10.818,50.619,12.114,4.555,25.553,1.83,38.443.666a154.037,154.037,0,0,1,54.961,4.991l1.2.516c5.667,2.14,17.415,1.084,22.725-1.832,5.9-3.238,8.894-9.9,11.368-16.16,16.944-42.849,22.84-86.417,27.514-132.257C427.043,513.939,427.543,507.927,426.868,501.981Z" transform="translate(-50.097 -116.837)"/><path class="d" d="M286.794,569.241a168.939,168.939,0,0,1-16.523,24.9c-8.307,10.069-18.306,18.58-27.623,27.721-27.51,26.993-53.754,57.018-67.848,92.889-.92,2.341-3.034,5.366-2.473,7.817.576,2.52,8.3,6.759,10.273,8.428a91.806,91.806,0,0,0,30.542,17.064l25.988-47.369c5.347-9.746,10.742-19.562,17.88-28.084,6.553-7.823,14.441-14.4,22.115-21.124A592.257,592.257,0,0,0,381.184,535.023c9.765-14.638,19.084-30.278,21.466-47.71,3.981-29.137-42.109-19.911-60.947-8.6-11.605,6.97-22.582,22.944-27.045,34.707C307.1,533.332,297.259,550.647,286.794,569.241Z" transform="translate(-24.368 -109.344)"/><g transform="translate(263.039 150.615)"><g transform="translate(17.32)"><path class="d" d="M370.493,189.156c-10.032,4.347-13.486,34.862-14.495,49.13s-1.271,28.657-4.1,42.678c4.734-1.64,9.874-1.487,14.882-1.316l17.539.6a2.2,2.2,0,0,0,2.721-2.419l1.458-9.849a43.294,43.294,0,0,0,4.13,10.307,3.63,3.63,0,0,0,1.006,1.275,3.732,3.732,0,0,0,1.984.474,130.467,130.467,0,0,0,23.857-1.088c-1.707-7.24-.9-14.8-.673-22.231.586-19.293.442-34.529-3.88-53.341-3.723-16.2-21.606-18.155-24.133-17.247C388.417,186.983,378.546,185.665,370.493,189.156Z" transform="translate(-351.897 -185.948)"/><path class="e" d="M385.881,265.219c6.745,5.291,15.033,9.44,23.531,10.563.159,3.067.251,6.077.334,9.076-8.684-2.044-22.166-3.25-23.436-12.081-.267-1.856-.36-5.114-.429-7.557" transform="translate(-360.819 -206.76)"/><path class="b" d="M385.574,275.454a54.419,54.419,0,0,0,23.437,12.083c.123,4.333.213,7.1.451,11.537a10.025,10.025,0,0,1-6.258,2.286c-7.864.224-20.809-2.007-20.1-2.589,5.251-4.3,2.38-22.427,2.468-23.317" transform="translate(-360.084 -209.447)"/><path class="b" d="M376.575,250.748a2,2,0,0,0-1-.51c-1.218,2.2-2.623,2-4.767,1.438-2.1-.6-1.5-2.543-2.879-4.576a11.076,11.076,0,0,1-1.621-10.007c1.332-2.819,2.661-3.389,5.27-2.6,2.172.736,3.585,2.921,4.878,5.206" transform="translate(-355.529 -198.609)"/><path class="b" d="M380.277,231.156c.271.383.537.771.8,1.153,1.49-20.683,8.357-28.639,18.883-30.7,6.294.051,12.228-.348,16.44,4.291,2.116,2.659,5.54,6.74,5.725,10.035.3,10.589,2.635,8.254,2.6,18.388.018,3.76-7.263,19.6-9.594,22.606-3.234,4.168-10.093,3.687-10.093,3.687-7.91-.542-13.279-5.48-19.773-10.5a6.515,6.515,0,0,1-1.7-2.4c-.769-1.673-1.623-4.39-3.228-5.526" transform="translate(-359.348 -190.06)"/><path class="d" d="M397.885,225.181a30.289,30.289,0,0,0-4.058,3.694c.007.406.532.566.918.7.34.073,3.886-2.724,4.211-2.844a21.011,21.011,0,0,1,6.552-.616,16.622,16.622,0,0,0,3.547-.147c.385-.167.965-.457.7-.918-.325-.553-6.078-1.115-7.465-1.053a10.546,10.546,0,0,0-4.4,1.188" transform="translate(-362.906 -195.935)"/><path class="d" d="M432.219,224.386c.167.178,1.869,1.745,1.769,1.968-.138.345-.339-.133-.679.019a10.652,10.652,0,0,1-2.333-.643,7.4,7.4,0,0,0-2.428-.7,9.412,9.412,0,0,0-1.455-.052c-.371.013-1.765.476-2,.266-.176-.159-.273-.409.066-.813a5.2,5.2,0,0,1,1.969-.884,6.41,6.41,0,0,1,2.768-.355,3.554,3.554,0,0,1,2.324,1.193" transform="translate(-371.072 -195.719)"/><path class="f" d="M372.717,243.8c.024-.444.355-.692.47-1.1a1.682,1.682,0,0,0-.033-.889,2.175,2.175,0,0,0-.737-1.22,1.505,1.505,0,0,0-1.126-.1,2.167,2.167,0,0,0-1.263.87,3.825,3.825,0,0,0-.68,1.807,5.384,5.384,0,0,0,.777,3.366,5.474,5.474,0,0,0,2.1,1.9,1.645,1.645,0,0,0,.865.268.871.871,0,0,0,.74-.608,2.473,2.473,0,0,0-.113-1.735c-.235-.477-.561-.775-.784-1.265a2.1,2.1,0,0,1-.169-1.628" transform="translate(-356.473 -200.252)"/><path class="g" d="M372.024,241.642a4.346,4.346,0,0,0-.323,1.629,5.62,5.62,0,0,0,.471,2.419,2.879,2.879,0,0,0,1.363,1.479.651.651,0,0,0,.51.042.607.607,0,0,0,.318-.544,1.275,1.275,0,0,0-.373-.805,3,3,0,0,1-.57-1.061,2.036,2.036,0,0,1,.041-1.3,5.8,5.8,0,0,0,.358-.679,1.579,1.579,0,0,0-.005-.776,3.931,3.931,0,0,0-.264-.7c-.19-.417-.422-.769-.765-.576a1.829,1.829,0,0,0-.76.875" transform="translate(-357.096 -200.326)"/><path class="h" d="M371.235,257.979a4.994,4.994,0,0,0,.951,4.332,2.794,2.794,0,0,0,3.526.672,3.717,3.717,0,0,0,.375-.316,5.387,5.387,0,0,0,.645-6.431,3.451,3.451,0,0,0-1.173-.873c-1.786-.784-3.72.387-4.324,2.617m1.548,3.443a3.6,3.6,0,0,1-.681-3.1,3.293,3.293,0,0,1,.5-1.068,2.111,2.111,0,0,1,3.45-.184,2.859,2.859,0,0,1,.181.339,3.771,3.771,0,0,1-.911,4.509,2.01,2.01,0,0,1-2.538-.483Z" transform="translate(-356.937 -204.108)"/><path class="f" d="M421.2,234.5a19.5,19.5,0,0,0,2.757,7.209c.472.744,1.015,1.639.644,2.441-.351.751-1.308.951-2.128,1.061l-3.2.414a2.408,2.408,0,0,1-1.407-.1,1.639,1.639,0,0,1-.775-1.434,5.324,5.324,0,0,1,.338-1.668,33.937,33.937,0,0,0,1.462-8.341c.034-.683-.263-2.907.987-2.714,1.022.149,1.2,2.411,1.326,3.136" transform="translate(-369.011 -197.868)"/><ellipse class="d" cx="2.445" cy="2.648" rx="2.445" ry="2.648" transform="matrix(1, -0.028, 0.028, 1, 37.945, 33.839)"/><ellipse class="d" cx="2.241" cy="2.445" rx="2.241" ry="2.445" transform="matrix(1, -0.028, 0.028, 1, 56.335, 33.111)"/><path class="i" d="M421.823,262.513c-2.592,1.837-7.181,1.379-9.922.145-1.555-.7-3.63-3.587-4.3-4.147,1.645.359,3.761.451,5.417.753.917.167,1.807.473,2.733.591a13.589,13.589,0,0,0,2.58,0c.889-.058,1.778-.114,2.667-.174.513-.035,2.171-1.276,2.482-.737C424.133,260.064,422.5,262.032,421.823,262.513Z" transform="translate(-366.523 -204.999)"/><path class="f" d="M421.708,257.851c-1.348-.067-2.684,1.26-3.894.662-.319-.158-.569-.435-.894-.583a2.726,2.726,0,0,0-1.494-.06,33.432,33.432,0,0,1-8.29.062,21.476,21.476,0,0,0,8.348,2.808c2.673.155,6.166-.176,8.35-1.931A3.632,3.632,0,0,0,421.708,257.851Z" transform="translate(-366.4 -204.811)"/></g><path class="d" d="M355.96,196.819c-8.27,9.287-15.113,20.632-15.641,33.056-.328,7.728,1.8,15.352,2.111,23.081a49.559,49.559,0,0,1-9.107,30.514,13.743,13.743,0,0,0,3.505-3.282,20.129,20.129,0,0,1-8.417,9.9,47.121,47.121,0,0,0,18.8-19.6,65.345,65.345,0,0,0,6.991-26.439,43.513,43.513,0,0,0-.533-11.111,35.178,35.178,0,0,1-.94-5.3c-.148-3.422,1.3-6.72,3.088-9.639s3.962-5.611,5.518-8.661c2.432-4.768,3.251-10.17,4.035-15.465C366.463,186.478,357.61,194.966,355.96,196.819Z" transform="translate(-328.411 -187.247)"/></g><rect class="j" width="239.849" height="516.216" rx="20" transform="translate(515.156 129.613)"/><rect class="k" width="213.861" height="142.328" rx="20" transform="translate(526.955 190.821)"/><g transform="translate(474.935 169.306)"><rect class="j" width="213.861" height="142.328" rx="20" transform="translate(0 9.701) rotate(-2.6)"/><rect class="l" width="213.861" height="142.328" rx="20" transform="translate(0 9.701) rotate(-2.6)"/><path class="m" d="M646.6,365.132l38.069-73.391,43.172,38.99,25.526-24,67.353,50.492Z" transform="translate(-623.848 -232.414)"/><circle class="n" cx="10.894" cy="10.894" r="10.894" transform="translate(138.232 22.974)"/><path class="o" d="M814.717,349.134l-164.2,7.133c-8.1.353-15.035-5.7-15.4-13.456l-4.515-95.12c-.368-7.753,5.962-14.385,14.065-14.736l164.2-7.134c8.1-.352,15.035,5.7,15.4,13.457l4.515,95.12C829.15,342.151,822.821,348.783,814.717,349.134Z" transform="translate(-619.642 -215.103)"/></g><path class="b" d="M633.5,398.7a35.047,35.047,0,0,0,8.17-1.464l11.5-3.268c1.378-.391,3.238-.589,3.881.69a2.592,2.592,0,0,1-.583,2.633c-2.6,3.333-7.577,3.534-11.041,5.955-.44.307-.9.745-.841,1.279a1.519,1.519,0,0,0,.421.79c2.859,3.344,7.695,4.2,12.091,4.038s8.8-1.122,13.161-.518a1.72,1.72,0,0,1,1.3.622c.532.877-.633,1.79-1.6,2.147-10.765,3.982-22.254,5.56-33.668,6.767-4.858.513-6.867.494-12.948.723-.81.03-5.932,2.1-6.684,1.8a1.972,1.972,0,0,1-.888-1.005c-1.914-3.63-2.507-11.412-2.675-15.1A49.006,49.006,0,0,1,619,404.53a6.99,6.99,0,0,0,5.057-2.444C626.164,399.776,629.768,398.874,633.5,398.7Z" transform="translate(-140.118 -89.871)"/><path class="b" d="M613.593,278.968a39.156,39.156,0,0,0-1.674-4.353c-1.267-2.706-1.816-2.1-1.708-5.09.135-3.707.461-3.424,1.869-6.856a12.12,12.12,0,0,0,8.007-3.453,2.64,2.64,0,0,0,.82-1.262c.224-1.066-.818-2.043-1.889-2.241a9.994,9.994,0,0,0-3.24.283,10.3,10.3,0,0,1-6.236-1.206c-.032-1.278-.3-6.088-.335-7.366a21.42,21.42,0,0,1-5.286,6.391,21.1,21.1,0,0,0-3.282,2.928,13.862,13.862,0,0,0-2.2,5.464c-2.093,8.65-3.329,16.124-10.529,20.141,3.765,4.221,5.759,6.968,7.936,12.189-.071-.169,5.056-2.444,10.18-3.415C610.3,290.313,615.16,283.968,613.593,278.968Z" transform="translate(-133.503 -51.473)"/><path class="j" d="M589.424,286.52a36.6,36.6,0,0,1,9.285,25.593,4.022,4.022,0,0,1-.348,1.751c-.6,1.127-2.021,1.47-3.276,1.7l-7.563,1.364c1.565-.282-2.327-17.4-2.818-19.006-.531-1.732-3.636-7.05-3.063-8.627C582.324,287.412,587.648,287.277,589.424,286.52Z" transform="translate(-131.839 -61.737)"/><path class="j" d="M553.9,306.792c-.393-4.621-2.856-8.79-5.487-12.61-2.48-3.6-5.8-7.4-10.175-7.424-2.709-.015-5.168,1.458-7.518,2.806-16.614,9.529-53.511,19.9-72.57,18.019-4-.395-19.9-.27-23.864-1.128l33.185,36.135c8.782-2.463,17.766-7.242,27.307-8.989,9.192-1.684,33.8-4.192,42.783-6.765S554.694,316.1,553.9,306.792Z" transform="translate(-93.17 -61.8)"/><path class="p" d="M553.9,306.792c-.393-4.621-2.856-8.79-5.487-12.61-2.48-3.6-5.8-7.4-10.175-7.424-2.709-.015-5.168,1.458-7.518,2.806-16.614,9.529-53.511,19.9-72.57,18.019-4-.395-19.9-.27-23.864-1.128l33.185,36.135c8.782-2.463,17.766-7.242,27.307-8.989,9.192-1.684,33.8-4.192,42.783-6.765S554.694,316.1,553.9,306.792Z" transform="translate(-93.17 -61.8)"/><path class="j" d="M461.316,410.365c-2.676-9.073-7.271-29.713-5.431-35.258,2.717-8.192,3.344-25.507-14.354-38.044l-23.6-25.811c-7.375-5.162-23.846-11.305-40.269-8.178-4.333.825-8.745,2.427-11.639,5.757a28.535,28.535,0,0,0-4.005,8.454c-4.119,25.147,2.269,44.92,12.947,66.028,6.254,12.363,11.849,18.837,11.064,31.94-.28,4.661-2.136,9.312-1.179,13.882s3.228,8.617,10.077,7.465l55.453,3.706c6.394,20.187,4.491,35.778-.544,51.459A10.8,10.8,0,0,0,460.2,505.94l.2,0c2.06-.042,4.252-.125,5.951-1.292,2.156-1.482,2.911-4.266,3.457-6.824C476.385,467.019,470.225,440.573,461.316,410.365Z" transform="translate(-73.864 -65.861)"/><path class="q" d="M461.316,410.365c-2.676-9.073-7.271-29.713-5.431-35.258,2.717-8.192,3.344-25.507-14.354-38.044l-23.6-25.811c-7.375-5.162-23.846-11.305-40.269-8.178-4.333.825-8.745,2.427-11.639,5.757a28.535,28.535,0,0,0-4.005,8.454c-4.119,25.147,2.269,44.92,12.947,66.028,6.254,12.363,11.849,18.837,11.064,31.94-.28,4.661-2.136,9.312-1.179,13.882s3.228,8.617,10.077,7.465l55.453,3.706c6.394,20.187,4.491,35.778-.544,51.459A10.8,10.8,0,0,0,460.2,505.94l.2,0c2.06-.042,4.252-.125,5.951-1.292,2.156-1.482,2.911-4.266,3.457-6.824C476.385,467.019,470.225,440.573,461.316,410.365Z" transform="translate(-73.864 -65.861)"/><path class="d" d="M429.685,288.23c5.088,3.81,11.109,6.159,17.158,8.108,6.989,2.251,14.3,4.046,21.61,3.384l-1.553-1.874a12.612,12.612,0,0,0,11.63-6.186,19.238,19.238,0,0,1-20.3-4.174,29.959,29.959,0,0,0,26.507-5.032,39.483,39.483,0,0,1-28.447-9.215,13.211,13.211,0,0,0,10.864-.757,22.334,22.334,0,0,1-26.119-15.037c-1.583-4.979-1.374-10.317-1.642-15.534s-2.284-15.037-5.588-19.083c.55,6.258,2.236,16.891,1.7,23.15s-2.213,12.543-5.777,17.716A12.091,12.091,0,0,1,427.1,266.6a34.943,34.943,0,0,1-3.191,1.855c-1.321.784-4.015,2.563-4.414,4.172-.393,1.584,1.122,4.4,1.808,5.789A27.866,27.866,0,0,0,429.685,288.23Z" transform="translate(-89.269 -45.015)"/><path class="j" d="M404.808,334.4a42.718,42.718,0,0,1,13.274,5.9c17.866,12.669,34.306,27.444,55.24,33.886s43.057,5.46,64.853,3.3c7.67-.759,12.393,22.452,9.183,31.631-3.03,8.664-7.985,13.936-17.145,14.534-7.916.516-32.544-5.491-40.795-7.691-7.608-2.029-34.794-13.31-42.479-15.02-34.974-7.788-48.123-11.165-56.141-38.52-.976-3.327-2.128-16.183-.737-19.174C392.332,338.364,400.645,333.2,404.808,334.4Z" transform="translate(-81.389 -74.263)"/><path class="j" d="M604.538,402.169a4.023,4.023,0,0,1,2.251.191,3.346,3.346,0,0,1,1.146,1.141c2.19,3.181,2.815,7.169,3.069,11.022a34.632,34.632,0,0,1-1.117,12.69,17.2,17.2,0,0,1-7.571,9.962,6.755,6.755,0,0,1-2.4.885c-3.316.428-6.543-2.838-9.693-1.717.476-.17,1.462-9.715,1.677-10.789.751-3.766,1.593-7.52,2.108-11.329.24-1.779.425-3.567.488-5.362.047-1.322-.711-4.558-.2-5.661C595.138,401.343,602.063,402.414,604.538,402.169Z" transform="translate(-134.109 -92.078)"/><path class="j" d="M409.532,300.607a2.3,2.3,0,0,0-.4-1.279c-.252-.288-1.415-.415-1.781-.529a101.738,101.738,0,0,0-21.874-4.208,3.6,3.6,0,0,0-2.041.241,3.406,3.406,0,0,0-1.17,1.315,34.142,34.142,0,0,0-2.976,7.93l1.475-.737a10.3,10.3,0,0,1,5.239-.563,31.027,31.027,0,0,1,7.818,1.319c1.33.469,2.591,1.117,3.92,1.59a18.038,18.038,0,0,0,13.061-.7A14.231,14.231,0,0,1,409.532,300.607Z" transform="translate(-78.73 -63.847)"/><path class="d" d="M339.2,318.82c6.185-2.295,17.175-6.289,22.372-10.353a22.35,22.35,0,0,0,7.722-9.827,23.2,23.2,0,0,0,2.268-7.173c.27-2.5-5.351-4.429-6.866-6.442-.292-.388-7.291,6.838-7.9,7.578a62.416,62.416,0,0,0-6.023,9.379C347.438,307.888,345.106,314.885,339.2,318.82Z" transform="translate(-68.203 -61.341)"/><circle class="k" cx="23.967" cy="23.967" r="23.967" transform="translate(526.955 355.273)"/><circle class="r" cx="23.967" cy="23.967" r="23.967" transform="translate(611.762 355.273)"/><circle class="r" cx="8.112" cy="8.112" r="8.112" transform="translate(527.693 145.099)"/><circle class="r" cx="23.967" cy="23.967" r="23.967" transform="translate(696.569 355.273)"/><rect class="s" width="189.156" height="16.961" rx="8.481" transform="translate(552.029 144.73)"/><g transform="translate(526.802 480.453)"><g transform="translate(0)"><rect class="t" width="214.014" height="38.534" rx="19.267"/><path class="n" d="M696.323,655.806a11.155,11.155,0,1,1,11.155,11.155,11.155,11.155,0,0,1-11.155-11.155" transform="translate(-688.769 -636.217)"/><g transform="translate(14.863 15.068)"><g transform="translate(0 4.251)"><path class="j" d="M712.918,664.2h-5.675a1.007,1.007,0,0,1-1.008-1.007h0a3.783,3.783,0,0,1,3.783-3.783h.125a3.783,3.783,0,0,1,3.783,3.783h0A1.007,1.007,0,0,1,712.918,664.2Z" transform="translate(-706.235 -659.411)"/></g><g transform="translate(1.585)"><path class="j" d="M712.905,655.907a2.261,2.261,0,1,1-2.261-2.26A2.26,2.26,0,0,1,712.905,655.907Z" transform="translate(-708.384 -653.647)"/></g></g></g></g><rect class="s" width="213.861" height="5.162" rx="2.581" transform="translate(526.955 426.437)"/><rect class="s" width="213.861" height="5.162" rx="2.581" transform="translate(526.955 441.186)"/><rect class="s" width="159.289" height="5.162" rx="2.581" transform="translate(526.955 455.935)"/><rect class="j" width="162.977" height="5.162" rx="2.581" transform="translate(563.828 490.226)"/><rect class="j" width="121.389" height="5.162" rx="2.581" transform="translate(563.828 504.975)"/><g transform="translate(526.802 531.337)"><g transform="translate(0)"><rect class="t" width="214.014" height="38.534" rx="19.267"/><path class="m" d="M696.323,724.806a11.155,11.155,0,1,1,11.155,11.155,11.155,11.155,0,0,1-11.155-11.155" transform="translate(-688.769 -705.217)"/><g transform="translate(14.863 15.068)"><g transform="translate(0 4.251)"><path class="j" d="M712.918,733.2h-5.675a1.007,1.007,0,0,1-1.008-1.007h0a3.783,3.783,0,0,1,3.783-3.783h.125a3.783,3.783,0,0,1,3.783,3.783h0A1.007,1.007,0,0,1,712.918,733.2Z" transform="translate(-706.235 -728.411)"/></g><g transform="translate(1.585)"><path class="j" d="M712.905,724.907a2.261,2.261,0,1,1-2.261-2.26A2.26,2.26,0,0,1,712.905,724.907Z" transform="translate(-708.384 -722.647)"/></g></g></g></g><rect class="j" width="162.977" height="5.162" rx="2.581" transform="translate(563.828 541.11)"/><rect class="j" width="121.389" height="5.162" rx="2.581" transform="translate(563.828 555.859)"/><g transform="translate(526.802 582.221)"><g transform="translate(0)"><rect class="t" width="214.014" height="38.534" rx="19.267"/><path class="m" d="M696.323,793.806a11.155,11.155,0,1,1,11.155,11.155,11.155,11.155,0,0,1-11.155-11.155" transform="translate(-688.769 -774.217)"/><g transform="translate(14.863 15.068)"><g transform="translate(0 4.251)"><path class="j" d="M712.918,802.2h-5.675a1.007,1.007,0,0,1-1.008-1.007h0a3.783,3.783,0,0,1,3.783-3.783h.125a3.783,3.783,0,0,1,3.783,3.783h0A1.007,1.007,0,0,1,712.918,802.2Z" transform="translate(-706.235 -797.411)"/></g><g transform="translate(1.585)"><path class="j" d="M712.905,793.907a2.261,2.261,0,1,1-2.261-2.26A2.26,2.26,0,0,1,712.905,793.907Z" transform="translate(-708.384 -791.647)"/></g></g></g></g><rect class="j" width="162.977" height="5.162" rx="2.581" transform="translate(563.828 591.994)"/><rect class="j" width="121.389" height="5.162" rx="2.581" transform="translate(563.828 606.743)"/><path class="d" d="M152.951,848.727a19.256,19.256,0,0,1-2.735-16.292c-3.63.664-7.453,1.42-10.222,3.857a18.686,18.686,0,0,0-4.4,6.92,101.685,101.685,0,0,0-6.1,59.815c.637,3.131,1.46,6.316,3.312,8.919a18.461,18.461,0,0,0,12.925,4.172c3.67-.187,7.959-.976,9.487-4.317a11.238,11.238,0,0,0,.756-3.4,263.493,263.493,0,0,1,11.447-51.709A19.256,19.256,0,0,1,152.951,848.727Z" transform="translate(-12.622 -205.067)"/><path class="d" d="M227.334,678.661c-4.664,3.894-8.471,8.708-12.954,12.807a6.408,6.408,0,0,1-2.672,1.692,4.314,4.314,0,0,1-4.39-1.966,8.257,8.257,0,0,1-1.14-4.907c.152-4.381,2.146-8.509,4.648-12.108,5.146-7.4,12.516-13.124,17.187-20.836,1.825-3.013,3.243-6.335,5.684-8.874a14.947,14.947,0,0,1,19.745-.976c1.687,1.44,3.111,3.685,2.389,5.782a8.085,8.085,0,0,1-2.616,3.1c-6.069,5.4-7.8,12.321-8.4,20.048C238.38,671.505,232.177,674.618,227.334,678.661Z" transform="translate(-33.278 -154.604)"/><path class="j" d="M200.732,682.6a16.642,16.642,0,0,1,2.313-5.657,55.851,55.851,0,0,1,7.009-10.378c2.206-2.423,4.807-4.478,6.865-7.027,3-3.712,4.7-8.278,7.13-12.382a39.517,39.517,0,0,1,9.734-11.036,6.567,6.567,0,0,1,3.391-1.632,7.137,7.137,0,0,1,3.1.722c1.976.789,4.164,1.79,4.878,3.793-2.413,2.288-5.661,3.469-8.337,5.443-5.125,3.781-7.666,10.021-11.118,15.373-4.208,6.526-9.9,11.9-14.432,18.18a46.878,46.878,0,0,0-3.018,4.687c-.734,1.324-1.417,4.618-2.457,5.534C202.915,690.75,200.326,685.417,200.732,682.6Z" transform="translate(-31.839 -153.094)"/><path class="j" d="M129.707,911.712c-3.927-5.8-4.687-13.1-5.333-20.072l-1.128-12.182a63.207,63.207,0,0,1,.716-15.329c.872-5.81,1.147-13.874,3.687-19.174,1.6-3.336,4.7-4.383,7.948-6.157.677-.37,3.145-1.322,3.577-.683a1.688,1.688,0,0,1,.15,1.144c-.631,5.572-4.47,11.515-6.027,16.9-3.83,13.253-2.72,27.364-1.577,41.111a37.327,37.327,0,0,0,1.737,9.925c1.169,3.161,3.349,6.1,6.45,7.419,4.327,1.841,10.05-.007,14.29-1.078C150.351,923.614,134.066,918.146,129.707,911.712Z" transform="translate(-11.453 -206.502)"/></g></svg>