<svg xmlns="http://www.w3.org/2000/svg" xmlns:xlink="http://www.w3.org/1999/xlink" width="312.068" height="346.933" viewBox="0 0 312.068 346.933"><defs><style>.a{fill:url(#a);}</style><linearGradient id="a" x1="0.5" x2="0.5" y2="1" gradientUnits="objectBoundingBox"><stop offset="0" stop-color="#1479db"/><stop offset="1" stop-color="#0241ad"/></linearGradient></defs><path class="a" d="M334.178-2023.106c-7.422,28.578-13.861,61.45,6.732,84.725,20.3,22.944,51.906,35.846,88,33.326,48.289-2.611,50.818-18.65,119.188-14.011,23.034,1.155,48.163,1.807,66.764-9.98,20.133-12.756,26.429-36.784,23.846-58.229-6.161-51.137-59.446-76.991-102.291-112.7-25.755-21.464-55.461-63.646-89.55-73.062-43.011-11.881-75.459,13.948-86.636,42.547C347.181-2097.086,356.072-2074.635,334.178-2023.106Z" transform="translate(2243.789 367.948) rotate(-98)"/></svg>