<svg xmlns="http://www.w3.org/2000/svg" xmlns:xlink="http://www.w3.org/1999/xlink" width="64.5" height="64.5" viewBox="0 0 64.5 64.5"><defs><style>.a{fill:url(#a);}.b{fill:url(#b);}.c{fill:url(#c);}.d{fill:url(#d);}.e{fill:url(#e);}.f{fill:url(#f);}.g{fill:url(#g);}</style><linearGradient id="a" x1="-12.763" y1="-13.549" x2="19.549" y2="20.679" gradientUnits="objectBoundingBox"><stop offset="0" stop-color="#00e6ca"/><stop offset="1" stop-color="#48c7e2"/></linearGradient><linearGradient id="b" x1="-4.392" y1="-15.046" x2="6.379" y2="19.182" xlink:href="#a"/><linearGradient id="c" x1="-5.02" y1="-17.043" x2="5.75" y2="17.185" xlink:href="#a"/><linearGradient id="d" x1="-0.177" y1="-0.217" x2="1.086" y2="1.12" xlink:href="#a"/><linearGradient id="e" x1="-0.32" y1="-3.625" x2="1.381" y2="4.934" xlink:href="#a"/><linearGradient id="f" x1="-1.938" y1="-1.509" x2="2.679" y2="2.295" xlink:href="#a"/><linearGradient id="g" x1="-1.702" y1="-2.091" x2="1.53" y2="1.713" xlink:href="#a"/></defs><g transform="translate(-3699.838 -696.57)"><path class="a" d="M3737.883,701.609a1.26,1.26,0,1,0,1.26,1.26A1.26,1.26,0,0,0,3737.883,701.609Z"/><path class="b" d="M3747.962,701.609h-5.04a1.26,1.26,0,0,0,0,2.52h5.04a1.26,1.26,0,0,0,0-2.52Z"/><path class="c" d="M3758.04,701.609H3753a1.26,1.26,0,0,0,0,2.52h5.04a1.26,1.26,0,0,0,0-2.52Z"/><path class="d" d="M3760.559,696.57h-56.942a3.784,3.784,0,0,0-3.779,3.779v56.942a3.783,3.783,0,0,0,3.779,3.779h56.942a3.783,3.783,0,0,0,3.779-3.779V700.349A3.784,3.784,0,0,0,3760.559,696.57Zm0,61.981h-56.942a1.26,1.26,0,0,1-1.26-1.26V709.17h59.461v48.121A1.261,1.261,0,0,1,3760.559,758.551Zm1.26-51.9h-59.461v-6.3a1.261,1.261,0,0,1,1.26-1.26h56.941a1.263,1.263,0,0,1,1.26,1.26Z"/><path class="e" d="M3754.764,714.963h-45.352a1.26,1.26,0,0,0-1.26,1.26v7.559a1.259,1.259,0,0,0,1.26,1.259h45.352a1.26,1.26,0,0,0,1.26-1.26v-7.558A1.26,1.26,0,0,0,3754.764,714.963Zm-1.26,7.558h-42.832v-5.039H3753.5Z"/><path class="f" d="M3724.529,730.458h-15.117a1.26,1.26,0,0,0-1.26,1.26v20.156a1.26,1.26,0,0,0,1.26,1.26h15.117a1.26,1.26,0,0,0,1.26-1.26V731.718A1.26,1.26,0,0,0,3724.529,730.458Zm-1.257,20.157h-12.6V732.978h12.6Z"/><path class="g" d="M3754.764,730.458h-22.712a1.261,1.261,0,0,0-1.224,1.26V751.9a1.26,1.26,0,0,0,1.259,1.238h22.676a1.26,1.26,0,0,0,1.259-1.238V731.718A1.264,1.264,0,0,0,3754.764,730.458Zm-3.313,2.52-8.025,7.133-8.025-7.133Zm-18.1,1.546,8.182,7.273-8.182,7.273Zm2.054,16.091,8.025-7.133,8.025,7.133Zm18.1-1.546-8.182-7.273,8.182-7.273Z"/></g></svg>