<svg xmlns="http://www.w3.org/2000/svg" xmlns:xlink="http://www.w3.org/1999/xlink" width="54.639" height="72.164" viewBox="0 0 54.639 72.164"><defs><style>.a{fill:url(#a);}.b{fill:url(#b);}.c{fill:url(#c);}.d{fill:url(#d);}</style><linearGradient id="a" x1="-0.792" y1="-0.866" x2="0.994" y2="1.233" gradientUnits="objectBoundingBox"><stop offset="0" stop-color="#0999f0"/><stop offset="1" stop-color="#48c7e2"/></linearGradient><linearGradient id="b" x1="-0.857" y1="-2.18" x2="1.981" y2="3.663" xlink:href="#a"/><linearGradient id="c" x1="-2.274" y1="-1.328" x2="4.1" y2="2.79" xlink:href="#a"/><linearGradient id="d" x1="-0.474" y1="-1.287" x2="1.784" y2="2.38" xlink:href="#a"/></defs><g transform="translate(-3922.845 -690.779)"><path class="a" d="M3971.517,725.535a11.25,11.25,0,0,1-13.151,1.141,5.961,5.961,0,0,1-9.639,0c-.056.04-.112.082-.166.125V710.524a5.969,5.969,0,0,0-11.938,0V752.61a10.344,10.344,0,0,0,10.332,10.333h20.2a10.344,10.344,0,0,0,10.332-10.333v-21.1A5.975,5.975,0,0,0,3971.517,725.535Zm3.674,27.078v0a8.045,8.045,0,0,1-8.036,8.036h-20.2a8.045,8.045,0,0,1-8.036-8.036V710.524a3.673,3.673,0,1,1,7.345,0V733.8a1.148,1.148,0,1,0,2.3,0v-2.3a3.673,3.673,0,1,1,7.346,0v2.3a1.148,1.148,0,0,0,2.3,0v-2.3a3.673,3.673,0,1,1,7.346,0v2.3a1.148,1.148,0,0,0,2.3,0v-2.3a3.672,3.672,0,1,1,7.345,0Z"/><path class="b" d="M3951.083,704.244a10.562,10.562,0,0,1,0,12.561,1.148,1.148,0,1,0,1.845,1.367,12.857,12.857,0,1,0-20.671,0,1.148,1.148,0,1,0,1.845-1.367,10.561,10.561,0,1,1,16.981-12.561Z"/><path class="c" d="M3933.76,725.584v-.008a17.533,17.533,0,0,1-8.619-15.055,17.279,17.279,0,0,1,3.684-10.714,1.149,1.149,0,1,0-1.813-1.412,19.748,19.748,0,0,0,5.584,29.167,1.148,1.148,0,0,0,1.163-1.978Z"/><path class="d" d="M3931.871,696.759v0a17.45,17.45,0,0,1,23.628,25.511,1.149,1.149,0,0,0,1.7,1.547,19.746,19.746,0,0,0-14.6-33.035,19.549,19.549,0,0,0-12.132,4.167,1.149,1.149,0,0,0,1.411,1.813Z"/></g></svg>