<svg xmlns="http://www.w3.org/2000/svg" xmlns:xlink="http://www.w3.org/1999/xlink" width="70.204" height="69.717" viewBox="0 0 70.204 69.717"><defs><style>.a{fill:url(#a);}.b{fill:url(#b);}.c{fill:url(#c);}.d{fill:url(#d);}.e{fill:url(#e);}.f{fill:url(#f);}.g{fill:url(#g);}.h{fill:url(#h);}.i{fill:url(#i);}.j{fill:url(#j);}.k{fill:url(#k);}.l{fill:url(#l);}.m{fill:url(#m);}</style><linearGradient id="a" x1="-0.332" y1="-9.947" x2="2.492" y2="25.504" gradientUnits="objectBoundingBox"><stop offset="0" stop-color="#9769f6"/><stop offset="1" stop-color="#c673f2"/></linearGradient><linearGradient id="b" x1="-0.423" y1="-11.091" x2="2.4" y2="24.359" xlink:href="#a"/><linearGradient id="c" x1="-0.514" y1="-12.243" x2="2.309" y2="23.225" xlink:href="#a"/><linearGradient id="d" x1="-3.253" y1="-14.978" x2="5.343" y2="20.473" xlink:href="#a"/><linearGradient id="e" x1="-3.73" y1="-16.944" x2="4.867" y2="18.507" xlink:href="#a"/><linearGradient id="f" x1="-4.207" y1="-18.91" x2="4.39" y2="16.541" xlink:href="#a"/><linearGradient id="g" x1="-0.058" y1="0.026" x2="0.906" y2="1.089" xlink:href="#a"/><linearGradient id="h" x1="-6.257" y1="-27.365" x2="2.339" y2="8.086" xlink:href="#a"/><linearGradient id="i" x1="-6.734" y1="-29.331" x2="1.863" y2="6.12" xlink:href="#a"/><linearGradient id="j" x1="-7.211" y1="-31.312" x2="1.386" y2="4.155" xlink:href="#a"/><linearGradient id="k" x1="-4.754" y1="-21.171" x2="3.841" y2="14.28" xlink:href="#a"/><linearGradient id="l" x1="-5.231" y1="-23.137" x2="3.364" y2="12.314" xlink:href="#a"/><linearGradient id="m" x1="-5.708" y1="-25.103" x2="2.888" y2="10.347" xlink:href="#a"/></defs><g transform="translate(-4023.688 -692.718)"><path class="a" d="M4069.73,697.735h-21.879a1.046,1.046,0,0,0,0,2.091h21.879a1.046,1.046,0,0,0,0-2.091Z"/><path class="b" d="M4047.851,704.215h21.879a1.046,1.046,0,0,0,0-2.091h-21.879a1.046,1.046,0,0,0,0,2.091Z"/><path class="c" d="M4047.851,708.6h21.879a1.045,1.045,0,0,0,0-2.09h-21.879a1.045,1.045,0,1,0,0,2.09Z"/><path class="d" d="M4029.89,742.863h5.783a1.046,1.046,0,0,0,0-2.091h-5.783a1.046,1.046,0,0,0,0,2.091Z"/><path class="e" d="M4029.89,750.4h5.783a1.046,1.046,0,0,0,0-2.091h-5.783a1.046,1.046,0,0,0,0,2.091Z"/><path class="f" d="M4029.89,757.94h5.783a1.046,1.046,0,0,0,0-2.091h-5.783a1.046,1.046,0,0,0,0,2.091Z"/><path class="g" d="M4092.847,742.057a1.046,1.046,0,0,0-1.046,1.045v15.326a1.918,1.918,0,0,1-1.916,1.916h-10.173a1.92,1.92,0,0,1-1.917-1.916V739.763a1.919,1.919,0,0,1,1.917-1.915h10.173a1.93,1.93,0,0,1,1.84,1.38,1.045,1.045,0,0,0,2-.59,4.03,4.03,0,0,0-3.844-2.881h-4.043V725.373a2.413,2.413,0,0,0-2.412-2.412h-23.6v-9.339h12.089a4.01,4.01,0,0,0,4.007-4.007v-12.89a4.011,4.011,0,0,0-4.007-4.007H4053.5a1.046,1.046,0,0,0,0,2.091h18.429a1.918,1.918,0,0,1,1.917,1.916v12.891a1.918,1.918,0,0,1-1.917,1.916h-26.269a1.917,1.917,0,0,1-1.916-1.916V696.725a1.917,1.917,0,0,1,1.916-1.916h3.663a1.046,1.046,0,0,0,0-2.091h-3.663a4.011,4.011,0,0,0-4.007,4.007v12.891a4.011,4.011,0,0,0,4.007,4.007h12.09v9.338h-23.6a2.414,2.414,0,0,0-2.413,2.412v10.384H4027.7a4.011,4.011,0,0,0-4.007,4.006v15.325a1.046,1.046,0,1,0,2.091,0V739.763a1.918,1.918,0,0,1,1.916-1.915h10.172a1.919,1.919,0,0,1,1.917,1.915v18.665a1.92,1.92,0,0,1-1.917,1.916H4027.7a1.932,1.932,0,0,1-1.84-1.383,1.047,1.047,0,0,0-2.008.592,4.034,4.034,0,0,0,3.845,2.881h10.175a4.012,4.012,0,0,0,4.008-4.007V739.763a4.011,4.011,0,0,0-4.008-4.006h-4.04V725.373a.322.322,0,0,1,.318-.318h23.6v10.7h-4.04a4.011,4.011,0,0,0-4.007,4.006v18.665a4.011,4.011,0,0,0,4.007,4.007h10.172a4.012,4.012,0,0,0,4.007-4.007V739.763a4.012,4.012,0,0,0-4.007-4.006h-4.041V725.051h23.595a.324.324,0,0,1,.319.319v10.387h-4.038a4.01,4.01,0,0,0-4.006,4.006v18.665a4.011,4.011,0,0,0,4.006,4.007h10.174a4.011,4.011,0,0,0,4.007-4.007V743.1A1.045,1.045,0,0,0,4092.847,742.057Zm-28.971-4.209a1.918,1.918,0,0,1,1.917,1.915v18.665a1.919,1.919,0,0,1-1.917,1.916H4053.7a1.918,1.918,0,0,1-1.916-1.916V739.763a1.918,1.918,0,0,1,1.916-1.915Z"/><path class="h" d="M4087.69,740.774h-5.783a1.046,1.046,0,0,0,0,2.091h5.783a1.046,1.046,0,0,0,0-2.091Z"/><path class="i" d="M4087.69,748.311h-5.783a1.046,1.046,0,0,0,0,2.091h5.783a1.046,1.046,0,0,0,0-2.091Z"/><path class="j" d="M4087.69,755.85h-5.783a1.045,1.045,0,0,0,0,2.09h5.783a1.045,1.045,0,1,0,0-2.09Z"/><path class="k" d="M4055.9,742.863h5.784a1.046,1.046,0,0,0,0-2.091H4055.9a1.046,1.046,0,0,0,0,2.091Z"/><path class="l" d="M4055.9,750.4h5.784a1.046,1.046,0,0,0,0-2.091H4055.9a1.046,1.046,0,0,0,0,2.091Z"/><path class="m" d="M4055.9,757.94h5.784a1.046,1.046,0,0,0,0-2.091H4055.9a1.046,1.046,0,0,0,0,2.091Z"/></g></svg>