<svg xmlns="http://www.w3.org/2000/svg" xmlns:xlink="http://www.w3.org/1999/xlink" width="75.948" height="69.968" viewBox="0 0 75.948 69.968"><defs><style>.a{fill:url(#a);}.b{fill:url(#b);}.c{fill:url(#c);}.d{fill:url(#d);}.e{fill:url(#e);}.f{fill:url(#f);}</style><linearGradient id="a" x1="-7.647" y1="-1.47" x2="21.85" y2="5.663" gradientUnits="objectBoundingBox"><stop offset="0" stop-color="#654ace"/><stop offset="1" stop-color="#9769f6"/></linearGradient><linearGradient id="b" x1="-2.449" y1="-2.864" x2="9.378" y2="10.63" xlink:href="#a"/><linearGradient id="c" x1="-3.931" y1="-4.552" x2="7.464" y2="8.44" xlink:href="#a"/><linearGradient id="d" x1="-0.078" y1="-0.372" x2="0.852" y2="1.322" xlink:href="#a"/><linearGradient id="e" x1="-16.155" y1="-9.876" x2="13.354" y2="8.508" xlink:href="#a"/><linearGradient id="f" x1="-22.266" y1="-13.687" x2="7.243" y2="4.702" xlink:href="#a"/></defs><g transform="translate(-3805.617 -692.718)"><path class="a" d="M3843.589,704.005a1.2,1.2,0,0,0,1.2-1.2v-8.9a1.2,1.2,0,0,0-2.393,0v8.9A1.2,1.2,0,0,0,3843.589,704.005Z"/><path class="b" d="M3833.216,707.088h0a1.2,1.2,0,0,0,1.691-1.693l-3.577-3.573a1.2,1.2,0,1,0-1.691,1.692Z"/><path class="c" d="M3852.9,707.673a1.191,1.191,0,0,0,.846-.35l3.8-3.806a1.2,1.2,0,0,0-1.693-1.691l-3.8,3.806a1.2,1.2,0,0,0,.847,2.041Z"/><path class="d" d="M3872.072,732.187h-1.813l.369-.481a7.238,7.238,0,0,0,1.51-4.444v-2.11a7.317,7.317,0,0,0-14.634,0v2.362l-11.758-11.758a1.944,1.944,0,0,0-2.053-.457l-.1.037-.1-.037a1.943,1.943,0,0,0-2.053.458l-11.758,11.757v-2.362a7.317,7.317,0,0,0-14.634,0v2.11a7.238,7.238,0,0,0,1.51,4.444l.369.481h-1.813a9.5,9.5,0,0,0-9.494,9.494V761.49a1.2,1.2,0,0,0,1.2,1.2h6.317a1.2,1.2,0,0,0,.344-.051l.086-.025.086.025a1.185,1.185,0,0,0,.344.051h16.744a1.2,1.2,0,0,0,1.2-1.2v-5.083a1.2,1.2,0,1,0-2.392,0v3.887h-14.352V742.96a1.2,1.2,0,0,0-2.392,0v17.334h-4.785V741.681a7.11,7.11,0,0,1,7.1-7.1h10.39a1.187,1.187,0,0,0,.844-.348l16.066-16.066-.025.757a16.793,16.793,0,0,1-2.859,8.838l-9.785,14.532a1.194,1.194,0,0,0-.2.668V744.6a1.2,1.2,0,1,0,2.392,0v-1.271l9.581-14.229a19.283,19.283,0,0,0,1.8-3.358l.277-.663.276.663a19.214,19.214,0,0,0,1.8,3.358l9.581,14.229V761.49a1.2,1.2,0,0,0,1.2,1.2h16.744a1.2,1.2,0,0,0,.345-.051l.085-.025.086.025a1.2,1.2,0,0,0,.344.051h6.316a1.2,1.2,0,0,0,1.2-1.2V741.681A9.5,9.5,0,0,0,3872.072,732.187Zm-44.785-4.925a4.925,4.925,0,0,1-9.85,0v-2.11a4.925,4.925,0,0,1,9.85,0Zm32.609-2.11a4.925,4.925,0,0,1,9.85,0v2.11a4.925,4.925,0,0,1-9.85,0Zm19.277,35.142h-4.784V748.932a1.2,1.2,0,1,0-2.392,0v11.362h-14.352V742.96a1.194,1.194,0,0,0-.2-.668l-9.785-14.532a16.788,16.788,0,0,1-2.859-8.838l-.025-.757,16.064,16.064a.324.324,0,0,0,.035.032,1.205,1.205,0,0,0,.81.319h10.391a7.108,7.108,0,0,1,7.1,7.1Z"/><path class="e" d="M3830.734,748.475a1.2,1.2,0,0,0-1.2,1.2v1.987a1.2,1.2,0,1,0,2.392,0v-1.987A1.2,1.2,0,0,0,3830.734,748.475Z"/><path class="f" d="M3873.194,740.739a1.2,1.2,0,0,0-1.2,1.2v1.986a1.2,1.2,0,1,0,2.392,0v-1.986A1.2,1.2,0,0,0,3873.194,740.739Z"/></g></svg>