<svg xmlns="http://www.w3.org/2000/svg" xmlns:xlink="http://www.w3.org/1999/xlink" width="76.402" height="67.449" viewBox="0 0 76.402 67.449"><defs><style>.a{fill:url(#a);}.b{fill:url(#b);}.c{fill:url(#c);}.d{fill:url(#d);}.e{fill:url(#e);}.f{fill:url(#f);}.g{fill:url(#g);}.h{fill:url(#h);}</style><linearGradient id="a" x1="-0.112" y1="-4.01" x2="3.983" y2="26.15" gradientUnits="objectBoundingBox"><stop offset="0" stop-color="#00e6ca"/><stop offset="1" stop-color="#48c7e2"/></linearGradient><linearGradient id="b" x1="0.14" y1="-0.029" x2="2.259" y2="2.501" xlink:href="#a"/><linearGradient id="c" x1="-0.248" y1="-5.013" x2="3.847" y2="25.16" xlink:href="#a"/><linearGradient id="d" x1="-2.739" y1="-23.364" x2="1.356" y2="6.809" xlink:href="#a"/><linearGradient id="e" x1="-0.337" y1="-0.696" x2="1.482" y2="1.546" xlink:href="#a"/><linearGradient id="f" x1="-2.603" y1="-22.353" x2="1.492" y2="7.807" xlink:href="#a"/><linearGradient id="g" x1="-1.129" y1="-1.545" x2="0.989" y2="0.986" xlink:href="#a"/><linearGradient id="h" x1="-0.438" y1="-0.492" x2="1.381" y2="1.751" xlink:href="#a"/></defs><g transform="translate(-4235.632 -696.871)"><path class="a" d="M4244.291,706.42h15.244a1.119,1.119,0,0,0,0-2.239h-15.244a1.119,1.119,0,1,0,0,2.239Z"/><path class="b" d="M4241.228,718.284h3.357a1.119,1.119,0,1,0,0-2.238h-3.357a3.36,3.36,0,0,1-3.357-3.357V702.467a3.36,3.36,0,0,1,3.357-3.357h22.6a3.36,3.36,0,0,1,3.357,3.357v10.222a3.36,3.36,0,0,1-3.357,3.357h-2.552a3.017,3.017,0,0,0-3.013,3.013v1.8l-3.512-3.832a3.019,3.019,0,0,0-2.221-.977h-3.472a1.119,1.119,0,1,0,0,2.238h3.472a.776.776,0,0,1,.571.252l4.026,4.392a1.943,1.943,0,0,0,3.375-1.313V719.06a.777.777,0,0,1,.776-.776h2.551a5.6,5.6,0,0,0,5.6-5.595V702.467a5.6,5.6,0,0,0-5.6-5.6h-22.6a5.6,5.6,0,0,0-5.6,5.6v10.222A5.6,5.6,0,0,0,4241.228,718.284Z"/><path class="c" d="M4244.291,711.18h15.244a1.119,1.119,0,0,0,0-2.238h-15.244a1.119,1.119,0,1,0,0,2.238Z"/><path class="d" d="M4288.131,751.941h15.245a1.119,1.119,0,1,0,0-2.238h-15.245a1.119,1.119,0,0,0,0,2.238Z"/><path class="e" d="M4310.915,715.588h-5.009V699.11h5.009a1.12,1.12,0,0,0,0-2.239h-10.023a4.339,4.339,0,0,0-3.64,1.991,5.921,5.921,0,0,0-4.426-1.991h-16.611a8.236,8.236,0,0,0-2.344,10.9,10.21,10.21,0,0,1-.949,7.377,3.563,3.563,0,0,0,3.536,3.571l7.283.1-.959,3.01a3.943,3.943,0,0,0,2.77,5.014l.042.011a3.948,3.948,0,0,0,4.056-1.335l7.713-9.525a4.33,4.33,0,0,0,3.529,1.83h10.023a1.12,1.12,0,0,0,0-2.239Zm-14.369-3.458a3.73,3.73,0,0,1-.824,2.337l-7.811,9.647a1.742,1.742,0,0,1-1.8.565,1.719,1.719,0,0,1-1.195-2.167l1.065-3.344a1.992,1.992,0,0,0-.28-1.761,1.948,1.948,0,0,0-1.566-.818l-7.651-.108h-.016a1.332,1.332,0,0,1,0-2.664h2.679a1.119,1.119,0,1,0,0-2.238h-2.725a1.332,1.332,0,0,1,0-2.664h2.725a1.119,1.119,0,1,0,0-2.238h-2.679a1.332,1.332,0,0,1,0-2.664h2.679a1.12,1.12,0,0,0,0-2.239h-2.931a1.332,1.332,0,0,1,0-2.663h16.611a3.749,3.749,0,0,1,3.72,3.771Zm7.122,3.458h-2.776a2.126,2.126,0,0,1-2.107-2.141v-12.2a2.126,2.126,0,0,1,2.107-2.141h2.776Z"/><path class="f" d="M4288.131,747.181h15.245a1.12,1.12,0,0,0,0-2.239h-15.245a1.12,1.12,0,0,0,0,2.239Z"/><path class="g" d="M4306.438,737.632h-22.6a5.6,5.6,0,0,0-5.6,5.6v3.117a1.12,1.12,0,0,0,2.239,0v-3.117a3.362,3.362,0,0,1,3.357-3.358h22.6a3.362,3.362,0,0,1,3.358,3.358v10.221a3.361,3.361,0,0,1-3.358,3.358h-11.305a3.022,3.022,0,0,0-2.222.977l-3.512,3.832v-1.8a3.018,3.018,0,0,0-3.014-3.013h-2.552a3.361,3.361,0,0,1-3.357-3.357v-3.131a1.119,1.119,0,0,0-2.238,0v3.131a5.6,5.6,0,0,0,5.6,5.595h2.552a.777.777,0,0,1,.776.776v2.555a1.943,1.943,0,0,0,3.375,1.312l4.025-4.391a.778.778,0,0,1,.572-.252h11.305a5.6,5.6,0,0,0,5.6-5.6V743.228A5.6,5.6,0,0,0,4306.438,737.632Z"/><path class="h" d="M4274.744,755.848h0a3.58,3.58,0,0,1,.046-4.9,3.579,3.579,0,0,1-.046-4.9,3.561,3.561,0,0,0-3.536-3.57l-7.282-.1.958-3.01a3.967,3.967,0,0,0-2.769-5.014l-.043-.011a3.951,3.951,0,0,0-4.056,1.335l-7.712,9.525a4.332,4.332,0,0,0-3.53-1.829h-10.023a1.119,1.119,0,1,0,0,2.238h5.009v16.479h-5.009a1.119,1.119,0,1,0,0,2.238h10.023a4.335,4.335,0,0,0,3.64-1.991,5.919,5.919,0,0,0,4.426,1.991h16.611a177.125,177.125,0,0,0,3.293-8.472Zm-25.862,4.093a2.127,2.127,0,0,1-2.108,2.141H4244V745.6h2.775a2.127,2.127,0,0,1,2.108,2.141Zm22.57,2.141H4254.84a3.75,3.75,0,0,1-3.72-3.772v-9.249a3.725,3.725,0,0,1,.825-2.337l7.811-9.646a1.71,1.71,0,0,1,1.762-.575l.038.01a1.716,1.716,0,0,1,1.195,2.167l-1.064,3.343a1.994,1.994,0,0,0,.279,1.761,1.949,1.949,0,0,0,1.567.818l7.666.109a1.332,1.332,0,0,1,0,2.664h-2.678a1.119,1.119,0,1,0,0,2.238h2.724a1.332,1.332,0,0,1,0,2.664h-2.724a1.12,1.12,0,1,0,0,2.239h2.678a1.332,1.332,0,0,1,0,2.664h-2.678a1.119,1.119,0,1,0,0,2.238h2.93a1.332,1.332,0,0,1,0,2.664Z"/></g></svg>