<svg xmlns="http://www.w3.org/2000/svg" xmlns:xlink="http://www.w3.org/1999/xlink" width="70.597" height="44.879" viewBox="0 0 70.597 44.879"><defs><style>.a{fill:url(#a);}.b{fill:url(#b);}.c{fill:url(#c);}</style><linearGradient id="a" x1="0.133" y1="0.108" x2="0.789" y2="0.811" gradientUnits="objectBoundingBox"><stop offset="0" stop-color="#1681e3"/><stop offset="1" stop-color="#09a7fe"/></linearGradient><linearGradient id="b" x1="-0.418" y1="-0.126" x2="1.224" y2="0.994" xlink:href="#a"/><linearGradient id="c" x1="-1.805" y1="-1.072" x2="2.319" y2="1.741" xlink:href="#a"/></defs><g transform="translate(-4136.712 -705.287)"><path class="a" d="M4207.076,727.115c-7.483-10.482-21.624-21.784-34.992-21.828s-27.582,11.164-35.134,21.6a1.239,1.239,0,0,0-.005,1.453c12.264,17.181,27.765,21.805,34.992,21.829,13.366.044,27.582-11.165,35.135-21.6A1.242,1.242,0,0,0,4207.076,727.115Zm-3.007,1.263c-3.664,4.54-16.811,19.349-32.124,19.3-15.341-.051-28.37-14.945-32-19.509l-.436-.549.441-.545c3.663-4.54,16.8-19.349,32.124-19.3,15.339.05,28.368,14.945,32,19.508l.436.55Z"/><path class="b" d="M4172.011,713.64a14.086,14.086,0,1,0,14.086,14.086A14.1,14.1,0,0,0,4172.011,713.64Zm0,25.434a11.347,11.347,0,1,1,11.346-11.348A11.361,11.361,0,0,1,4172.011,739.074Z"/><path class="c" d="M4172.011,722.118a5.609,5.609,0,1,0,5.608,5.608A5.616,5.616,0,0,0,4172.011,722.118Zm0,8.478a2.87,2.87,0,1,1,2.869-2.87A2.873,2.873,0,0,1,4172.011,730.6Z"/></g></svg>