<svg xmlns="http://www.w3.org/2000/svg" xmlns:xlink="http://www.w3.org/1999/xlink" width="306.132" height="286.841" viewBox="0 0 306.132 286.841"><defs><style>.a{fill:rgba(9,153,240,0.04);}.b{fill:#02539a;}.b,.c,.d{fill-rule:evenodd;}.c{fill:rgba(69,209,253,0.85);}.d{fill:#45d1fd;}.e,.m{fill:none;stroke-miterlimit:10;}.e{stroke:#b8b9ba;stroke-width:1.5px;stroke-dasharray:12;}.f{fill:#001738;}.g{fill:#001d46;}.h{fill:#2b5998;}.i{fill:#48c7e2;}.j{fill:url(#a);}.k{fill:#fff;}.l{fill:#1680d5;}.m{stroke:#0999f0;stroke-width:3px;}.n{fill:#d0d2d6;}.n,.p{isolation:isolate;}.o{fill:url(#b);}.q{fill:#8b8b8d;}</style><linearGradient id="a" y1="0.5" x2="1" y2="0.5" gradientUnits="objectBoundingBox"><stop offset="0" stop-color="#09a7fe"/><stop offset="1" stop-color="#1783e3"/></linearGradient><linearGradient id="b" x1="0.4" y1="-3.263" x2="1.084" y2="10.747" xlink:href="#a"/></defs><path class="a" d="M227.906,114.366c5.5,21.39,10.267,46-5.145,63.455-15.193,17.21-38.815,26.915-65.769,25.078-27.55-1.443-35.141-8.792-60.019-10.593A204.456,204.456,0,0,0,68,192.571c-17.2.9-35.972,1.42-49.848-7.381C3.133,175.666-1.536,157.681.423,141.618c4.672-38.3,44.5-57.737,76.55-84.535,19.264-16.109,41.508-47.738,66.98-54.836,32.139-8.956,56.336,10.341,64.644,31.741C218.3,58.984,211.626,75.809,227.906,114.366Z" transform="matrix(0.891, -0.454, 0.454, 0.891, 0, 105.86)"/><g transform="translate(7.366 45.845)"><g transform="translate(74.886)"><path class="b" d="M5982.941-1652.919l-18.542-18.42,10.248-10.426,28.9,28.846Z" transform="translate(-5948.263 1721.438)"/><path class="c" d="M5963.792-1684.465l18.376-18.376h20.659l-28.588,28.588Z" transform="translate(-5947.884 1734.578)"/><path class="d" d="M5921.543-1753.044l10.434,10.426,44.511-44.51h-20.767Z" transform="translate(-5921.543 1787.128)"/></g><g transform="translate(67.98 77.283)"><line class="e" x1="20.806" y2="11.402"/><line class="e" x2="20.806" y2="11.402" transform="translate(78.574)"/><line class="e" y2="22.891" transform="translate(50.997 15.686)"/></g><g transform="translate(185.922 37.474)"><rect class="f" width="92.874" height="60.501" rx="13.55" transform="translate(9.609)"/><path d="M6197.655-1465.9v2.685c0,.836.481,1.514,1.074,1.514h110.7c.593,0,1.073-.678,1.073-1.514v-2.33c0-.828-.472-1.5-1.059-1.514l-109.91-2.139C6198.931-1469.212,6197.655-1466.747,6197.655-1465.9Z" transform="translate(-6197.655 1551.437)"/><rect class="f" width="92.874" height="60.501" rx="27.227" transform="translate(9.609)"/><path class="g" d="M6206.369-1522.015l-7.949,19.177c-.008.018-.015.034-.023.051-.182.378-2.494,5.35,2.1,5.35h108.065a1,1,0,0,0,.237-.028c.545-.13,2.473-.79,1.355-3.455-1.293-3.085-8.657-20.7-8.657-20.7s-.7-2.09-5.373-2.09h-84.446l-.071,0C6211.2-1523.737,6207.175-1523.961,6206.369-1522.015Z" transform="translate(-6197.654 1585.435)"/><path class="h" d="M6291.207-1488.134l-3.159,7.621s-1.065,2.132.829,2.132h42.92s1.106-.158.593-1.382-3.436-8.213-3.436-8.213-.276-.829-2.132-.829H6293.3S6291.544-1488.947,6291.207-1488.134Z" transform="translate(-6253.826 1563.666)"/><rect class="i" width="88.134" height="56.285" rx="7.455" transform="translate(11.979 2.108)"/><path class="h" d="M6235.782-1517.52l-.6,1.454a.435.435,0,0,0,.373.613h83.088a.432.432,0,0,0,.387-.57l-.435-1.453a.411.411,0,0,0-.388-.3h-82.056A.406.406,0,0,0,6235.782-1517.52Z" transform="translate(-6221.032 1581.725)"/><g transform="translate(19.994 6.99)"><path class="j" d="M6322.134-1665.785a3.256,3.256,0,0,0-3.255-3.256h-64.869a3.256,3.256,0,0,0-3.255,3.256v2.474h71.38Z" transform="translate(-6250.754 1669.041)"/><path class="k" d="M6250.754-1653.824v37.262a3.255,3.255,0,0,0,3.255,3.256h64.869a3.255,3.255,0,0,0,3.255-3.256v-37.262Z" transform="translate(-6250.754 1659.553)"/><g transform="translate(2.968 1.894)"><ellipse class="k" cx="0.971" cy="0.971" rx="0.971" ry="0.971"/><ellipse class="k" cx="0.971" cy="0.971" rx="0.971" ry="0.971" transform="translate(2.79)"/><ellipse class="k" cx="0.971" cy="0.971" rx="0.971" ry="0.971" transform="translate(5.58)"/></g></g><rect class="l" width="71.38" height="4.739" transform="translate(19.994 12.72)"/><path class="m" d="M6323.359-1600.128v-32.558h35.694v32.558" transform="translate(-6276.027 1653.365)"/><rect class="n" width="19.537" height="8.499" transform="translate(23.932 22.533)"/><rect class="n" width="19.537" height="8.499" transform="translate(23.932 32.268)"/><rect class="n" width="19.537" height="8.499" transform="translate(23.932 42.003)"/><ellipse class="k" cx="1.275" cy="1.275" rx="1.275" ry="1.275" transform="translate(83.232 13.814)"/><ellipse class="k" cx="1.275" cy="1.275" rx="1.275" ry="1.275" transform="translate(87.198 13.814)"/></g><g transform="translate(72.063 130.069)"><rect class="f" width="90.64" height="65.17" rx="13.904"/><path class="k" d="M5901.153-1360.413a4.56,4.56,0,0,0,4.56,4.56H5982.8a4.56,4.56,0,0,0,4.56-4.56v-44.531h-86.208Z" transform="translate(-5898.937 1418.781)"/><rect class="l" width="86.208" height="5.601" transform="translate(2.216 8.235)"/><path class="o" d="M5987.36-1431.176a4.56,4.56,0,0,0-4.56-4.56h-77.087a4.56,4.56,0,0,0-4.56,4.56v1.433h86.208Z" transform="translate(-5898.937 1437.978)"/><g transform="translate(6.684 4.268)"><ellipse class="k" cx="0.971" cy="0.971" rx="0.971" ry="0.971"/><ellipse class="k" cx="0.971" cy="0.971" rx="0.971" ry="0.971" transform="translate(2.79)"/><ellipse class="k" cx="0.971" cy="0.971" rx="0.971" ry="0.971" transform="translate(5.58)"/></g><g transform="translate(80.276 9.761)"><ellipse class="k" cx="1.275" cy="1.275" rx="1.275" ry="1.275"/><ellipse class="k" cx="1.275" cy="1.275" rx="1.275" ry="1.275" transform="translate(3.966)"/></g><rect class="n" width="26.382" height="11.477" transform="translate(9.475 19.498)"/><rect class="n" width="26.382" height="11.477" transform="translate(9.475 32.644)"/><rect class="n" width="26.382" height="11.477" transform="translate(9.475 45.79)"/><path class="m" d="M6015.627-1346.479v-43.43h35.694v43.43" transform="translate(-5970.307 1409.406)"/></g><g transform="translate(0 39.061)"><g class="p" transform="translate(3.983 75.857)"><path class="q" d="M5715.193-1471.516a.734.734,0,0,0-.734.734v3.428a.734.734,0,0,0,.734.734.734.734,0,0,0,.734-.734v-3.428A.734.734,0,0,0,5715.193-1471.516Z" transform="translate(-5714.459 1475.436)"/><path class="q" d="M5737.3-1471.516a.735.735,0,0,0-.735.734v3.428a.735.735,0,0,0,.735.734.734.734,0,0,0,.734-.734v-3.428A.734.734,0,0,0,5737.3-1471.516Z" transform="translate(-5728.242 1475.436)"/><path class="q" d="M5725.292-1471.516h-5.386a.245.245,0,0,0-.245.245v3.917a1.225,1.225,0,0,0,.979,1.2v1.738a.735.735,0,0,0,.734.735.735.735,0,0,0,.734-.735v-1.714h.979v1.714a.735.735,0,0,0,.734.735.735.735,0,0,0,.734-.735v-1.738a1.225,1.225,0,0,0,.979-1.2v-3.917A.245.245,0,0,0,5725.292-1471.516Z" transform="translate(-5717.702 1475.436)"/><path class="q" d="M5724.379-1480.91l.6-.6a.245.245,0,0,0,.006-.346.245.245,0,0,0-.346-.006l-.006.006-.7.7a3.35,3.35,0,0,0-2.67,0l-.7-.7a.244.244,0,0,0-.346.006.244.244,0,0,0,0,.34l.6.6a2.582,2.582,0,0,0-1.158,2.168.245.245,0,0,0,.245.245h5.386a.245.245,0,0,0,.245-.245A2.584,2.584,0,0,0,5724.379-1480.91Zm-3,1.434a.245.245,0,0,1-.245-.245.245.245,0,0,1,.245-.245.245.245,0,0,1,.245.245A.245.245,0,0,1,5721.375-1479.476Zm2.448,0a.245.245,0,0,1-.245-.245.245.245,0,0,1,.245-.245.245.245,0,0,1,.246.245A.245.245,0,0,1,5723.823-1479.476Z" transform="translate(-5717.702 1481.927)"/></g><g class="p" transform="translate(25.207 75.857)"><path class="q" d="M5774.022-1465.693c-1.75-.01-3.2-3.58-3.2-5.4,0-2.97,2.229-3.62,3.087-3.62a3.554,3.554,0,0,1,1.164.286,2.613,2.613,0,0,0,.665.191,2.053,2.053,0,0,0,.478-.154,3.823,3.823,0,0,1,1.438-.348h0a2.949,2.949,0,0,1,2.467,1.246l.179.27-.259.2a2.18,2.18,0,0,0-1.044,1.8,2.028,2.028,0,0,0,1.132,1.875c.162.1.329.2.329.418,0,.144-1.146,3.226-2.81,3.226a2.251,2.251,0,0,1-.948-.23,1.926,1.926,0,0,0-.845-.2,2.168,2.168,0,0,0-.669.181,3.274,3.274,0,0,1-1.16.27Z" transform="translate(-5770.826 1477.444)"/><path class="q" d="M5785.782-1481.927a2.315,2.315,0,0,1-2.19,2.579A2.49,2.49,0,0,1,5785.782-1481.927Z" transform="translate(-5778.774 1481.927)"/></g><path class="f" d="M5736.907-1683.389h-28.7a4.336,4.336,0,0,0-4.322,4.323v59.615a4.336,4.336,0,0,0,4.322,4.323h28.7a4.337,4.337,0,0,0,4.323-4.323v-59.615A4.337,4.337,0,0,0,5736.907-1683.389Z" transform="translate(-5703.881 1683.389)"/><path class="f" d="M5749.273-1678.019l-.63,2.394h-8.756l-.561-2.394Z" transform="translate(-5725.98 1680.041)"/><g transform="translate(2.022 2.019)"><path class="k" d="M5742.557-1675.725a2.307,2.307,0,0,0-2.3-2.3h-6.962l-1.035,3.679a1.016,1.016,0,0,1-.974.74h-10.9a1.01,1.01,0,0,1-.98-.766l-.914-3.65h-6.938a2.308,2.308,0,0,0-2.3,2.3v3.668h33.305Z" transform="translate(-5709.252 1678.026)"/><path class="k" d="M5709.252-1590.425a2.308,2.308,0,0,0,2.3,2.3h28.7a2.31,2.31,0,0,0,2.3-2.3h0v-46.408h-33.305Z" transform="translate(-5709.252 1652.344)"/><rect class="j" width="33.305" height="4.413" transform="translate(0 5.972)"/><rect class="l" width="33.305" height="5.125" transform="translate(0 10.386)"/></g><g transform="translate(26.273 13.692)"><ellipse class="k" cx="1.275" cy="1.275" rx="1.275" ry="1.275"/><ellipse class="k" cx="1.275" cy="1.275" rx="1.275" ry="1.275" transform="translate(3.966)"/></g><rect class="m" width="24.848" height="32.229" transform="translate(6.275 20.609)"/><rect class="n" width="26.382" height="10.139" transform="translate(5.509 56.101)"/></g></g></svg>