<svg xmlns="http://www.w3.org/2000/svg" xmlns:xlink="http://www.w3.org/1999/xlink" width="485.394" height="478.174" viewBox="0 0 485.394 478.174"><defs><style>.a{opacity:0.554;fill:url(#a);}</style><linearGradient id="a" x1="0.5" y1="1" x2="0.5" gradientUnits="objectBoundingBox"><stop offset="0" stop-color="#1e6ac5"/><stop offset="1" stop-color="#1783e3"/></linearGradient></defs><path class="a" d="M291.912,157.145c-7.5,8.929-16.668,16.408-23.563,25.81-19.849,27.064-17.268,63.88-25.46,96.425a144.564,144.564,0,0,1-34.951,63.686c-7.689,8.135-16.46,15.449-26.649,20.084-10.468,4.762-22.042,6.532-33.507,7.441a167.012,167.012,0,0,1-36.054-.637,128.356,128.356,0,0,1-85.859-52.01C3.5,286.538-3.438,245.847,1.52,207.609S22.5,133.3,42.547,100.362C58.466,74.2,77.3,49.352,101.464,30.539S155.594-.729,186.207.033C206.921.548,227,6.972,246.516,13.923c29.758,10.6,51.14,22.326,61.206,52.9C317.715,97.169,312.719,132.362,291.912,157.145Z" transform="matrix(-0.643, -0.766, 0.766, -0.643, 200.992, 478.175)"/></svg>