<svg xmlns="http://www.w3.org/2000/svg" xmlns:xlink="http://www.w3.org/1999/xlink" width="655.676" height="1085.161" viewBox="0 0 655.676 1085.161"><defs><style>.a{fill:url(#a);}</style><linearGradient id="a" x1="0.004" y1="0.934" x2="1.002" y2="0.061" gradientUnits="objectBoundingBox"><stop offset="0" stop-color="#492bb2"/><stop offset="1" stop-color="#915dfd"/></linearGradient></defs><path class="a" d="M14030.82,1302.963c-5.426-.936-10.85-1.9-16.287-2.785-.27-.043-.547-.073-.822-.094l-3.189-.365c-21.416-4.127-42.9-7.33-64.662-8.433-.135-.011-.26-.02-.375-.027-7.119-.427-14.488-.434-14.49-.434-6.322-.2-12.66-.078-18.984.106-4.4.128-8.783.537-13.168.894-3.834.312-7.662.7-11.488,1.1-3.2.335-6.393.722-9.586,1.107-4.479.54-8.961,1.065-13.43,1.661-4.275.571-8.533,1.239-12.8,1.839-4.117.578-8.236,1.119-12.354,1.69q-6.577.914-13.15,1.853l-3.973.56h0l-5.768.714c-1.83.1-3.676.494-5.508.707-3.312.383-6.617.8-9.932,1.16s-6.633.7-9.953,1.005c-4.656.424-9.309.843-13.967,1.192-9.615.72-19.25.851-28.883.64-4.826-.106-9.648-.547-14.471-.838-.234-.014-9.84-.98-14.3-1.923-7.529-1.591-14.994-3.455-22.473-5.236-2.355-.56-4.662-1.308-7.029-1.8-1.076-.224-9.846-2.469-13.371-3.268-6.7-1.519-13.395-3.076-20.137-4.437q-7.7-1.553-15.5-2.636c-6.172-.85-12.367-1.6-18.578-2.115a160.707,160.707,0,0,0-24.16-.2c-4.389.3-8.787.568-13.148,1.074-4.551.528-9.094,1.2-13.59,2.033-6.035,1.118-12.025,2.431-18.025,3.7-4.855,1.024-9.682,2.165-14.547,3.142-4.715.946-9.459,1.787-14.2,2.6-4.436.764-8.875,1.5-13.334,2.131-3.877.549-7.777.977-11.676,1.378-5.271.541-10.543,1.07-15.824,1.483-4.35.339-8.709.642-13.07.715-10.34.173-20.684.242-31.027.273-6.932.021-13.85-.452-20.764-.809-4.514-.233-9.031-.414-13.539-.732-6.266-.442-12.525-1-18.789-1.491-1.207-.1-2.7-.237-4.057-.313v4.142c0,20.734.283,41.193.279,61.927h-.264v257.376l.4,726.221q3.577.614,7.158,1.229c5.43.936,10.852,1.9,16.289,2.784.271.044.545.075.822.095l3.191.365c21.414,4.127,42.9,7.33,64.66,8.432.133.011.26.02.375.027,7.121.427,14.488.434,14.49.434,6.322.2,12.66.078,18.984-.106,4.4-.127,8.783-.536,13.168-.893,3.836-.312,7.662-.7,11.488-1.1,3.2-.335,6.395-.722,9.588-1.107,4.479-.54,8.959-1.065,13.426-1.662,4.279-.571,8.535-1.238,12.809-1.839,4.111-.579,8.23-1.118,12.348-1.69,4.387-.609,8.77-1.235,13.152-1.853,1.326-.187.564-.1,1.889-.283l2.086-.278,5.764-.714c1.832-.1,3.678-.495,5.512-.706,3.313-.384,6.615-.8,9.932-1.161s6.633-.7,9.953-1c4.654-.424,9.311-.843,13.965-1.193,9.615-.719,19.25-.85,28.883-.639,4.828.105,24.313,1.818,28.773,2.761,7.531,1.591,14.992,3.454,22.477,5.236,2.352.56,4.658,1.308,7.025,1.8,1.08.224,9.844,2.469,13.371,3.268,6.7,1.52,13.4,3.077,20.137,4.437q7.7,1.553,15.5,2.636c6.168.85,12.365,1.6,18.578,2.115a160.752,160.752,0,0,0,24.156.2c4.391-.3,8.787-.568,13.146-1.074q6.832-.791,13.594-2.033c6.033-1.117,12.027-2.43,18.023-3.7,4.855-1.024,9.682-2.165,14.549-3.141,4.713-.947,9.455-1.787,14.2-2.6,4.436-.764,8.875-1.5,13.332-2.132,3.881-.549,7.779-.977,11.68-1.377,5.27-.541,10.543-1.071,15.822-1.483,4.35-.341,8.709-.642,13.07-.715,10.342-.174,20.686-.242,31.027-.273,6.932-.021,13.848.453,20.764.81,4.514.233,9.033.413,13.537.732,6.268.443,12.527,1,18.791,1.491,1.207.1,2.42.14,3.773.216l-.4-726.673q0-31.1,0-62.2h.268V1304.193Z" transform="translate(-13382.434 -1284.241)"/></svg>