<svg xmlns="http://www.w3.org/2000/svg" width="221.268" height="450.628" viewBox="0 0 221.268 450.628"><defs><style>.a{fill:rgba(101,74,206,0.04);}</style></defs><path class="a" d="M183.024,4.1C163.372,3.429,143.216-1,123.627.209c-36.6,2.264-72.345,17.334-95.9,46.018A124.258,124.258,0,0,0,2.329,148.139c5.7,28.216,21.048,53.372,32.178,79.919C50.339,265.82,57.649,306.524,69.8,345.626c8.543,27.492,20.705,55.794,44.367,72.194,12.169,8.435,26.515,13.069,40.709,17.279,21.786,6.462,43.948,12.216,66.392,15.53V4.7C208.518,4.6,195.767,4.539,183.024,4.1Z" transform="translate(221.268 450.628) rotate(-180)"/></svg>