<svg xmlns="http://www.w3.org/2000/svg" xmlns:xlink="http://www.w3.org/1999/xlink" width="434.961" height="754.99" viewBox="0 0 434.961 754.99"><defs><style>.a{fill:url(#a);}</style><linearGradient id="a" x1="0.004" y1="0.934" x2="1.002" y2="0.061" gradientUnits="objectBoundingBox"><stop offset="0" stop-color="#492bb2"/><stop offset="1" stop-color="#915dfd"/></linearGradient></defs><path class="a" d="M13812.56,1297.266c-3.6-.651-7.2-1.322-10.806-1.938-.178-.03-.362-.051-.545-.065l-2.116-.254a295.685,295.685,0,0,0-42.9-5.867c-.089-.007-.172-.014-.248-.019-4.723-.3-9.611-.3-9.613-.3-4.193-.138-8.4-.054-12.594.073-2.916.089-5.826.374-8.735.622-2.543.217-5.082.489-7.62.768-2.123.233-4.241.5-6.359.77-2.972.376-5.944.741-8.909,1.156-2.836.4-5.661.862-8.493,1.28-2.73.4-5.464.779-8.194,1.176-2.909.424-5.816.859-8.725,1.289l-2.635.39h0l-3.826.5c-1.214.073-2.438.344-3.654.492-2.2.267-4.39.555-6.588.807s-4.4.489-6.6.7c-3.088.295-6.175.587-9.265.829a189.2,189.2,0,0,1-19.16.445c-3.2-.074-6.4-.38-9.6-.583-.155-.01-6.527-.682-9.488-1.338-5-1.107-9.947-2.4-14.908-3.643-1.562-.39-3.092-.91-4.662-1.253-.715-.156-6.532-1.718-8.87-2.274-4.445-1.057-8.887-2.14-13.358-3.087q-5.106-1.08-10.283-1.834c-4.094-.592-8.2-1.115-12.324-1.472a101.667,101.667,0,0,0-16.027-.142c-2.911.208-5.828.4-8.722.747-3.02.367-6.032.835-9.016,1.414-4,.778-7.978,1.691-11.958,2.572-3.221.713-6.422,1.506-9.649,2.186-3.128.658-6.274,1.243-9.423,1.812-2.942.531-5.887,1.044-8.845,1.483-2.572.382-5.159.68-7.746.959-3.5.376-6.993.745-10.5,1.032-2.885.236-5.777.446-8.67.5-6.86.121-13.722.168-20.583.19-4.6.014-9.187-.315-13.774-.563-2.994-.162-5.991-.288-8.981-.509-4.156-.307-8.31-.693-12.464-1.037-.8-.067-1.793-.165-2.691-.218v2.882c0,14.425.188,28.66.186,43.086h-.176v179.067l.264,505.261q2.373.428,4.748.855c3.6.651,7.2,1.322,10.807,1.937.18.031.361.052.545.066l2.117.254a295.533,295.533,0,0,0,42.895,5.866c.088.008.172.014.248.019,4.725.3,9.611.3,9.613.3,4.193.138,8.4.054,12.594-.074,2.916-.089,5.826-.373,8.734-.621,2.545-.217,5.084-.49,7.621-.767,2.123-.233,4.242-.5,6.361-.77,2.971-.376,5.943-.741,8.906-1.156,2.838-.4,5.662-.861,8.5-1.28,2.729-.4,5.461-.778,8.191-1.176,2.91-.424,5.818-.859,8.725-1.289.881-.13.375-.067,1.253-.2l1.384-.193,3.824-.5c1.215-.072,2.439-.344,3.656-.491,2.2-.267,4.389-.556,6.588-.808s4.4-.489,6.6-.7c3.088-.295,6.176-.587,9.264-.83a189.16,189.16,0,0,1,19.16-.445c3.2.073,16.129,1.265,19.088,1.921,5,1.107,9.945,2.4,14.91,3.642,1.561.39,3.09.91,4.66,1.253.717.156,6.531,1.718,8.871,2.273,4.445,1.057,8.887,2.141,13.357,3.087q5.106,1.081,10.285,1.834c4.092.592,8.2,1.115,12.324,1.471a101.7,101.7,0,0,0,16.025.142c2.912-.208,5.828-.395,8.721-.747q4.532-.551,9.018-1.414c4-.777,7.979-1.691,11.957-2.572,3.221-.713,6.422-1.506,9.65-2.185,3.127-.659,6.273-1.243,9.422-1.812,2.941-.532,5.887-1.045,8.844-1.483,2.574-.382,5.16-.68,7.748-.958,3.5-.376,6.994-.745,10.5-1.032,2.885-.237,5.777-.447,8.67-.5,6.861-.121,13.723-.169,20.584-.19,4.6-.014,9.186.315,13.773.563,2.994.162,5.992.288,8.98.509,4.158.308,8.311.693,12.465,1.038.8.067,1.605.1,2.5.15l-.263-505.575q0-21.638,0-43.276h.178V1298.122Z" transform="translate(-13382.434 -1284.24)"/></svg>