<svg xmlns="http://www.w3.org/2000/svg" width="385.363" height="494.708" viewBox="0 0 385.363 494.708"><defs><style>.a{fill:rgba(101,74,206,0.04);}</style></defs><path class="a" d="M180.393,440.109c-19.37.664-39.235,5.032-58.542,3.838-36.074-2.232-71.305-17.085-94.525-45.357A122.474,122.474,0,0,1,2.3,298.142c5.614-27.811,20.746-52.605,31.716-78.771,15.6-37.219,22.809-77.338,34.786-115.878C77.218,76.4,89.205,48.5,112.527,32.337c11.994-8.314,26.133-12.881,40.124-17.03C174.124,8.938,195.967,3.266,218.089,0V439.521C205.522,439.617,192.954,439.679,180.393,440.109Z" transform="translate(187.707) rotate(25)"/></svg>