<svg xmlns="http://www.w3.org/2000/svg" width="246.357" height="344.777" viewBox="0 0 246.357 344.777"><defs><style>.a{fill:rgba(101,74,206,0.04);}</style></defs><path class="a" d="M126.682,2.84c-13.6-.466-27.553-3.534-41.112-2.7C60.237,1.712,35.5,12.143,19.19,32a86.008,86.008,0,0,0-17.578,70.54c3.943,19.53,14.569,36.942,22.272,55.317C34.843,183.991,39.9,212.165,48.313,239.23c5.914,19.029,14.331,38.618,30.709,49.97,8.423,5.838,18.352,9.046,28.177,11.96,15.08,4.473,30.419,8.455,45.955,10.749V3.253C144.328,3.185,135.5,3.142,126.682,2.84Z" transform="matrix(-0.946, 0.326, -0.326, -0.946, 246.357, 294.915)"/></svg>