<svg xmlns="http://www.w3.org/2000/svg" width="110.01" height="224.043" viewBox="0 0 110.01 224.043"><defs><style>.a{fill:rgba(101,74,206,0.04);}</style></defs><path class="a" d="M13178.98-216.234c-9.771-.335-19.792-2.538-29.531-1.936-18.2,1.126-35.968,8.618-47.681,22.879a61.782,61.782,0,0,0-12.626,50.669c2.832,14.029,10.465,26.536,16,39.734,7.871,18.774,11.506,39.012,17.547,58.452,4.247,13.669,10.295,27.74,22.06,35.893,6.049,4.194,13.182,6.5,20.239,8.591a239.986,239.986,0,0,0,33.008,7.721V-215.938C13191.656-215.986,13185.316-216.017,13178.98-216.234Z" transform="translate(-13087.984 218.274)"/></svg>