<svg xmlns="http://www.w3.org/2000/svg" xmlns:xlink="http://www.w3.org/1999/xlink" width="229.193" height="1044.874" viewBox="0 0 229.193 1044.874"><defs><style>.a{stroke:rgba(0,0,0,0);stroke-miterlimit:10;fill:url(#a);}</style><linearGradient id="a" x1="10.498" y1="-3.395" x2="11.553" y2="-5.796" gradientUnits="objectBoundingBox"><stop offset="0" stop-color="#29218c" stop-opacity="0.902"/><stop offset="1" stop-color="#003b9a" stop-opacity="0.4"/></linearGradient></defs><path class="a" d="M-11663.405,5825.648h0v0c-15.983-20.078-31.54-41.447-46.239-63.513a951.1,951.1,0,0,1-51.257-86.5c-39.54-75.684-66.827-153.453-81.1-231.149-4.146-22.562-7.232-45.416-9.171-67.929a691.974,691.974,0,0,1-2.45-71.309,681.672,681.672,0,0,1,5.409-74.353c1.631-12.711,3.652-25.567,6.009-38.211,2.407-12.922,5.233-25.992,8.4-38.846,3.236-13.133,6.915-26.4,10.936-39.437,4.1-13.3,8.682-26.756,13.611-39.987,5.023-13.481,10.552-27.106,16.431-40.494,5.987-13.635,12.512-27.416,19.393-40.959,7-13.784,14.572-27.707,22.5-41.382,8.069-13.922,16.73-27.973,25.743-41.762,9.175-14.035,18.977-28.2,29.132-42.1,10.337-14.147,21.327-28.412,32.664-42.4Zm37.431-1043.148h-.945l.223-.25.224-.25.5.5Z" transform="translate(11854.233 -4781.274)"/></svg>