<svg xmlns="http://www.w3.org/2000/svg" width="97.498" height="113.088" viewBox="0 0 97.498 113.088"><defs><style>.a{fill:#fff;}</style></defs><g transform="translate(20.244)"><path class="a" d="M184.092,87.151v-.7a6.371,6.371,0,0,0-6.364-6.365H167.266V48.976a8.621,8.621,0,0,0,0-16.912V1.68A1.68,1.68,0,0,0,165.586,0c-.178,0-.356,0-.533,0h-.028A38.465,38.465,0,0,0,146.285,5.2a39.171,39.171,0,0,0-13.564,13.187,1.679,1.679,0,0,0,2.855,1.77A35.193,35.193,0,0,1,163.907,3.4V32.064a8.621,8.621,0,0,0,0,16.912V80.09h-9.119a4.366,4.366,0,0,1-4.347-4.368,8.844,8.844,0,0,0-4.024-7.455,35.229,35.229,0,0,1-13.406-43.132,1.68,1.68,0,0,0-3.1-1.3,38.587,38.587,0,0,0,14.677,47.246,5.5,5.5,0,0,1,2.493,4.637,7.678,7.678,0,0,0,2.263,5.465c.076.076.153.148.231.22a6.356,6.356,0,0,0-2.494,5.048v.7a6.347,6.347,0,0,0,2.062,4.685,6.349,6.349,0,0,0-2.062,4.685v.7a6.372,6.372,0,0,0,6.364,6.364h1.082a11.185,11.185,0,0,0,22.117,0h1.082a6.372,6.372,0,0,0,6.365-6.364v-.7a6.347,6.347,0,0,0-2.062-4.685A6.346,6.346,0,0,0,184.092,87.151ZM167.266,35.534a5.261,5.261,0,0,1,0,9.972Zm-3.359,9.972a5.261,5.261,0,0,1,0-9.972Zm1.681,64.223a7.838,7.838,0,0,1-7.642-6.146H173.23A7.838,7.838,0,0,1,165.588,109.728Zm15.146-22.578a3.009,3.009,0,0,1-3.006,3.005H173.77a1.68,1.68,0,1,0,0,3.359h3.958a3.009,3.009,0,0,1,3.006,3.005v.7a3.009,3.009,0,0,1-3.006,3.005H153.447a3.009,3.009,0,0,1-3.005-3.005v-.7a3.009,3.009,0,0,1,3.005-3.005h14.724a1.68,1.68,0,0,0,0-3.359H153.447a3.009,3.009,0,0,1-3.005-3.005v-.7a3.009,3.009,0,0,1,3.005-3.005h24.281a3.009,3.009,0,0,1,3.006,3.005Z" transform="translate(-126.946)"/></g><g transform="translate(62.193 2.871)"><path class="a" d="M350.788,41.031l-9.1-1.637a30.131,30.131,0,0,0-4.32-7.47l3.136-8.711a1.679,1.679,0,0,0-.741-2.023l-13.8-7.965a1.679,1.679,0,0,0-2.123.371l-6.582,7.793a1.679,1.679,0,0,0,2.566,2.167l5.675-6.72L336.866,23.4l-2.982,8.283a1.68,1.68,0,0,0,.295,1.65,26.823,26.823,0,0,1,4.7,8.123,1.68,1.68,0,0,0,1.281,1.079l8.653,1.556v13.12l-8.653,1.558a1.681,1.681,0,0,0-1.281,1.079,26.868,26.868,0,0,1-4.7,8.124,1.678,1.678,0,0,0-.294,1.649l2.982,8.281L325.5,84.461l-5.675-6.718a1.679,1.679,0,1,0-2.566,2.168l6.581,7.791a1.679,1.679,0,0,0,2.123.371l13.8-7.965a1.68,1.68,0,0,0,.741-2.023l-3.136-8.71a30.184,30.184,0,0,0,4.32-7.469l9.1-1.639a1.68,1.68,0,0,0,1.382-1.653V42.684A1.679,1.679,0,0,0,350.788,41.031Z" transform="translate(-316.865 -12.999)"/></g><g transform="translate(62.193 24.561)"><path class="a" d="M319.1,111.292a1.679,1.679,0,0,0-1.107,3.171,13.449,13.449,0,0,1,0,25.389,1.679,1.679,0,1,0,1.107,3.171,16.807,16.807,0,0,0,0-31.732Z" transform="translate(-316.865 -111.198)"/></g><g transform="translate(0 27.463)"><path class="a" d="M49.655,126.827,37.3,124.369a1.68,1.68,0,1,0-.655,3.295L49,130.122a1.716,1.716,0,0,0,.329.032,1.68,1.68,0,0,0,.326-3.327Z" transform="translate(-35.29 -124.336)"/></g><g transform="translate(13.355 0.385)"><g transform="translate(0)"><path class="a" d="M108.007,10.463l-9.468-8.3a1.68,1.68,0,1,0-2.215,2.525l9.468,8.3a1.68,1.68,0,0,0,2.215-2.526Z" transform="translate(-95.752 -1.743)"/></g></g><g transform="translate(18.749 73.223)"><path class="a" d="M131.264,331.93a1.68,1.68,0,0,0-2.37.155l-8.3,9.47a1.68,1.68,0,0,0,2.525,2.215l8.3-9.47A1.68,1.68,0,0,0,131.264,331.93Z" transform="translate(-120.173 -331.513)"/></g><g transform="translate(1.976 53.541)"><g transform="translate(0)"><path class="a" d="M59.429,243.547A1.68,1.68,0,0,0,57.3,242.5l-11.925,4.049a1.68,1.68,0,1,0,1.08,3.181l11.925-4.049A1.679,1.679,0,0,0,59.429,243.547Z" transform="translate(-44.234 -242.407)"/></g></g></svg>