<svg xmlns="http://www.w3.org/2000/svg" xmlns:xlink="http://www.w3.org/1999/xlink" width="175.017" height="165.838" viewBox="0 0 175.017 165.838"><defs><style>.a{fill:url(#a);}.b{fill:#fff;}</style><linearGradient id="a" x1="0.188" y1="0.057" x2="0.907" y2="0.797" gradientUnits="objectBoundingBox"><stop offset="0" stop-color="#c673f2"/><stop offset="1" stop-color="#9769f6"/></linearGradient></defs><g transform="translate(-788.424 -4653.593)"><ellipse class="a" cx="87.509" cy="82.919" rx="87.509" ry="82.919" transform="translate(788.424 4653.593)"/><g transform="translate(826.387 4664.049)"><path class="b" d="M97.77,27H2.781A2.784,2.784,0,0,0,0,29.781V114.17a2.784,2.784,0,0,0,2.781,2.781h44.1a1.473,1.473,0,0,0,0-2.946H2.946V50.6L46.88,50.6a1.473,1.473,0,1,0,0-2.946l-43.933.005V29.946H97.61V47.659l-43.933-.005a1.473,1.473,0,0,0,0,2.946L97.61,50.6V114H53.827a1.473,1.473,0,1,0,0,2.946H97.77a2.787,2.787,0,0,0,2.787-2.781V29.781A2.787,2.787,0,0,0,97.77,27Z"/><path class="b" d="M86,214.484a5.251,5.251,0,0,0,1.428-10.3V193.841a5.253,5.253,0,1,0-5.032-8.9L73.512,180a5.256,5.256,0,1,0-10.322,0l-8.878,4.936a5.253,5.253,0,1,0-5.035,8.9v10.365a5.251,5.251,0,1,0,5,8.957l8.912,4.957a5.256,5.256,0,1,0,10.322,0l8.968-4.99A5.233,5.233,0,0,0,86,214.484Zm2.307-5.252A2.307,2.307,0,1,1,86,206.926,2.309,2.309,0,0,1,88.3,209.232Zm-2.352-22.742a2.309,2.309,0,1,1-2.307,2.312A2.312,2.312,0,0,1,85.951,186.489Zm-17.6-9.784a2.306,2.306,0,1,1-2.313,2.306A2.309,2.309,0,0,1,68.353,176.705Zm0,7.558a5.238,5.238,0,0,0,3.811-1.643l8.707,4.843a5.257,5.257,0,0,0,0,2.67l-8.708,4.846a5.246,5.246,0,0,0-7.622,0l-8.7-4.844a5.252,5.252,0,0,0,0-2.675l8.7-4.84A5.247,5.247,0,0,0,68.353,184.263Zm0,16.633a2.306,2.306,0,1,1,2.307-2.306A2.312,2.312,0,0,1,68.353,200.9ZM48.442,188.8a2.31,2.31,0,1,1,4.62,0,2.283,2.283,0,0,1-.347,1.209c-.012.019-.024.036-.035.056l0,.007a2.309,2.309,0,0,1-4.234-1.272ZM50.8,211.538a2.306,2.306,0,1,1,2.307-2.306A2.309,2.309,0,0,1,50.8,211.538Zm5.052-.87a5.247,5.247,0,0,0-3.629-6.49V193.842a5.259,5.259,0,0,0,2.089-1.182l8.877,4.94a5.244,5.244,0,0,0,3.691,6.031V214.07a5.266,5.266,0,0,0-2.341,1.43Zm12.5,10.754a2.309,2.309,0,1,1,2.307-2.312A2.315,2.315,0,0,1,68.353,221.422Zm1.473-7.352V203.631a5.246,5.246,0,0,0,3.685-6.031l8.88-4.942a5.25,5.25,0,0,0,2.087,1.183V204.2a5.247,5.247,0,0,0-3.548,6.417L72.162,215.5A5.258,5.258,0,0,0,69.826,214.07Z" transform="translate(-36.561 -117.936)"/><path class="b" d="M310.28,205.885h26.328a2.414,2.414,0,0,0,2.414-2.408v-5.682a2.417,2.417,0,0,0-2.414-2.414H310.28a2.414,2.414,0,0,0-2.408,2.414v5.682A2.411,2.411,0,0,0,310.28,205.885Zm.538-7.558h25.258v4.612H310.818Z" transform="translate(-247.406 -135.311)"/><path class="b" d="M307.872,283.949a2.414,2.414,0,0,0,2.408,2.414H327.4a2.417,2.417,0,0,0,2.414-2.414v-5.682a2.414,2.414,0,0,0-2.414-2.408H310.28a2.411,2.411,0,0,0-2.408,2.408Zm2.946-5.144h16.049v4.612H310.818Z" transform="translate(-247.406 -199.983)"/><path class="b" d="M307.872,364.4a2.414,2.414,0,0,0,2.408,2.414h21.072a2.417,2.417,0,0,0,2.414-2.414v-5.682a2.414,2.414,0,0,0-2.414-2.408H310.28a2.411,2.411,0,0,0-2.408,2.408Zm2.946-5.144h20v4.612h-20Z" transform="translate(-247.406 -264.633)"/><path class="b" d="M110.99,79.311a1.473,1.473,0,0,0-1.473-1.473H66.755a1.473,1.473,0,0,0,0,2.946h42.762A1.473,1.473,0,0,0,110.99,79.311Z" transform="translate(-52.461 -40.853)"/><path class="b" d="M342.616,80.375l.005-.006a1.479,1.479,0,1,0-.005.006Z" transform="translate(-273.306 -40.87)"/><path class="b" d="M380.4,80.375l.005-.006a1.479,1.479,0,1,0-.005.006Z" transform="translate(-303.67 -40.87)"/><path class="b" d="M418.216,80.375l.005-.006a1.479,1.479,0,1,0-.005.006Z" transform="translate(-334.058 -40.87)"/></g></g></svg>