<svg xmlns="http://www.w3.org/2000/svg" xmlns:xlink="http://www.w3.org/1999/xlink" width="175.017" height="165.838" viewBox="0 0 175.017 165.838"><defs><style>.a{fill:url(#a);}.b{fill:#fff;}</style><linearGradient id="a" x1="0.188" y1="0.057" x2="1" y2="0.971" gradientUnits="objectBoundingBox"><stop offset="0" stop-color="#1783e3"/><stop offset="1" stop-color="#09a7fe"/></linearGradient></defs><g transform="translate(-789.424 -5374.593)"><ellipse class="a" cx="87.509" cy="82.919" rx="87.509" ry="82.919" transform="translate(789.424 5374.593)"/><g transform="translate(836.896 5414.896)"><path class="b" d="M8.369,22.693H19.324a1.369,1.369,0,0,0,1.369-1.369V17.216H17.955v2.739H9.739V11.739h4.108V9H8.369A1.369,1.369,0,0,0,7,10.369V21.324A1.369,1.369,0,0,0,8.369,22.693Z" transform="translate(1.847 2.585)"/><path class="b" d="M13,15.541,11.229,13.77,9.293,15.707l2.739,2.739a1.369,1.369,0,0,0,1.936,0l8.216-8.216L20.248,8.293Z" transform="translate(2.694 2.324)"/><path class="b" d="M17.955,32.955H9.739V24.739h4.108V22H8.369A1.369,1.369,0,0,0,7,23.369V34.324a1.369,1.369,0,0,0,1.369,1.369H19.324a1.369,1.369,0,0,0,1.369-1.369V30.216H17.955Z" transform="translate(1.847 7.387)"/><path class="b" d="M13,28.541,11.229,26.77,9.293,28.707l2.739,2.739a1.369,1.369,0,0,0,1.936,0l8.216-8.216-1.936-1.936Z" transform="translate(2.694 7.126)"/><path class="b" d="M19.324,35H8.369A1.369,1.369,0,0,0,7,36.369V47.324a1.369,1.369,0,0,0,1.369,1.369H19.324a1.369,1.369,0,0,0,1.369-1.369V36.369A1.369,1.369,0,0,0,19.324,35ZM17.955,45.955H9.739V37.739h8.216Z" transform="translate(1.847 12.188)"/><path class="b" d="M19.324,48H8.369A1.369,1.369,0,0,0,7,49.369V60.324a1.369,1.369,0,0,0,1.369,1.369H19.324a1.369,1.369,0,0,0,1.369-1.369V49.369A1.369,1.369,0,0,0,19.324,48ZM17.955,58.955H9.739V50.739h8.216Z" transform="translate(1.847 16.989)"/><path class="b" d="M78.282,6.509a1.369,1.369,0,0,0-1.936,0l-8.617,8.617L55,2.4a1.369,1.369,0,0,0-.968-.4H3.369A1.369,1.369,0,0,0,2,3.369V82.791A1.369,1.369,0,0,0,3.369,84.16H67.728A1.369,1.369,0,0,0,69.1,82.791V28.584L83.759,13.923a1.369,1.369,0,0,0,0-1.936ZM66.359,81.421H4.739V4.739H53.468L64.422,15.693H55.4V8.847H52.665v8.216a1.369,1.369,0,0,0,1.369,1.369H64.422l-31.9,31.9a1.375,1.375,0,0,0-.331.535l-2.739,8.216a1.37,1.37,0,0,0,1.732,1.732l8.216-2.739a1.375,1.375,0,0,0,.535-.331L66.359,31.323ZM34.093,53.831l2.344,2.344-3.516,1.172Zm4.879,1.006L35.431,51.3,77.313,9.414l3.541,3.541Z"/><path class="b" d="M45,56h2.739v2.739H45Z" transform="translate(15.881 19.944)"/><path class="b" d="M41,56h2.739v2.739H41Z" transform="translate(14.404 19.944)"/><path class="b" d="M37,56h2.739v2.739H37Z" transform="translate(12.927 19.944)"/></g></g></svg>