<svg xmlns="http://www.w3.org/2000/svg" xmlns:xlink="http://www.w3.org/1999/xlink" width="175.017" height="165.838" viewBox="0 0 175.017 165.838"><defs><style>.a{fill:url(#a);}.b{fill:#fff;}</style><linearGradient id="a" x1="0.188" y1="0.057" x2="1" y2="0.971" gradientUnits="objectBoundingBox"><stop offset="0" stop-color="#9769f6"/><stop offset="1" stop-color="#502ed5"/></linearGradient></defs><g transform="translate(-297.896 -5027.593)"><ellipse class="a" cx="87.509" cy="82.919" rx="87.509" ry="82.919" transform="translate(297.896 5027.593)"/><g transform="translate(341.182 5071.867)"><path class="b" d="M126.01,200.18a1.468,1.468,0,0,1-.954-.352l-9.538-8.121a1.474,1.474,0,0,1,0-2.245l9.538-8.121a1.474,1.474,0,1,1,1.911,2.244l-8.219,7,8.219,7a1.474,1.474,0,0,1-.957,2.6Zm0,0" transform="translate(-90.786 -142.88)"/><path class="b" d="M251.182,200.18a1.475,1.475,0,0,1-.957-2.6l8.219-7-8.219-7a1.474,1.474,0,0,1,1.911-2.244l9.538,8.121a1.475,1.475,0,0,1,0,2.245l-9.538,8.121A1.468,1.468,0,0,1,251.182,200.18Zm0,0" transform="translate(-197.13 -142.88)"/><path class="b" d="M190.43,184.195a1.5,1.5,0,0,1-.306-.032,1.474,1.474,0,0,1-1.138-1.746l5.944-28.222a1.474,1.474,0,0,1,2.884.608l-5.944,28.222A1.474,1.474,0,0,1,190.43,184.195Zm0,0" transform="translate(-149.168 -120.804)"/><path class="b" d="M79.38,78.767H9.9a9.907,9.907,0,0,1-9.9-9.9V9.9A9.908,9.908,0,0,1,9.9,0H79.38a9.908,9.908,0,0,1,9.9,9.9V68.871A9.907,9.907,0,0,1,79.38,78.767ZM9.9,2.948A6.957,6.957,0,0,0,2.948,9.9V68.871A6.957,6.957,0,0,0,9.9,75.819H79.38a6.957,6.957,0,0,0,6.948-6.948V9.9A6.957,6.957,0,0,0,79.38,2.948Zm0,0"/><path class="b" d="M87.8,101.038H1.474a1.474,1.474,0,0,1,0-2.948H87.8a1.474,1.474,0,1,1,0,2.948Zm0,0" transform="translate(0 -77.436)"/><path class="b" d="M102.114,43.618a4.664,4.664,0,1,1,4.664-4.664A4.671,4.671,0,0,1,102.114,43.618Zm0-6.381a1.717,1.717,0,1,0,1.717,1.717A1.719,1.719,0,0,0,102.114,37.237Zm0,0" transform="translate(-76.93 -27.069)"/><path class="b" d="M34.051,43.4a4.664,4.664,0,1,1,4.664-4.664A4.67,4.67,0,0,1,34.051,43.4Zm0-6.381a1.717,1.717,0,1,0,1.717,1.717A1.719,1.719,0,0,0,34.051,37.022Zm0,0" transform="translate(-23.199 -26.9)"/><path class="b" d="M170.179,43.832a4.664,4.664,0,1,1,4.664-4.664A4.669,4.669,0,0,1,170.179,43.832Zm0-6.381a1.717,1.717,0,1,0,1.717,1.717A1.718,1.718,0,0,0,170.179,37.451Zm0,0" transform="translate(-130.665 -27.239)"/></g></g></svg>