<svg xmlns="http://www.w3.org/2000/svg" width="566.346" height="1785.137" viewBox="0 0 566.346 1785.137"><defs><style>.a{fill:none;stroke:#b8b9ba;stroke-miterlimit:10;stroke-width:1.5px;stroke-dasharray:12;}</style></defs><g transform="translate(-251.672 -461.735)"><path class="a" d="M327.992,462.336C467.5,566.5,581.7,616.311,817.5,632.5"/><path class="a" d="M253.245,818c-7.118-52.381,33.649-106.585,85.948-114.277,10.94-1.609,22.6-1.306,32.4,3.822s17.149,15.989,15.564,26.932-14.138,19.7-24.282,15.3c-4.215-1.83-7.426-5.459-9.715-9.443-10.538-18.339-2.019-43.053,14.148-56.69s37.892-18.485,58.878-21.118a378.519,378.519,0,0,1,120.179,4.215c48.424,9.56,94.745,28.559,143.537,36.014s91.9,10.833,127.6-23.252"/><path class="a" d="M321.5,1072.5c44.075,90.327,159.017,181.094,284.146,198.143"/><path class="a" d="M595.5,1316.5c-176,63-206,85-330,230"/><path class="a" d="M596,2031.5c-211.5,9-280.5,166-308.5,215"/><path class="a" d="M291.5,1808.5c32.957,60.82,101.054,83.618,169.748,75.476,6.844-.812,14.258-2.374,18.611-7.717s2.79-15.428-3.985-16.692c-4.858-.906-9.547,3.341-10.65,8.158s.533,9.845,2.744,14.265c11.53,23.048,37.178,35.005,61.527,43.452s71.319,28.312,89.005,47.058"/></g></svg>