<svg xmlns="http://www.w3.org/2000/svg" xmlns:xlink="http://www.w3.org/1999/xlink" width="175.017" height="165.838" viewBox="0 0 175.017 165.838"><defs><style>.a{fill:url(#a);}.b{fill:#fff;}</style><linearGradient id="a" x1="0.188" y1="0.057" x2="1" y2="0.971" gradientUnits="objectBoundingBox"><stop offset="0" stop-color="#00e6ca"/><stop offset="1" stop-color="#3bcee7"/></linearGradient></defs><g transform="translate(-301.424 -5731.593)"><ellipse class="a" cx="87.509" cy="82.919" rx="87.509" ry="82.919" transform="translate(301.424 5731.593)"/><g transform="translate(346.749 5771.809)"><path class="b" d="M277.307,130.822a1.655,1.655,0,1,0,2.341,0A1.653,1.653,0,0,0,277.307,130.822Zm0,0" transform="translate(-230.988 -108.758)"/><path class="b" d="M216.88,160.065a1.656,1.656,0,0,0-2.335.178,104.588,104.588,0,0,0-7.169,9.176,1.655,1.655,0,1,0,2.771,1.812,104.047,104.047,0,0,1,6.91-8.83A1.656,1.656,0,0,0,216.88,160.065Zm0,0" transform="translate(-172.816 -133.23)"/><path class="b" d="M324.082,92.763a8.277,8.277,0,1,0,11.705,0A8.269,8.269,0,0,0,324.082,92.763Zm9.364,9.365h0a4.966,4.966,0,1,1,0-7.023A4.959,4.959,0,0,1,333.445,102.128Zm0,0" transform="translate(-268.398 -75.381)"/><path class="b" d="M2.873,442.628l10.349-10.35a1.656,1.656,0,1,0-2.341-2.341L.532,440.286a1.656,1.656,0,0,0,2.341,2.342Zm0,0" transform="translate(-0.04 -358.348)"/><path class="b" d="M102.865,442.628l10.349-10.35a1.656,1.656,0,1,0-2.342-2.341l-10.349,10.349a1.656,1.656,0,1,0,2.342,2.342Zm0,0" transform="translate(-83.476 -358.348)"/><path class="b" d="M.532,342.636a1.656,1.656,0,0,0,2.341,0l10.349-10.349a1.656,1.656,0,1,0-2.341-2.341L.532,340.295a1.655,1.655,0,0,0,0,2.341Zm0,0" transform="translate(-0.04 -274.912)"/><path class="b" d="M84.77,1.746A1.656,1.656,0,0,0,83.025,0C74.61.471,54.514,4.5,41.634,17.383a101.341,101.341,0,0,0-7.795,8.759A31.5,31.5,0,0,0,.213,41.811a1.657,1.657,0,0,0,2.249,2.25,28.127,28.127,0,0,1,21.62-2.327,36.09,36.09,0,0,0-1.546,4.137,4.834,4.834,0,0,0,.794,4.285,16.514,16.514,0,0,0-1.337,1.2C17.733,55.617,16.866,66,16.831,66.443a1.656,1.656,0,0,0,1.65,1.786c.043,0,.087,0,.131-.005.44-.035,10.828-.9,15.09-5.162a16.581,16.581,0,0,0,1.244-1.394,4.807,4.807,0,0,0,3.952.568,36.216,36.216,0,0,0,4.14-1.547,28.128,28.128,0,0,1-2.327,21.62,1.657,1.657,0,0,0,2.25,2.249A31.5,31.5,0,0,0,58.63,50.933a101.369,101.369,0,0,0,8.759-7.8c6.34-6.34,11.144-14.847,14.279-25.283a79.053,79.053,0,0,0,3.1-16.108ZM6.3,38.8q.744-.875,1.562-1.693A28,28,0,0,1,31.572,29.12a76.675,76.675,0,0,0-6.036,9.6A31.47,31.47,0,0,0,6.3,38.8ZM31.36,60.721C29.083,63,23.741,64.2,20.366,64.688c.489-3.373,1.688-8.71,3.97-10.992a13.232,13.232,0,0,1,1.31-1.148l6.862,6.862A13.221,13.221,0,0,1,31.36,60.721Zm6.586-1.656a1.6,1.6,0,0,1-1.551-.45L26.157,48.377a1.6,1.6,0,0,1-.449-1.554A33.12,33.12,0,0,1,27.2,42.862,28.248,28.248,0,0,1,41.91,57.568,33.19,33.19,0,0,1,37.946,59.064Zm9.72,17.844q-.817.817-1.693,1.561a31.466,31.466,0,0,0,.083-19.235A76.718,76.718,0,0,0,55.651,53.2,28,28,0,0,1,47.666,76.909ZM65.048,40.8A89.538,89.538,0,0,1,44.885,56.111,31.544,31.544,0,0,0,28.66,39.886,89.523,89.523,0,0,1,43.975,19.724c5.763-5.763,13.488-10.19,22.973-13.166L78.214,17.822C75.238,27.307,70.811,35.032,65.048,40.8ZM79.259,14.185,70.586,5.512a78.212,78.212,0,0,1,10.7-2.024A78.112,78.112,0,0,1,79.259,14.185Zm0,0" transform="translate(0)"/></g></g></svg>