<?xml version="1.0" encoding="utf-8"?>
<!-- Generator: Adobe Illustrator 25.1.0, SVG Export Plug-In . SVG Version: 6.00 Build 0)  -->
<svg version="1.1" id="Capa_1" xmlns="http://www.w3.org/2000/svg" xmlns:xlink="http://www.w3.org/1999/xlink" x="0px" y="0px"
	 viewBox="0 0 175 165.8" style="enable-background:new 0 0 175 165.8;" xml:space="preserve">
<style type="text/css">
	.st0{fill:url(#SVGID_1_);}
	.st1{fill:#FFFFFF;}
</style>
<linearGradient id="SVGID_1_" gradientUnits="userSpaceOnUse" x1="-644.6723" y1="853.1628" x2="-643.8603" y2="852.2488" gradientTransform="matrix(175.018 0 0 -165.838 112854.1875 141502.9844)">
	<stop  offset="0" style="stop-color:#1783E3"/>
	<stop  offset="1" style="stop-color:#09A7FE"/>
</linearGradient>
<ellipse class="st0" cx="87.5" cy="82.9" rx="87.5" ry="82.9"/>
<g transform="translate(1014.394 4033.825)">
	<path class="st1" d="M-963.4-3984.9h18v6h11v-6h19v25h3v-28h-21v-11h-12v11h-21v8c0,0.5,0.4,1,1,1h1c0.5,0,1-0.4,1-1L-963.4-3984.9
		z M-942.4-3995.9h6v14h-6V-3995.9z"/>
	<path class="st1" d="M-965.4-3976.4h1.1c0.5,0,1,0.4,1,1v1.1c0,0.5-0.4,1-1,1h-1.1c-0.5,0-1-0.4-1-1v-1.1
		C-966.4-3975.9-966-3976.4-965.4-3976.4z"/>
	<path class="st1" d="M-964.3-3970.9h-1.2c-0.5,0-0.9,0.4-0.9,0.9v36.1h28v-3h-25v-33.1C-963.4-3970.5-963.8-3970.9-964.3-3970.9z"
		/>
	<path class="st1" d="M-885.4-3928.9h3v3h-3V-3928.9z"/>
	<path class="st1" d="M-935.4-3956.9v54h39.6l13.4-13.5v-6.5h-3v4h-12v13h-35v-48h47v22h3v-25H-935.4z M-886.5-3915.9l-7.8,7.9v-7.9
		H-886.5z"/>
	<path class="st1" d="M-926.4-3947.9h36v3h-36V-3947.9z"/>
	<path class="st1" d="M-926.4-3939.9h36v3h-36V-3939.9z"/>
	<path class="st1" d="M-926.4-3930.9h36v3h-36V-3930.9z"/>
	<path class="st1" d="M-927.4-3922.9h25v3h-25V-3922.9z"/>
	<path class="st1" d="M-927.4-3914.9h25v3h-25V-3914.9z"/>
</g>
</svg>
