<svg xmlns="http://www.w3.org/2000/svg" xmlns:xlink="http://www.w3.org/1999/xlink" width="175.017" height="165.838" viewBox="0 0 175.017 165.838"><defs><style>.a{fill:url(#a);}.b{fill:#fff;}</style><linearGradient id="a" x1="0.188" y1="0.057" x2="1" y2="0.971" gradientUnits="objectBoundingBox"><stop offset="0" stop-color="#9769f6"/><stop offset="1" stop-color="#502ed5"/></linearGradient></defs><g transform="translate(-297.896 -3718.593)"><ellipse class="a" cx="87.509" cy="82.919" rx="87.509" ry="82.919" transform="translate(297.896 3718.593)"/><path class="b" d="M3215.307,2892.268a2.622,2.622,0,0,1,.559-2.873l1.988-1.989-5.8-5.8-1.991,1.99a2.636,2.636,0,0,1-2.925.535,2.6,2.6,0,0,1-1.615-2.415v-2.808h-2.8a24.221,24.221,0,0,0-1.21-6.352l15.81-15.81a11.027,11.027,0,1,0-15.594-15.6l-15.794,15.8a24.256,24.256,0,0,0-6.445-1.2,10.873,10.873,0,0,0-12.487-5.1,13.636,13.636,0,0,0-25.332,9.489,8.2,8.2,0,0,0,2.371,16.043h9.911a24.721,24.721,0,0,0-.348,4.1,18.756,18.756,0,0,0,1.454,7.544l-12.188,12.19-6.782,17.634a3.63,3.63,0,0,0-.244,1.315,3.671,3.671,0,0,0,4.988,3.427l17.633-6.782,8.912-8.913a5.425,5.425,0,0,1-.109,6.376,4.092,4.092,0,0,0,3.06,3.948,8.323,8.323,0,0,0,15.74,0,4.093,4.093,0,0,0,3.061-3.948c0-.1-.023-.2-.03-.3l1.7,1.7,1.99-1.99a2.676,2.676,0,0,1,4.541,1.882v2.808h8.2v-2.808a2.678,2.678,0,0,1,4.542-1.882l1.989,1.99,5.8-5.8-1.988-1.989a2.643,2.643,0,0,1-.537-2.926,2.608,2.608,0,0,1,2.417-1.616h2.808v-8.2h-2.808A2.63,2.63,0,0,1,3215.307,2892.268Zm-11.646-49.187a8.3,8.3,0,0,1,11.731,11.731l-1.669,1.669-11.731-11.731Zm-8.264,8.264.563-.563,4.624,4.624a1.327,1.327,0,0,0,1.887-1.865l-4.579-4.691.4-.4,1.77-1.771,11.731,11.731-1.854,1.854-.313.313-1.931,1.932-.456.456-6.841,6.841a24.829,24.829,0,0,0-3.919-5.879l0,0-1.931-1.934a24.766,24.766,0,0,0-5.876-3.922Zm-51.355,22.1a5.465,5.465,0,1,1,5.351-6.579,1.367,1.367,0,1,0,2.678-.546,8.209,8.209,0,0,0-7.678-6.52,10.919,10.919,0,0,1,20.1-8.078,10.938,10.938,0,0,0-5.354,8.232,5.491,5.491,0,0,0-3.875,3.532,1.335,1.335,0,0,0,1.268,1.76h.061a1.359,1.359,0,0,0,1.271-.921,2.733,2.733,0,0,1,5.149.008,1.341,1.341,0,0,0,1.257.913h.088a1.322,1.322,0,0,0,1.259-1.736,5.5,5.5,0,0,0-3.726-3.508,8.188,8.188,0,1,1,16.006,3.253,6.872,6.872,0,0,0-3.574,4.362,1.369,1.369,0,0,0,1.317,1.727h0a1.353,1.353,0,0,0,1.317-1.01,4.1,4.1,0,1,1,3.973,5.109Zm-4.189,46.391a.939.939,0,0,1-1.215-1.212l1.369-3.561,3.4,3.4Zm6.349-2.441-5.121-5.121,3.482-9.051,10.69,10.69Zm11.5-4.893-11.73-11.731h0l10.425-10.425a30.718,30.718,0,0,0,4.5,5.3l1.95,1.913a24.769,24.769,0,0,1,4.391,5.407h0Zm6-17.928c-3.79-3.7-7.37-7.188-7.37-14.3a22.057,22.057,0,0,1,.421-4.1h14.608v4.1a4.1,4.1,0,0,0,4.1,4.1h10.93a1.366,1.366,0,0,1,0,2.732h-13.663a4.1,4.1,0,1,0,0,8.2h2.733a1.367,1.367,0,0,1,1.366,1.367v6.831h-5.465a4.021,4.021,0,0,0-.809.083C3169,2899.749,3166.318,2897.117,3163.708,2894.572ZM3178.2,2919.9a5.614,5.614,0,0,1-4.814-2.732h9.629A5.615,5.615,0,0,1,3178.2,2919.9Zm6.832-5.465h-13.663a1.366,1.366,0,0,1,0-2.733h13.663a1.366,1.366,0,0,1,0,2.733Zm0-5.465h-13.663a1.366,1.366,0,0,1,0-2.733h13.663a1.366,1.366,0,0,1,0,2.733Zm.809-5.383a4.026,4.026,0,0,0-.809-.083h-5.466v-6.831a4.1,4.1,0,0,0-4.1-4.1h-2.733a1.366,1.366,0,0,1,0-2.732H3186.4a4.1,4.1,0,1,0,0-8.2h-10.93a1.368,1.368,0,0,1-1.367-1.366v-4.1h6.832a6.832,6.832,0,0,0,0-13.663c-.038,0-.074.011-.112.011a10.832,10.832,0,0,0,.112-1.377,10.953,10.953,0,0,0-.322-2.591,21.977,21.977,0,0,1,19.45,21.719c0,7.109-3.579,10.6-7.369,14.3C3190.08,2897.117,3187.4,2899.749,3185.839,2903.584Zm15.586-12.379a6.9,6.9,0,1,1-6.591,5.091,40.764,40.764,0,0,0,4.272-4.661A6.749,6.749,0,0,1,3201.426,2891.205Zm16.4,8.2h-.075a5.41,5.41,0,0,0-3.813,9.206l.058.057-1.935,1.935-.057-.057a5.41,5.41,0,0,0-9.207,3.813v.075h-2.733v-.075a5.41,5.41,0,0,0-9.207-3.813l-.058.057-1.851-1.851a4.015,4.015,0,0,0,.186-1.149,4.06,4.06,0,0,0-.918-2.554,17.628,17.628,0,0,1,3.733-5.823,9.56,9.56,0,1,0,9.482-10.752c-.134,0-.263.014-.4.02a17.932,17.932,0,0,0,1.72-6.851h.042v.075a5.41,5.41,0,0,0,9.207,3.813l.057-.057,1.935,1.934-.058.058a5.411,5.411,0,0,0,3.813,9.206h.075Z" transform="translate(-2792.663 920.781)"/></g></svg>