<svg xmlns="http://www.w3.org/2000/svg" xmlns:xlink="http://www.w3.org/1999/xlink" width="175.017" height="165.838" viewBox="0 0 175.017 165.838"><defs><style>.a{fill:url(#a);}.b{fill:#fff;}</style><linearGradient id="a" x1="0.188" y1="0.057" x2="1" y2="0.971" gradientUnits="objectBoundingBox"><stop offset="0" stop-color="#00e6ca"/><stop offset="1" stop-color="#3bcee7"/></linearGradient></defs><g transform="translate(-301.424 -4301.593)"><ellipse class="a" cx="87.509" cy="82.919" rx="87.509" ry="82.919" transform="translate(301.424 4301.593)"/><path class="b" d="M1320.148,189.355H1316.5a4.762,4.762,0,0,0-9.139,0h-17.34a1.369,1.369,0,1,0,0,2.739h17.34a4.762,4.762,0,0,0,9.139,0h3.647a1.369,1.369,0,0,0,0-2.739Zm-8.217,3.424a2.054,2.054,0,1,1,2.054-2.054A2.057,2.057,0,0,1,1311.931,192.779Zm8.217,7.532h-17.341a4.761,4.761,0,0,0-9.139,0h-3.647a1.369,1.369,0,1,0,0,2.739h3.647a4.761,4.761,0,0,0,9.139,0h17.341a1.369,1.369,0,0,0,0-2.739Zm-21.911,3.424a2.054,2.054,0,1,1,2.054-2.054A2.057,2.057,0,0,1,1298.237,203.734Zm29.932-13.08a1.62,1.62,0,0,1-1.62,1.62h-1.62a1.62,1.62,0,1,1,0-3.24h1.62A1.62,1.62,0,0,1,1328.169,190.655Zm-.855-50.912H1323.4a19.047,19.047,0,0,0-1.206-2.913l2.768-2.768a3.619,3.619,0,0,0,0-5.114l-3.127-3.127a3.627,3.627,0,0,0-2.555-1.026h0a3.623,3.623,0,0,0-2.556,1.026l-2.768,2.767a19.1,19.1,0,0,0-2.913-1.206v-3.916a3.618,3.618,0,0,0-3.614-3.614H1303a3.618,3.618,0,0,0-3.614,3.614v3.918a19.182,19.182,0,0,0-2.914,1.206l-2.769-2.768a3.619,3.619,0,0,0-5.113,0l-3.129,3.127a3.622,3.622,0,0,0,0,5.113l2.768,2.769a19.111,19.111,0,0,0-1.205,2.914h-3.916a3.618,3.618,0,0,0-3.614,3.614v4.42a3.617,3.617,0,0,0,3.614,3.613h3.918a19.172,19.172,0,0,0,1.206,2.913l-2.768,2.769a3.619,3.619,0,0,0,0,5.113l3.127,3.129a3.621,3.621,0,0,0,5.112,0l2.769-2.768a19.081,19.081,0,0,0,2.914,1.206v3.915a3.618,3.618,0,0,0,3.614,3.614h4.42a3.618,3.618,0,0,0,3.614-3.614v-3.918a19.093,19.093,0,0,0,2.913-1.205l2.768,2.769a3.71,3.71,0,0,0,5.112,0l3.128-3.127a3.619,3.619,0,0,0,0-5.113l-2.768-2.769a19.134,19.134,0,0,0,1.206-2.913h3.916a3.618,3.618,0,0,0,3.614-3.614v-4.42A3.618,3.618,0,0,0,1327.313,139.742Zm.806,8.034a.807.807,0,0,1-.806.806h-4.973a1.4,1.4,0,0,0-1.359,1.053,16.328,16.328,0,0,1-1.741,4.2,1.4,1.4,0,0,0,.216,1.705l3.514,3.515a.811.811,0,0,1,0,1.142l-3.127,3.127a.841.841,0,0,1-1.142,0l-3.514-3.514a1.406,1.406,0,0,0-1.708-.217,16.24,16.24,0,0,1-4.2,1.739,1.4,1.4,0,0,0-1.052,1.358v4.973a.807.807,0,0,1-.806.806H1303a.807.807,0,0,1-.806-.806v-4.973a1.4,1.4,0,0,0-1.053-1.359,16.275,16.275,0,0,1-4.2-1.739,1.4,1.4,0,0,0-1.708.216l-3.514,3.514a.81.81,0,0,1-1.142,0l-3.127-3.127a.808.808,0,0,1,0-1.142l3.514-3.514a1.4,1.4,0,0,0,.216-1.706,16.317,16.317,0,0,1-1.739-4.2,1.4,1.4,0,0,0-1.358-1.053h-4.973a.807.807,0,0,1-.805-.806v-4.42a.807.807,0,0,1,.805-.806h4.973a1.4,1.4,0,0,0,1.359-1.053,16.27,16.27,0,0,1,1.74-4.2,1.4,1.4,0,0,0-.216-1.706l-3.514-3.514a.809.809,0,0,1,0-1.142l3.127-3.127a.809.809,0,0,1,1.142,0l3.514,3.514a1.4,1.4,0,0,0,1.706.217,16.283,16.283,0,0,1,4.2-1.74,1.4,1.4,0,0,0,1.053-1.359v-4.973a.807.807,0,0,1,.806-.806h4.42a.807.807,0,0,1,.806.806v4.973a1.4,1.4,0,0,0,1.053,1.359,16.239,16.239,0,0,1,4.2,1.74,1.4,1.4,0,0,0,1.707-.217l3.514-3.514a.836.836,0,0,1,1.142,0l3.127,3.127a.812.812,0,0,1,0,1.142l-3.514,3.514a1.4,1.4,0,0,0-.216,1.706,16.3,16.3,0,0,1,1.74,4.2,1.4,1.4,0,0,0,1.358,1.054h4.973a.807.807,0,0,1,.806.806Zm-22.906-12.454a10.244,10.244,0,1,0,10.244,10.245A10.256,10.256,0,0,0,1305.213,135.322Zm0,17.68a7.436,7.436,0,1,1,7.436-7.436A7.445,7.445,0,0,1,1305.213,153Zm72.919,11.383H1342.58a5.177,5.177,0,0,0-5.171,5.171v8.881h45.9v-8.881A5.177,5.177,0,0,0,1378.132,164.385Zm2.78,11.661H1339.8v-6.489a2.783,2.783,0,0,1,2.779-2.779h35.552a2.783,2.783,0,0,1,2.78,2.779ZM1337.46,211.48h.589a1.187,1.187,0,0,0,1.215,0h43.908V182.742H1337.46Zm5.763-2.392,17.124-10.352,17.341,10.352Zm37.557-.939-18.115-10.814,18.115-10.951Zm-2.559-23.014-17.883,10.811-18.111-10.811Zm-38.369,1.368,18.168,10.845-18.168,10.983Zm4.628-31.763.033-.005,22.016-4.4a1.337,1.337,0,0,0,1.072-1.307,20.032,20.032,0,0,1,4.213-12.258l.077-.1.124.013a7.5,7.5,0,0,0,.913.045,7.672,7.672,0,0,0,5.37-2.252,1.335,1.335,0,0,0,0-1.886l-13.216-13.216a1.325,1.325,0,0,0-.943-.39h0a1.325,1.325,0,0,0-.943.39,7.672,7.672,0,0,0-2.252,5.37,7.8,7.8,0,0,0,.045.913l.013.124-.1.076a20.035,20.035,0,0,1-12.257,4.213h0a1.336,1.336,0,0,0-1.307,1.072l-4.406,22.028c-.01.053-.014.085-.017.116a1.333,1.333,0,0,0,1.564,1.456Zm19.645-32.132.137-.285,11.085,11.085-.285.137a5.106,5.106,0,0,1-2.2.5,4.888,4.888,0,0,1-3.446-1.383l-4.406-4.406A5.011,5.011,0,0,1,1364.124,122.607Zm-14.38,10.1.173-.01a22.593,22.593,0,0,0,11.745-4.089l.2-.14.123.209a7.446,7.446,0,0,0,1.138,1.463l4.405,4.406a7.433,7.433,0,0,0,1.464,1.138l.208.124-.139.2a22.593,22.593,0,0,0-4.09,11.745l-.01.173-16.664,3.333,7.1-7.1.143.068a4.449,4.449,0,1,0-2.1-2.1l.068.143-7.1,7.1Zm5.931,7.5a1.78,1.78,0,1,1,.521,1.26A1.769,1.769,0,0,1,1355.675,140.212Z" transform="translate(-943.989 4217.45)"/></g></svg>