<svg xmlns="http://www.w3.org/2000/svg" width="127.917" height="111.54" viewBox="0 0 127.917 111.54"><defs><style>.a{fill:#fff;}</style></defs><g transform="matrix(-0.966, -0.259, 0.259, -0.966, 100.18, 126.399)"><g transform="translate(57.413 0)"><g transform="translate(0 0)"><path class="a" d="M23.868,55.538a8.391,8.391,0,0,1-6.42-3A8.629,8.629,0,0,1,15.422,46.3H2.093A2.093,2.093,0,0,1,0,44.208V30.092a2.093,2.093,0,0,1,2.471-2.059l.125.023a4.3,4.3,0,1,0,0-8.463l-.125.023A2.093,2.093,0,0,1,0,17.557V2.093A2.093,2.093,0,0,1,2.093,0H36.817A9.5,9.5,0,0,1,46.3,9.484V44.208A2.093,2.093,0,0,1,44.208,46.3H32.32a8.489,8.489,0,0,1-8.328,9.237h-.123ZM4.186,42.115h13.7a2.093,2.093,0,0,1,2.059,2.47l-.285,1.559a4.459,4.459,0,0,0,.987,3.694,4.174,4.174,0,0,0,3.286,1.514A4.3,4.3,0,0,0,28.1,46.276l-.309-1.692a2.093,2.093,0,0,1,2.059-2.47H42.115V9.485a5.3,5.3,0,0,0-5.3-5.3H4.186V15.374a8.49,8.49,0,0,1,0,16.9Z"/></g></g><g transform="translate(0 18.752)"><g transform="translate(0 0)"><path class="a" d="M86.322,53.879a2.093,2.093,0,0,0,2.093-2.093V44.208a2.093,2.093,0,0,0-2.093-2.093H71.96a2.093,2.093,0,0,0-2.059,2.47l.31,1.692a4.3,4.3,0,0,1-4.166,5.076,4.177,4.177,0,0,1-3.286-1.514,4.459,4.459,0,0,1-.987-3.694l.285-1.559A2.093,2.093,0,0,0,60,42.115H46.3V32.275a8.49,8.49,0,0,0,0-16.9V2.093A2.093,2.093,0,0,0,44.208,0H9.485A9.5,9.5,0,0,0,0,9.485V78.931a9.5,9.5,0,0,0,9.485,9.485H78.931a9.5,9.5,0,0,0,9.485-9.485V72.857a2.093,2.093,0,0,0-4.186,0v6.074a5.3,5.3,0,0,1-5.3,5.3H46.3v-13.5a2.093,2.093,0,0,0-2.469-2.059l-.127.023a4.3,4.3,0,1,1,0-8.463l.125.023A2.093,2.093,0,0,0,46.3,58.193V46.3H57.536a8.626,8.626,0,0,0,2.027,6.241A8.461,8.461,0,0,0,74.434,46.3h9.8v5.486A2.093,2.093,0,0,0,86.322,53.879ZM4.186,9.485a5.3,5.3,0,0,1,5.3-5.3h32.63V17.557a2.093,2.093,0,0,0,2.469,2.059l.125-.023h0a4.3,4.3,0,1,1,0,8.463l-.126-.023a2.093,2.093,0,0,0-2.47,2.059V42.115H33.134a8.5,8.5,0,0,0-16.309,0H4.186ZM37.5,57.941a8.49,8.49,0,0,0,4.618,14.971V84.229H9.485a5.3,5.3,0,0,1-5.3-5.3V46.3h14.4a2.093,2.093,0,0,0,2.091-2,4.3,4.3,0,0,1,8.6,0,2.093,2.093,0,0,0,2.091,2H42.115v9.71a8.465,8.465,0,0,0-4.618,1.93Z"/></g><g transform="translate(84.233 60.125)"><g transform="translate(0 0)"><path class="a" d="M2.089,4.18A2.094,2.094,0,0,1,.735.491,2.094,2.094,0,0,1,4.143,2.5,2.115,2.115,0,0,1,2.089,4.18Z"/></g></g></g></g></svg>