<svg xmlns="http://www.w3.org/2000/svg" xmlns:xlink="http://www.w3.org/1999/xlink" width="827.257" height="661.371" viewBox="0 0 827.257 661.371"><defs><style>.a{fill:#221b73;}.b{fill:#097ec7;}.c{fill:#003ba8;}.d{fill:#fff;}.e{fill:#09a7fe;}.f{fill:url(#a);}.g{fill:#001738;}.h{fill:#48d5f0;}.ad,.i,.m{fill:none;}.i{stroke:#b770e4;}.i,.m{stroke-miterlimit:10;}.j{fill:#00e6ca;}.k{fill:#d1a3ef;}.l{fill:#8969e8;}.m{stroke:#c570f2;}.n{fill:#bf83ed;}.o{fill:url(#b);}.p{fill:url(#c);}.q{fill:#3d3029;}.r{fill:#c570f2;}.s{fill:#ab66d8;}.t{fill:#00d1b3;}.u{fill:#1e6ad3;}.v{fill:#103b5e;}.w{fill:#2cc8dd;}.x{fill:#0d0d33;}.y{fill:#29218c;}.z{fill:#dcb0ff;}.aa{fill:#0045c4;}.ab{fill:#c17bef;}.ac{fill:#aa71d8;}.ae{fill:#211f1f;}.af{fill:#0999f0;}.ag{fill:#0987d4;}.ah{fill:#249cb5;}.ai{fill:#1a5aa8;}.aj{fill:#48c7e2;}.ak{fill:#9462bc;}.al{fill:#003b9a;}.am{fill:#00307d;}.an{fill:#28adc9;}.ao{fill:#32b5d1;}.ap{fill:#1a155f;}.aq{fill:url(#d);}.ar{fill:url(#e);}.as{fill:url(#f);}.at{fill:url(#g);}</style><linearGradient id="a" x1="3.161" y1="0.789" x2="1.618" y2="1.686" gradientUnits="objectBoundingBox"><stop offset="0" stop-color="#c570f2"/><stop offset="0.091" stop-color="#c570f2"/><stop offset="0.259" stop-color="#ab63e1"/><stop offset="0.475" stop-color="#7d4bc3"/><stop offset="0.831" stop-color="#402c9b"/><stop offset="1" stop-color="#29218c"/></linearGradient><linearGradient id="b" x1="-39.238" y1="3.292" x2="-39.237" y2="3.285" gradientUnits="objectBoundingBox"><stop offset="0" stop-color="#332822"/><stop offset="1" stop-color="#573626"/></linearGradient><linearGradient id="c" x1="-50.297" y1="3.162" x2="-50.295" y2="3.155" xlink:href="#b"/><linearGradient id="d" x1="-0.072" y1="-0.149" x2="1.626" y2="1.726" gradientUnits="objectBoundingBox"><stop offset="0.091" stop-color="#c570f2"/><stop offset="0.475" stop-color="#7d4bc3"/><stop offset="0.831" stop-color="#402c9b"/><stop offset="1" stop-color="#29218c"/></linearGradient><linearGradient id="e" x1="-0.062" y1="-0.515" x2="1.696" y2="2.575" xlink:href="#d"/><linearGradient id="f" x1="-0.071" y1="-0.149" x2="2.481" y2="2.67" xlink:href="#d"/><linearGradient id="g" x1="0" y1="0.5" x2="1" y2="0.5" xlink:href="#d"/></defs><g transform="translate(-201 -304)"><path class="a" d="M288.018,889.293c10.274,77.078,22.346,108.437,85.454,151.71,62.215,42.661,142.932,23.977,213.043,3.728,75.556-21.82,158.508-29.417,234.063-51.238,48.367-13.969,100.594-30.735,128.3-73.9C978.86,872.874,947.5,757.4,923.036,705.53,864.7,581.841,732.1,556.038,612.152,497.888c-72.1-34.955-168.174-88.825-246.639-87.471-99,1.707-139.495,114.174-136.92,194.056C231.6,697.763,256.173,747.417,288.018,889.293Z" transform="translate(17.723 -105.415)"/><path class="b" d="M681.455,665.371l36.96,37.951,31.908,11.464L741.6,688.092l-25.711-4.429-32.9-33.828Z" transform="translate(17.723 -105.415)"/><path class="c" d="M327.575,1070.786a8.667,8.667,0,0,0-1.592-3.428A10.419,10.419,0,0,0,327.575,1070.786Z" transform="translate(17.723 -105.415)"/><path class="d" d="M430.474,887.1l-11.638,22.82H469.62l-13.754-22.931S427.832,887.1,430.474,887.1Z" transform="translate(17.723 -105.415)"/><path class="e" d="M466.838,682.615c-2.971-11.641-8.012-24.806-16.562-36.547,0,0-5.073-7.671-7.971-7.735h-.037c-2.9.064-7.972,7.735-7.972,7.735-8.986,12.34-14.1,26.254-17,38.318C433.014,679.3,450.024,680.1,466.838,682.615Z" transform="translate(17.723 -105.415)"/><path class="d" d="M466.948,682.543c-16.814-2.511-33.824-3.313-49.542,1.772a131.4,131.4,0,0,0-3.8,30.376l-.449,94.292.215,69.073h58.059l.215-69.073-.45-94.292A132.369,132.369,0,0,0,466.948,682.543Z" transform="translate(17.723 -105.415)"/><path class="d" d="M649.78,887.1l-11.638,22.82h50.784l-13.754-22.931S647.132,887.1,649.78,887.1Z" transform="translate(17.723 -105.415)"/><path class="e" d="M688.915,678.39c-.275-12.011-2.223-25.973-7.911-39.337,0,0-3.216-8.616-6.024-9.331h-.018l-.018-.006h0c-2.837-.589-9.507,5.743-9.507,5.743-11.535,10-19.645,22.408-25.19,33.508C656.705,667.548,673.1,672.158,688.915,678.39Z" transform="translate(17.723 -105.415)"/><path class="d" d="M686.253,682.543c-16.814-2.511-33.824-3.313-49.541,1.772a131.456,131.456,0,0,0-3.806,30.376l-.449,94.292.214,69.073h58.06l.215-69.073-.449-94.292A132.316,132.316,0,0,0,686.253,682.543Z" transform="translate(17.723 -105.415)"/><path class="d" d="M535.162,929.8l-16.039,31.448h69.986l-18.954-31.6S531.517,929.8,535.162,929.8Z" transform="translate(17.723 -105.415)"/><path class="f" d="M617.091,625.9s1.958-55.079-46.825-97.189c0,0-11.419-10.852-17.939-10.944h-.084c-6.521.092-17.939,10.944-17.939,10.944-48.784,42.11-46.826,97.189-46.826,97.189l-1.01,133.4.568,114.782h130.5L618.1,759.3Z" transform="translate(17.723 -105.415)"/><path class="e" d="M598.159,792.491l44.13,36.719s24.591,22.234,24.591,50.2v45.953a6.588,6.588,0,0,1-6.587,6.588h-.008l-62.1-.067Z" transform="translate(17.723 -105.415)"/><path class="d" d="M598.806,855.975l-.715-94.292s1.384-38.931-33.1-68.7c0,0-8.071-7.67-12.679-7.735h-.06c-4.609.065-12.679,7.735-12.679,7.735-34.482,29.764-33.1,68.7-33.1,68.7l-.714,94.292.342,69.073h92.358Z" transform="translate(17.723 -105.415)"/><circle class="g" cx="28.546" cy="28.546" r="28.546" transform="translate(541.318 481.671)"/><circle class="e" cx="20.091" cy="20.091" r="20.091" transform="translate(549.773 490.126)"/><circle class="h" cx="1.222" cy="1.222" r="1.222" transform="translate(369.201 486.366)"/><circle class="i" cx="4.813" cy="4.813" r="4.813" transform="translate(397.457 407.794)"/><circle class="i" cx="4.813" cy="4.813" r="4.813" transform="translate(759.755 371.522)"/><circle class="j" cx="4.233" cy="4.233" r="4.233" transform="translate(336.414 424.365)"/><path class="k" d="M892.742,837.505c2.246-6.728,3.955-11.875,9.226-24.818,2.923-7.179,4.335-10.317,11.118-12.393,10.029,3.572,22.448.858,30.406-6.214a14.6,14.6,0,0,0,5.986,5.46c2.534,1.343,11.319,4.336,10.117,7.17-6.952,16.372,1.921,58.752,1.921,58.752L938.842,852.7Z" transform="translate(17.723 -105.415)"/><path class="h" d="M838.753,891.234c-10.293-21.057-20.517-43.639-30.81-64.7,24.947.079,49.038-.665,73.985-.585,8.865,23.831,15.3,42.152,22.042,61.55" transform="translate(17.723 -105.415)"/><path class="l" d="M850.485,932.863v106.923a12.494,12.494,0,0,0,12.492,12.493H973.69a36.845,36.845,0,0,0,36.844-36.844h0V932.3a12.492,12.492,0,0,0-12.491-12.492h-.053l-135.065.564A12.491,12.491,0,0,0,850.485,932.863Z" transform="translate(17.723 -105.415)"/><path class="k" d="M959.254,805.005c8.8,7.07,20.26,54.4,21.385,68.417a17.047,17.047,0,0,1-1.269,8.439,9.855,9.855,0,0,1-8.834,5.7,12.79,12.79,0,0,1-8.205-3.752c-2.26-2.086-20.458-15.233-29.572-27.844a9.1,9.1,0,0,1,5.955-3.244s22.119,11.83,28.454,16.41l-5.04-11.26-3.215-18.224C948.905,825.872,959.254,805.005,959.254,805.005Z" transform="translate(17.723 -105.415)"/><path class="m" d="M836.381,903.012a5,5,0,0,0-.969,2.579c.029,1.777,1.846,2.939,3.494,3.6a28.721,28.721,0,0,0,9.489,2.059,5.427,5.427,0,0,0,2.921-.47c2.277-1.285,3.131-3.581,5.112-6.212a37.261,37.261,0,0,1-5.62-2.826,22.215,22.215,0,0,1-5.178-4.946,20.272,20.272,0,0,1-1.9-2.785c-.845-1.469-1.655-.3-2.627,1.246C839.494,897.824,837.954,900.43,836.381,903.012Z" transform="translate(17.723 -105.415)"/><path class="c" d="M944.292,922.22c-32.126-1.559-64.835.326-96.888,3a208.666,208.666,0,0,1-54.266,65.548c-6.162-2.951-10.628-9.1-12.84-15.56a438.022,438.022,0,0,0,38.993-63.4c3.534-7.022,7.257-14.557,14.071-18.478,4.9-2.818,10.739-3.355,16.377-3.748,21.082-1.473,42.175-2.536,63.294-1.756a40.4,40.4,0,0,1,6.627.975,146.173,146.173,0,0,1,15.323,16.448C938.969,910.042,943.452,916.044,944.292,922.22Z" transform="translate(17.723 -105.415)"/><path class="n" d="M936.186,782.994a28.707,28.707,0,0,1-13.792,6.27c-.043,1.842-.047,3.647-.045,5.446a32.636,32.636,0,0,0,13.842-7.642A12.462,12.462,0,0,1,936.186,782.994Z" transform="translate(17.723 -105.415)"/><path class="k" d="M936.191,787.063a32.636,32.636,0,0,1-13.842,7.642c0,2.6.021,5.179-.046,7.843a128.951,128.951,0,0,0,13.181-.694c2.019-4.012,1.613-8.777.936-13.216C936.341,788.121,936.26,787.595,936.191,787.063Z" transform="translate(17.723 -105.415)"/><path class="k" d="M948.9,771.469a4.422,4.422,0,0,0-4.931-1.935,8.037,8.037,0,0,0-4.448,3.382,19.159,19.159,0,0,1-1.756-12.664c-3.292-2.7-6.453-6.637-12.623-7.691A11.615,11.615,0,0,0,916,757.588a12.281,12.281,0,0,0-1.55,5.645,146.551,146.551,0,0,0-.571,18.206c.052,2.254.076,4.86,1.509,6.6,1.646,2,4.042,1.719,7,1.225h0a28.716,28.716,0,0,0,13.792-6.27c.01-.05.015-.1.026-.152.419-1.9,1.458-4.176,3.379-4.49a3.949,3.949,0,0,0,4.119,1.532,7.136,7.136,0,0,0,3.836-2.525C948.932,775.729,949.881,773.363,948.9,771.469Z" transform="translate(17.723 -105.415)"/><path class="o" d="M922.169,789.3a.177.177,0,0,1,.2.152.152.152,0,0,1,0,.037c-.088,1.038-.391,5.486.58,8.454,1.72,5.263.269,7.457-.681,8.84a.164.164,0,0,1-.021.025,10.66,10.66,0,0,1-6.234,2.786,36.588,36.588,0,0,1-6.627-.053,21.966,21.966,0,0,0-5.877.261.175.175,0,0,1-.154-.3,12.508,12.508,0,0,0,3.548-7.165,30.891,30.891,0,0,0,.114-7.393.178.178,0,0,0-.351-.025,22.4,22.4,0,0,1-5.958,10.682c-.127.133-1.253,1.038-1.5.88-.2-.133.388-.87.524-1.072a6.014,6.014,0,0,1,.576-.706,16.189,16.189,0,0,0,3.4-7.459c.618-2.693.431-5.988,2.161-8.143,1.8-2.239,3.638-4.563,4.393-7.333.728-2.673.373-5.51.625-8.27.293-3.213,1.412-6.35,1.291-9.574-.064-1.73-.486-3.426-.665-5.148a8.31,8.31,0,0,1,.779-5.046c1.075-1.848,3.12-2.858,5.015-3.847,2.966-1.548,5.908-3.314,9.2-3.889,3.264-.57,7.1-.166,8.909,2.591a.18.18,0,0,1,.014.171c-1.162,2.644-2.5,6.976-4.174,9.35a.18.18,0,0,1-.235.053c-2.171-1.25-3.836-5.593-6.375-5.612-2.746-.021-5.811,3.387-7.689,5.091a6.561,6.561,0,0,0-1.975,3.3,14.741,14.741,0,0,0-.092,4.682c.158,3.549-.815,7.053-.932,10.6-.142,4.334-.142,6.612,1.092,11.008a3.247,3.247,0,0,0,1.972,1.974C918.572,789.842,920.347,789.563,922.169,789.3Z" transform="translate(17.723 -105.415)"/><path class="p" d="M935.478,748.663c-2.013,2.427-3.67,6.1-5.223,8.841a.063.063,0,0,0,.015.078,23.063,23.063,0,0,0,5.664,3.556,2.866,2.866,0,0,1,1.109.745c.579.742.3,1.8.095,2.722-.789,3.5.35,5.574,2.365,8.542a.062.062,0,0,0,.086.009.059.059,0,0,0,.015-.016c1.3-1.869,2.22-3.1,4.3-3.538a4.257,4.257,0,0,1,3.951.886c2.984,3.044.564,6.4-1.964,8.323a4,4,0,0,1-3.431,1.066,12.277,12.277,0,0,1-2.855-1.517.075.075,0,0,0-.039-.008c-2.061.181-3.337,3.294-3.5,5.36s.506,3.943.044,5.97c-.486,2.134-2.512,4.2-3.763,6-1.107,1.589-.377,4.976.083,7.226a.06.06,0,0,0,.068.049.058.058,0,0,0,.049-.068h0c-.294-7.293,2.265-7.306,4.232-10.031a.061.061,0,0,1,.084-.014.058.058,0,0,1,.025.05c-.3,8.316-2.851,14.421-6.381,21.149a.059.059,0,0,0,.023.079.057.057,0,0,0,.067-.008c4.388-3.991,11.069-5.8,16.986-6.1,1.5-.076,3.2-.106,4.192-1.231.835-.948.851-2.346,1.334-3.514,1.137-2.75,4.709-3.937,5.688-6.748,1.287-3.7-2.665-7.367-2.346-11.267.121-1.485.865-2.881.886-4.371.02-1.529-.724-2.978-.807-4.505-.144-2.647,1.67-4.971,2.333-7.537a9.143,9.143,0,0,0-4.542-10.1c-1.752-.9-3.894-1.28-5.112-2.827-.962-1.222-1.107-2.9-1.853-4.261a7.233,7.233,0,0,0-5.023-3.326c-2.025-.406-4.755.124-6.817.319A.062.062,0,0,0,935.478,748.663Z" transform="translate(17.723 -105.415)"/><path class="d" d="M922.648,779.5a10.252,10.252,0,0,0,4.1-.974.266.266,0,0,1,.362.1.263.263,0,0,1,.025.2,6.4,6.4,0,0,1-6.945,4.719c-1.3-.156-3.262-1.429-2.272-2.987C918.7,779.319,921.4,779.595,922.648,779.5Z" transform="translate(17.723 -105.415)"/><path class="q" d="M928.232,765.029a.562.562,0,0,1,.417.379.574.574,0,0,1-.317.586,1.084,1.084,0,0,1-.61.041,12.375,12.375,0,0,0-2.574-.032,12.86,12.86,0,0,0-1.369.2c-.334.067-.963.39-1.276.3-.241-.067-.282-.272-.16-.568.147-.356.509-.469.788-.6a7.093,7.093,0,0,1,2.389-.652A6.287,6.287,0,0,1,928.232,765.029Z" transform="translate(17.723 -105.415)"/><path class="q" d="M913.044,765.547a.36.36,0,0,0-.1.39.864.864,0,0,0,.407.5.44.44,0,0,0,.37-.027,4.477,4.477,0,0,1,1.486-.3,5.517,5.517,0,0,1,.872.039c.22.026.708.256.858.142.114-.086.061-.277-.123-.535a1.3,1.3,0,0,0-.686-.464,3.852,3.852,0,0,0-1.637-.346A2.128,2.128,0,0,0,913.044,765.547Z" transform="translate(17.723 -105.415)"/><path class="r" d="M943.221,773.931c-.033-.266-.338-.409-.452-.652a.691.691,0,0,1,.006-.532,1.315,1.315,0,0,1,.634-.744,1.976,1.976,0,0,1,1.011-.076,2.215,2.215,0,0,1,1.162.5,1.977,1.977,0,0,1,.658,1.072,2.367,2.367,0,0,1-.613,2.03,4.651,4.651,0,0,1-1.841,1.172,2.024,2.024,0,0,1-.774.176.813.813,0,0,1-.681-.352,1.03,1.03,0,0,1,.056-1.042c.2-.29.487-.474.674-.772a.888.888,0,0,0,.111-.979" transform="translate(17.723 -105.415)"/><path class="s" d="M944.349,772.57a1.911,1.911,0,0,1,.333.971,2.386,2.386,0,0,1-.363,1.458,2.2,2.2,0,0,1-1.19.91.854.854,0,0,1-.459.034.389.389,0,0,1-.3-.321c-.016-.2.164-.355.315-.489a1.682,1.682,0,0,0,.486-.646.848.848,0,0,0-.069-.781c-.1-.142-.263-.243-.34-.4a.631.631,0,0,1-.015-.466,1.868,1.868,0,0,1,.22-.423c.16-.253.359-.468.674-.357A1.432,1.432,0,0,1,944.349,772.57Z" transform="translate(17.723 -105.415)"/><path class="t" d="M944.443,781.778a2.3,2.3,0,0,0-3.74-.852,2.468,2.468,0,0,0,.556,3.446,2.34,2.34,0,0,0,.261.164,2.214,2.214,0,0,0,2.366-.414A2.268,2.268,0,0,0,944.443,781.778Zm-1.059,1.794a1.468,1.468,0,0,1-1.569.275,1.637,1.637,0,0,1-.651-2.222,1.711,1.711,0,0,1,.109-.172,1.526,1.526,0,0,1,2.48.565A1.5,1.5,0,0,1,943.384,783.572Z" transform="translate(17.723 -105.415)"/><path class="j" d="M944.032,779.576a1.781,1.781,0,0,0-2.295-1.036,1.8,1.8,0,0,0-.6.377,1.909,1.909,0,0,0,.431,2.666,1.745,1.745,0,0,0,.2.127,1.715,1.715,0,0,0,1.83-.321A1.752,1.752,0,0,0,944.032,779.576Zm-1,1.191a.868.868,0,0,1-.928.163.969.969,0,0,1-.385-1.316,1.059,1.059,0,0,1,.064-.1.883.883,0,1,1,1.249,1.249Z" transform="translate(17.723 -105.415)"/><path class="k" d="M944.453,779.644a.982.982,0,0,0-.186-.633,1.6,1.6,0,0,0-.5-.447,1.03,1.03,0,0,0-.693-.182.881.881,0,0,0-.622.567,2.713,2.713,0,0,0-.13.886A2.871,2.871,0,0,0,944.453,779.644Z" transform="translate(17.723 -105.415)"/><path class="g" d="M851.292,920.243a39.993,39.993,0,0,1,.99-10.409c-5.851.9-11.914-1.786-16.48-5.553h-.13c-4.309,5.629-11.35,9.04-18.36,10.091-2.776.416-5.612.409-8.358.993a7.675,7.675,0,0,0-3.336,1.411,3.992,3.992,0,0,0-1.172,1.613C819.46,923.448,835.881,921.421,851.292,920.243Z" transform="translate(17.723 -105.415)"/><path class="d" d="M851.292,920.243c-15.411,1.178-31.832,3.2-46.847-1.854a2.918,2.918,0,0,0-.175,1.6,3.709,3.709,0,0,0,2.817,2.643c1.314.347,33.742,3.716,41.619,2.689a3.31,3.31,0,0,0,2.247-.948,3.673,3.673,0,0,0,.424-2.6Q851.32,921.008,851.292,920.243Z" transform="translate(17.723 -105.415)"/><g transform="translate(17.723 -105.415)"><path class="k" d="M783.078,1005.263a128.2,128.2,0,0,0,9.838-14.712,39.745,39.745,0,0,1-7.287-5.72c-2.134-2.242-3.894-4.6-4.481-7.638a129.764,129.764,0,0,1-10.353,19.742c2.654,4.588,7.121,7.125,12.283,8.328"/></g><path class="d" d="M940.059,853.563c6.348,5.247,19.28,13.012,27.109,15.567.83-10.278-10.824-22.439-7.183-37.377,4.949-.5,5.657-.634,10.034-4.291,0,0-.737-5.544-5.737-14.963-8.045,4.676-23.645,5.6-32.949,5.773s-18.71-4.028-27.975-8.777l-5.288,12.8Z" transform="translate(17.723 -105.415)"/><path class="k" d="M939.316,853.031a7.485,7.485,0,0,0-1.444-5,15.067,15.067,0,0,0-3.86-3.622,31.016,31.016,0,0,0-7.665-3.873c-2.073-.708-4.3-1.235-5.962-2.658a26.67,26.67,0,0,1-2.043-2.183,5.557,5.557,0,0,0-2.431-1.68,2.565,2.565,0,0,0-2.719.735c5.745,7.012,11.9,14.223,18.257,20.682a1.383,1.383,0,0,0,1.886.521c.043-.025.085-.051.125-.08C935.349,854.923,937.427,853.977,939.316,853.031Z" transform="translate(17.723 -105.415)"/><path class="u" d="M856.364,904.812c6.7-8.723,17-13.736,25.856-20.258,7.45-5.486,14.565-11.833,19.9-19.393,2.931,9.727,9.041,18.172,15.629,25.9s13.783,15,19.483,23.4c2.94,4.334,5.7,9.173,10.351,11.579,3.7,1.915,8.077,1.979,12.233,1.647,4.645-.371,9.348-1.214,13.441-3.44,8.543-4.645,12.669-22.964,6.11-42.392-14.2,9.373-43.6-22.286-60.346-40.91-3.517-3.911-7.068-7.9-11.522-10.7s-10.023-4.279-15.044-2.717c-5.817,1.809-9.689,7.159-13.134,12.183l-36.748,53.6A24.8,24.8,0,0,0,856.364,904.812Z" transform="translate(17.723 -105.415)"/><path class="k" d="M857.032,905.792a14.859,14.859,0,0,0-4.977,6.349,2.762,2.762,0,0,1-1,1.489,2.507,2.507,0,0,1-1.182.218,46.015,46.015,0,0,1-9.569-.5,18.865,18.865,0,0,1-9.127-4.582c4.181-4.828,8.626-9.534,12.043-14.929A40.83,40.83,0,0,0,857.032,905.792Z" transform="translate(17.723 -105.415)"/><path class="v" d="M847.59,884.039l1.306.057-.552.836Z" transform="translate(17.723 -105.415)"/><path class="w" d="M842.143,891.505a1.664,1.664,0,0,0-.454.9c-.029.5.5.808.753,1.233,4.209,6.957,8.384,9.707,14.7,12.829a60.51,60.51,0,0,0,7.907-8.923c-.683.474-5.637-2.774-6.4-3.225a54.081,54.081,0,0,1-5.752-4.51,76.678,76.678,0,0,1-5.3-5.766A54.6,54.6,0,0,1,842.143,891.505Z" transform="translate(17.723 -105.415)"/><path class="v" d="M864.554,896.744l.493.8s-.31.252-1.139-.211Z" transform="translate(17.723 -105.415)"/><path class="x" d="M790.873,963.4l.912.016-.415.569Z" transform="translate(17.723 -105.415)"/><path class="h" d="M774.743,981.456a1.7,1.7,0,0,0-.469.919c-.03.515.512.827.777,1.262,4.344,7.125,8.651,9.941,15.166,13.138a62.163,62.163,0,0,0,8.159-9.138c-.7.485-5.816-2.84-6.6-3.3a55.758,55.758,0,0,1-5.936-4.618,78.555,78.555,0,0,1-5.473-5.906A55.682,55.682,0,0,1,774.743,981.456Z" transform="translate(17.723 -105.415)"/><path class="x" d="M807.577,975.816l.485.777s-.3.247-1.121-.205Z" transform="translate(17.723 -105.415)"/><path class="d" d="M905.362,827.763l-.56,1.023s5.6,3.057,8.39,5.963a5.174,5.174,0,0,1,.844-.652l-1.121-4.823Z" transform="translate(17.723 -105.415)"/><path class="g" d="M786.194,1010.289a39.906,39.906,0,0,1,.99-10.409c-5.852.9-15.858-3.722-15.9-3.722-3.509.975-12.059,7.209-19.07,8.26-2.776.416-5.611.409-8.358.993a7.648,7.648,0,0,0-3.335,1.412,3.972,3.972,0,0,0-1.173,1.613C754.361,1013.494,770.782,1011.463,786.194,1010.289Z" transform="translate(17.723 -105.415)"/><path class="d" d="M786.194,1010.289c-15.412,1.178-31.833,3.2-46.848-1.853a2.918,2.918,0,0,0-.175,1.6,3.711,3.711,0,0,0,2.818,2.642c1.313.347,33.742,3.716,41.619,2.689a3.3,3.3,0,0,0,2.247-.948,3.673,3.673,0,0,0,.424-2.6Q786.222,1011.054,786.194,1010.289Z" transform="translate(17.723 -105.415)"/><path class="y" d="M674.491,665.57c.43-2.515,2.551-4.472,4.557-6.047a13.751,13.751,0,0,1,2.012-1.362,17.494,17.494,0,0,1,2.056-.882,3.9,3.9,0,0,1,2.248-.179,7.333,7.333,0,0,1-1.3,2.383,20.006,20.006,0,0,1-1.771,2.258,18.3,18.3,0,0,1-2.033,1.769,10.3,10.3,0,0,1-1.731,1.163,7.845,7.845,0,0,1-1.138.44A16.166,16.166,0,0,1,674.491,665.57Z" transform="translate(17.723 -105.415)"/><path class="z" d="M684.918,657.909a4.386,4.386,0,0,1-2.431-1.932c-3.029-4.183-5.458-7.784-5.413-12.948a1.679,1.679,0,0,0-.453-1.451,1.049,1.049,0,0,0-1.221.111,2.25,2.25,0,0,0-.668,1.11c-.687,2.182.019,4.655-.837,6.777-2.443-4.773-6.786-8.474-10.961-11.837a13.225,13.225,0,0,0-6.429,6.635,17.511,17.511,0,0,0,4.308,9.759,18.421,18.421,0,0,0,9.295,5.786,23.552,23.552,0,0,1,4.414,1.249,7.233,7.233,0,0,1,3.593,3.924c1.666.124,3.225-.959,4.378-2.168a9.023,9.023,0,0,0,1.192-1.493A12.458,12.458,0,0,0,684.918,657.909Z" transform="translate(17.723 -105.415)"/><path class="g" d="M746.106,915.6a29.864,29.864,0,0,1,.739-7.777c-4.372.672-11.849-2.782-11.881-2.782-2.622.729-9.01,5.387-14.249,6.172-2.074.311-4.194.306-6.245.742a5.714,5.714,0,0,0-2.493,1.055,2.96,2.96,0,0,0-.876,1.2C722.32,918,734.59,916.481,746.106,915.6Z" transform="translate(17.723 -105.415)"/><path class="d" d="M746.106,915.6c-11.516.88-23.786,2.395-35-1.385a2.189,2.189,0,0,0-.131,1.2,2.773,2.773,0,0,0,2.1,1.975c.982.259,25.213,2.777,31.1,2.009a2.468,2.468,0,0,0,1.68-.709,2.744,2.744,0,0,0,.315-1.944C746.145,916.364,746.123,915.982,746.106,915.6Z" transform="translate(17.723 -105.415)"/><path class="g" d="M759.882,919.642a29.822,29.822,0,0,1,.739-7.777c-4.372.672-11.849-2.782-11.881-2.782-2.622.728-9.011,5.387-14.249,6.172-2.075.311-4.194.306-6.245.742a5.722,5.722,0,0,0-2.494,1.055,2.969,2.969,0,0,0-.876,1.205C736.1,922.037,748.366,920.522,759.882,919.642Z" transform="translate(17.723 -105.415)"/><path class="d" d="M759.882,919.642c-11.516.88-23.786,2.4-35-1.385a2.18,2.18,0,0,0-.131,1.2,2.77,2.77,0,0,0,2.1,1.975c.982.259,25.213,2.776,31.1,2.009a2.468,2.468,0,0,0,1.679-.709,2.734,2.734,0,0,0,.317-1.944Q759.9,920.214,759.882,919.642Z" transform="translate(17.723 -105.415)"/><path class="c" d="M733.547,906.349c.092-3.081.211-6.009.08-8.566q-3.3-64.626-3.262-129.323c7.016.626,15.556.92,22.572,1.545,1.421,40.732-.236,81.487-1.894,122.213-.185,4.506-1.026,13.136-2.3,17.531C744.572,910.012,737.715,906.087,733.547,906.349Z" transform="translate(17.723 -105.415)"/><path class="aa" d="M745.808,911.469c-.691-2.641-1.213-3.71-1.344-6.411q-3.3-68.262-3.262-136.6c7.016.661,15.556.971,22.571,1.632,1.422,43.023-.235,86.071-1.894,129.089-.184,4.759-.055,9.535-1.332,14.177C756.38,913.636,750.078,913.557,745.808,911.469Z" transform="translate(17.723 -105.415)"/><path class="d" d="M727.074,771.122a18.8,18.8,0,0,1-6.265-2.323,4.024,4.024,0,0,1-2.254-2.681c-.193-1.654,1.4-2.881,2.6-4.03,3.435-3.278,4.621-8.215,5.469-12.888,2.337-12.876,2.856-26.392,6.129-39.063a8.143,8.143,0,0,0,2.859.913c.716,10.153,1.419,20.565.2,30.67S732.161,762.307,727.074,771.122Z" transform="translate(17.723 -105.415)"/><path class="ab" d="M752.316,674.715c-3.3,3.429-9.682,6.023-13.845,6.845-.035,1.926.285,2.112.287,3.993,4.181-1.494,10.347-3.7,13.478-7.531A10.281,10.281,0,0,1,752.316,674.715Z" transform="translate(17.723 -105.415)"/><path class="z" d="M752.232,678.022a44.768,44.768,0,0,1-13.478,7.525c0,2.714.016,7.166-.037,9.951,3.705.009,15.736-4.478,19.425-4.939,1.484-3.5-3.127-5.547-5.121-9.475A17.108,17.108,0,0,1,752.232,678.022Z" transform="translate(17.723 -105.415)"/><path class="z" d="M765.442,663.079a4.624,4.624,0,0,0-5.155-2.022,8.4,8.4,0,0,0-4.65,3.535,20.027,20.027,0,0,1-1.835-13.239c-3.442-2.82-6.747-6.938-13.2-8.04a12.143,12.143,0,0,0-9.549,5.255,12.835,12.835,0,0,0-1.62,5.9,153.078,153.078,0,0,0-.6,19.033c.054,2.357.078,5.081,1.577,6.9,1.721,2.088,4.225,1.8,7.321,1.28h0a30.316,30.316,0,0,0,14.517-6.545c.01-.053.024-.167.036-.22.438-1.987,1.417-4.314,3.426-4.642a4.128,4.128,0,0,0,4.3,1.6,7.469,7.469,0,0,0,4.01-2.64C765.48,667.533,766.472,665.063,765.442,663.079Z" transform="translate(17.723 -105.415)"/><path class="ab" d="M759.51,665.653c-.035-.278-.354-.428-.473-.682a.724.724,0,0,1,.007-.556,1.375,1.375,0,0,1,.664-.778,2.064,2.064,0,0,1,1.057-.079,2.333,2.333,0,0,1,1.214.518,2.088,2.088,0,0,1,.688,1.121,2.478,2.478,0,0,1-.643,2.123,4.861,4.861,0,0,1-1.923,1.225,2.122,2.122,0,0,1-.81.184.847.847,0,0,1-.711-.368,1.073,1.073,0,0,1,.058-1.09c.207-.3.509-.5.7-.807s.343-.734.117-1.023" transform="translate(17.723 -105.415)"/><path class="ac" d="M760.689,664.23a1.973,1.973,0,0,1,.348,1.016,2.483,2.483,0,0,1-.379,1.524,2.292,2.292,0,0,1-1.244.95.881.881,0,0,1-.48.036.4.4,0,0,1-.313-.335c-.017-.21.17-.372.328-.511a1.766,1.766,0,0,0,.51-.675.881.881,0,0,0-.074-.817c-.107-.149-.273-.254-.354-.419a.649.649,0,0,1-.016-.486,1.877,1.877,0,0,1,.23-.442c.167-.265.375-.49.7-.374A1.5,1.5,0,0,1,760.689,664.23Z" transform="translate(17.723 -105.415)"/><path class="ad" d="M753.362,660.232a17.088,17.088,0,0,1,7.47-15.169" transform="translate(17.723 -105.415)"/><path class="d" d="M733.764,672.5a1.716,1.716,0,0,0-.613,1.666,2.463,2.463,0,0,0,1.016,1.517,4.414,4.414,0,0,0,1.722.7,6.2,6.2,0,0,0,5.185-1.182,3.007,3.007,0,0,0,.889-1.148,1.644,1.644,0,0,0-.055-1.415,1.947,1.947,0,0,0-2.064-.718,15.869,15.869,0,0,0-2.185.8,2.518,2.518,0,0,1-2.152-.038C734.955,672.306,734.41,672.03,733.764,672.5Z" transform="translate(17.723 -105.415)"/><g transform="translate(17.723 -105.415)"><path class="ae" d="M733.252,669.123c-.7.048-1.773-.22-1.968.555-.553,1.562,3.517,1.821,5.36,1.28a1.831,1.831,0,0,1,.547-.112h.023l.106-2.484C736.121,668.154,734.189,669.063,733.252,669.123Z"/></g><g transform="translate(17.723 -105.415)"><path class="ae" d="M741.144,669.692c.688.148,1.786.036,1.868.832.323,1.625-3.742,1.3-5.489.5a1.84,1.84,0,0,0-.523-.189h-.023l.251-2.474C738.443,668.321,740.226,669.494,741.144,669.692Z"/></g><path class="r" d="M737.259,661.385a17.516,17.516,0,0,1-1.341,5.212,2.5,2.5,0,0,0-.3,1.76,1.234,1.234,0,0,0,1.133.712l1.689.231a.954.954,0,0,0,.738-.1,1.342,1.342,0,0,0,.386-1.042,5.033,5.033,0,0,0-.2-1.187,32.016,32.016,0,0,1-.893-5.937c-.027-.488.1-2.084-.559-1.923C737.373,659.241,737.312,660.863,737.259,661.385Z" transform="translate(17.723 -105.415)"/><path class="ae" d="M759.732,661.25a14.028,14.028,0,0,0-1.281-8.031c-.393-.793-.866-1.547-1.228-2.356a36.757,36.757,0,0,1-1.3-4.1,3.911,3.911,0,0,0-.549-1.2,4.07,4.07,0,0,0-.766-.723,19.678,19.678,0,0,0-3.533-2.278,19.139,19.139,0,0,0-9.029-1.626,30.264,30.264,0,0,0-9.608,1.926,3.26,3.26,0,0,0-2.89,3.593c.008.069.017.138.03.207.074,1.414.122,3.222.325,4.624a15.364,15.364,0,0,1,2.132-2.361,6.708,6.708,0,0,1,4.794-1.887c3.962-.289,8.12-.522,11.73,1.136a24.034,24.034,0,0,1,4.9,3.325,26.979,26.979,0,0,0,.479,10.1,8.3,8.3,0,0,0,1.7,3A11.156,11.156,0,0,1,759.732,661.25Z" transform="translate(17.723 -105.415)"/><path class="ae" d="M752.3,675.4l2.14-.322a2.738,2.738,0,0,0,.692-.166,2.628,2.628,0,0,0,.6-.4,6.81,6.81,0,0,0,1.2-1.193,3.046,3.046,0,0,0,.637-1.633c-.211-.108-.454-.179-.665-.287a3.136,3.136,0,0,1-.689-.54,1.523,1.523,0,0,1-.494-.689,4.04,4.04,0,0,0-1.757,1.863l-1.113,1.8A2.455,2.455,0,0,0,752.3,675.4Z" transform="translate(17.723 -105.415)"/><path class="ae" d="M749.607,669.426c-.726,1.046-1.318,2.186-2.023,3.247a17.13,17.13,0,0,1-10.541,7.252,8.178,8.178,0,0,1-3.909.034,4.343,4.343,0,0,1-2.929-2.525,13.243,13.243,0,0,1-1.394-5.016c-.453.248-.32,1.146-.318,1.678a26.876,26.876,0,0,0,.256,3.63,5.527,5.527,0,0,0,1.169,3.087,4.832,4.832,0,0,0,2.922,1.246,20.158,20.158,0,0,0,9.23-1.042,44.676,44.676,0,0,0,8.473-4.105,5.636,5.636,0,0,0,1.323-.978,7.015,7.015,0,0,0,1.012-1.717c.815-1.675,2.079-2.24,2.838-3.942a13.231,13.231,0,0,0,.7-6.457c-.122-.724-1.828-8.064-2.8-7.769-.7.212-.025,4.927-.322,6.8C752.955,664.974,750.826,667.671,749.607,669.426Z" transform="translate(17.723 -105.415)"/><path class="ae" d="M731.621,679.571a2.66,2.66,0,0,0,1.859-.678,4.58,4.58,0,0,0,1.157-1.647c.177-.4.4-.883.838-.918a.808.808,0,0,1,.483.143c.962.612.824,2.117,1.586,2.965.391.435,1.61-.34,2.191-.278a14.4,14.4,0,0,1-5.972,1.863,2.071,2.071,0,0,1-1.145-.1A2.881,2.881,0,0,1,731.621,679.571Z" transform="translate(17.723 -105.415)"/><path class="af" d="M743.741,771.491c7.685,2.561,16.031,4.459,24.27,3.648-1.35-20.6-5.564-81.378-8.69-87.773-5.688-11.638-14.575,3.224-20.853,6.16-.3,5.992-2.412,11.725-3.359,17.625.171-.035.333-.064.5-.1.034.1,1.488,23.121-1.324,34.8-2.324,9.647-6.2,18.968-7.871,28.719C731.893,771.8,738.023,769.585,743.741,771.491Z" transform="translate(17.723 -105.415)"/><path class="ag" d="M735.614,711.05a67.005,67.005,0,0,0,13.913-3.892s-2.48,9.367-13.638,11.3Z" transform="translate(17.723 -105.415)"/><path class="af" d="M674.491,665.57,699.1,694.906a8.88,8.88,0,0,0,3.357,2.478l32.646,13.767,4.018-17.425L708.475,684.7l-23.111-27.6Z" transform="translate(17.723 -105.415)"/><path class="d" d="M754.285,683.014c-.056-.073-.147-.183-.2-.261-.181-.279-.3-.425-.485-.705-.053-.081-.121-.28-.211-.317s-.3.047-.408.079a19.277,19.277,0,0,0-7.587,4.055c-1.248,1.152-2.278,2.524-3.526,3.675a7.05,7.05,0,0,1-4.505,2.123.488.488,0,0,0-.372.1.465.465,0,0,0-.087.235c-.061.353-.2.639-.259.992.636.192,1.087.347,1.565.477a.652.652,0,0,0,.3.031,1.741,1.741,0,0,0,.422-.189c1.093-.611,1.433-.98,2.26-1.51,2.124-1.361,3.439-3.212,5.414-4.781.8-.632,2.039-1.665,2.87-2.25A8.569,8.569,0,0,1,754.285,683.014Z" transform="translate(17.723 -105.415)"/><path class="h" d="M743.741,771.491c-5.718-1.906-11.848.309-17.322,3.081a56.241,56.241,0,0,0-.738,6.234c0,.035,8.272-2.855,12.563-3.8,10.321-1.4,20.354,5.7,30.2,4.93,0,0-.157-2.542-.435-6.792C759.772,775.95,751.426,774.052,743.741,771.491Z" transform="translate(17.723 -105.415)"/><circle class="d" cx="2.049" cy="2.049" r="2.049" transform="translate(672.18 355.562)"/><path class="h" d="M737.865,409.937l1.886,10.251a.648.648,0,0,0,.473.506l11.721,3a.642.642,0,0,1,.467.779h0a.644.644,0,0,1-.491.472l-11.254,2.406a.642.642,0,0,0-.5.525l-1.627,10.056a.643.643,0,0,1-1.252.077l-2.906-10a.647.647,0,0,0-.465-.446l-10.637-2.576a.643.643,0,0,1-.475-.775h0a.643.643,0,0,1,.468-.472l10.483-2.636a.642.642,0,0,0,.469-.484l2.38-10.7a.643.643,0,0,1,1.26.018Z" transform="translate(17.723 -105.415)"/><path class="ah" d="M248.443,708.432a25.884,25.884,0,0,0,.216,3.172c.117.9.3,1.288,1.278.727C251.988,711.157,250.832,708.456,248.443,708.432Z" transform="translate(17.723 -105.415)"/><path class="ai" d="M205.994,809.412s-12.637,23.941-.121,84.825c17.3,84.142,12.425,122.761,15.854,135.18.954,3.454,14.137-2.376,14.137-2.376s9.352-35.276,8.751-173.848c-.016-3.836,6,40.41,30.171,71.481,0,0-8.009,54.832-5.324,88.588L286.81,1012s11.274-51.107,17.353-88.974a6.335,6.335,0,0,0-.063-2.345c-2.138-9.951-17.818-80.568-39.538-115.82Z" transform="translate(17.723 -105.415)"/><path class="aj" d="M187.344,734.081c-3.388,6.419-3.554,13.991-3.645,21.249l-.415,33.482c-.087,7.009.533,17.714,6.375,21.587,3.725,2.47,8.534,2.333,13,2.107,16.953-.859,33.805-4.2,50.758-5.056,2.188-5.7,9.448-7.134,15.526-7.718l56.09-5.39a16.641,16.641,0,0,1-3.778-13.02l-44.606,1.2c.987-12.683,1.974-25.458.535-38.1-.711-6.246-2.078-12.587-5.5-17.864-5.584-8.624-15.974-13.179-26.2-14.172C227.61,710.654,196.668,716.414,187.344,734.081Z" transform="translate(17.723 -105.415)"/><g transform="translate(17.723 -105.415)"><path class="g" d="M221.7,1040.917a43.923,43.923,0,0,0,.028-11.5c6.309,1.61,13.336-2.846,14.137-2.376,3.736,1.441,16.1,9.179,23.66,11.078,2.994.752,6.1,1.048,9.043,1.98a8.427,8.427,0,0,1,3.5,1.9,4.374,4.374,0,0,1,1.111,1.891C255.826,1049.195,238.444,1043.852,221.7,1040.917Z"/><path class="d" d="M221.7,1040.917c13.78-4.062,25.864,9.995,51.48,2.975a3.215,3.215,0,0,1,.021,1.772,4.08,4.08,0,0,1-3.366,2.592c-1.476.24-37.334.464-45.848-1.5a3.638,3.638,0,0,1-2.358-1.278,4.042,4.042,0,0,1-.187-2.894Q221.588,1041.752,221.7,1040.917Z"/></g><g transform="translate(17.723 -105.415)"><path class="g" d="M265.069,1015.609a43.935,43.935,0,0,0,4.511-10.578c5.182,3.943,17.279,4.733,17.321,4.756,2.878,2.784,7.866,13.3,14.089,18,2.464,1.861,5.209,3.344,7.555,5.35a8.45,8.45,0,0,1,2.483,3.117,4.376,4.376,0,0,1,.285,2.174C293.265,1036.541,279.343,1024.843,265.069,1015.609Z"/><path class="d" d="M265.069,1015.609c14.273,1.634,19.919,19.291,46.244,22.816a3.2,3.2,0,0,1-.672,1.64,4.082,4.082,0,0,1-4.11,1.074c-1.452-.354-34.559-14.132-41.631-19.262a3.634,3.634,0,0,1-1.672-2.1,4.027,4.027,0,0,1,.957-2.738Q264.64,1016.336,265.069,1015.609Z"/></g><path class="g" d="M213.4,661.463a19.906,19.906,0,0,0-2.677,4.453,15.063,15.063,0,0,0,.39,13.266,31.874,31.874,0,0,1,3.924,14.934,5.443,5.443,0,0,0,.511,2.662,4.484,4.484,0,0,0,1.44,1.338,21.624,21.624,0,0,0,9.152,3.41,15.327,15.327,0,0,0-.654-7.313c-.887-2.233-1.7-6.015-5.009-4.818.306-5.039.692-10.2,1.025-15.279C220.963,669,217.565,664.807,213.4,661.463Z" transform="translate(17.723 -105.415)"/><path class="ab" d="M225.7,696.742c5.675,3.462,15.485,3.138,22.111,3.307.342,2.3.136,4.681.415,6.935-6.755-.97-16.967-3.341-22.434-7.319C225.8,697.927,225.7,698.352,225.7,696.742Z" transform="translate(17.723 -105.415)"/><path class="z" d="M225.787,699.663c5.467,3.978,15.679,6.349,22.434,7.319.4,3.253.789,6.492,1.291,9.819-5.786.738-25.251-2.282-31.081-2.112-2.846-3.9,4.049-7.26,6.572-12.359A8.643,8.643,0,0,0,225.787,699.663Z" transform="translate(17.723 -105.415)"/><path class="z" d="M209.8,680.852c.832-2.255,3.486-3.473,5.874-3.2s3.138,2.179,4.149,4.872a24.207,24.207,0,0,0,.209-16.144c3.7-3.9,7.042-9.33,14.606-11.62a14.664,14.664,0,0,1,12.234,4.862c1.624,1.888,2.274,4.4,2.83,6.829a184.9,184.9,0,0,1,3.579,22.721c.289,2.833.67,6.1-.853,8.506-1.749,2.762-4.793,2.79-8.581,2.636.013.089-.015-.089,0,0-6.626-.169-12.484-.042-18.16-3.5-.02-.062-.143-2.308-.164-2.369-.825-2.316-2.484-5-4.941-5.1-.967.845-1,1.391-2.962,1.234a9.032,9.032,0,0,1-5.2-2.561C210.432,686.2,208.868,683.386,209.8,680.852Z" transform="translate(17.723 -105.415)"/><path class="ab" d="M216.032,684.79c-.023-.338.32-.59.4-.919a.874.874,0,0,0-.139-.657,1.657,1.657,0,0,0-.965-.768,2.5,2.5,0,0,0-1.272.152,2.784,2.784,0,0,0-1.318.9,2.5,2.5,0,0,0-.555,1.488,2.993,2.993,0,0,0,1.254,2.367,5.867,5.867,0,0,0,2.564,1,2.59,2.59,0,0,0,1,.03,1.025,1.025,0,0,0,.758-.6,1.3,1.3,0,0,0-.323-1.278c-.316-.311-.719-.469-1.022-.793s-.577-.79-.376-1.186" transform="translate(17.723 -105.415)"/><path class="ak" d="M214.307,683.377a2.389,2.389,0,0,0-.176,1.285,3.008,3.008,0,0,0,.8,1.718,2.78,2.78,0,0,0,1.7.838,1.072,1.072,0,0,0,.579-.069.5.5,0,0,0,.293-.47c-.03-.253-.289-.4-.509-.53a2.149,2.149,0,0,1-.761-.682,1.067,1.067,0,0,1-.1-.985,4.154,4.154,0,0,0,.323-.579.787.787,0,0,0-.1-.58,2.333,2.333,0,0,0-.375-.471c-.26-.274-.558-.492-.921-.279A1.8,1.8,0,0,0,214.307,683.377Z" transform="translate(17.723 -105.415)"/><path class="ad" d="M221.649,677.354A20.641,20.641,0,0,0,210.414,660.3" transform="translate(17.723 -105.415)"/><path class="g" d="M230.918,667.1c-1.665.549-3.458.881-4.865,1.926-1.647,1.222-4.4,3.386-4.8,6.919-.23,2.037-2.235.993-4.147.253-1.91-7.23,1.723-14.774,6.229-20.743a21.4,21.4,0,0,1,5.746-5.657c4.636-2.8,12.092-1.256,12.75,4.929C242.444,660.514,235.685,665.527,230.918,667.1Z" transform="translate(17.723 -105.415)"/><path class="g" d="M213.4,661.463a26.242,26.242,0,0,1,16.366-9.173c-1.4,6.807-5.518,12.879-11.828,15.791A18.809,18.809,0,0,0,213.4,661.463Z" transform="translate(17.723 -105.415)"/><path class="g" d="M250.549,670.382a3.569,3.569,0,0,0,1.056-2.7,10.709,10.709,0,0,0-3.329-8.059,13.953,13.953,0,0,0-6.778-3.975c-.172,1.733,4.5,4.725,5.676,6.373A21.064,21.064,0,0,1,250.549,670.382Z" transform="translate(17.723 -105.415)"/><path class="g" d="M238.373,688.322a9.2,9.2,0,0,0-.451,4.408c.113,1.846-.869,4.393-.352,6.169a8.552,8.552,0,0,0,2.993,4.593,6.908,6.908,0,0,0,5.82,1.036,6.767,6.767,0,0,0,4.4-3.88c.616-1.52.223-2.435.217-4.063a29.469,29.469,0,0,0-.128-5.11,8.582,8.582,0,0,0-2.023-4.265c-.571-.608-1.052-1.507-1.807-1.883-1.592-.793-3.945-1.324-5.479-.215C239.971,686.263,239.22,686.463,238.373,688.322Z" transform="translate(17.723 -105.415)"/><path class="r" d="M244.121,677.029a15.2,15.2,0,0,0,2.216,5.6c.375.576.807,1.272.523,1.9-.266.588-1.01.752-1.65.842l-2.5.351a1.862,1.862,0,0,1-1.1-.067,1.276,1.276,0,0,1-.618-1.112,4.131,4.131,0,0,1,.249-1.306,26.388,26.388,0,0,0,1.066-6.518c.02-.534-.231-2.266.746-2.128C243.857,674.7,244.019,676.463,244.121,677.029Z" transform="translate(17.723 -105.415)"/><path class="z" d="M240.978,695.292a1.872,1.872,0,0,0,.5,1.035.941.941,0,0,0,1.108.018,2.084,2.084,0,0,0,.714-.976,4.825,4.825,0,0,0,.353-1.986.747.747,0,0,0-.12-.446.711.711,0,0,0-.449-.2,4.076,4.076,0,0,1-2.236-1.313c-.108-.121-.243-.4-.414-.4-.228,0-.172.245-.151.416q.112.915.278,1.822Q240.738,694.286,240.978,695.292Z" transform="translate(17.723 -105.415)"/><path class="z" d="M248.542,694.891a2.033,2.033,0,0,1-.26,1.1.736.736,0,0,1-.946.192,2.04,2.04,0,0,1-.767-.851,5.41,5.41,0,0,1-.62-1.9.831.831,0,0,1,.031-.458.594.594,0,0,1,.353-.264,3.58,3.58,0,0,0,1.705-1.646c.073-.137.145-.431.292-.458.194-.036.186.215.195.387.033.613.049,1.228.054,1.841Q248.585,693.863,248.542,694.891Z" transform="translate(17.723 -105.415)"/><path class="d" d="M240.295,691.23a3.365,3.365,0,0,0,.871,1.163,4.783,4.783,0,0,0,5.519.97,2.925,2.925,0,0,0,1.427-3.884c-.014-.03-.028-.06-.043-.089a1.686,1.686,0,0,0-1.884-.615c-1.4.2-3.149.9-4.552.609-.39-.081-.73-.544-1.116-.3C239.947,689.441,240.032,690.555,240.295,691.23Z" transform="translate(17.723 -105.415)"/><path class="ai" d="M221.838,999.769c-.191-.065-.354-.409-.814-.337-3.653-11.6-4.743-24.165-7.593-36.12-1.44-6.04-2.881-12.02-4.539-18.013-1.833-6.623-1.727-13.329-1.727-20.177,0-12.62-2.282-24.562-2.852-37.077-.728-15.991,1.027-31.691,1.414-47.6a126.164,126.164,0,0,1,1.446-15.991c.708-4.623.868-10.226,2.294-14.567,8.688,5.013,16.1,17.586,19.177,26.7,1.889,5.587,1.824,11.619,1.825,17.435q0,31.788,1.437,63.566c.987,22.676.851,45.875-2.092,68.368-.436,3.334-.658,8.507-2.69,11.376C225.96,998.981,223.332,998.78,221.838,999.769Z" transform="translate(17.723 -105.415)"/><path class="al" d="M204.539,809.412c.044,2.157-2.764,6.524-1.37,7.965,2.3,2.377,12.273.514,15.255.339,14.046-.82,28.233-1.194,42.159-2.569,2.557-.253,7.855.481,8.245-2.071.238-1.56-1.715-5.823-2.994-6.754-1.981-1.441-6.765-1.757-9.183-2.142-4.132-.657-8.9-.154-13.25.056-8.332.4-16.675,1.29-24.969,1.75C214.052,806.23,207.691,806.424,204.539,809.412Z" transform="translate(17.723 -105.415)"/><path class="al" d="M276.793,742.319c-3.33.983-7.184,3.278-10.413,4.888-9.227,4.6-17.047,13.911-22.478,13.911-5.028,0-23.277-10.164-31.621-11.631,1.4,3.831-.091,9.807-.789,13.706-.9,5-1.408,9.947-2.1,14.928-.977,7-1.683,13.86-2.486,20.833a59.619,59.619,0,0,1-3.144,13.547c-.888,2.45-2.125,4.326.375,5.772s7.383.6,10.124.6c6.827,0,13.641-.25,20.46-.567,7.285-.339,14.518-1.432,21.814-1.791,3.9-.192,8.258-.33,11.9-1.411-.541-7.009-1.882-12.726,1.826-19.477,5.482-9.979,6.083-21.337,6.531-32.608C277.051,756.5,276.793,748.849,276.793,742.319Z" transform="translate(17.723 -105.415)"/><path class="am" d="M205.994,794.5a177.632,177.632,0,0,0,3.07-24.558c.17-3.8,1.044-7.533,1.569-11.3.407-2.918.184-6.81,1.594-9.342,3.248,3.643,1.6,16.291,1.842,21.234a226.18,226.18,0,0,1,.3,24.287C212.242,795.675,208.1,795.691,205.994,794.5Z" transform="translate(17.723 -105.415)"/><path class="k" d="M345.463,780.363c2.565-.677,4.979-2.643,5.345-5.271.143-1.026.214-2.411,1.231-2.613.935-.185,1.581.922,1.779,1.854a10.743,10.743,0,0,1-5.594,11.523c-2.679,1.317-5.772,1.426-8.756,1.419-1.551,0-5.1.11-4.3-1.221a23.391,23.391,0,0,0,2.026-4.794C337.8,779.7,342.954,781.026,345.463,780.363Z" transform="translate(17.723 -105.415)"/><path class="u" d="M344.494,759.533h-7.135a34.613,34.613,0,0,0-2.2-5.306l5.041-5.041a6.588,6.588,0,0,0,0-9.313l-5.7-5.7a6.6,6.6,0,0,0-4.654-1.869h0a6.6,6.6,0,0,0-4.654,1.869l-5.041,5.041a34.756,34.756,0,0,0-5.306-2.2v-7.133a6.589,6.589,0,0,0-6.582-6.582h-8.051a6.59,6.59,0,0,0-6.582,6.582v7.135a34.854,34.854,0,0,0-5.306,2.2l-5.043-5.041a6.591,6.591,0,0,0-9.311,0l-5.7,5.7a6.6,6.6,0,0,0,0,9.311l5.04,5.043a34.935,34.935,0,0,0-2.2,5.306h-7.131a6.589,6.589,0,0,0-6.582,6.582v8.046a6.589,6.589,0,0,0,6.582,6.58h7.135a34.959,34.959,0,0,0,2.2,5.306l-5.041,5.043a6.59,6.59,0,0,0,0,9.311l5.7,5.7a6.6,6.6,0,0,0,9.311,0l5.043-5.041a34.714,34.714,0,0,0,5.306,2.2v7.131a6.589,6.589,0,0,0,6.582,6.583h8.05a6.59,6.59,0,0,0,6.583-6.583v-7.135a34.856,34.856,0,0,0,5.306-2.2L325.2,806.1a6.756,6.756,0,0,0,9.311,0l5.7-5.7a6.59,6.59,0,0,0,0-9.311l-5.04-5.043a34.933,34.933,0,0,0,2.2-5.306H344.5a6.59,6.59,0,0,0,6.582-6.582v-8.051A6.59,6.59,0,0,0,344.494,759.533Zm-40.251,31.089a20.482,20.482,0,1,1,20.481-20.483v0A20.5,20.5,0,0,1,304.243,790.622Z" transform="translate(17.723 -105.415)"/><path class="an" d="M223.377,704.83c-5.9-.671-12.009-3.39-18.1-2.648-5.749.7-12.187,5.107-9.808,11.563,2.443,6.627,10.512,5.765,16.024,5.075a103,103,0,0,1,18.94-1.019c4.987.3,9.413,3.138,13.8,5-1.592-2.319-2.438-3.377-3.134-6.125-4.53-.217-22.1-5.087-22.3-5.6-.393-.989.435-1.426,1.045-2.1C220.9,707.794,221.787,706.67,223.377,704.83Z" transform="translate(17.723 -105.415)"/><path class="ao" d="M240.093,720.923a8.514,8.514,0,0,1,1.007-4.247,4.775,4.775,0,0,1,2.875-2.276c1.466-.61,2.9-1.242,4.4-1.756.965-.332,2.44-.708,2.538-1.864.063-.746-1.967-1.947-2.508-2.366a8.614,8.614,0,0,1-.187-1.43,12.542,12.542,0,0,1,4.5.167c1.918.347,4.54,1.387,5.313,3.342.617,1.56.946,3.719-.339,5.021a8.245,8.245,0,0,1-3.792,1.8c-2,.552-4.1.951-6.052,1.637a5.917,5.917,0,0,0-3.667,4.058A37.332,37.332,0,0,0,240.093,720.923Z" transform="translate(17.723 -105.415)"/><path class="ap" d="M257.153,794.718A9.531,9.531,0,0,0,255,799.56a11.9,11.9,0,0,0,.376,6.216c.224.657,1.364,3.383,2.26,3.12.747-.219,1.037-1.945,1.092-2.542.149-1.653.318-3.36.357-5.021C259.132,799.341,259.058,796.084,257.153,794.718Z" transform="translate(17.723 -105.415)"/><path class="k" d="M257.251,796.845a4.073,4.073,0,0,0-2.47,6.752c1.252,1.4,3.263,1.757,5.117,2.036l27.815,4.19c.949.143,2.185.136,2.553-.751a1.5,1.5,0,0,0-.6-1.674,4.37,4.37,0,0,0-1.791-.64l-14.1-2.8a8.24,8.24,0,0,1-3.331-1.183,2.807,2.807,0,0,1-1.166-3.1,3.4,3.4,0,0,1,2.792-1.784,13.034,13.034,0,0,0,3.4-.63c1.054-.479,1.9-1.732,1.41-2.782-.554-1.192-2.221-1.2-3.521-1.009" transform="translate(17.723 -105.415)"/><path class="aj" d="M205.332,794.073c3.166.842,7.036.75,10.386.871,4.7.169,9.359.419,14.059.419,8.878,0,18.467-.41,27.236-.574-4.086,7.334.549,11.256.4,14.05-11.372.678-22.772,1.488-35.311,2.375-4.9.348-13.455.894-18.342,1.287-2.747.22-1.507-2.516-3.329-5.091C197.685,803.534,199.537,793.543,205.332,794.073Z" transform="translate(17.723 -105.415)"/><path class="ah" d="M218.8,711.072c-2.987-.56-6.7-.829-8.632-1.027-2.577-.263-7.51-.215-6.951-1.811,1.414-6.179,15.822-1.422,18.335-1.25A29.71,29.71,0,0,0,218.8,711.072Z" transform="translate(17.723 -105.415)"/><path class="g" d="M228.269,674.521c-.151.426.337.852.789.839a2.533,2.533,0,0,0,1.223-.543,8.494,8.494,0,0,1,4.914-1.329,6.351,6.351,0,0,0,1.351,0,1.426,1.426,0,0,0,1.08-.727c.864-1.881-3.425-.991-4.105-.836C232.332,672.192,228.732,673.2,228.269,674.521Z" transform="translate(17.723 -105.415)"/><path class="g" d="M251.176,671.084c.354.1.756.352.711.781a.794.794,0,0,1-.65.645,2.362,2.362,0,0,1-.869-.1,9.371,9.371,0,0,0-3.749.468c-1.768.4-1.731-1.306-.2-1.733A9.446,9.446,0,0,1,251.176,671.084Z" transform="translate(17.723 -105.415)"/><path class="r" d="M918.058,768.932a11.7,11.7,0,0,1-1.53,4.368c-.27.454-.58,1-.344,1.474.223.444.8.547,1.294.6l1.927.193a1.45,1.45,0,0,0,.843-.086.983.983,0,0,0,.44-.873,3.242,3.242,0,0,0-.231-.995,20.226,20.226,0,0,1-1.019-4.974c-.033-.409.107-1.747-.639-1.611C918.189,767.136,918.119,768.494,918.058,768.932Z" transform="translate(17.723 -105.415)"/><path class="ae" d="M747.913,658.182a.626.626,0,0,1-.406.788l-.016.005a1.4,1.4,0,0,1-.86-.217,4.67,4.67,0,0,0-3.361-.206,3.664,3.664,0,0,1-.884.228.836.836,0,0,1-.787-.387c-.777-1.331,2.128-1.364,2.589-1.358C744.993,657.045,747.459,657.226,747.913,658.182Z" transform="translate(17.723 -105.415)"/><path class="ae" d="M730.708,656.447c-.285.084-.608.283-.573.629a.641.641,0,0,0,.524.52,1.909,1.909,0,0,0,.7-.081,7.579,7.579,0,0,1,3.022.378c1.424.318,1.394-1.053.163-1.4A7.6,7.6,0,0,0,730.708,656.447Z" transform="translate(17.723 -105.415)"/><path class="g" d="M923.027,769.922a.991.991,0,0,0,.439.928,1.218,1.218,0,0,0,.48.127.793.793,0,0,0,.764-.213.76.76,0,0,0,.111-.266,1.5,1.5,0,0,0-.229-1.284C923.973,768.45,923.087,769.065,923.027,769.922Z" transform="translate(17.723 -105.415)"/><path class="g" d="M914.447,769.922a.992.992,0,0,0,.44.928,1.213,1.213,0,0,0,.479.127.794.794,0,0,0,.765-.213.779.779,0,0,0,.111-.266,1.509,1.509,0,0,0-.229-1.284C915.393,768.45,914.508,769.065,914.447,769.922Z" transform="translate(17.723 -105.415)"/><path class="g" d="M731.873,660.617a.993.993,0,0,0,.44.928,1.23,1.23,0,0,0,.479.126.792.792,0,0,0,.764-.212.769.769,0,0,0,.111-.266,1.505,1.505,0,0,0-.228-1.284C732.819,659.145,731.934,659.759,731.873,660.617Z" transform="translate(17.723 -105.415)"/><path class="g" d="M234.58,678.59a.993.993,0,0,0,.44.928,1.23,1.23,0,0,0,.479.126.794.794,0,0,0,.765-.212.782.782,0,0,0,.11-.267,1.5,1.5,0,0,0-.228-1.283C235.526,677.117,234.641,677.732,234.58,678.59Z" transform="translate(17.723 -105.415)"/><path class="g" d="M247.658,677.128a.99.99,0,0,0,.439.928,1.235,1.235,0,0,0,.48.126.793.793,0,0,0,.764-.212.779.779,0,0,0,.111-.266,1.505,1.505,0,0,0-.229-1.284C248.6,675.656,247.718,676.27,247.658,677.128Z" transform="translate(17.723 -105.415)"/><path class="g" d="M741.821,661.287a.993.993,0,0,0,.439.928,1.235,1.235,0,0,0,.48.127.792.792,0,0,0,.764-.213.762.762,0,0,0,.111-.266,1.506,1.506,0,0,0-.228-1.284C742.767,659.815,741.882,660.43,741.821,661.287Z" transform="translate(17.723 -105.415)"/><path class="aq" d="M4786.135,384.693l.027,8.908c.006,1.741.9,3.149,1.99,3.149h54.025c1.1,0,1.984-1.408,1.989-3.149l.028-8.908Z" transform="translate(-4355.044 387.949)"/><path class="ar" d="M4878.874,431.685l.044,8.907a3.165,3.165,0,0,0,3.165,3.149h85.94a3.164,3.164,0,0,0,3.164-3.149l.045-8.907Z" transform="translate(-4355.044 387.949)"/><path class="e" d="M506.192,792.491,462.061,829.21s-24.592,22.234-24.592,50.2v44.553a7.987,7.987,0,0,0,7.987,7.987h.013l60.7-.065Z" transform="translate(17.723 -105.415)"/><path class="as" d="M5005.44,384.693l.028,8.908c.005,1.741.9,3.149,1.99,3.149h54.025c1.1,0,1.984-1.408,1.989-3.149l.028-8.908Z" transform="translate(-4355.044 387.949)"/><path class="at" d="M4944.489,378.529a5.246,5.246,0,0,0-7.883-4.519l-12.758,7.418a1.449,1.449,0,0,1-1.287-.029l-.015-.006-1.93-1.111-1.04-.591,0-.009a1.427,1.427,0,0,1-.684-1.243,1.4,1.4,0,0,1,.714-1.221l17.078-9.913a1.682,1.682,0,0,0-.008-2.914l-7.613-4.364a5.256,5.256,0,0,0-5.246.016l-16.647,9.679c-.072.042-.139.088-.206.135l-.372.25,0,.02a5.213,5.213,0,0,0-2.012,3.847v.043l.027,14.368a5.236,5.236,0,0,0,7.884,4.52l12.757-7.418a1.449,1.449,0,0,1,1.287.028l0,0,2.923,1.684.055.036h0a1.426,1.426,0,0,1,.684,1.242,1.4,1.4,0,0,1-.714,1.222l-17.078,9.913a1.681,1.681,0,0,0,.008,2.914l7.613,4.364a5.258,5.258,0,0,0,5.246-.016l16.647-9.679c.072-.042.139-.088.206-.135l.372-.25,0-.02a5.218,5.218,0,0,0,2.012-3.847l0-.043Zm-19.872-17.119a3.673,3.673,0,0,1,3.665-.011l7.613,4.364a.1.1,0,0,1,0,.174l-17.077,9.913a2.987,2.987,0,0,0-1.5,2.545l-7.352-4.173a3.846,3.846,0,0,1-.437-.291c-.046-.035-.086-.075-.13-.113-.087-.073-.174-.147-.253-.227-.047-.048-.088-.1-.132-.151-.068-.076-.135-.153-.2-.234-.042-.057-.078-.116-.117-.175-.053-.082-.1-.164-.151-.249-.034-.063-.064-.128-.094-.193-.041-.087-.079-.175-.112-.265q-.037-.1-.069-.207c-.028-.092-.052-.185-.073-.279-.015-.072-.029-.144-.041-.217-.015-.1-.025-.2-.032-.293-.006-.074-.011-.147-.012-.222,0-.034,0-.069,0-.1ZM4911.7,391.537a3.664,3.664,0,0,1-5.507-3.157l-.028-8.881V374.04a3.651,3.651,0,0,1,.526-1.685l0,.014c.039.151.085.3.136.443.014.038.029.076.044.114.043.112.089.223.14.332.017.038.034.075.053.113.068.138.141.273.221.4l.028.042c.074.117.152.231.235.342l.081.106c.079.1.161.2.246.29.022.023.042.047.063.07.107.113.22.221.338.325.028.025.058.049.087.073.095.08.194.158.3.233l.11.079c.133.092.269.18.412.261l9.578,5.437,5.522,3.186Zm12.783,13.968a3.671,3.671,0,0,1-3.664.011l-7.614-4.364h0a.093.093,0,0,1-.05-.087.092.092,0,0,1,.05-.087l17.078-9.913a2.987,2.987,0,0,0,1.5-2.545l7.353,4.173a3.838,3.838,0,0,1,.436.291c.045.035.085.074.128.111.088.074.176.148.255.229.047.048.088.1.132.15.067.077.135.154.195.235.042.057.079.116.117.175.053.081.1.164.151.249.034.063.064.128.1.193.04.087.078.175.111.265.026.068.048.137.069.207.028.092.052.185.073.279.016.072.03.144.041.217.015.1.025.2.032.293.006.074.011.147.013.222,0,.034,0,.069,0,.1Zm18.454-12.63a3.651,3.651,0,0,1-.526,1.685l0-.014c-.038-.15-.085-.3-.136-.443l-.043-.114c-.043-.112-.09-.223-.141-.332-.017-.038-.034-.076-.052-.113-.069-.138-.141-.273-.222-.4-.009-.015-.019-.029-.028-.044-.074-.117-.152-.23-.235-.341l-.081-.106c-.078-.1-.16-.195-.246-.289-.021-.024-.041-.048-.063-.072q-.161-.168-.338-.324c-.028-.025-.058-.049-.087-.073-.095-.081-.194-.158-.295-.233l-.111-.079c-.133-.092-.269-.18-.412-.262l-9.569-5.431c-.023-.016-.057-.038-.074-.047l-5.457-3.144,12.586-7.318a3.666,3.666,0,0,1,5.507,3.157l.027,8.882Z" transform="translate(-4355.044 387.949)"/></g></svg>