<svg xmlns="http://www.w3.org/2000/svg" xmlns:xlink="http://www.w3.org/1999/xlink" viewBox="0 0 827.26 661.37"><defs><style>.cls-1{fill:#221b73;}.cls-2{fill:#097ec7;}.cls-3{fill:#003ba8;}.cls-4{fill:#fff;}.cls-5{fill:#09a7fe;}.cls-6{fill:url(#Degradado_sin_nombre_2);}.cls-7{fill:#001738;}.cls-8{fill:#48d5f0;}.cls-13,.cls-30,.cls-9{fill:none;}.cls-9{stroke:#b770e4;}.cls-13,.cls-9{stroke-miterlimit:10;}.cls-10{fill:#00e6ca;}.cls-11{fill:#d1a3ef;}.cls-12{fill:#8969e8;}.cls-13{stroke:#c570f2;}.cls-14{fill:#bf83ed;}.cls-15{fill:url(#Degradado_sin_nombre_3);}.cls-16{fill:url(#Degradado_sin_nombre_3-2);}.cls-17{fill:#3d3029;}.cls-18{fill:#c570f2;}.cls-19{fill:#ab66d8;}.cls-20{fill:#00d1b3;}.cls-21{fill:#1e6ad3;}.cls-22{fill:#103b5e;}.cls-23{fill:#2cc8dd;}.cls-24{fill:#0d0d33;}.cls-25{fill:#29218c;}.cls-26{fill:#dcb0ff;}.cls-27{fill:#0045c4;}.cls-28{fill:#c17bef;}.cls-29{fill:#aa71d8;}.cls-31{fill:#211f1f;}.cls-32{fill:#0999f0;}.cls-33{fill:#0987d4;}.cls-34{fill:#249cb5;}.cls-35{fill:#1a5aa8;}.cls-36{fill:#48c7e2;}.cls-37{fill:#9462bc;}.cls-38{fill:#003b9a;}.cls-39{fill:#00307d;}.cls-40{fill:#28adc9;}.cls-41{fill:#32b5d1;}.cls-42{fill:#1a155f;}.cls-43{fill:url(#Degradado_sin_nombre_7);}.cls-44{fill:url(#Degradado_sin_nombre_7-2);}.cls-45{fill:url(#Degradado_sin_nombre_7-3);}.cls-46{fill:url(#Degradado_sin_nombre_7-4);}</style><linearGradient id="Degradado_sin_nombre_2" x1="369.01" y1="106.22" x2="369.01" y2="595.2" gradientUnits="userSpaceOnUse"><stop offset="0" stop-color="#c570f2"/><stop offset="0.09" stop-color="#c570f2"/><stop offset="0.26" stop-color="#ab63e1"/><stop offset="0.47" stop-color="#7d4bc3"/><stop offset="0.83" stop-color="#402c9b"/><stop offset="1" stop-color="#29218c"/></linearGradient><linearGradient id="Degradado_sin_nombre_3" x1="148.44" y1="13.5" x2="148.44" y2="13.51" gradientTransform="matrix(36.28, 0, 0, -64.03, -4693.97, 1764.1)" gradientUnits="userSpaceOnUse"><stop offset="0" stop-color="#332822"/><stop offset="1" stop-color="#573626"/></linearGradient><linearGradient id="Degradado_sin_nombre_3-2" x1="144.66" y1="6.14" x2="144.66" y2="6.15" gradientTransform="matrix(28.85, 0, 0, -65.95, -3544.17, 1824.87)" xlink:href="#Degradado_sin_nombre_3"/><linearGradient id="Degradado_sin_nombre_7" x1="149.62" y1="-12.71" x2="151.32" y2="-14.58" gradientTransform="matrix(58.06, 0, 0, -12.06, -8461.04, 313.62)" gradientUnits="userSpaceOnUse"><stop offset="0.09" stop-color="#c570f2"/><stop offset="0.47" stop-color="#7d4bc3"/><stop offset="0.83" stop-color="#402c9b"/><stop offset="1" stop-color="#29218c"/></linearGradient><linearGradient id="Degradado_sin_nombre_7-2" x1="149.99" y1="-12.35" x2="151.75" y2="-15.44" gradientTransform="matrix(92.36, 0, 0, -12.06, -13535.63, 360.58)" xlink:href="#Degradado_sin_nombre_7"/><linearGradient id="Degradado_sin_nombre_7-3" x1="149.62" y1="-12.71" x2="152.18" y2="-15.53" gradientTransform="matrix(58.06, 0, 0, -12.06, -8241.88, 313.62)" xlink:href="#Degradado_sin_nombre_7"/><linearGradient id="Degradado_sin_nombre_7-4" x1="149.26" y1="19.13" x2="150.26" y2="19.13" gradientTransform="matrix(39.93, 0, 0, -48.25, -5611.25, 1390.34)" xlink:href="#Degradado_sin_nombre_7"/></defs><g id="Capa_2" data-name="Capa 2"><g id="Capa_1-2" data-name="Capa 1"><path id="Path_176-2" data-name="Path 176-2" class="cls-1" d="M104.74,479.88C115,557,127.09,588.32,190.2,631.59c62.21,42.66,142.93,24,213,3.73,75.55-21.82,158.51-29.42,234.06-51.24,48.37-14,100.6-30.74,128.3-73.9,30-46.72-1.38-162.19-25.84-214.06C681.42,172.43,548.82,146.62,428.88,88.47,356.78,53.52,260.7-.35,182.24,1c-99,1.71-139.5,114.18-136.92,194.06C48.32,288.35,72.9,338,104.74,479.88Z"/><path id="Path_656" data-name="Path 656" class="cls-2" d="M498.18,256l37,38,31.91,11.46-8.73-26.69-25.71-4.43-32.9-33.83Z"/><path id="Path_657" data-name="Path 657" class="cls-3" d="M144.3,661.37a8.83,8.83,0,0,0-1.59-3.43A10.14,10.14,0,0,0,144.3,661.37Z"/><path id="Path_658" data-name="Path 658" class="cls-4" d="M247.2,477.69l-11.64,22.82h50.78l-13.75-22.94S244.56,477.69,247.2,477.69Z"/><path id="Path_659" data-name="Path 659" class="cls-5" d="M283.56,273.2c-3-11.64-8-24.81-16.56-36.55,0,0-5.07-7.67-8-7.73h0c-2.9.06-8,7.73-8,7.73-9,12.34-14.1,26.26-17,38.32C249.74,269.89,266.75,270.69,283.56,273.2Z"/><path id="Path_660" data-name="Path 660" class="cls-4" d="M283.67,273.13c-16.81-2.51-33.82-3.31-49.54,1.77a131.24,131.24,0,0,0-3.8,30.38l-.45,94.29.22,69.07h58l.22-69.07-.45-94.29A132.14,132.14,0,0,0,283.67,273.13Z"/><path id="Path_662" data-name="Path 662" class="cls-4" d="M466.5,477.69l-11.63,22.82h50.78L491.9,477.57S463.86,477.69,466.5,477.69Z"/><path id="Path_663" data-name="Path 663" class="cls-5" d="M505.64,269c-.28-12-2.22-26-7.91-39.34,0,0-3.22-8.62-6-9.33h0c-2.84-.59-9.51,5.74-9.51,5.74-11.53,10-19.64,22.41-25.19,33.51C473.43,258.13,489.82,262.74,505.64,269Z"/><path id="Path_664" data-name="Path 664" class="cls-4" d="M503,273.13c-16.82-2.51-33.83-3.31-49.54,1.77a131.26,131.26,0,0,0-3.81,30.38l-.45,94.29.21,69.07h58.06l.22-69.07-.45-94.29A132.62,132.62,0,0,0,503,273.13Z"/><path id="Path_666" data-name="Path 666" class="cls-4" d="M351.89,520.39l-16,31.44h70l-18.95-31.6S348.24,520.39,351.89,520.39Z"/><path id="Path_667" data-name="Path 667" class="cls-6" d="M433.81,216.49s2-55.08-46.82-97.19c0,0-11.42-10.86-17.94-11H369c-6.52.09-17.94,11-17.94,11-48.79,42.11-46.83,97.19-46.83,97.19l-1,133.4.57,114.78h130.5l.56-114.78Z"/><path id="Path_670" data-name="Path 670" class="cls-4" d="M415.53,446.56l-.72-94.29s1.39-38.93-33.1-68.7c0,0-8.07-7.67-12.67-7.74H369c-4.61.07-12.68,7.74-12.68,7.74-34.49,29.76-33.1,68.7-33.1,68.7l-.72,94.29.34,69.07h92.36Z"/><circle id="Ellipse_414" data-name="Ellipse 414" class="cls-7" cx="368.86" cy="206.22" r="28.55"/><circle id="Ellipse_415" data-name="Ellipse 415" class="cls-5" cx="368.86" cy="206.22" r="20.09"/><circle id="Ellipse_416" data-name="Ellipse 416" class="cls-8" cx="169.42" cy="183.59" r="1.22"/><circle id="Ellipse_417" data-name="Ellipse 417" class="cls-9" cx="201.27" cy="108.61" r="4.81"/><circle id="Ellipse_418" data-name="Ellipse 418" class="cls-9" cx="563.57" cy="72.34" r="4.81"/><circle id="Ellipse_419" data-name="Ellipse 419" class="cls-10" cx="139.65" cy="124.6" r="4.23"/><path id="Path_673" data-name="Path 673" class="cls-11" d="M709.47,428.09c2.24-6.73,3.95-11.87,9.22-24.82,2.92-7.18,4.34-10.31,11.12-12.39,10,3.57,22.45.86,30.41-6.21a14.65,14.65,0,0,0,6,5.46c2.54,1.34,11.32,4.33,10.12,7.17-7,16.37,1.92,58.75,1.92,58.75l-22.67-12.76Z"/><path id="Path_674" data-name="Path 674" class="cls-8" d="M655.48,481.82c-10.3-21.06-20.52-43.64-30.81-64.7,24.94.08,49-.67,74-.59,8.87,23.84,15.3,42.16,22,61.55"/><path id="Path_675" data-name="Path 675" class="cls-12" d="M667.21,523.45V630.37a12.49,12.49,0,0,0,12.49,12.49H790.41A36.84,36.84,0,0,0,827.26,606h0V522.89a12.5,12.5,0,0,0-12.49-12.5h-.06L679.65,511A12.49,12.49,0,0,0,667.21,523.45Z"/><path id="Path_676" data-name="Path 676" class="cls-11" d="M776,395.59c8.8,7.07,20.26,54.4,21.38,68.42a17.07,17.07,0,0,1-1.27,8.44,9.85,9.85,0,0,1-8.83,5.7,12.83,12.83,0,0,1-8.21-3.76c-2.26-2.08-20.45-15.23-29.57-27.84a9.1,9.1,0,0,1,6-3.24s22.12,11.83,28.45,16.41l-5-11.26-3.21-18.23C765.63,416.46,776,395.59,776,395.59Z"/><path id="Path_677" data-name="Path 677" class="cls-13" d="M653.1,493.6a5,5,0,0,0-1,2.58c0,1.77,1.84,2.94,3.49,3.6a28.87,28.87,0,0,0,9.49,2.06,5.52,5.52,0,0,0,2.92-.47c2.28-1.29,3.13-3.59,5.11-6.22a36.9,36.9,0,0,1-5.62-2.82,22.34,22.34,0,0,1-5.18-4.95,20.36,20.36,0,0,1-1.9-2.78c-.84-1.47-1.65-.3-2.62,1.24C656.22,488.41,654.68,491,653.1,493.6Z"/><path id="Path_678" data-name="Path 678" class="cls-3" d="M761,512.81c-32.13-1.56-64.84.32-96.89,3a208.77,208.77,0,0,1-54.27,65.54c-6.16-3-10.63-9.1-12.84-15.56a436.86,436.86,0,0,0,39-63.4c3.54-7,7.26-14.55,14.08-18.47,4.9-2.82,10.73-3.36,16.37-3.75,21.08-1.48,42.18-2.54,63.3-1.76a40.06,40.06,0,0,1,6.62,1,146.22,146.22,0,0,1,15.33,16.44C755.69,500.63,760.18,506.63,761,512.81Z"/><path id="Path_679" data-name="Path 679" class="cls-14" d="M752.91,373.58a28.71,28.71,0,0,1-13.79,6.27c0,1.84,0,3.65,0,5.45a32.59,32.59,0,0,0,13.84-7.65A12.63,12.63,0,0,1,752.91,373.58Z"/><path id="Path_680" data-name="Path 680" class="cls-11" d="M752.91,377.65a32.57,32.57,0,0,1-13.84,7.64c0,2.6,0,5.18,0,7.84a126.2,126.2,0,0,0,13.18-.69c2-4,1.61-8.78.93-13.22C753.06,378.71,753,378.18,752.91,377.65Z"/><path id="Path_681" data-name="Path 681" class="cls-11" d="M765.62,362.05a4.43,4.43,0,0,0-4.93-1.93,8.05,8.05,0,0,0-4.45,3.38,19.2,19.2,0,0,1-1.75-12.66c-3.29-2.7-6.45-6.64-12.62-7.69a11.61,11.61,0,0,0-9.15,5,12.42,12.42,0,0,0-1.55,5.65,147.45,147.45,0,0,0-.57,18.2c0,2.26.08,4.86,1.51,6.6,1.65,2,4,1.72,7,1.23h0a28.67,28.67,0,0,0,13.79-6.27l0-.15c.42-1.9,1.46-4.18,3.38-4.49a3.94,3.94,0,0,0,4.12,1.53,7.09,7.09,0,0,0,3.83-2.53C765.66,366.31,766.6,364,765.62,362.05Z"/><path id="Path_682" data-name="Path 682" class="cls-15" d="M738.89,379.89a.17.17,0,0,1,.2.15h0v0c-.09,1-.39,5.49.58,8.46,1.72,5.26.27,7.46-.68,8.84l0,0a10.67,10.67,0,0,1-6.23,2.79,37.64,37.64,0,0,1-6.63-.05,21.87,21.87,0,0,0-5.88.26.16.16,0,0,1-.2-.14.14.14,0,0,1,.05-.16,12.56,12.56,0,0,0,3.55-7.17,31,31,0,0,0,.11-7.39.18.18,0,0,0-.35,0,22.42,22.42,0,0,1-6,10.69c-.13.13-1.25,1-1.5.88s.39-.87.53-1.08a6.23,6.23,0,0,1,.57-.7,16.06,16.06,0,0,0,3.4-7.46c.62-2.69.43-6,2.16-8.14s3.64-4.57,4.4-7.34.37-5.51.62-8.27c.29-3.21,1.41-6.35,1.29-9.57-.06-1.73-.48-3.43-.66-5.15a8.21,8.21,0,0,1,.78-5c1.07-1.85,3.12-2.86,5-3.85,3-1.55,5.91-3.32,9.2-3.89s7.1-.17,8.91,2.59a.17.17,0,0,1,0,.17c-1.16,2.65-2.5,7-4.17,9.35a.18.18,0,0,1-.24.05c-2.17-1.25-3.83-5.59-6.37-5.61-2.75,0-5.81,3.39-7.69,5.09a6.57,6.57,0,0,0-2,3.3,14.76,14.76,0,0,0-.1,4.69c.16,3.54-.81,7.05-.93,10.6-.14,4.33-.14,6.61,1.09,11a3.24,3.24,0,0,0,2,2C735.3,380.43,737.07,380.15,738.89,379.89Z"/><path id="Path_683" data-name="Path 683" class="cls-16" d="M752.2,339.25c-2,2.43-3.67,6.1-5.22,8.84a.06.06,0,0,0,0,.08,23.19,23.19,0,0,0,5.67,3.55,3,3,0,0,1,1.11.75c.58.74.3,1.8.09,2.72-.79,3.5.35,5.57,2.37,8.54a.05.05,0,0,0,.08,0h0c1.3-1.87,2.22-3.1,4.3-3.54a4.27,4.27,0,0,1,4,.88c3,3.05.56,6.4-2,8.33a4,4,0,0,1-3.43,1.06,12,12,0,0,1-2.85-1.51h0c-2.06.18-3.34,3.29-3.5,5.36s.51,3.94,0,6-2.51,4.2-3.76,6c-1.11,1.59-.38,5,.08,7.22,0,0,0,.06.07.05a.05.05,0,0,0,0-.06h0c-.29-7.29,2.27-7.3,4.23-10a.07.07,0,0,1,.09,0,.08.08,0,0,1,0,.05c-.3,8.32-2.85,14.42-6.38,21.15a.08.08,0,0,0,0,.08.06.06,0,0,0,.07,0c4.39-4,11.07-5.8,17-6.1,1.5-.08,3.2-.11,4.19-1.23.83-.95.85-2.35,1.33-3.52,1.14-2.75,4.71-3.93,5.69-6.74,1.29-3.7-2.66-7.37-2.35-11.27.13-1.49.87-2.88.89-4.37s-.72-3-.81-4.51c-.14-2.64,1.67-5,2.34-7.53a9.13,9.13,0,0,0-4.55-10.1c-1.75-.9-3.89-1.28-5.11-2.83-1-1.22-1.1-2.9-1.85-4.26a7.25,7.25,0,0,0-5-3.33c-2-.4-4.76.13-6.82.32Z"/><path id="Path_684" data-name="Path 684" class="cls-4" d="M739.37,370.09a10.2,10.2,0,0,0,4.1-1,.26.26,0,0,1,.36.1.24.24,0,0,1,0,.2,6.4,6.4,0,0,1-7,4.72c-1.3-.16-3.26-1.43-2.27-3C735.42,369.9,738.12,370.18,739.37,370.09Z"/><path id="Path_685" data-name="Path 685" class="cls-17" d="M745,355.61a.58.58,0,0,1,.41.38.57.57,0,0,1-.31.59,1.06,1.06,0,0,1-.61,0,12.36,12.36,0,0,0-2.58,0,12.56,12.56,0,0,0-1.37.2c-.33.07-1,.39-1.27.3s-.29-.27-.16-.57.51-.47.78-.6a7.14,7.14,0,0,1,2.39-.65A6.29,6.29,0,0,1,745,355.61Z"/><path id="Path_686" data-name="Path 686" class="cls-17" d="M729.77,356.13a.36.36,0,0,0-.1.39.83.83,0,0,0,.4.5.43.43,0,0,0,.37,0,4.26,4.26,0,0,1,1.49-.3,6.33,6.33,0,0,1,.87,0c.22,0,.71.26.86.15s.06-.28-.12-.54a1.31,1.31,0,0,0-.69-.46,3.84,3.84,0,0,0-1.64-.35A2.15,2.15,0,0,0,729.77,356.13Z"/><path id="Path_687" data-name="Path 687" class="cls-18" d="M759.94,364.52c0-.27-.33-.41-.45-.66a.7.7,0,0,1,0-.53,1.31,1.31,0,0,1,.63-.74,2.05,2.05,0,0,1,1-.08,2.32,2.32,0,0,1,1.17.5,2,2,0,0,1,.65,1.07,2.36,2.36,0,0,1-.61,2,4.55,4.55,0,0,1-1.84,1.18,1.88,1.88,0,0,1-.77.17.82.82,0,0,1-.69-.35,1,1,0,0,1,.06-1c.2-.29.49-.48.67-.77a.88.88,0,0,0,.12-1"/><path id="Path_688" data-name="Path 688" class="cls-19" d="M761.07,363.16a2,2,0,0,1,.34,1,2.39,2.39,0,0,1-.37,1.45,2.16,2.16,0,0,1-1.19.91.79.79,0,0,1-.46,0,.41.41,0,0,1-.3-.32c0-.2.17-.36.32-.49a1.63,1.63,0,0,0,.48-.65.86.86,0,0,0-.06-.78c-.1-.14-.27-.24-.34-.4a.61.61,0,0,1,0-.46,2.18,2.18,0,0,1,.22-.43c.16-.25.36-.47.67-.35A1.36,1.36,0,0,1,761.07,363.16Z"/><path id="Path_689" data-name="Path 689" class="cls-20" d="M761.17,372.36a2.29,2.29,0,0,0-3.74-.85A2.47,2.47,0,0,0,758,375h0l.26.16a2.22,2.22,0,0,0,2.37-.41A2.27,2.27,0,0,0,761.17,372.36Zm-1.06,1.8a1.46,1.46,0,0,1-1.57.27,1.62,1.62,0,0,1-.65-2.22h0A1,1,0,0,1,758,372a1.52,1.52,0,0,1,2.15,0,1.72,1.72,0,0,1,.33.51A1.53,1.53,0,0,1,760.11,374.16Z"/><path id="Path_690" data-name="Path 690" class="cls-10" d="M760.76,370.16a1.8,1.8,0,0,0-2.9-.66,1.92,1.92,0,0,0,.43,2.67h0a1.37,1.37,0,0,0,.2.13,1.71,1.71,0,0,0,1.83-.33A1.76,1.76,0,0,0,760.76,370.16Zm-1,1.19a.89.89,0,0,1-.93.17,1,1,0,0,1-.39-1.32h0a.61.61,0,0,1,.07-.1.88.88,0,0,1,1.25,0,.89.89,0,0,1,0,1.25Z"/><path id="Path_691" data-name="Path 691" class="cls-11" d="M761.18,370.23a1,1,0,0,0-.19-.63,1.44,1.44,0,0,0-.5-.45,1,1,0,0,0-.69-.18.86.86,0,0,0-.62.56,2.47,2.47,0,0,0-.13.89A2.87,2.87,0,0,0,761.18,370.23Z"/><path id="Path_692" data-name="Path 692" class="cls-7" d="M668,510.83a39.6,39.6,0,0,1,1-10.41c-5.86.9-11.92-1.79-16.48-5.55h-.13c-4.31,5.63-11.35,9-18.36,10.09-2.78.41-5.62.41-8.36,1a7.69,7.69,0,0,0-3.34,1.41,4.06,4.06,0,0,0-1.17,1.61C636.18,514,652.6,512,668,510.83Z"/><path id="Path_693" data-name="Path 693" class="cls-4" d="M668,510.83C652.6,512,636.18,514,621.17,509a2.93,2.93,0,0,0-.18,1.6,3.73,3.73,0,0,0,2.82,2.65c1.31.34,33.74,3.71,41.62,2.69a3.33,3.33,0,0,0,2.25-.95,3.69,3.69,0,0,0,.42-2.6C668.06,511.85,668,511.34,668,510.83Z"/><g id="Group_255" data-name="Group 255"><path id="Path_694" data-name="Path 694" class="cls-11" d="M599.8,595.85a128.19,128.19,0,0,0,9.84-14.71,40.32,40.32,0,0,1-7.29-5.72c-2.13-2.25-3.89-4.6-4.48-7.64a130.14,130.14,0,0,1-10.35,19.74c2.65,4.59,7.12,7.13,12.28,8.33"/></g><path id="Path_695" data-name="Path 695" class="cls-4" d="M756.78,444.15c6.35,5.25,19.28,13,27.11,15.57.83-10.28-10.82-22.44-7.18-37.38,4.95-.5,5.66-.64,10-4.29,0,0-.73-5.55-5.73-15-8,4.68-23.65,5.6-33,5.78s-18.71-4-28-8.78l-5.29,12.8Z"/><path id="Path_696" data-name="Path 696" class="cls-11" d="M756,443.62a7.51,7.51,0,0,0-1.44-5,15.14,15.14,0,0,0-3.86-3.63,31.23,31.23,0,0,0-7.67-3.87c-2.07-.71-4.3-1.23-6-2.66a24.71,24.71,0,0,1-2-2.18,5.59,5.59,0,0,0-2.44-1.68,2.54,2.54,0,0,0-2.71.74c5.74,7,11.9,14.22,18.25,20.68a1.39,1.39,0,0,0,1.89.52h0l.12-.08C752.07,445.51,754.15,444.56,756,443.62Z"/><path id="Path_697" data-name="Path 697" class="cls-21" d="M673.09,495.4c6.7-8.73,17-13.74,25.85-20.26,7.45-5.49,14.57-11.83,19.9-19.39,2.93,9.72,9,18.17,15.63,25.9s13.79,15,19.49,23.4c2.94,4.33,5.7,9.17,10.35,11.58,3.7,1.91,8.07,2,12.23,1.64,4.64-.37,9.35-1.21,13.44-3.44,8.54-4.64,12.67-23,6.11-42.39-14.2,9.37-43.6-22.29-60.35-40.91-3.51-3.91-7.06-7.9-11.52-10.7s-10-4.28-15-2.72c-5.82,1.81-9.69,7.16-13.14,12.19L659.3,483.9A24.8,24.8,0,0,0,673.09,495.4Z"/><path id="Path_698" data-name="Path 698" class="cls-11" d="M673.76,496.38a14.73,14.73,0,0,0-5,6.35,2.82,2.82,0,0,1-1,1.49,2.53,2.53,0,0,1-1.18.21,45.73,45.73,0,0,1-9.57-.5,18.82,18.82,0,0,1-9.13-4.58c4.18-4.83,8.63-9.53,12-14.93A40.88,40.88,0,0,0,673.76,496.38Z"/><path id="Path_699" data-name="Path 699" class="cls-22" d="M664.31,474.62l1.31.06-.55.84Z"/><path id="Path_700" data-name="Path 700" class="cls-23" d="M658.87,482.09a1.73,1.73,0,0,0-.46.9c0,.5.5.81.76,1.23,4.2,7,8.38,9.71,14.7,12.83a59.82,59.82,0,0,0,7.9-8.92c-.68.47-5.63-2.77-6.4-3.23a53.06,53.06,0,0,1-5.75-4.51,78.09,78.09,0,0,1-5.3-5.76A54.6,54.6,0,0,1,658.87,482.09Z"/><path id="Path_701" data-name="Path 701" class="cls-22" d="M681.28,487.33l.49.8s-.31.25-1.14-.21Z"/><path id="Path_702" data-name="Path 702" class="cls-24" d="M607.6,554h.91l-.42.57Z"/><path id="Path_703" data-name="Path 703" class="cls-8" d="M591.47,572a1.63,1.63,0,0,0-.47.92c0,.52.51.83.77,1.26,4.35,7.13,8.66,9.94,15.17,13.14a62.14,62.14,0,0,0,8.16-9.14c-.7.49-5.82-2.84-6.6-3.3a55,55,0,0,1-5.94-4.62,78.27,78.27,0,0,1-5.47-5.9A56,56,0,0,1,591.47,572Z"/><path id="Path_704" data-name="Path 704" class="cls-24" d="M624.3,566.4l.49.78s-.3.25-1.13-.21Z"/><path id="Path_705" data-name="Path 705" class="cls-4" d="M722.09,418.35l-.56,1s5.6,3.06,8.39,6a5.37,5.37,0,0,1,.84-.65l-1.12-4.82Z"/><path id="Path_706" data-name="Path 706" class="cls-7" d="M602.92,600.87a39.57,39.57,0,0,1,1-10.4c-5.85.9-15.86-3.73-15.9-3.73-3.51,1-12.06,7.21-19.07,8.26-2.78.42-5.61.41-8.36,1a7.62,7.62,0,0,0-3.34,1.41,4,4,0,0,0-1.17,1.61C571.08,604.08,587.51,602.05,602.92,600.87Z"/><path id="Path_707" data-name="Path 707" class="cls-4" d="M602.92,600.87c-15.41,1.18-31.84,3.2-46.85-1.85a2.92,2.92,0,0,0-.18,1.6,3.72,3.72,0,0,0,2.82,2.64c1.32.35,33.74,3.72,41.62,2.69a3.24,3.24,0,0,0,2.25-1,3.63,3.63,0,0,0,.42-2.6C603,601.89,602.94,601.38,602.92,600.87Z"/><path id="Path_708" data-name="Path 708" class="cls-25" d="M491.21,256.16c.43-2.52,2.56-4.48,4.56-6.05a13.64,13.64,0,0,1,2-1.36,17.78,17.78,0,0,1,2.06-.89,3.92,3.92,0,0,1,2.25-.17,7.38,7.38,0,0,1-1.3,2.38,21.47,21.47,0,0,1-1.77,2.26,19,19,0,0,1-2,1.77,10.25,10.25,0,0,1-1.73,1.16,9.25,9.25,0,0,1-1.14.44A16.68,16.68,0,0,1,491.21,256.16Z"/><path id="Path_709" data-name="Path 709" class="cls-26" d="M501.64,248.49a4.35,4.35,0,0,1-2.43-1.93c-3-4.18-5.46-7.78-5.41-12.95a1.67,1.67,0,0,0-.46-1.45,1.06,1.06,0,0,0-1.22.11,2.27,2.27,0,0,0-.66,1.11c-.69,2.19,0,4.66-.84,6.78-2.44-4.77-6.79-8.47-11-11.84a13.24,13.24,0,0,0-6.43,6.64,17.47,17.47,0,0,0,4.31,9.76,18.44,18.44,0,0,0,9.29,5.78,24.21,24.21,0,0,1,4.42,1.25,7.28,7.28,0,0,1,3.59,3.93c1.66.12,3.22-1,4.38-2.17a9,9,0,0,0,1.19-1.49A12.66,12.66,0,0,0,501.64,248.49Z"/><path id="Path_710" data-name="Path 710" class="cls-7" d="M562.83,506.19a29.49,29.49,0,0,1,.74-7.78c-4.37.67-11.85-2.78-11.88-2.78-2.62.73-9,5.38-14.25,6.17-2.08.31-4.2.3-6.25.74a5.7,5.7,0,0,0-2.49,1.06,2.93,2.93,0,0,0-.88,1.2C539,508.59,551.31,507.07,562.83,506.19Z"/><path id="Path_711" data-name="Path 711" class="cls-4" d="M562.83,506.19c-11.52.88-23.79,2.39-35-1.39a2.15,2.15,0,0,0-.13,1.2,2.77,2.77,0,0,0,2.1,2c1,.25,25.21,2.77,31.1,2a2.46,2.46,0,0,0,1.68-.7,2.76,2.76,0,0,0,.31-1.95Z"/><path id="Path_712" data-name="Path 712" class="cls-7" d="M576.61,510.23a29.9,29.9,0,0,1,.73-7.78c-4.37.67-11.84-2.78-11.88-2.78-2.62.73-9,5.39-14.25,6.17-2.07.31-4.19.31-6.24.74a5.7,5.7,0,0,0-2.49,1.06,2.91,2.91,0,0,0-.88,1.2C552.82,512.62,565.09,511.11,576.61,510.23Z"/><path id="Path_713" data-name="Path 713" class="cls-4" d="M576.61,510.23c-11.52.88-23.79,2.4-35-1.39a2.15,2.15,0,0,0-.14,1.2,2.8,2.8,0,0,0,2.1,2c1,.26,25.22,2.77,31.1,2a2.51,2.51,0,0,0,1.68-.71,2.71,2.71,0,0,0,.32-2Q576.63,510.8,576.61,510.23Z"/><path id="Path_714" data-name="Path 714" class="cls-3" d="M550.27,496.93c.09-3.08.21-6,.08-8.56q-3.3-64.64-3.26-129.32c7,.62,15.55.92,22.57,1.54,1.42,40.73-.24,81.49-1.89,122.21-.19,4.51-1,13.14-2.3,17.53C561.3,500.6,554.44,496.67,550.27,496.93Z"/><path id="Path_715" data-name="Path 715" class="cls-27" d="M562.53,502.05c-.69-2.64-1.21-3.71-1.34-6.41q-3.3-68.25-3.26-136.6c7,.66,15.55,1,22.57,1.64,1.42,43-.24,86.07-1.9,129.08-.18,4.76-.05,9.54-1.33,14.18C573.1,504.22,566.8,504.14,562.53,502.05Z"/><path id="Path_716" data-name="Path 716" class="cls-4" d="M543.8,361.71a18.86,18.86,0,0,1-6.27-2.33,4,4,0,0,1-2.25-2.68c-.19-1.65,1.4-2.88,2.6-4,3.43-3.27,4.62-8.21,5.47-12.88,2.33-12.88,2.85-26.4,6.13-39.07a8.14,8.14,0,0,0,2.86.92c.71,10.15,1.41,20.56.2,30.67S548.88,352.89,543.8,361.71Z"/><path id="Path_717" data-name="Path 717" class="cls-28" d="M569,265.3c-3.3,3.43-9.68,6-13.85,6.85,0,1.92.29,2.11.29,4,4.18-1.5,10.35-3.7,13.48-7.53A10.21,10.21,0,0,1,569,265.3Z"/><path id="Path_718" data-name="Path 718" class="cls-26" d="M569,268.61a44.92,44.92,0,0,1-13.48,7.52c0,2.72,0,7.17,0,9.95,3.71,0,15.74-4.47,19.43-4.94,1.48-3.5-3.13-5.54-5.13-9.47A17,17,0,0,1,569,268.61Z"/><path id="Path_719" data-name="Path 719" class="cls-26" d="M582.17,253.66a4.64,4.64,0,0,0-5.16-2,8.44,8.44,0,0,0-4.65,3.54,20,20,0,0,1-1.83-13.24c-3.45-2.82-6.75-6.94-13.2-8a12.12,12.12,0,0,0-9.55,5.25,12.77,12.77,0,0,0-1.62,5.9,151.31,151.31,0,0,0-.6,19c.05,2.35.07,5.08,1.57,6.9,1.72,2.08,4.23,1.8,7.32,1.28h0A30.29,30.29,0,0,0,569,265.72l0-.22c.44-2,1.41-4.31,3.42-4.64a4.13,4.13,0,0,0,4.3,1.6,7.43,7.43,0,0,0,4-2.64C582.2,258.12,583.2,255.65,582.17,253.66Z"/><path id="Path_720" data-name="Path 720" class="cls-28" d="M576.23,256.24c0-.28-.35-.43-.47-.68a.73.73,0,0,1,0-.56,1.41,1.41,0,0,1,.66-.78,2.12,2.12,0,0,1,1.06-.08,2.44,2.44,0,0,1,1.21.52,2,2,0,0,1,.69,1.12,2.52,2.52,0,0,1-.64,2.13,5,5,0,0,1-1.93,1.22,2,2,0,0,1-.81.18.84.84,0,0,1-.71-.36,1.07,1.07,0,0,1,.06-1.09c.21-.3.51-.5.7-.81s.34-.73.12-1"/><path id="Path_721" data-name="Path 721" class="cls-29" d="M577.41,254.82a2,2,0,0,1,.35,1,2.5,2.5,0,0,1-.38,1.53,2.35,2.35,0,0,1-1.24.95,1,1,0,0,1-.48,0,.4.4,0,0,1-.32-.33c0-.21.17-.38.33-.51a1.8,1.8,0,0,0,.51-.68.88.88,0,0,0-.07-.82,3.62,3.62,0,0,1-.36-.42.66.66,0,0,1,0-.48,1.42,1.42,0,0,1,.23-.44c.17-.27.37-.49.7-.38A1.44,1.44,0,0,1,577.41,254.82Z"/><path id="Path_722" data-name="Path 722" class="cls-30" d="M570.09,250.82a17,17,0,0,1,7.47-15.17"/><path id="Path_723" data-name="Path 723" class="cls-4" d="M550.49,263.09a1.71,1.71,0,0,0-.62,1.66,2.51,2.51,0,0,0,1,1.52,4.47,4.47,0,0,0,1.72.7,6.24,6.24,0,0,0,5.19-1.18,3.13,3.13,0,0,0,.89-1.15,1.68,1.68,0,0,0-.06-1.42,1.92,1.92,0,0,0-2.06-.71,15.5,15.5,0,0,0-2.19.8,2.53,2.53,0,0,1-2.15,0C551.68,262.89,551.13,262.62,550.49,263.09Z"/><g id="Group_256" data-name="Group 256"><path id="Path_724" data-name="Path 724" class="cls-31" d="M550,259.71c-.7.05-1.78-.22-2,.55-.56,1.57,3.51,1.82,5.36,1.28a2,2,0,0,1,.54-.11h0L554,259C552.84,258.74,550.91,259.65,550,259.71Z"/></g><g id="Group_257" data-name="Group 257"><path id="Path_725" data-name="Path 725" class="cls-31" d="M557.87,260.28c.69.15,1.78,0,1.87.83.32,1.62-3.75,1.3-5.49.5a2,2,0,0,0-.53-.19h0L554,259C555.17,258.91,557,260.08,557.87,260.28Z"/></g><path id="Path_726" data-name="Path 726" class="cls-18" d="M554,252a17.4,17.4,0,0,1-1.34,5.21,2.52,2.52,0,0,0-.3,1.76,1.23,1.23,0,0,0,1.13.71l1.69.24a1,1,0,0,0,.74-.1,1.37,1.37,0,0,0,.39-1.05,5.2,5.2,0,0,0-.2-1.18,32.3,32.3,0,0,1-.9-5.94c0-.49.1-2.08-.55-1.92S554,251.45,554,252Z"/><path id="Path_727" data-name="Path 727" class="cls-31" d="M576.46,251.84a14.12,14.12,0,0,0-1.29-8c-.39-.79-.86-1.54-1.22-2.35a34.84,34.84,0,0,1-1.3-4.1,4,4,0,0,0-.55-1.2,4,4,0,0,0-.77-.72,19.34,19.34,0,0,0-3.53-2.28,19.08,19.08,0,0,0-9-1.63,30.38,30.38,0,0,0-9.61,1.93,3.26,3.26,0,0,0-2.89,3.59h0l0,.21c.08,1.41.12,3.22.33,4.62a14.9,14.9,0,0,1,2.13-2.36,6.73,6.73,0,0,1,4.79-1.89c4-.29,8.12-.52,11.73,1.14a24,24,0,0,1,4.9,3.32,27,27,0,0,0,.48,10.1,8.28,8.28,0,0,0,1.7,3A11.19,11.19,0,0,1,576.46,251.84Z"/><path id="Path_728" data-name="Path 728" class="cls-31" d="M569,266l2.14-.33a2.84,2.84,0,0,0,.7-.16,3.3,3.3,0,0,0,.6-.4,7.17,7.17,0,0,0,1.2-1.2,3.09,3.09,0,0,0,.63-1.63c-.21-.11-.45-.18-.66-.29a2.58,2.58,0,0,1-.69-.54,1.48,1.48,0,0,1-.5-.68,4,4,0,0,0-1.75,1.86l-1.12,1.8A2.48,2.48,0,0,0,569,266Z"/><path id="Path_729" data-name="Path 729" class="cls-31" d="M566.33,260c-.73,1.05-1.32,2.19-2,3.25a17.13,17.13,0,0,1-10.54,7.25,8.08,8.08,0,0,1-3.91,0,4.33,4.33,0,0,1-2.93-2.52,13.31,13.31,0,0,1-1.4-5c-.45.25-.32,1.15-.31,1.68a25.84,25.84,0,0,0,.25,3.63,5.6,5.6,0,0,0,1.17,3.09,4.84,4.84,0,0,0,2.92,1.24,20.11,20.11,0,0,0,9.23-1,44.79,44.79,0,0,0,8.48-4.1,5.73,5.73,0,0,0,1.32-1,6.76,6.76,0,0,0,1-1.72c.82-1.67,2.08-2.24,2.84-3.94a13.16,13.16,0,0,0,.7-6.46c-.12-.72-1.83-8.06-2.8-7.77-.7.22,0,4.93-.32,6.8C569.68,255.56,567.55,258.26,566.33,260Z"/><path id="Path_730" data-name="Path 730" class="cls-31" d="M548.34,270.16a2.65,2.65,0,0,0,1.86-.68,4.54,4.54,0,0,0,1.16-1.65c.18-.4.4-.88.84-.92a.83.83,0,0,1,.48.15c1,.61.83,2.11,1.59,3,.39.44,1.61-.34,2.19-.28a14.49,14.49,0,0,1-6,1.87,2.15,2.15,0,0,1-1.15-.1A2.93,2.93,0,0,1,548.34,270.16Z"/><path id="Path_731" data-name="Path 731" class="cls-32" d="M560.46,362.08c7.69,2.56,16,4.46,24.27,3.64-1.35-20.6-5.56-81.37-8.69-87.77-5.68-11.64-14.57,3.23-20.85,6.16-.3,6-2.41,11.73-3.36,17.63l.5-.1c0,.1,1.49,23.12-1.32,34.8-2.33,9.64-6.2,19-7.87,28.72C548.62,362.39,554.75,360.17,560.46,362.08Z"/><path id="Path_732" data-name="Path 732" class="cls-33" d="M552.34,301.64a67.18,67.18,0,0,0,13.91-3.9s-2.48,9.37-13.64,11.3Z"/><path id="Path_733" data-name="Path 733" class="cls-32" d="M491.21,256.16l24.61,29.33a9,9,0,0,0,3.36,2.48l32.65,13.77,4-17.43-30.64-9-23.11-27.6Z"/><path id="Path_734" data-name="Path 734" class="cls-4" d="M571,273.6a2.56,2.56,0,0,1-.2-.26c-.18-.28-.3-.43-.49-.71-.05-.08-.12-.28-.21-.31s-.3,0-.41.08a19.16,19.16,0,0,0-7.58,4.05c-1.25,1.15-2.28,2.52-3.53,3.68a7.06,7.06,0,0,1-4.5,2.12.51.51,0,0,0-.38.1.4.4,0,0,0-.08.23c-.06.36-.2.64-.26,1,.63.19,1.09.34,1.56.47a.52.52,0,0,0,.3,0,1.49,1.49,0,0,0,.43-.19c1.09-.61,1.43-1,2.26-1.51,2.12-1.36,3.43-3.21,5.41-4.78.8-.63,2-1.66,2.87-2.25A8.56,8.56,0,0,1,571,273.6Z"/><path id="Path_735" data-name="Path 735" class="cls-8" d="M560.46,362.08c-5.71-1.91-11.84.31-17.32,3.08a56.61,56.61,0,0,0-.74,6.23s8.28-2.85,12.57-3.8c10.32-1.4,20.35,5.7,30.2,4.93,0,0-.16-2.54-.44-6.79C576.5,366.54,568.15,364.64,560.46,362.08Z"/><circle id="Ellipse_420" data-name="Ellipse 420" class="cls-4" cx="473.23" cy="53.61" r="2.05"/><path id="Path_256-2" data-name="Path 256-2" class="cls-8" d="M554.59.52l1.88,10.25a.66.66,0,0,0,.48.51l11.72,3a.65.65,0,0,1,.47.78h0a.66.66,0,0,1-.5.47l-11.25,2.41a.63.63,0,0,0-.5.52l-1.63,10.06a.63.63,0,0,1-.73.53.65.65,0,0,1-.52-.46l-2.9-10a.65.65,0,0,0-.47-.44L540,15.57a.64.64,0,0,1-.47-.77h0a.61.61,0,0,1,.47-.47l10.48-2.64a.65.65,0,0,0,.47-.48L553.33.51a.65.65,0,0,1,.76-.5.65.65,0,0,1,.5.51Z"/><path id="Path_736" data-name="Path 736" class="cls-34" d="M65.17,299a25.83,25.83,0,0,0,.21,3.17c.12.9.3,1.29,1.28.73C68.71,301.74,67.56,299,65.17,299Z"/><path id="Path_737" data-name="Path 737" class="cls-35" d="M22.72,400s-12.64,23.94-.12,84.82C39.9,569,35,607.58,38.45,620c.95,3.46,14.14-2.37,14.14-2.37s9.35-35.28,8.75-173.85c0-3.84,6,40.41,30.17,71.48,0,0-8,54.83-5.32,88.59l17.34-1.26s11.28-51.11,17.36-89a6.35,6.35,0,0,0-.07-2.34c-2.13-9.95-17.81-80.57-39.53-115.82Z"/><path id="Path_738" data-name="Path 738" class="cls-36" d="M4.07,324.67c-3.39,6.42-3.56,14-3.65,21.25L0,379.4c-.09,7,.53,17.71,6.37,21.58,3.73,2.47,8.54,2.34,13,2.11,17-.86,33.81-4.2,50.76-5,2.19-5.7,9.45-7.14,15.53-7.72l56.09-5.39a16.63,16.63,0,0,1-3.78-13l-44.61,1.2c1-12.69,2-25.46.54-38.1-.71-6.25-2.08-12.59-5.5-17.87-5.59-8.62-16-13.18-26.2-14.17C44.33,301.24,13.39,307,4.07,324.67Z"/><g id="Group_258" data-name="Group 258"><path id="Path_739" data-name="Path 739" class="cls-7" d="M38.42,631.5a43.41,43.41,0,0,0,0-11.5c6.31,1.61,13.34-2.84,14.14-2.37,3.73,1.44,16.1,9.18,23.66,11.07,3,.76,6.1,1,9,2a8.56,8.56,0,0,1,3.5,1.9,4.31,4.31,0,0,1,1.11,1.9C72.55,639.78,55.17,634.44,38.42,631.5Z"/><path id="Path_740" data-name="Path 740" class="cls-4" d="M38.42,631.5c13.78-4.06,25.87,10,51.48,3a3.13,3.13,0,0,1,0,1.77,4,4,0,0,1-3.36,2.59c-1.48.24-37.34.47-45.85-1.5a3.66,3.66,0,0,1-2.36-1.28,4,4,0,0,1-.18-2.89C38.26,632.62,38.35,632.06,38.42,631.5Z"/></g><g id="Group_259" data-name="Group 259"><path id="Path_741" data-name="Path 741" class="cls-7" d="M81.79,606.19a43.67,43.67,0,0,0,4.51-10.57c5.19,3.94,17.28,4.73,17.32,4.75,2.88,2.79,7.87,13.3,14.09,18,2.47,1.86,5.21,3.35,7.56,5.35a8.57,8.57,0,0,1,2.48,3.12A4.36,4.36,0,0,1,128,629C110,627.13,96.07,615.43,81.79,606.19Z"/><path id="Path_742" data-name="Path 742" class="cls-4" d="M81.79,606.19c14.28,1.64,19.92,19.3,46.25,22.82a3.19,3.19,0,0,1-.68,1.64,4.07,4.07,0,0,1-4.11,1.07c-1.45-.35-34.55-14.13-41.63-19.26a3.64,3.64,0,0,1-1.67-2.1,4,4,0,0,1,1-2.74C81.21,607.16,81.51,606.68,81.79,606.19Z"/></g><path id="Path_743" data-name="Path 743" class="cls-7" d="M30.12,252.05a19.91,19.91,0,0,0-2.67,4.45,15.06,15.06,0,0,0,.39,13.27,31.84,31.84,0,0,1,3.92,14.93,5.41,5.41,0,0,0,.51,2.66,4.49,4.49,0,0,0,1.44,1.34,21.56,21.56,0,0,0,9.15,3.41,15.26,15.26,0,0,0-.65-7.31c-.89-2.23-1.7-6-5-4.82.31-5,.69-10.2,1-15.28C37.69,259.59,34.29,255.39,30.12,252.05Z"/><path id="Path_744" data-name="Path 744" class="cls-28" d="M42.42,287.33c5.68,3.46,15.49,3.14,22.11,3.3.35,2.3.14,4.69.42,6.94-6.76-1-17-3.34-22.43-7.32C42.52,288.51,42.42,288.94,42.42,287.33Z"/><path id="Path_745" data-name="Path 745" class="cls-26" d="M42.51,290.25c5.47,4,15.68,6.35,22.43,7.32.4,3.25.79,6.49,1.3,9.82-5.79.73-25.26-2.29-31.09-2.12-2.84-3.9,4.05-7.26,6.58-12.35A9,9,0,0,0,42.51,290.25Z"/><path id="Path_746" data-name="Path 746" class="cls-26" d="M26.52,271.44a5.58,5.58,0,0,1,5.88-3.2c2.39.27,3.14,2.18,4.15,4.87A24.23,24.23,0,0,0,36.76,257c3.7-3.9,7-9.33,14.6-11.62a14.64,14.64,0,0,1,12.24,4.86c1.62,1.89,2.27,4.4,2.83,6.83A185.4,185.4,0,0,1,70,279.76c.29,2.83.67,6.1-.85,8.5-1.75,2.77-4.79,2.79-8.58,2.64h0c-6.63-.17-12.48,0-18.16-3.5,0-.06-.14-2.31-.16-2.37-.83-2.32-2.49-5-4.94-5.1-1,.85-1,1.39-3,1.23a9,9,0,0,1-5.2-2.56C27.16,276.79,25.59,274,26.52,271.44Z"/><path id="Path_747" data-name="Path 747" class="cls-28" d="M32.76,275.38c0-.34.32-.59.4-.92a.9.9,0,0,0-.14-.66,1.66,1.66,0,0,0-1-.77,2.5,2.5,0,0,0-1.27.15,2.82,2.82,0,0,0-1.32.9,2.48,2.48,0,0,0-.55,1.49,3,3,0,0,0,1.25,2.37,5.93,5.93,0,0,0,2.56,1,2.8,2.8,0,0,0,1,0,1,1,0,0,0,.76-.6,1.32,1.32,0,0,0-.32-1.28c-.32-.31-.72-.47-1-.79s-.58-.79-.38-1.19"/><path id="Path_748" data-name="Path 748" class="cls-37" d="M31,274a2.38,2.38,0,0,0-.18,1.29,3.12,3.12,0,0,0,.8,1.72,2.8,2.8,0,0,0,1.7.83,1,1,0,0,0,.58-.07.49.49,0,0,0,.3-.47c0-.25-.29-.4-.51-.53a2,2,0,0,1-.76-.68,1,1,0,0,1-.1-1,4.71,4.71,0,0,0,.32-.58.78.78,0,0,0-.1-.58,2.12,2.12,0,0,0-.38-.47c-.26-.28-.55-.49-.92-.28A1.76,1.76,0,0,0,31,274Z"/><path id="Path_749" data-name="Path 749" class="cls-30" d="M38.37,267.94a20.62,20.62,0,0,0-11.23-17.05"/><path id="Path_750" data-name="Path 750" class="cls-7" d="M47.64,257.69c-1.66.54-3.46.88-4.86,1.92-1.65,1.22-4.4,3.39-4.8,6.92-.23,2-2.24,1-4.15.25C31.92,259.55,35.55,252,40.06,246a21.61,21.61,0,0,1,5.74-5.66c4.64-2.8,12.1-1.25,12.75,4.93C59.17,251.1,52.41,256.11,47.64,257.69Z"/><path id="Path_751" data-name="Path 751" class="cls-7" d="M30.12,252.05a26.22,26.22,0,0,1,16.37-9.17c-1.4,6.8-5.52,12.87-11.83,15.79A18.79,18.79,0,0,0,30.12,252.05Z"/><path id="Path_752" data-name="Path 752" class="cls-7" d="M67.27,261a3.59,3.59,0,0,0,1.06-2.7A10.73,10.73,0,0,0,65,250.21a14,14,0,0,0-6.78-4c-.17,1.74,4.5,4.73,5.68,6.38A21.14,21.14,0,0,1,67.27,261Z"/><path id="Path_753" data-name="Path 753" class="cls-7" d="M55.1,278.91a9.06,9.06,0,0,0-.45,4.41c.11,1.84-.87,4.39-.36,6.16a8.56,8.56,0,0,0,3,4.6,6.88,6.88,0,0,0,5.82,1,6.73,6.73,0,0,0,4.4-3.88c.61-1.52.22-2.43.21-4.06a29.09,29.09,0,0,0-.12-5.11,8.63,8.63,0,0,0-2-4.26c-.57-.61-1-1.51-1.8-1.89-1.6-.79-4-1.32-5.48-.21S55.94,277.05,55.1,278.91Z"/><path id="Path_754" data-name="Path 754" class="cls-18" d="M60.84,267.61a15.3,15.3,0,0,0,2.22,5.6c.38.58.81,1.28.52,1.9s-1,.76-1.65.85l-2.5.35a1.88,1.88,0,0,1-1.1-.07,1.26,1.26,0,0,1-.61-1.11,4.16,4.16,0,0,1,.24-1.31A26.21,26.21,0,0,0,59,267.3c0-.53-.23-2.26.75-2.12C60.58,265.29,60.74,267.05,60.84,267.61Z"/><path id="Path_755" data-name="Path 755" class="cls-26" d="M57.7,285.88a1.89,1.89,0,0,0,.5,1,.93.93,0,0,0,1.11,0,2,2,0,0,0,.71-1,4.77,4.77,0,0,0,.36-2,.89.89,0,0,0-.12-.45.69.69,0,0,0-.45-.2A4,4,0,0,1,57.57,282c-.11-.12-.24-.4-.41-.4s-.17.24-.15.42c.07.61.16,1.21.27,1.82S57.54,285.21,57.7,285.88Z"/><path id="Path_756" data-name="Path 756" class="cls-26" d="M65.27,285.48a2.23,2.23,0,0,1-.26,1.1.74.74,0,0,1-1,.19,2.1,2.1,0,0,1-.77-.85,5.58,5.58,0,0,1-.62-1.9.9.9,0,0,1,0-.46.6.6,0,0,1,.36-.26,3.58,3.58,0,0,0,1.7-1.65c.07-.14.15-.43.29-.46s.19.22.2.39c0,.61,0,1.23,0,1.84S65.29,284.79,65.27,285.48Z"/><path id="Path_757" data-name="Path 757" class="cls-4" d="M57,281.82a3.41,3.41,0,0,0,.87,1.16,4.79,4.79,0,0,0,5.52,1,2.94,2.94,0,0,0,1.43-3.88h0a.56.56,0,0,0,0-.08,1.68,1.68,0,0,0-1.88-.62c-1.4.2-3.15.9-4.55.61-.39-.08-.73-.54-1.12-.3C56.67,280,56.76,281.14,57,281.82Z"/><path id="Path_758" data-name="Path 758" class="cls-35" d="M38.56,590.35c-.19-.06-.35-.4-.81-.33-3.66-11.6-4.75-24.17-7.6-36.12-1.44-6-2.88-12-4.53-18-1.84-6.62-1.73-13.32-1.73-20.17,0-12.62-2.28-24.56-2.85-37.08-.73-16,1-31.69,1.41-47.6a126,126,0,0,1,1.45-16c.7-4.62.86-10.23,2.29-14.57,8.69,5,16.1,17.59,19.18,26.7,1.89,5.59,1.82,11.62,1.82,17.44q0,31.78,1.44,63.56c1,22.68.85,45.88-2.09,68.37-.44,3.34-.66,8.51-2.69,11.38C42.68,589.57,40.06,589.37,38.56,590.35Z"/><path id="Path_759" data-name="Path 759" class="cls-38" d="M21.26,400c0,2.15-2.76,6.52-1.37,8,2.3,2.38,12.28.52,15.26.34,14-.82,28.23-1.19,42.16-2.57,2.55-.25,7.85.48,8.24-2.07.24-1.56-1.71-5.82-3-6.75-2-1.44-6.77-1.76-9.19-2.14-4.13-.66-8.9-.16-13.25.05-8.33.4-16.67,1.29-25,1.75C30.78,396.82,24.41,397,21.26,400Z"/><path id="Path_760" data-name="Path 760" class="cls-38" d="M93.52,332.9c-3.33,1-7.19,3.28-10.42,4.89-9.22,4.6-17,13.91-22.47,13.91-5,0-23.28-10.16-31.63-11.63,1.4,3.83-.09,9.81-.78,13.71-.9,5-1.41,10-2.1,14.93-1,7-1.69,13.86-2.49,20.83a60.07,60.07,0,0,1-3.14,13.55c-.89,2.45-2.13,4.32.37,5.77s7.38.6,10.12.6c6.83,0,13.65-.25,20.46-.57,7.29-.34,14.52-1.43,21.82-1.79,3.9-.19,8.26-.33,11.9-1.41-.54-7-1.88-12.73,1.82-19.48,5.49-10,6.09-21.33,6.54-32.61C93.77,347.09,93.52,339.43,93.52,332.9Z"/><path id="Path_761" data-name="Path 761" class="cls-39" d="M22.72,385.09a178,178,0,0,0,3.07-24.56c.17-3.8,1-7.54,1.57-11.3.4-2.92.18-6.81,1.59-9.34,3.25,3.64,1.6,16.29,1.84,21.23a223.64,223.64,0,0,1,.3,24.29C29,386.26,24.82,386.28,22.72,385.09Z"/><path id="Path_762" data-name="Path 762" class="cls-11" d="M162.19,371c2.56-.68,5-2.64,5.34-5.27.14-1,.22-2.41,1.23-2.62s1.58.93,1.78,1.86A10.74,10.74,0,0,1,165,376.44c-2.68,1.32-5.77,1.43-8.76,1.42-1.55,0-5.1.11-4.3-1.22a24,24,0,0,0,2-4.79C154.52,370.29,159.68,371.61,162.19,371Z"/><path id="Path_763" data-name="Path 763" class="cls-21" d="M161.22,350.12h-7.14a34.14,34.14,0,0,0-2.2-5.31l5-5a6.58,6.58,0,0,0,0-9.31l-5.7-5.7a6.6,6.6,0,0,0-4.65-1.87h0a6.6,6.6,0,0,0-4.65,1.87l-5,5a35,35,0,0,0-5.3-2.2v-7.13a6.6,6.6,0,0,0-6.58-6.59h-8a6.6,6.6,0,0,0-6.59,6.59v7.13a35,35,0,0,0-5.3,2.2l-5-5a6.58,6.58,0,0,0-9.31,0l-5.7,5.7a6.6,6.6,0,0,0,0,9.31l5,5a36.21,36.21,0,0,0-2.2,5.31H80.7a6.59,6.59,0,0,0-6.58,6.58v8.05a6.59,6.59,0,0,0,6.58,6.58h7.14a34,34,0,0,0,2.2,5.3l-5,5.05A6.58,6.58,0,0,0,85,391l5.7,5.7a6.6,6.6,0,0,0,9.31,0l5-5a35.15,35.15,0,0,0,5.31,2.2V401a6.58,6.58,0,0,0,6.58,6.58h8a6.59,6.59,0,0,0,6.58-6.58v-7.14a34.14,34.14,0,0,0,5.31-2.2l5,5.05a6.76,6.76,0,0,0,9.31,0l5.7-5.7a6.6,6.6,0,0,0,0-9.32l-5-5a34,34,0,0,0,2.2-5.3h7.13a6.6,6.6,0,0,0,6.59-6.59v-8.05A6.59,6.59,0,0,0,161.22,350.12ZM121,381.21a20.49,20.49,0,1,1,20.48-20.49h0A20.51,20.51,0,0,1,121,381.21Z"/><path id="Path_764" data-name="Path 764" class="cls-40" d="M40.1,295.42c-5.9-.68-12-3.39-18.1-2.65-5.75.7-12.19,5.1-9.81,11.56,2.45,6.63,10.51,5.77,16,5.08a101.63,101.63,0,0,1,18.94-1c5,.3,9.41,3.13,13.8,5-1.6-2.32-2.44-3.38-3.14-6.13-4.53-.22-22.1-5.09-22.3-5.6-.39-1,.44-1.42,1-2.1C37.62,298.38,38.51,297.26,40.1,295.42Z"/><path id="Path_765" data-name="Path 765" class="cls-41" d="M56.82,311.51a8.51,8.51,0,0,1,1-4.25A4.77,4.77,0,0,1,60.7,305c1.46-.61,2.9-1.25,4.4-1.76,1-.33,2.44-.71,2.54-1.86.06-.75-2-1.95-2.51-2.37a8.62,8.62,0,0,1-.19-1.43,12.39,12.39,0,0,1,4.5.17c1.92.34,4.54,1.38,5.31,3.34.62,1.56,1,3.72-.33,5a8.22,8.22,0,0,1-3.8,1.8c-2,.55-4.1,1-6.05,1.64a5.92,5.92,0,0,0-3.67,4A38.15,38.15,0,0,0,56.82,311.51Z"/><path id="Path_766" data-name="Path 766" class="cls-42" d="M73.88,385.3a9.6,9.6,0,0,0-2.16,4.85,11.82,11.82,0,0,0,.38,6.21c.22.66,1.36,3.38,2.26,3.12.75-.22,1-1.94,1.09-2.54.15-1.65.32-3.36.36-5C75.86,389.93,75.78,386.67,73.88,385.3Z"/><path id="Path_767" data-name="Path 767" class="cls-11" d="M74,387.43a4.07,4.07,0,0,0-2.47,6.75c1.26,1.4,3.27,1.76,5.12,2l27.82,4.19c1,.14,2.18.13,2.55-.75a1.51,1.51,0,0,0-.6-1.68,4.43,4.43,0,0,0-1.79-.64l-14.1-2.8a8.12,8.12,0,0,1-3.33-1.18,2.81,2.81,0,0,1-1.17-3.1,3.4,3.4,0,0,1,2.79-1.78,13.09,13.09,0,0,0,3.4-.63c1.06-.48,1.9-1.74,1.41-2.79s-2.22-1.2-3.52-1"/><path id="Path_768" data-name="Path 768" class="cls-36" d="M22.06,384.66c3.16.84,7,.75,10.38.87,4.7.17,9.36.42,14.06.42,8.88,0,18.47-.41,27.24-.58-4.09,7.34.55,11.26.4,14.05-11.38.68-22.78,1.49-35.31,2.38-4.9.35-13.46.89-18.35,1.29-2.74.22-1.5-2.52-3.33-5.09C14.41,394.12,16.26,384.13,22.06,384.66Z"/><path id="Path_769" data-name="Path 769" class="cls-34" d="M35.52,301.66c-3-.56-6.7-.83-8.63-1-2.58-.26-7.51-.21-6.95-1.81,1.41-6.18,15.82-1.42,18.34-1.25A29.9,29.9,0,0,0,35.52,301.66Z"/><path id="Path_770" data-name="Path 770" class="cls-7" d="M45,265.11c-.15.42.34.85.79.84A2.52,2.52,0,0,0,47,265.4a8.55,8.55,0,0,1,4.92-1.33,6.09,6.09,0,0,0,1.35,0,1.4,1.4,0,0,0,1.08-.72c.86-1.88-3.43-1-4.11-.84C49.06,262.78,45.46,263.79,45,265.11Z"/><path id="Path_771" data-name="Path 771" class="cls-7" d="M67.9,261.67c.35.1.76.35.71.78a.81.81,0,0,1-.65.65,2.56,2.56,0,0,1-.87-.1,9.36,9.36,0,0,0-3.75.46c-1.77.4-1.73-1.3-.2-1.73A9.48,9.48,0,0,1,67.9,261.67Z"/><path id="Path_784" data-name="Path 784" class="cls-18" d="M734.78,359.52a11.59,11.59,0,0,1-1.53,4.37c-.27.45-.58,1-.34,1.47s.8.55,1.29.6l1.93.19a1.42,1.42,0,0,0,.84-.08,1,1,0,0,0,.44-.88,3.1,3.1,0,0,0-.23-1,20.13,20.13,0,0,1-1-5c0-.4.11-1.74-.64-1.61S734.84,359.08,734.78,359.52Z"/><path id="Path_785" data-name="Path 785" class="cls-31" d="M564.64,248.77a.64.64,0,0,1-.41.79h0a1.39,1.39,0,0,1-.86-.22,4.69,4.69,0,0,0-3.36-.2,3.8,3.8,0,0,1-.88.23.83.83,0,0,1-.79-.39c-.77-1.33,2.13-1.37,2.59-1.36C561.72,247.63,564.18,247.81,564.64,248.77Z"/><path id="Path_786" data-name="Path 786" class="cls-31" d="M547.43,247c-.28.09-.61.29-.57.63a.64.64,0,0,0,.52.52,1.82,1.82,0,0,0,.7-.08,7.55,7.55,0,0,1,3,.38c1.43.32,1.4-1,.17-1.4A7.69,7.69,0,0,0,547.43,247Z"/><path id="Path_779" data-name="Path 779" class="cls-7" d="M739.75,360.51a1,1,0,0,0,.44.93,1.31,1.31,0,0,0,.48.12.8.8,0,0,0,.76-.21.64.64,0,0,0,.11-.27,1.49,1.49,0,0,0-.22-1.28C740.7,359,739.81,359.65,739.75,360.51Z"/><path id="Path_779-2" data-name="Path 779-2" class="cls-7" d="M731.17,360.51a1,1,0,0,0,.44.93,1.31,1.31,0,0,0,.48.12.79.79,0,0,0,.76-.21.66.66,0,0,0,.12-.27,1.53,1.53,0,0,0-.23-1.28C732.12,359,731.23,359.65,731.17,360.51Z"/><path id="Path_779-3" data-name="Path 779-3" class="cls-7" d="M548.6,251.2a1,1,0,0,0,.44.93,1.32,1.32,0,0,0,.48.13.78.78,0,0,0,.76-.22.85.85,0,0,0,.11-.26,1.52,1.52,0,0,0-.23-1.29C549.54,249.73,548.66,250.34,548.6,251.2Z"/><path id="Path_779-4" data-name="Path 779-4" class="cls-7" d="M51.3,269.18a1,1,0,0,0,.44.92,1.19,1.19,0,0,0,.48.13.63.63,0,0,0,.88-.48,1.5,1.5,0,0,0-.23-1.28C52.25,267.7,51.36,268.32,51.3,269.18Z"/><path id="Path_779-5" data-name="Path 779-5" class="cls-7" d="M64.38,267.71a1,1,0,0,0,.44.93,1.15,1.15,0,0,0,.48.13.79.79,0,0,0,.76-.21.8.8,0,0,0,.12-.27A1.53,1.53,0,0,0,66,267C65.32,266.24,64.44,266.86,64.38,267.71Z"/><path id="Path_779-6" data-name="Path 779-6" class="cls-7" d="M558.54,251.87a1,1,0,0,0,.44.93,1.19,1.19,0,0,0,.48.13.79.79,0,0,0,.77-.22.85.85,0,0,0,.11-.26,1.52,1.52,0,0,0-.23-1.29C559.49,250.4,558.61,251,558.54,251.87Z"/><path id="Path_828" data-name="Path 828" class="cls-43" d="M230.09,468.64l0,8.91c0,1.74.9,3.15,2,3.15h54c1.1,0,2-1.41,2-3.15l0-8.91Z"/><path id="Path_831" data-name="Path 831" class="cls-44" d="M322.83,515.63l0,8.91a3.17,3.17,0,0,0,3.17,3.15H412a3.16,3.16,0,0,0,3.16-3.15l.05-8.91Z"/><path id="Path_668" data-name="Path 668" class="cls-5" d="M322.92,383.08,278.78,419.8S254.19,442,254.19,470v44.55a8,8,0,0,0,8,8h0l60.7-.07Z"/><path id="Path_829" data-name="Path 829" class="cls-45" d="M449.4,468.64l0,8.91c0,1.74.9,3.15,2,3.15h54c1.1,0,2-1.41,2-3.15l0-8.91Z"/><path id="Path_830" data-name="Path 830" class="cls-46" d="M388.45,462.48a5.25,5.25,0,0,0-7.89-4.52l-12.76,7.42a1.44,1.44,0,0,1-1.28,0h0l-1.93-1.11-1-.59h0a1.41,1.41,0,0,1-.68-1.24,1.4,1.4,0,0,1,.71-1.22l17.08-9.92a1.68,1.68,0,0,0,0-2.91L373,444a5.26,5.26,0,0,0-5.25,0l-16.64,9.68a1.53,1.53,0,0,0-.21.14l-.37.25v0a5.2,5.2,0,0,0-2,3.84V458l0,14.36a5.23,5.23,0,0,0,5.24,5.24,5.17,5.17,0,0,0,2.65-.72l12.75-7.41a1.43,1.43,0,0,1,1.29,0h0l2.92,1.69.06,0h0a1.44,1.44,0,0,1,.68,1.25,1.41,1.41,0,0,1-.71,1.22l-17.08,9.91a1.69,1.69,0,0,0,0,2.92l7.61,4.36a5.26,5.26,0,0,0,5.25,0l16.64-9.68.21-.13.37-.25v0a5.2,5.2,0,0,0,2-3.85V462.48Zm-19.88-17.12a3.67,3.67,0,0,1,3.67,0l7.61,4.36a.1.1,0,0,1,0,.14l0,0-17.08,9.91a3,3,0,0,0-1.5,2.54l-7.35-4.17a4.17,4.17,0,0,1-.44-.29l-.13-.11-.25-.23-.13-.15-.2-.23-.12-.18-.15-.25-.09-.19c0-.09-.08-.18-.11-.27a1.18,1.18,0,0,1-.07-.2c0-.1-.05-.19-.08-.28s0-.15,0-.22l0-.29a1.7,1.7,0,0,1,0-.22V455Zm-12.91,30.13a3.67,3.67,0,0,1-5-1.33,3.57,3.57,0,0,1-.5-1.83l0-8.88V458a3.77,3.77,0,0,1,.53-1.69v0c0,.15.08.3.13.44l.05.12c0,.11.09.22.14.33l0,.11c.07.14.14.27.22.4l0,0a2.62,2.62,0,0,0,.24.34l.08.11.24.29.07.07.33.33.09.07a3.4,3.4,0,0,0,.3.23l.11.08.41.26,9.58,5.44,5.52,3.18Zm12.78,14a3.65,3.65,0,0,1-3.66,0l-7.62-4.37h0a.11.11,0,0,1-.05-.09.09.09,0,0,1,.05-.08L374.24,475a3,3,0,0,0,1.5-2.54l7.35,4.17.44.29a.69.69,0,0,0,.13.11l.25.23.13.15.2.24.12.17.15.25a1.86,1.86,0,0,0,.1.2c0,.08.07.17.11.26s0,.14.07.21,0,.18.07.28a1.55,1.55,0,0,1,0,.21,1.53,1.53,0,0,1,0,.3c0,.07,0,.14,0,.22v.1Zm18.45-12.63a3.6,3.6,0,0,1-.52,1.69h0c0-.15-.09-.3-.14-.45l0-.11c0-.11-.09-.22-.14-.33a.61.61,0,0,1-.05-.12l-.23-.4,0,0-.24-.34-.08-.11-.25-.29-.06-.07c-.11-.11-.22-.22-.34-.32s-.06-.05-.08-.08l-.3-.23-.11-.08-.41-.26-9.57-5.43-.07,0-5.46-3.14,12.58-7.32a3.66,3.66,0,0,1,5.51,3.16l0,8.88Z"/><path id="Path_669" data-name="Path 669" class="cls-5" d="M414.88,383.08,459,419.8S483.6,442,483.6,470v46a6.59,6.59,0,0,1-6.58,6.59h0l-62.1-.07Z"/></g></g></svg>