<svg xmlns="http://www.w3.org/2000/svg" xmlns:xlink="http://www.w3.org/1999/xlink" width="570.496" height="577.37" viewBox="0 0 570.496 577.37"><defs><style>.a{opacity:0.2;fill:url(#a);}</style><linearGradient id="a" x1="0.5" y1="1" x2="0.5" gradientUnits="objectBoundingBox"><stop offset="0" stop-color="#09a7fe"/><stop offset="1" stop-color="#1783e3"/></linearGradient></defs><path class="a" d="M347.268,186.945c-8.918,10.623-19.829,19.52-28.032,30.7-23.614,32.2-20.542,75.994-30.288,114.71a171.977,171.977,0,0,1-41.579,75.763c-9.147,9.678-19.582,18.379-31.7,23.892-12.453,5.666-26.222,7.771-39.861,8.853a198.682,198.682,0,0,1-42.89-.758,152.7,152.7,0,0,1-102.14-61.872C4.165,340.874-4.09,292.468,1.808,246.978s24.964-88.4,48.808-127.585C69.553,88.273,91.959,58.711,120.7,36.331S185.1-.867,221.518.039c24.642.613,48.527,8.255,71.745,16.524,35.4,12.607,60.837,26.56,72.813,62.935C377.963,115.6,372.021,157.462,347.268,186.945Z" transform="translate(0 244.044) rotate(-41)"/></svg>