<svg xmlns="http://www.w3.org/2000/svg" width="235.04" height="470.322" viewBox="0 0 235.04 470.322"><defs><style>.a{fill:rgba(101,74,206,0.04);stroke:rgba(0,0,0,0);stroke-miterlimit:10;}</style></defs><path class="a" d="M-4710,5549.252h0V5080.121c1.793.522,3.56,1.071,5.252,1.631a141.335,141.335,0,0,1,14.976,5.911,134.923,134.923,0,0,1,13.412,7.156,135.5,135.5,0,0,1,11.988,8.223c3.656,2.808,7.257,5.87,10.7,9.105,3.25,3.05,6.466,6.35,9.56,9.808,2.888,3.229,5.766,6.7,8.555,10.328a245.364,245.364,0,0,1,14.656,21.494c4.09,6.67,8.348,14.036,13.018,22.519,4.168,7.571,8.266,15.3,12.228,22.773,7,13.2,14.237,26.854,22.074,40.034,4.217,7.092,8.268,13.488,12.385,19.555,4.62,6.808,9.2,13.024,14.007,19.006,6.725,8.371,14.223,16.66,21.474,24.677,8.246,9.115,16.772,18.542,24.188,28.119a174.972,174.972,0,0,1,10.272,14.633c1.583,2.542,3.052,5.086,4.364,7.561,1.378,2.6,2.633,5.212,3.728,7.764a88.36,88.36,0,0,1,7.021,29.44,94.774,94.774,0,0,1-3.135,30.352,114.08,114.08,0,0,1-12.9,29.8,143.5,143.5,0,0,1-22.282,27.788,173.855,173.855,0,0,1-14.774,12.881c-5.174,4.033-10.773,7.955-16.639,11.657-5.754,3.632-11.9,7.139-18.276,10.421-6.262,3.227-12.886,6.313-19.687,9.173a336.589,336.589,0,0,1-42.7,14.546,395.151,395.151,0,0,1-45.619,9.391c-5.889.858-12.041,1.559-18.81,2.14-5.75.494-11.977.9-19.036,1.247Z" transform="translate(4710.5 -5079.454)"/></svg>