<svg xmlns="http://www.w3.org/2000/svg" width="32.965" height="28.974" viewBox="0 0 32.965 28.974"><defs><style>.a{fill:#00e6ca;}</style></defs><g transform="translate(0 -30.988)"><path class="a" d="M.964,166.441H26.2a.967.967,0,0,0,.619-.224c.242-.2,5.772-4.96,6.11-15.229H5.825C5.49,160.31.4,164.691.344,164.735a.967.967,0,0,0,.621,1.706Z" transform="translate(0 -112.274)"/><path class="a" d="M117.117,32.92h-4.829v-.966a.966.966,0,0,0-1.932,0v.966h-4.893v-.966a.966.966,0,0,0-1.932,0v.966H98.7v-.966a.966.966,0,1,0-1.932,0v.966H91.942a.956.956,0,0,0-.966.966v2.9h27.107v-2.9A.956.956,0,0,0,117.117,32.92Z" transform="translate(-85.118)"/><path class="a" d="M113.182,305.1a2.907,2.907,0,0,1-1.859.674H90.977v2.9a.965.965,0,0,0,.966.966h25.175a.965.965,0,0,0,.966-.966V297.843A19.142,19.142,0,0,1,113.182,305.1Z" transform="translate(-85.119 -249.673)"/></g></svg>