<svg xmlns="http://www.w3.org/2000/svg" width="25.966" height="25.966" viewBox="0 0 25.966 25.966"><defs><style>.a{fill:#00e6ca;}</style></defs><g transform="translate(0)"><g transform="translate(0)"><path class="a" d="M24.523,18.032a16.422,16.422,0,0,1-5.15-.822,1.447,1.447,0,0,0-1.464.353l-3.174,3.181a21.725,21.725,0,0,1-9.506-9.5L8.4,8.057a1.447,1.447,0,0,0,.353-1.464,16.422,16.422,0,0,1-.822-5.15A1.438,1.438,0,0,0,6.492,0H1.443A1.442,1.442,0,0,0,0,1.443,24.521,24.521,0,0,0,24.523,25.966a1.438,1.438,0,0,0,1.443-1.443V19.475A1.438,1.438,0,0,0,24.523,18.032Z"/></g></g></svg>