<svg xmlns="http://www.w3.org/2000/svg" xmlns:xlink="http://www.w3.org/1999/xlink" width="453.746" height="589.407" viewBox="0 0 453.746 589.407"><defs><style>.a{fill:none;}.b{fill:#17134a;}.c{clip-path:url(#a);}.d{fill:#3b7cc0;}.e{fill:#fff;}.f{fill:#dcb0ff;}.g{fill:#bf83ed;}.h{fill:#927e5c;}.i{fill:#c17bef;}.j{fill:#ab66d8;}.k{fill:#081b37;}.l{fill:#001738;}.m{fill:#9ce5ff;}.n{fill:#2bacaf;}.o{fill:#00e6ca;}.p{fill:#48d5f0;}</style><clipPath id="a"><path class="a" d="M2674.039,717.23c-40.665,53.266-148.463,32.919-186.654,101.879-71.428,128.977,122.042,163.187,247.568,129.922,102.3-27.11,108.95-70.588,122.25-142.2,9.529-51.312,67.777-62.44,68.03-126.342.511-129.411-153.758-87.31-194.372-57.8C2673.9,664.079,2696.7,687.546,2674.039,717.23Z" transform="translate(-2471.999 -591.847)"/></clipPath></defs><g transform="translate(-2471.999 -161.147)"><path class="b" d="M2674.039,717.23c-40.665,53.266-148.463,32.919-186.654,101.879-71.428,128.977,122.042,163.187,247.568,129.922,102.3-27.11,108.95-70.588,122.25-142.2,9.529-51.312,67.777-62.44,68.03-126.342.511-129.411-153.758-87.31-194.372-57.8C2673.9,664.079,2696.7,687.546,2674.039,717.23Z" transform="translate(0 -210.395)"/><g transform="translate(2471.999 381.452)"><g class="c"><path class="d" d="M2924.159,1605.789c-11.416-13.735-52.069-391.693-52.083-471.148,0-8.678,5.7-16.24,14.356-16.879l53.154-3.925a15.561,15.561,0,0,1,16.652,14.218l38.959,464.139" transform="translate(-2667.435 -846.816)"/><path class="d" d="M2755.851,1609.176c5.911,0,41.429-401.212,35.895-486.234-.454-6.979-5.157-12.85-12.151-12.773l-69.534.762-20.143,488.037" transform="translate(-2578.451 -845.045)"/></g></g><path class="e" d="M2727.264,586.466c5.638-41.075,62.144-34.888,91.636-38.691,12.971-1.672,35.073,11.376,47.915,14.705,29.437,7.632,20.28,21.9,20.715,50.151,1.09,70.866-4.676,53.49-1.091,139.552,2.181,52.332,1.091,103.574,1.091,103.574-10.085,11.206-159.7,8.116-166.809,1.09-.57-.563,3.765-32.624,4.361-58.874C2726.173,750,2719.632,642.069,2727.264,586.466Z" transform="translate(-121.474 -188.794)"/><path class="f" d="M2836.824,516.6a44.07,44.07,0,0,0,34.8,10.984c12.451-1.6,19.763-3.821,26.6-14.35-3.675-7.821-1.885-21.267-3.108-29.822a15.515,15.515,0,0,0-1.292-5.134,12.86,12.86,0,0,0-3.1-3.533c-6.253-5.433-13.919-9.782-22.2-10.038-9.288-.286-29.047,1.144-31.354,10.369-1.09,4.361.947,11.875.721,16.359C2837.6,497.331,2835.3,515.216,2836.824,516.6Z" transform="translate(-177.963 -148.273)"/><path class="g" d="M2869.858,508.016c4.063.538,8.39.344,11.967-1.656,3.673-2.054,6.107-5.734,8.24-9.363,3.542-6.023,6.745-12.649,6.462-19.631a10.247,10.247,0,0,0-.9-4.144c-1.314-2.653-4.159-4.123-6.822-5.417-6.47-3.145-13.019-6.317-20.051-7.835-12.1-2.611-35.87,3.849-30.277,20.761C2843.019,494.47,2855.334,506.092,2869.858,508.016Z" transform="translate(-178.613 -145.701)"/><path class="h" d="M2784.518,316.823c-6.581,9.527-5.452,19.624-1.267,33.8,4.833,16.367,7.186,27.454,13.083,39.249,2.18,4.361,13.083,11.993,19.625,16.354,2.158-5.885-8.988-17.774-9.812-23.985-.927-6.095-6.785,1.463-12.162-1.545,9.981-14.809,9.888-25.3,13.251-37.7,1.217-12.928-7.547-24.546-16.178-34.888" transform="translate(-150.382 -71.786)"/><path class="h" d="M2948.857,377.141c1.031-2.964,10.444-6.181,11.979-11.929.25-7.476,9.216-27.07,1.437-31.425,4.966-.722,8.344-4.077,2.837-6.511,5.43-1.461,3.537-2.706.226-5.382,2.136-1.022,4.648-2.746,4.171-5.064-5.06-5.632-11.92-10.351-16.51-16.948-47.286-43.022-32.853,84.909-33.287,105.925C2932.953,402.643,2945.337,391.5,2948.857,377.141Z" transform="translate(-217.853 -63.482)"/><path class="f" d="M2898.008,334.766a41.559,41.559,0,0,0-4.751-18.665,37.011,37.011,0,0,0-27.845-18.138c-34.823,1.915-30.845,13.668-41.949,21.463,1.786,13.872,4.474,25.237-2.863,37.145-.181-.34,4.718,33.06,7.632,38.159,4.361,7.632,20.742,19.032,27.257,19.624,11.993,1.09,16.354-1.091,16.354-1.091,7.632-2.181,15.777-10.635,20.714-18.534C2898.008,386.008,2898.381,354.137,2898.008,334.766Z" transform="translate(-170.288 -66.834)"/><g transform="translate(2632.709 279.993)"><path class="f" d="M2804.282,401.953a19.61,19.61,0,0,0-7.639-7.93c-3.764-1.589-8.146.414-9.771,5.711-1.827,5.953.283,13.552,3.2,18.848,2.047,4.033,4.837,6.978,7.936,8.378,2.969,1.241,7.224-.574,9.052-4.1Z" transform="translate(-2786.19 -393.493)"/><path class="i" d="M2806.518,415.745c.046-.842.647-1.266.856-2.036a3.4,3.4,0,0,0-.057-1.693,4.54,4.54,0,0,0-1.338-2.421,2.659,2.659,0,0,0-2.043-.335,3.537,3.537,0,0,0-2.3,1.47,6.993,6.993,0,0,0-1.236,3.352,10.922,10.922,0,0,0,5.2,10.408,3.11,3.11,0,0,0,1.576.63,1.44,1.44,0,0,0,1.339-1.055,4.992,4.992,0,0,0-.2-3.322c-.424-.94-1.021-1.554-1.419-2.517a4.255,4.255,0,0,1-.306-3.125" transform="translate(-2793.112 -401.157)"/><path class="j" d="M2807.176,411.784a8.176,8.176,0,0,0-.591,3.06,11.534,11.534,0,0,0,.85,4.674,5.943,5.943,0,0,0,2.473,3,1.144,1.144,0,0,0,.93.152,1.057,1.057,0,0,0,.574-.991,2.663,2.663,0,0,0-.673-1.586,6.317,6.317,0,0,1-1.034-2.1,4.021,4.021,0,0,1,.079-2.479,10.2,10.2,0,0,0,.65-1.241,3.1,3.1,0,0,0-.007-1.479,8.508,8.508,0,0,0-.477-1.362c-.346-.817-.762-1.523-1.389-1.2a3.03,3.03,0,0,0-1.385,1.553" transform="translate(-2796.151 -401.63)"/></g><g transform="translate(2724.694 275.355)"><path class="f" d="M2966.022,394.536a19.612,19.612,0,0,1,6.233-9.077c3.451-2.186,8.1-.93,10.577,4.028,2.78,5.572,1.947,13.414-.064,19.119-1.357,4.315-3.625,7.678-6.452,9.568-2.724,1.713-7.219.621-9.6-2.556Z" transform="translate(-2966.022 -384.426)"/><path class="i" d="M2975.667,407.98c-.184-.823-.846-1.143-1.179-1.868a3.4,3.4,0,0,1-.222-1.679,4.547,4.547,0,0,1,.922-2.609,2.659,2.659,0,0,1,1.96-.665,3.539,3.539,0,0,1,2.511,1.071,7,7,0,0,1,1.77,3.1,10.921,10.921,0,0,1-3.423,11.121,3.113,3.113,0,0,1-1.451.881,1.442,1.442,0,0,1-1.495-.821,4.99,4.99,0,0,1-.351-3.309c.264-1,.752-1.7.986-2.716a4.261,4.261,0,0,0-.211-3.133" transform="translate(-2970.037 -392.595)"/><path class="j" d="M2977.283,403.906a8.18,8.18,0,0,1,1.086,2.922,11.549,11.549,0,0,1-.07,4.75,5.946,5.946,0,0,1-1.947,3.363,1.144,1.144,0,0,1-.893.3,1.056,1.056,0,0,1-.729-.883,2.662,2.662,0,0,1,.4-1.675,6.319,6.319,0,0,0,.675-2.241,4.023,4.023,0,0,0-.485-2.433,10.181,10.181,0,0,1-.845-1.118,3.092,3.092,0,0,1-.236-1.46,8.44,8.44,0,0,1,.247-1.422c.207-.863.5-1.627,1.173-1.41a3.029,3.029,0,0,1,1.622,1.3" transform="translate(-2970.032 -393.286)"/></g><path class="i" d="M2897.795,392.609a33.852,33.852,0,0,0,4.242,13.642c.812,1.448,2.442,3.9.853,4.556-1.862.77-4.186,2.518-5.849,2.534l-1-.014c-.958.1-3.211-2.288-6.052-1.907-1.15.154-2.261-1.3-2.126-2.349a8.8,8.8,0,0,1,.972-2.944,54.815,54.815,0,0,0,4.046-14.732c.185-1.23-.288-9.332,2.181-8.722,2.018.505,2.624,8.594,2.736,9.938" transform="translate(-203.141 -108.197)"/><path class="e" d="M2901.317,466.494c-.014-.088.96-1.928.96-2.018,0-1.542-.8-3.265-1.826-3.535-1.875-.494-5.154,1.531-10.264,1.853-4.7.3-9.564-2.562-14.521-1.853-.7.1-1.88,1.487-1.668,1.683,5.561,5.123,18.031,5.054,27.319,3.87" transform="translate(-196.362 -146.393)"/><path class="k" d="M2873.913,464.344a1.969,1.969,0,0,0,.167,1.63,10.62,10.62,0,0,0,4.133,4.581c3.831,2.554,5.438,2.439,9.413,2.726a32.3,32.3,0,0,0,8.031-.546c2.674-.58,6.626-3.81,6.542-6.542-9.294,1.186-21.629,3.271-28.285-1.85" transform="translate(-196.282 -148.11)"/><path class="h" d="M2896.417,492.484a4.242,4.242,0,0,0,2.155,2.374,3.118,3.118,0,0,0,2.952-.758c.761-.743,4.653-5.434,2.531-7.509-.456-.373-6.542-1.091-8.722,0-.65.325.21,3.89,1.085,5.893" transform="translate(-206.685 -158.695)"/><path class="k" d="M2861.205,396.061a2.635,2.635,0,0,0,.708,3.143,6.024,6.024,0,0,0,1.7.913,4.026,4.026,0,0,0,3.139.276,2.262,2.262,0,0,0,.7-.627,3.566,3.566,0,0,0,.47-3.914,3.842,3.842,0,0,0-6.722.208" transform="translate(-190.005 -113.734)"/><path class="k" d="M2926.619,395.5a2.563,2.563,0,0,0,.7,3.065,5.888,5.888,0,0,0,1.657.892,3.934,3.934,0,0,0,3.066.27,2.169,2.169,0,0,0,.681-.611,3.479,3.479,0,0,0,.46-3.82,3.75,3.75,0,0,0-6.561.2" transform="translate(-221.962 -113.483)"/><path class="h" d="M2840.612,373.26c-.492.916.478,2.052,1.509,2.175a5.8,5.8,0,0,0,2.96-.813,19.52,19.52,0,0,1,11.61-1.334,14.508,14.508,0,0,0,3.08.464,3.257,3.257,0,0,0,2.7-1.283c2.61-3.972-7.435-3.421-9.032-3.3-2.8.192-11.312,1.258-12.826,4.091" transform="translate(-180.002 -101.571)"/><path class="h" d="M2937.37,373.26c.492.916-.478,2.052-1.51,2.175a5.8,5.8,0,0,1-2.96-.813,19.52,19.52,0,0,0-11.611-1.334,14.5,14.5,0,0,1-3.08.464,3.257,3.257,0,0,1-2.7-1.283c-2.61-3.972,7.436-3.421,9.031-3.3,2.8.192,11.313,1.258,12.827,4.091" transform="translate(-216.444 -101.571)"/><path class="h" d="M2880.285,520.205a5.87,5.87,0,0,1-2.71-2.111l-.018-.03c-.764-1.3.058-3.414,1.429-2.794,3.082,1.392,7.521,1.4,10.9,1.09,4.059-.366,7.652-.759,11.27-2.635a1.761,1.761,0,0,1,.7-.246c2.914-.152-.583,4.937-1.211,5.607a7.272,7.272,0,0,1-4.319,2.469C2891.239,522.437,2885.028,522.361,2880.285,520.205Z" transform="translate(-197.97 -172.111)"/><path class="h" d="M2886.756,306.635c4.753,1.978,7.647.728,12.393-1.269L2883.394,293.3l11.4.517c-10.061-3.057-12.978-16.335-21.717-22.182-5.017-3.356-33.705-8.95-44.589-1.442-9.831-3.147-23.534,12.8-27.185,17.21a3,3,0,0,0-.394,3.143,68.891,68.891,0,0,1,5.383,35.556q1.808-5.346,3.1-10.942-.649,4.426-1.3,8.857c6.631-1.7,12.688-8.182,16.145-17.29l.825,2.442c2.06-3.819,1.838-14.615,2.311-19.228.533.875,9.508,15.338,13.029,17.816,8.765,6.781,18.046,13.747,28.553,13.435-1.8-2.64-6.438-6.386-6.3-10.719,1.8,2.493,8.956,3.961,11.663,3.208.094.132-.836-1.174-2.32-3.231a48.612,48.612,0,0,1,5.4,2.56,36.639,36.639,0,0,0,12.426,4.447c3.5.567,10.411-1.492,13.153-.38C2896.1,314.282,2892.333,311.553,2886.756,306.635Z" transform="translate(-160.539 -51.446)"/><path class="a" d="M2801.793,412.118c.435-.09.611-.6.707-1.037q1.068-4.837,1.67-9.762a2.666,2.666,0,0,0,.842,1.685,76.722,76.722,0,0,0,2.562-17.689,12.1,12.1,0,0,0-.282-3.548,11,11,0,0,0-3.63-5.052,32.748,32.748,0,0,0-4.429-3.291c-1.689-1.046-3.8-1.953-5.6-1.125a5.182,5.182,0,0,0-2.051,1.946c-3.036,4.594-2.427,9.913-1.017,14.893a72.169,72.169,0,0,0,6.267,15.224q1.14,2.063,2.414,4.048C2799.5,408.8,2801.453,412.188,2801.793,412.118Z" transform="translate(-155.049 -102.989)"/><path class="e" d="M2623.472,642.346c-3.271-7.632-13.083-45.79,3.271-57.783,9.79-3.862,35.637-8.132,45.791-10.9,7.267-1.983,27.256-8.722,34.888-9.812,6.148-.878-8.986,18.427-8.184,24.587a105.121,105.121,0,0,1,.147,25.969c-1.354,11.387-3.41,34.948-14.859,35.574C2661.059,651.261,2641.056,648.227,2623.472,642.346Z" transform="translate(-71.106 -196.704)"/><path class="f" d="M2507.669,527.156a7.919,7.919,0,0,1-5.57-6.222c-4.824-27.382,1.835-56.918,7.466-84.575,5.563-27.329,18.924-71.407,22.253-71.029a192.973,192.973,0,0,1,23.759,4.217c3.853.936,3.5,5.089,3.049,9.029-4.51,39.06-14.068,65.057-15.244,104.281-.146,4.86,4.1,7.662,8.946,8.058,12.84,1.047,12.84-.044,21.563-.044,8.79,0,5.863,54.956-4.361,53.422C2549.248,541.252,2529.2,533.476,2507.669,527.156Z" transform="translate(-13.892 -99.742)"/><path class="f" d="M2552.423,287.549c-.151.249-1.949-6.51-2.181-9.812-.419-5.979-1.1-13.123-.1-19.032a61.526,61.526,0,0,0,.485-11.422,21.928,21.928,0,0,0-1.392-7.268c-2.834-7.55-3.574-13.058-5.643-19.863a5.4,5.4,0,0,1,.538-2.9,2.213,2.213,0,0,1,3.117-.606,6.154,6.154,0,0,1,2.068,2.872,99.152,99.152,0,0,1,4.73,12.834c.758,2.593,1.924,7.806,3.615,9.913.92,1.146,2.98,2.044,4.02,1,1-1,1-3.66,1-4.019,0-11.054-1.725-19.968,0-30.147.263-1.551,1.905-3.99,3.379-3.442a3.339,3.339,0,0,1,1.645,1.432c1.23,2.731,1.025,6.049,1.005,9.044a90.892,90.892,0,0,0,1.444,18.655c.345,1.732.82,7.279,2.576,7.473,1.85.2,3.352-5.333,3.925-7.1,2.845-8.8,2.78-18.259,4.592-27.329.385-1.925,1.353-4.262,3.315-4.29,2.236.538,2.262,4.451,2.236,6.567a152.994,152.994,0,0,1-2.213,24.322,16.962,16.962,0,0,0,.242,5.971c.35,1.344.331,1.97,1.754,1.931a1.806,1.806,0,0,0,1.55-1.025l11.583-23.48c.771-1.563,1.6-3.2,3.327-3.9a2.715,2.715,0,0,1,2.46.149c1.568,1,1.25,3,.774,4.6-2.42,8.159-6.613,15.662-9.906,23.509s-5.719,16.421-4.321,24.816a4.252,4.252,0,0,0,.971,2.383,8.178,8.178,0,0,0,2.823,2.026c6.237,1.159,11.284-1.448,17.083-4.019a48.716,48.716,0,0,1,7.035-2.01,7.932,7.932,0,0,1,3.906.269,1.519,1.519,0,0,1,.745,2.52c-2.434,2.453-5.613,4.14-8.706,5.755l-25.936,13.545a39.066,39.066,0,0,0-9.208,6.628c-3.518,3.518-14.381-3.162-18.844-5.485C2560.192,287.7,2552.152,288,2552.423,287.549Z" transform="translate(-34.945 -20.707)"/><path class="e" d="M3050.318,631.449c3.143,3.243,15.962,14.706,18.2,19.795,2.195,4.99-14.269,23.1-17.5,29.287a21.373,21.373,0,0,1-23.37,10.623c-4.673-.919-28.233-43.69-29.258-44.9-10.7-12.675,17.378-13.026,10.062-25.865-2.954-5.185-24.841-45.208-19.753-44.909C3029.061,577.847,3043.666,624.585,3050.318,631.449Z" transform="translate(-252.031 -202.397)"/><path class="f" d="M3168.644,604.723a3.869,3.869,0,0,0-1.74-1.47l-23.183-12.674a1.942,1.942,0,0,0-2.769,1.062c-9.386,27.027-19.447,59.146-27.308,86.836-.451,1.587-1.533,2.19-2.447.817-3.414-5.123-6.288-13.287-9.915-17.7-.553-.674-2.414-.3-3.2.075-10.391,4.974-22.49,18.037-27.958,29.668-.993,2.113-2.833,2.833,3.541,10.622l21.395,26.651a27.031,27.031,0,0,0,32.175,2.915c9.195-5.933,13.724-12.124,17.247-22.484,11.273-33.156,14.872-67.276,24.237-101.871A3.482,3.482,0,0,0,3168.644,604.723Z" transform="translate(-291.678 -209.659)"/><path class="f" d="M3214.585,505.334a6.382,6.382,0,0,1,1.915-3.71c1.825-1.374,4.416-.461,6.481.517a288.847,288.847,0,0,1,28.477,15.5,7.448,7.448,0,0,1,2.871,2.584,6.6,6.6,0,0,1,.375,4.029c-.771,5.346-3.185,10.3-5.612,15.122q-5.181,10.294-10.644,20.444c-.783,1.455-1.694,3.02-3.241,3.6a6.517,6.517,0,0,1-3.9-.14c-8.712-2.271-23.437-9.091-23.858-18.995C3206.921,531.9,3211.55,517.249,3214.585,505.334Z" transform="translate(-359.243 -165.98)"/><path class="f" d="M3241.326,417.5a40.54,40.54,0,0,1-4.412,14.57,2.284,2.284,0,0,0-.391,1.441,2,2,0,0,0,.543.91,10.552,10.552,0,0,0,3.21,2.409,79.241,79.241,0,0,1,4.711-13.577c.9-1.993,2.446-4.273,4.617-4a3.568,3.568,0,0,1,2.744,2.626,9,9,0,0,1,.028,3.983,41.735,41.735,0,0,1-3.243,10.73,8.974,8.974,0,0,0-1.093,3.44,2.693,2.693,0,0,0,1.868,2.777,134.677,134.677,0,0,1,5.111-13.129c.429-.951,1-2.006,2.01-2.251,1.614-.389,2.812,1.52,3.124,3.151.975,5.1-1.089,10.246-3.11,15.035l2.907,1.714a77.508,77.508,0,0,1,3.7-9.04c.552-1.137,1.288-2.384,2.525-2.64a2.9,2.9,0,0,1,2.982,1.762,7.8,7.8,0,0,1,.492,3.664,65.126,65.126,0,0,1-2.164,14.422c-11.548-2.074-23.041-5.517-32.846-11.957-7.555-4.963-9.592-11.386-4.48-19.152,1.562-2.372,3.532-4.465,5.144-6.811.875-1.274,2.154-4.175,4.1-3.987C3241.3,413.772,3241.482,416.015,3241.326,417.5Z" transform="translate(-368.982 -123.313)"/><g transform="translate(2818.998 291.237)"><path class="l" d="M3153.137,458.1a6.111,6.111,0,0,1-2.494-2.383c-.793-1.766.439-3.664,1.239-5.427,5.123-11.28,11.549-23.346,19.829-32.38a7.217,7.217,0,0,1,2.983-2.265c2.019-.624,4.107.563,5.887,1.7,23.861,15.264,50.552,32.326,74.493,48.06,2.243,1.474,2.42,5.331,1.639,7.9-3.156,10.358-8.032,24.382-14.377,34.206-4.156,6.434-13.685-1-21.715-6.11C3198.073,487.054,3175.631,472.536,3153.137,458.1Z" transform="translate(-3150.387 -415.476)"/><path class="m" d="M3164.21,460.732a5.572,5.572,0,0,1-2.23-2.109c-.72-1.552.35-3.2,1.038-4.731,4.408-9.808,9.959-20.288,17.182-28.1a6.165,6.165,0,0,1,2.613-1.949c1.778-.523,3.636.536,5.222,1.55,21.252,13.6,45.026,28.8,66.353,42.81,2,1.312,2.2,4.686,1.532,6.923-2.679,9.022-6.84,21.232-12.344,29.753-3.6,5.581-12.106-1.019-19.259-5.573C3204.236,486.522,3184.246,473.59,3164.21,460.732Z" transform="translate(-3155.933 -419.495)"/><path class="n" d="M3196.983,471.106a10.534,10.534,0,0,1-9.39-7.844c-1.909-8.04,5.781-14.91,13.358-11.574,3.659,1.721,7.711,7.331,6.707,12.059C3206.747,468.029,3200.647,471.239,3196.983,471.106Z" transform="translate(-3168.418 -432.744)"/><path class="j" d="M3254.372,525.715a4.635,4.635,0,0,1-4.132-3.451,4.316,4.316,0,0,1,5.878-5.093c1.61.757,3.393,3.226,2.951,5.306C3258.667,524.362,3255.984,525.774,3254.372,525.715Z" transform="translate(-3199.101 -464.968)"/><path class="o" d="M3271.447,488.41a4.078,4.078,0,0,1-3.635-3.037,3.8,3.8,0,0,1,5.172-4.481c1.416.666,2.985,2.838,2.6,4.669C3275.228,487.219,3272.866,488.462,3271.447,488.41Z" transform="translate(-3207.693 -447.268)"/><path class="e" d="M3201.961,468.348c-2.4,1.2-5.232-.083-6.7-2.329a4.7,4.7,0,0,1-.822-2.288,3.831,3.831,0,0,1,4.409-3.82,6.111,6.111,0,0,1,5.18,4.416c2.589.313,4.259.011,6.864.149,1.023,1.732.559,4.109-1.1,6.5-1.161,1.673-4.274,3.533-4.619,3.186C3204.7,473.7,3202.1,468.279,3201.961,468.348Z" transform="translate(-3171.902 -437.167)"/><path class="a" d="M3204.845,540.48l-.091-.058" transform="translate(-3176.946 -476.511)"/><path class="e" d="M3231.195,488.692l8.618-17.463a1.3,1.3,0,0,1,2.1-.7c1.31.581,2.837,1.49,2.781,2.922a3.581,3.581,0,0,1-.327,1.186q-2.768,6.834-5.938,13.5c-1.044,2.195-3.008,8.435-6.5,5.987C3229.868,492.674,3230.209,490.688,3231.195,488.692Z" transform="translate(-3189.48 -442.237)"/><path class="p" d="M3274.688,518.144c3.324-6.924,8.02-14.54,11.344-21.464a1.536,1.536,0,0,1,2.48-.851c1.557.671,3.376,1.726,3.328,3.421a4.238,4.238,0,0,1-.372,1.407q-3.186,8.121-6.852,16.045c-1.208,2.611-3.45,10.019-7.611,7.168C3274.541,522.181,3273.548,520.518,3274.688,518.144Z" transform="translate(-3210.878 -454.576)"/><path class="p" d="M3298.322,531.942c3.08-7.037,6.832-14.94,9.911-21.977.186-.424,2.108-.259,2.635-.054,1.58.616,3.435,1.607,3.446,3.3a4.256,4.256,0,0,1-.322,1.419q-2.9,8.228-6.286,16.275c-1.116,2.652-3.1,10.133-7.355,7.43A4.786,4.786,0,0,1,3298.322,531.942Z" transform="translate(-3222.406 -461.504)"/><path class="n" d="M3280.844,541.956a3.086,3.086,0,0,1-2.751-2.3,2.873,2.873,0,0,1,3.913-3.391,3.661,3.661,0,0,1,1.965,3.533C3283.7,541.054,3281.917,541.995,3280.844,541.956Z" transform="translate(-3212.729 -474.358)"/><path class="e" d="M3282.3,541.148a1.578,1.578,0,0,1-1.964-.682,1.376,1.376,0,0,1-.24-.671,1.121,1.121,0,0,1,1.292-1.119,1.789,1.789,0,0,1,1.517,1.294c.759.092,1.248,0,2.011.044a1.792,1.792,0,0,1-.323,1.905c-.34.49-1.253,1.035-1.354.934C3283.106,542.716,3282.343,541.127,3282.3,541.148Z" transform="translate(-3213.75 -475.654)"/><path class="n" d="M3303.48,555.53a3.087,3.087,0,0,1-2.751-2.3,2.874,2.874,0,0,1,3.914-3.391,3.66,3.66,0,0,1,1.965,3.533C3306.34,554.628,3304.553,555.569,3303.48,555.53Z" transform="translate(-3223.786 -480.989)"/><path class="e" d="M3304.939,554.721a1.577,1.577,0,0,1-1.964-.683,1.371,1.371,0,0,1-.241-.67,1.122,1.122,0,0,1,1.292-1.12,1.791,1.791,0,0,1,1.518,1.294c.758.092,1.248,0,2.011.044a1.792,1.792,0,0,1-.323,1.905c-.34.49-1.253,1.035-1.354.933C3305.742,556.29,3304.979,554.7,3304.939,554.721Z" transform="translate(-3224.807 -482.285)"/></g><path class="f" d="M3195.811,541.394c-5.321-6.562-3.1-24.446-7.175-31.844a23.5,23.5,0,0,1-1.9-3.48,15.685,15.685,0,0,1-.552-4.029,27.746,27.746,0,0,0-4.113-12.584c-.434-.7-.91-1.574-.491-2.28a1.931,1.931,0,0,1,1.461-.748c3.172-.444,6.375,1.179,8.511,3.567a22,22,0,0,1,4.275,8.519c.246.818,6.867,13.719,7.468,14.327a5.768,5.768,0,0,0,1.554.977c4.775,2.427,11.074,9.6,10.638,15.474s-5.245,11.734-11.126,11.417" transform="translate(-346.548 -158.862)"/><circle class="e" cx="5.014" cy="5.014" r="5.014" transform="translate(2906.193 225.765)"/><path class="o" d="M3118.777,161.912,3121.553,177a.954.954,0,0,0,.7.744l17.252,4.415a.945.945,0,0,1-.037,1.84L3122.9,187.54a.952.952,0,0,0-.735.774l-2.4,14.8a.947.947,0,0,1-1.842.114l-4.276-14.718a.947.947,0,0,0-.686-.656l-15.655-3.792a.946.946,0,0,1-.008-1.831l15.428-3.879a.942.942,0,0,0,.692-.712l3.5-15.749a.945.945,0,0,1,1.852.029Z" transform="translate(-305.114)"/></g></svg>