<svg xmlns="http://www.w3.org/2000/svg" xmlns:xlink="http://www.w3.org/1999/xlink" width="597.001" height="625.043" viewBox="0 0 597.001 625.043"><defs><style>.a{opacity:0.554;fill:url(#a);}</style><linearGradient id="a" x1="0.608" y1="0.972" x2="0.468" y2="-0.578" gradientUnits="objectBoundingBox"><stop offset="0" stop-color="#29218c"/><stop offset="1" stop-color="#0999f0"/></linearGradient></defs><path class="a" d="M381.818,205.545c-9.805,11.68-21.8,21.462-30.821,33.759-25.963,35.4-22.586,83.555-33.3,126.122a189.088,189.088,0,0,1-45.716,83.3c-10.057,10.64-21.53,20.208-34.857,26.269-13.692,6.229-28.831,8.544-43.826,9.733-15.7,1.246-31.554,1.324-47.158-.833a167.888,167.888,0,0,1-112.3-68.028C4.579,374.789-4.5,321.566,1.987,271.55s27.448-97.193,53.664-140.278c20.822-34.216,45.457-66.72,77.062-91.327s70.8-40.9,110.844-39.9C270.65.717,296.912,9.12,322.44,18.211c38.923,13.861,66.89,29.2,80.057,69.2C415.568,127.1,409.034,173.128,381.818,205.545Z" transform="matrix(-0.866, -0.5, 0.5, -0.866, 354.199, 625.043)"/></svg>