<svg xmlns="http://www.w3.org/2000/svg" xmlns:xlink="http://www.w3.org/1999/xlink" width="684.251" height="716.391" viewBox="0 0 684.251 716.391"><defs><style>.a{opacity:0.554;fill:url(#a);}</style><linearGradient id="a" x1="0.608" y1="0.972" x2="0.468" y2="-0.578" gradientUnits="objectBoundingBox"><stop offset="0" stop-color="#29218c"/><stop offset="1" stop-color="#9769f6"/></linearGradient></defs><path class="a" d="M437.62,235.585c-11.238,13.387-24.988,24.6-35.325,38.692-29.757,40.573-25.887,95.766-38.168,144.555a216.723,216.723,0,0,1-52.4,95.475c-11.527,12.2-24.676,23.161-39.951,30.109-15.693,7.14-33.045,9.793-50.232,11.156-18,1.428-36.165,1.518-54.05-.955a192.425,192.425,0,0,1-128.715-77.97C5.248,429.563-5.154,368.562,2.278,311.237s31.46-111.4,61.507-160.78c23.865-39.217,52.1-76.471,88.325-104.674S233.259-1.093,279.152.05c31.053.773,61.153,10.4,90.412,20.823,44.612,15.887,76.666,33.47,91.757,79.309C476.3,145.672,468.813,198.431,437.62,235.585Z" transform="matrix(-0.866, -0.5, 0.5, -0.866, 405.964, 716.391)"/></svg>