<svg xmlns="http://www.w3.org/2000/svg" xmlns:xlink="http://www.w3.org/1999/xlink" width="829.003" height="684.019" viewBox="0 0 829.003 684.019"><defs><style>.a{fill:#29218c;}.b{fill:#001738;}.c{fill:#1e6ac5;}.d{fill:#fff;}.e{fill:url(#a);}.f{fill:#4538a9;}.g{fill:url(#c);}.h{fill:none;stroke:#fff;stroke-miterlimit:10;}.i{fill:#f2f2f2;}</style><linearGradient id="a" y1="0.5" x2="1" y2="0.5" gradientUnits="objectBoundingBox"><stop offset="0.07" stop-color="#00d8bc"/><stop offset="1" stop-color="#48c7e2"/></linearGradient><linearGradient id="c" x1="-0.185" y1="-0.211" x2="1.389" y2="1.423" gradientUnits="objectBoundingBox"><stop offset="0.043" stop-color="#1e6ac5"/><stop offset="1" stop-color="#003b9a"/></linearGradient></defs><g transform="translate(2529.106 1184.222)"><path class="a" d="M-2510.149-791.031c-19.707,73.492-36.8,158.03,17.874,217.885,53.9,59.005,154.073,68.178,242.725,72.483,95.535,4.64,211.869-27.45,307.4-22.811,61.159,2.97,127.882,4.646,177.273-25.664,53.455-32.8,70.173-94.6,63.315-149.749-16.36-131.509-157.841-198-271.6-289.826-68.384-55.2-147.26-163.679-237.771-187.893-114.2-30.553-200.359,35.872-230.035,109.418C-2475.622-981.286-2452.016-923.549-2510.149-791.031Z"/><path class="b" d="M-2384.735-614.175l0,14.548c0,4.53,2.6,8.2,5.817,8.2h599.761c3.213,0,5.817-3.672,5.817-8.2v-12.621c0-4.487-2.556-8.14-5.738-8.2l-595.5-11.593C-2377.826-632.1-2384.735-618.749-2384.735-614.175Z"/><rect class="c" width="503.201" height="327.8" rx="27.227" transform="translate(-2332.673 -1077.609)"/><path class="c" d="M-2337.526-733.994l-43.068,103.9c-.039.1-.079.184-.123.277-.989,2.049-13.513,28.99,11.382,28.99h585.51a5.5,5.5,0,0,0,1.284-.151c2.953-.7,13.4-4.278,7.343-18.719-7.009-16.713-46.906-112.142-46.906-112.142s-3.774-11.322-29.114-11.322h-457.534c-.128,0-.253,0-.381-.013C-2311.351-743.324-2333.156-744.535-2337.526-733.994Z"/><path class="d" d="M-2182.2-668.369l-17.115,41.289s-5.776,11.552,4.493,11.552h232.544s5.99-.856,3.209-7.488-18.612-44.5-18.612-44.5-1.5-4.492-11.552-4.492h-181.629S-2180.375-672.777-2182.2-668.369Z"/><rect class="e" width="477.519" height="304.956" rx="27.227" transform="translate(-2319.832 -1066.187)"/><path class="d" d="M-2304.822-729.737l-3.231,7.876a2.358,2.358,0,0,0,2.019,3.32h450.176a2.343,2.343,0,0,0,2.1-3.091l-2.359-7.876a2.227,2.227,0,0,0-2.1-1.642H-2302.8A2.2,2.2,0,0,0-2304.822-729.737Z"/><path class="e" d="M-1958.334-1096.584a19.261,19.261,0,0,0-19.262-19.261h-383.813a19.261,19.261,0,0,0-19.262,19.261v14.64h422.337Z"/><path class="d" d="M-2380.671-1081.944v220.47a19.261,19.261,0,0,0,19.262,19.261H-1977.6a19.261,19.261,0,0,0,19.262-19.261v-220.47Z"/><circle class="d" cx="5.746" cy="5.746" r="5.746" transform="translate(-2363.112 -1104.641)"/><circle class="d" cx="5.746" cy="5.746" r="5.746" transform="translate(-2346.603 -1104.641)"/><circle class="d" cx="5.746" cy="5.746" r="5.746" transform="translate(-2330.095 -1104.641)"/><path class="f" d="M-2252.3-944.322h-7.775a37.758,37.758,0,0,0-2.4-5.783l5.494-5.494a7.181,7.181,0,0,0,0-10.149l-6.212-6.212a7.2,7.2,0,0,0-5.072-2.037h0a7.2,7.2,0,0,0-5.072,2.037l-5.494,5.494a38,38,0,0,0-5.782-2.4v-7.773a7.18,7.18,0,0,0-7.173-7.173h-8.774a7.181,7.181,0,0,0-7.173,7.173v7.776a37.9,37.9,0,0,0-5.783,2.4l-5.5-5.494a7.184,7.184,0,0,0-10.147,0l-6.212,6.212a7.191,7.191,0,0,0,0,10.147l5.493,5.5a38.013,38.013,0,0,0-2.392,5.783h-7.772a7.181,7.181,0,0,0-7.173,7.173v8.769a7.179,7.179,0,0,0,7.173,7.17h7.776a37.955,37.955,0,0,0,2.4,5.783l-5.494,5.5a7.181,7.181,0,0,0,0,10.147l6.212,6.212a7.186,7.186,0,0,0,10.147,0l5.5-5.494a37.761,37.761,0,0,0,5.783,2.4v7.771a7.181,7.181,0,0,0,7.173,7.174h8.773a7.181,7.181,0,0,0,7.174-7.174v-7.776a37.943,37.943,0,0,0,5.783-2.4l5.493,5.495a7.362,7.362,0,0,0,10.147,0l6.213-6.212a7.182,7.182,0,0,0,0-10.147l-5.493-5.5a38.038,38.038,0,0,0,2.392-5.783h7.773a7.18,7.18,0,0,0,7.173-7.173v-8.774A7.18,7.18,0,0,0-2252.3-944.322Zm-43.865,33.881a22.323,22.323,0,0,1-22.323-22.321,22.322,22.322,0,0,1,22.32-22.322,22.321,22.321,0,0,1,22.323,22.32v0A22.341,22.341,0,0,1-2296.165-910.441Z"/><rect class="g" width="303.378" height="243.275" rx="12" transform="translate(-1889.199 -799.597) rotate(180)"/><path class="d" d="M-2074.053-881.739a5.415,5.415,0,0,1-3.514-1.3l-35.128-29.91a5.428,5.428,0,0,1-.615-7.652,5.509,5.509,0,0,1,.615-.616l35.128-29.909a5.429,5.429,0,0,1,7.663.466,5.428,5.428,0,0,1-.466,7.663c-.052.046-.1.091-.159.136l-30.27,25.78,30.27,25.781a5.428,5.428,0,0,1,.644,7.65,5.424,5.424,0,0,1-4.168,1.925Z"/><path class="d" d="M-2004.711-881.739a5.433,5.433,0,0,1-5.444-5.421,5.433,5.433,0,0,1,1.92-4.155l30.27-25.78-30.27-25.781a5.429,5.429,0,0,1-.466-7.663,5.43,5.43,0,0,1,7.5-.6l35.127,29.909a5.431,5.431,0,0,1,.61,7.658,5.331,5.331,0,0,1-.61.61l-35.127,29.909A5.406,5.406,0,0,1-2004.711-881.739Z"/><path class="d" d="M-2051.816-859.306a5.55,5.55,0,0,1-1.127-.118,5.429,5.429,0,0,1-4.191-6.43l21.892-103.94a5.427,5.427,0,0,1,6.515-4.061,5.428,5.428,0,0,1,4.106,6.3l-21.891,103.94A5.429,5.429,0,0,1-2051.816-859.306Z"/><circle class="h" cx="3.82" cy="3.82" r="3.82" transform="translate(-1848.082 -1145.766)"/><circle class="i" cx="4.276" cy="4.276" r="4.276" transform="translate(-1749.781 -1118.708)"/><circle class="i" cx="2.232" cy="2.232" r="2.232" transform="translate(-1777.523 -1056.487)"/></g></svg>