<svg xmlns="http://www.w3.org/2000/svg" xmlns:xlink="http://www.w3.org/1999/xlink" width="723.553" height="628.62" viewBox="0 0 723.553 628.62"><defs><style>.a{fill:url(#a);}</style><linearGradient id="a" x1="0.5" x2="0.5" y2="1" gradientUnits="objectBoundingBox"><stop offset="0" stop-color="#1479db"/><stop offset="1" stop-color="#0241ad"/></linearGradient></defs><path class="a" d="M1034.045-1821.678c17.2,66.227,32.121,142.407-15.6,196.345-47.045,53.172-120.29,83.071-203.939,77.231-111.907-6.051-117.767-43.22-276.211-32.47-53.379,2.676-111.615,4.188-154.723-23.127-46.656-29.561-61.247-85.246-55.261-134.944,14.279-118.508,137.763-178.424,237.054-261.173,59.686-49.742,128.529-147.5,207.527-169.319,99.676-27.533,174.873,32.326,200.774,98.6C1003.91-1993.124,983.306-1941.094,1034.045-1821.678Z" transform="translate(-327.038 2175.998)"/></svg>