<svg xmlns="http://www.w3.org/2000/svg" width="100.877" height="32.159" viewBox="0 0 100.877 32.159"><defs><style>.a{fill:#636466;}.b{fill:#a41e11;}.c{fill:#d82c20;}.d{fill:#fff;}.e{fill:#7a0c00;}.f{fill:#ad2115;}</style></defs><path class="a" d="M390.617,267.028a1.521,1.521,0,0,1-1.511,1.511,2.724,2.724,0,0,0-1.71.542,4.3,4.3,0,0,0-1.311,1.368,8.754,8.754,0,0,0-1.169,2.394v5.416a1.552,1.552,0,0,1-1.568,1.511,1.521,1.521,0,0,1-1.511-1.511v-11.23a1.5,1.5,0,0,1,1.511-1.482,1.528,1.528,0,0,1,1.568,1.482v.2a3.744,3.744,0,0,1,.6-.57,6.251,6.251,0,0,1,3.591-1.112A1.479,1.479,0,0,1,390.617,267.028Z" transform="translate(-335.406 -257.068)"/><path class="a" d="M417.85,272.549a7.057,7.057,0,0,1,6.955-7.126,6.818,6.818,0,0,1,6.87,6.613v.143a.79.79,0,0,1-.028.256,1.374,1.374,0,0,1-1.482,1.14H421.1a3.735,3.735,0,0,0,.969,1.881,4.41,4.41,0,0,0,2.736,1.282,4.66,4.66,0,0,0,2.964-.712,1.614,1.614,0,0,1,2.138-.086,1.3,1.3,0,0,1,0,1.853,7.205,7.205,0,0,1-5.1,1.881,7.074,7.074,0,0,1-6.954-7.125Zm3.107-1.4h8.066a4.66,4.66,0,0,0-4.219-3.021A3.983,3.983,0,0,0,420.957,271.152Z" transform="translate(-363.475 -256.973)"/><path class="a" d="M497.408,257.991a1.551,1.551,0,0,1-1.539,1.539,1.535,1.535,0,0,1-1.511-1.226,6.955,6.955,0,0,1-3.876,1.226,7.129,7.129,0,0,1,0-14.252,6.745,6.745,0,0,1,3.819,1.2v-5.358a1.554,1.554,0,0,1,3.107,0v16.874Zm-6.926-9.606a3.689,3.689,0,0,0-2.679,1.169,4.132,4.132,0,0,0,0,5.7,3.688,3.688,0,0,0,2.679,1.169,3.642,3.642,0,0,0,2.679-1.169,4.132,4.132,0,0,0,0-5.7A3.643,3.643,0,0,0,490.481,248.386Z" transform="translate(-414.687 -236.829)"/><path class="a" d="M560.071,241.715a1.539,1.539,0,0,1-1.539,1.568,1.557,1.557,0,0,1-1.539-1.568v-.6a1.533,1.533,0,0,1,1.539-1.539,1.515,1.515,0,0,1,1.539,1.539v.6Zm0,5.159V257.99a1.515,1.515,0,0,1-1.539,1.539,1.533,1.533,0,0,1-1.539-1.539V246.874a1.522,1.522,0,0,1,1.539-1.568A1.505,1.505,0,0,1,560.071,246.874Z" transform="translate(-471.928 -236.828)"/><path class="a" d="M578.649,275.592a1.483,1.483,0,0,1,2.138-.228,5.232,5.232,0,0,0,3.135,1.254,3.8,3.8,0,0,0,1.938-.541,1.166,1.166,0,0,0,.513-.855.428.428,0,0,0-.085-.285c-.029-.085-.143-.2-.371-.342a6.6,6.6,0,0,0-2.28-.8h-.028a10.919,10.919,0,0,1-2.48-.741,4.761,4.761,0,0,1-1.967-1.653,3.455,3.455,0,0,1-.484-1.8,4,4,0,0,1,1.682-3.136,6.132,6.132,0,0,1,3.506-1.055,7.331,7.331,0,0,1,4.275,1.568,1.574,1.574,0,0,1,.456,2.109,1.508,1.508,0,0,1-2.109.4,4.885,4.885,0,0,0-2.622-1.055,2.9,2.9,0,0,0-1.71.513.869.869,0,0,0-.456.656.307.307,0,0,0,.057.228.77.77,0,0,0,.314.285,5.816,5.816,0,0,0,2.081.684l.028.029h.029a10.247,10.247,0,0,1,2.651.826,4.429,4.429,0,0,1,2.024,1.682,3.69,3.69,0,0,1,.542,1.881,4.111,4.111,0,0,1-1.8,3.306,6.486,6.486,0,0,1-3.706,1.14,8.279,8.279,0,0,1-5.073-1.967A1.521,1.521,0,0,1,578.649,275.592Z" transform="translate(-488.546 -256.969)"/><path class="b" d="M207.374,307.242c-2,1.044-12.375,5.309-14.583,6.46s-3.435,1.14-5.18.306-12.783-5.293-14.771-6.243c-.994-.475-1.516-.876-1.516-1.255v-3.793s14.37-3.128,16.691-3.961,3.125-.862,5.1-.139,13.78,2.853,15.731,3.568c0,0,0,3.387,0,3.739C208.844,306.3,208.394,306.711,207.374,307.242Z" transform="translate(-171.324 -282.445)"/><path class="c" d="M207.373,292.637c-2,1.043-12.375,5.309-14.583,6.46s-3.435,1.14-5.18.306-12.783-5.293-14.771-6.243-2.03-1.6-.077-2.369,12.931-5.072,15.251-5.9,3.125-.862,5.1-.139,12.285,4.827,14.236,5.542S209.375,291.593,207.373,292.637Z" transform="translate(-171.322 -271.633)"/><path class="b" d="M207.374,279.2c-2,1.044-12.375,5.309-14.583,6.46s-3.435,1.14-5.18.306-12.783-5.293-14.771-6.243c-.994-.475-1.516-.875-1.516-1.254v-3.793s14.37-3.128,16.691-3.961,3.125-.862,5.1-.139,13.78,2.853,15.731,3.568c0,0,0,3.387,0,3.739C208.844,278.26,208.394,278.672,207.374,279.2Z" transform="translate(-171.324 -260.59)"/><path class="c" d="M207.373,264.6c-2,1.044-12.375,5.309-14.583,6.46s-3.435,1.14-5.18.306-12.783-5.293-14.771-6.243-2.03-1.6-.077-2.37,12.931-5.072,15.251-5.9,3.125-.862,5.1-.139,12.285,4.827,14.236,5.542S209.375,263.554,207.373,264.6Z" transform="translate(-171.322 -249.778)"/><path class="b" d="M207.374,250.124c-2,1.044-12.375,5.309-14.583,6.46s-3.435,1.14-5.18.306-12.783-5.293-14.771-6.243c-.994-.475-1.516-.876-1.516-1.254V245.6s14.37-3.128,16.691-3.96,3.125-.862,5.1-.139,13.78,2.853,15.731,3.568c0,0,0,3.387,0,3.739,0,.375-.45.786-1.469,1.317Z" transform="translate(-171.324 -237.925)"/><path class="c" d="M207.373,235.518c-2,1.044-12.375,5.309-14.583,6.46s-3.435,1.14-5.18.306-12.783-5.293-14.771-6.243-2.03-1.6-.077-2.37,12.931-5.072,15.251-5.9,3.125-.862,5.1-.139,12.285,4.827,14.236,5.542S209.375,234.475,207.373,235.518Z" transform="translate(-171.322 -227.113)"/><path class="d" d="M247.189,238.894l-3.251.337-.728,1.751-1.176-1.954-3.754-.337,2.8-1.01-.84-1.551,2.623,1.026,2.473-.809-.668,1.6Z" transform="translate(-223.511 -234.141)"/><path class="d" d="M238.308,273.571l-6.068-2.517,8.695-1.334Z" transform="translate(-218.804 -260.322)"/><ellipse class="d" cx="4.647" cy="1.801" rx="4.647" ry="1.801" transform="translate(6.445 5.726)"/><path class="e" d="M296.09,250.83l5.146,2.034-5.141,2.031Z" transform="translate(-268.571 -245.599)"/><path class="f" d="M270.28,253.082l5.693-2.252,0,4.065-.558.218Z" transform="translate(-248.453 -245.599)"/></svg>