<svg xmlns="http://www.w3.org/2000/svg" xmlns:xlink="http://www.w3.org/1999/xlink" width="1921" height="1135.317" viewBox="0 0 1921 1135.317"><defs><style>.a{stroke:rgba(0,0,0,0);stroke-miterlimit:10;fill:url(#a);}</style><linearGradient id="a" x1="0.996" y1="0.934" x2="-0.002" y2="0.061" gradientUnits="objectBoundingBox"><stop offset="0" stop-color="#003ba8"/><stop offset="1" stop-color="#1783e3"/></linearGradient></defs><path class="a" d="M20159,6047.318H18239.781l0-89.375H18239V4987.287l7.273-1.587,2.666-.582c3.619-.79,7.363-1.606,11.031-2.41,4-.876,8.076-1.776,12.018-2.646l.865-.191c11.395-2.518,23.176-5.122,34.826-7.53a21.95,21.95,0,0,1,2.41-.352l9.342-1.358c34.225-8.385,65.074-14.9,94.311-19.92,16.16-2.774,32.113-5.129,47.416-7,16.17-1.975,32.205-3.48,47.662-4.476.465-.048.8-.08,1.1-.1,20.615-1.569,42.232-1.613,42.445-1.613,6.414-.256,13.039-.381,20.256-.381,12.752,0,25.588.414,35.346.774,10.916.4,22,1.578,32.717,2.713h.006c1.877.2,3.881.411,5.84.615,11.475,1.184,22.916,2.676,33.65,4.1,9.164,1.223,18.438,2.646,27.406,4.022l.67.1q3.419.524,6.838,1.045h.008c10.656,1.626,21.676,3.307,32.492,5.141,7.422,1.259,14.934,2.666,22.2,4.025l.227.042c4.938.924,10.043,1.879,15.068,2.778,6.555,1.171,13.225,2.32,19.674,3.43l.229.039c5.328.917,10.84,1.866,16.275,2.825,9.18,1.62,18.746,3.341,27.188,4.86l2.2.4q4.564.821,9.131,1.641c3.34.6,6.738,1.21,10.023,1.8l.148.026,1.461.262,16.893,2.66a85.229,85.229,0,0,1,9.926,1.523l.053.01c2.02.391,4.107.8,6.156,1.1,3.611.532,7.252,1.085,10.771,1.621,6,.911,12.2,1.854,18.316,2.7,10.607,1.473,20.145,2.7,29.158,3.742,14.508,1.679,27.6,3.172,40.9,4.436,19.262,1.833,39.184,2.725,60.9,2.725,7.611,0,15.584-.115,23.691-.34,9.752-.271,19.658-1.152,29.236-2h.014c4.3-.382,8.744-.778,13.131-1.114.3-.022,7.482-.927,16.3-2.283,7.922-1.218,18.793-3.052,25.59-4.879,16.9-4.539,33.975-9.764,50.482-14.817l.01,0,.729-.223c4.787-1.464,9.738-2.979,14.605-4.452,2.938-.89,5.867-1.912,8.7-2.9,3.873-1.35,7.877-2.745,11.875-3.8,1.348-.357,6.652-2.039,13.369-4.167,8.85-2.8,19.865-6.293,25.795-8,2.93-.844,5.912-1.707,8.8-2.542l.6-.174c16.219-4.693,32.99-9.546,49.582-13.8,15.217-3.9,30.49-7.2,45.4-9.816,21.064-3.688,38.357-6.191,54.418-7.877a380.785,380.785,0,0,1,39.59-2.094c10.422,0,20.91.451,31.172,1.339l4.4.378.023,0c11.2.958,22.771,1.95,34.088,3.617,13.594,2,26.984,4.552,39.8,7.57,14.359,3.381,28.865,7.3,42.893,11.092,3.207.867,6.613,1.787,9.906,2.671,5.914,1.586,11.885,3.268,17.658,4.893,8.152,2.3,16.584,4.669,24.945,6.8,14.314,3.655,28.453,6.822,41.6,9.7,20.506,4.5,31.641,6.6,39.051,7.938,11.719,2.107,23.365,3.711,34.2,5.13,15.65,2.039,30.973,4,46.346,5.523,14.217,1.407,26.166,2.4,38.281,2.66,26.449.562,54.475.875,90.871,1.016l1.287,0c16,0,32.234-1.13,47.934-2.223h.006c3.941-.275,7.793-.542,11.592-.791,3.59-.236,7.24-.46,10.771-.678l.141-.008h.021c9.42-.58,19.158-1.18,28.721-2.038,11.98-1.076,24.148-2.349,35.918-3.58l.055-.006c6.229-.652,12.668-1.326,19.057-1.968,2.391-.242,4.756-.393,7.26-.553,1.219-.078,2.48-.159,3.8-.254l0,14.038v115.8q0,57.9,0,115.806h.787v830.443Z" transform="translate(-18238.5 -4912.501)"/></svg>