<svg xmlns="http://www.w3.org/2000/svg" width="30.375" height="29.109" viewBox="0 0 30.375 29.109"><defs><style>.a{fill:#fff;}</style></defs><path class="a" d="M15.187.5A15.056,15.056,0,0,0,0,15.424a14.949,14.949,0,0,0,10.384,14.16c.759.14,1.038-.321,1.038-.718,0-.354-.013-1.293-.019-2.538-4.225.9-5.116-2-5.116-2A3.978,3.978,0,0,0,4.6,22.143c-1.376-.925.106-.906.106-.906A3.177,3.177,0,0,1,7.03,22.775a3.27,3.27,0,0,0,4.423,1.242,3.16,3.16,0,0,1,.962-2C9.043,21.647,5.5,20.364,5.5,14.646a5.7,5.7,0,0,1,1.563-4,5.222,5.222,0,0,1,.133-3.95s1.272-.4,4.176,1.53a14.561,14.561,0,0,1,7.594,0c2.886-1.93,4.158-1.53,4.158-1.53a5.366,5.366,0,0,1,.152,3.95,5.725,5.725,0,0,1,1.557,4c0,5.733-3.55,6.995-6.929,7.362a3.541,3.541,0,0,1,1.025,2.762c0,2-.019,3.6-.019,4.087,0,.391.266.858,1.044.709A14.9,14.9,0,0,0,30.375,15.424,15.058,15.058,0,0,0,15.187.5Z" transform="translate(0 -0.5)"/></svg>