<svg xmlns="http://www.w3.org/2000/svg" width="31.311" height="31.312" viewBox="0 0 31.311 31.312"><defs><style>.a{fill:#fff;}</style></defs><path class="a" d="M22.67,0H8.641A8.651,8.651,0,0,0,0,8.641V22.67a8.65,8.65,0,0,0,8.641,8.641H22.67a8.651,8.651,0,0,0,8.641-8.641V8.641A8.651,8.651,0,0,0,22.67,0Zm5.863,22.67a5.869,5.869,0,0,1-5.863,5.863H8.641A5.869,5.869,0,0,1,2.778,22.67V8.641A5.869,5.869,0,0,1,8.641,2.778H22.67a5.87,5.87,0,0,1,5.863,5.863V22.67Z" transform="translate(0 0)"/><path class="a" d="M49.036,40.97A8.068,8.068,0,1,0,57.1,49.038,8.077,8.077,0,0,0,49.036,40.97Zm0,13.358a5.29,5.29,0,1,1,5.29-5.29A5.3,5.3,0,0,1,49.036,54.328Z" transform="translate(-33.38 -33.382)"/><path class="a" d="M120.958,28.251a2.036,2.036,0,1,0,1.441.6A2.045,2.045,0,0,0,120.958,28.251Z" transform="translate(-96.896 -23.019)"/></svg>