<svg xmlns="http://www.w3.org/2000/svg" width="31.311" height="31.312" viewBox="0 0 31.311 31.312"><defs><style>.a{fill:#fff;}</style></defs><path class="a" d="M28.717,29h.008V17.519c0-5.618-1.209-9.945-7.777-9.945a6.818,6.818,0,0,0-6.141,3.375h-.091V8.1H8.489V29h6.484V18.652c0-2.725.517-5.361,3.892-5.361,3.326,0,3.375,3.11,3.375,5.536V29Z" transform="translate(2.586 2.307)"/><path class="a" d="M.4,7.977H6.888v20.9H.4Z" transform="translate(0.121 2.43)"/><path class="a" d="M3.76,0A3.778,3.778,0,1,0,7.52,3.76,3.761,3.761,0,0,0,3.76,0Z"/></svg>