<svg xmlns="http://www.w3.org/2000/svg" width="122" height="15.491" viewBox="0 0 122 15.491"><defs><style>.a{fill:#1681e3;}</style></defs><g transform="translate(-734 -5661.292)"><path class="a" d="M6608.2-3128.963l2.3,4.431a.439.439,0,0,0,.33.228l5.134.71a.412.412,0,0,1,.243.712l-3.715,3.449a.4.4,0,0,0-.125.369l.877,4.87a.434.434,0,0,1-.636.44l-4.593-2.3a.456.456,0,0,0-.408,0l-4.592,2.3a.435.435,0,0,1-.636-.44l.877-4.87a.405.405,0,0,0-.126-.369l-3.715-3.449a.412.412,0,0,1,.243-.712l5.134-.71a.437.437,0,0,0,.33-.228l2.3-4.431A.448.448,0,0,1,6608.2-3128.963Z" transform="translate(-5865.279 8790.488)"/><path class="a" d="M6608.2-3128.963l2.3,4.431a.439.439,0,0,0,.33.228l5.134.71a.412.412,0,0,1,.243.712l-3.715,3.449a.4.4,0,0,0-.125.369l.877,4.87a.434.434,0,0,1-.636.44l-4.593-2.3a.456.456,0,0,0-.408,0l-4.592,2.3a.435.435,0,0,1-.636-.44l.877-4.87a.405.405,0,0,0-.126-.369l-3.715-3.449a.412.412,0,0,1,.243-.712l5.134-.71a.437.437,0,0,0,.33-.228l2.3-4.431A.448.448,0,0,1,6608.2-3128.963Z" transform="translate(-5839.044 8790.488)"/><path class="a" d="M6608.2-3128.963l2.3,4.431a.439.439,0,0,0,.33.228l5.134.71a.412.412,0,0,1,.243.712l-3.715,3.449a.4.4,0,0,0-.125.369l.877,4.87a.434.434,0,0,1-.636.44l-4.593-2.3a.456.456,0,0,0-.408,0l-4.592,2.3a.435.435,0,0,1-.636-.44l.877-4.87a.405.405,0,0,0-.126-.369l-3.715-3.449a.412.412,0,0,1,.243-.712l5.134-.71a.437.437,0,0,0,.33-.228l2.3-4.431A.448.448,0,0,1,6608.2-3128.963Z" transform="translate(-5812.809 8790.488)"/><path class="a" d="M6608.2-3128.963l2.3,4.431a.439.439,0,0,0,.33.228l5.134.71a.412.412,0,0,1,.243.712l-3.715,3.449a.4.4,0,0,0-.125.369l.877,4.87a.434.434,0,0,1-.636.44l-4.593-2.3a.456.456,0,0,0-.408,0l-4.592,2.3a.435.435,0,0,1-.636-.44l.877-4.87a.405.405,0,0,0-.126-.369l-3.715-3.449a.412.412,0,0,1,.243-.712l5.134-.71a.437.437,0,0,0,.33-.228l2.3-4.431A.448.448,0,0,1,6608.2-3128.963Z" transform="translate(-5786.573 8790.488)"/><path class="a" d="M6608.2-3128.963l2.3,4.431a.439.439,0,0,0,.33.228l5.134.71a.412.412,0,0,1,.243.712l-3.715,3.449a.4.4,0,0,0-.125.369l.877,4.87a.434.434,0,0,1-.636.44l-4.593-2.3a.456.456,0,0,0-.408,0l-4.592,2.3a.435.435,0,0,1-.636-.44l.877-4.87a.405.405,0,0,0-.126-.369l-3.715-3.449a.412.412,0,0,1,.243-.712l5.134-.71a.437.437,0,0,0,.33-.228l2.3-4.431A.448.448,0,0,1,6608.2-3128.963Z" transform="translate(-5760.338 8790.488)"/></g></svg>