<svg xmlns="http://www.w3.org/2000/svg" width="31.311" height="25.44" viewBox="0 0 31.311 25.44"><defs><style>.a{fill:#fff;}</style></defs><path class="a" d="M28.094,8.594a12.814,12.814,0,0,0,3.217-3.332h0a13.406,13.406,0,0,1-3.7,1.014,6.385,6.385,0,0,0,2.825-3.547,12.844,12.844,0,0,1-4.07,1.554,6.419,6.419,0,0,0-11.1,4.389,6.61,6.61,0,0,0,.149,1.464A18.174,18.174,0,0,1,2.18,3.419,6.419,6.419,0,0,0,4.153,12a6.345,6.345,0,0,1-2.9-.791v.07A6.449,6.449,0,0,0,6.4,17.586a6.383,6.383,0,0,1-1.683.211,5.666,5.666,0,0,1-1.215-.11,6.482,6.482,0,0,0,6,4.472A12.9,12.9,0,0,1,1.536,24.9,12.14,12.14,0,0,1,0,24.81,18.077,18.077,0,0,0,9.847,27.69a18.145,18.145,0,0,0,18.247-19.1Z" transform="translate(0 -2.25)"/></svg>