<svg xmlns="http://www.w3.org/2000/svg" xmlns:xlink="http://www.w3.org/1999/xlink" width="869.883" height="699.763" viewBox="0 0 869.883 699.763"><defs><style>.a{fill:#221b73;}.b{fill:#48d5f0;}.c{fill:#489fd8;}.d{fill:#3b7cc0;}.e{fill:#dcb0ff;}.f{fill:#003ba8;}.g{fill:#001786;}.h{fill:#bf83ed;}.i{fill:#081b37;}.j,.q,.x{fill:none;}.k{fill:url(#g);}.l{opacity:0.5;fill:url(#h);}.m{fill:#c17bef;}.n{fill:#ab66d8;}.o,.v,.w{fill:#2d1e1c;}.o{opacity:0.6;}.p{fill:#fff;}.q,.x{stroke:#c17bef;stroke-linecap:round;stroke-miterlimit:10;}.q{stroke-width:0.75px;}.r{fill:#4046b0;}.s{fill:#001738;}.t{fill:#f2f2f2;}.u{fill:#2f2f86;}.aa,.w{opacity:0.2;}.x{stroke-width:2px;}.aa,.y{fill:#3d439b;}.y{opacity:0.3;}.z{fill:#396bb4;}.ab{fill:#1c469f;}.ac{fill:#1960bc;}.ad{fill:#d1a3ef;}.ae{fill:#c570f2;}.af{fill:#cf92ff;}.ag{fill:#784721;}.ah{fill:url(#k);}.ai{fill:url(#l);}.aj{fill:url(#m);}.ak{fill:url(#n);}.al{fill:#243a77;}.am{fill:#1f4493;}.an{fill:#1f51aa;}.ao{fill:#1772d2;}.ap{filter:url(#i);}.aq{filter:url(#e);}.ar{filter:url(#c);}.as{filter:url(#a);}</style><filter id="a" x="473.101" y="15.37" width="59.945" height="59.053" filterUnits="userSpaceOnUse"><feOffset input="SourceAlpha"/><feGaussianBlur stdDeviation="2.5" result="b"/><feFlood flood-color="#69f8ff" flood-opacity="0"/><feComposite operator="in" in2="b"/><feComposite in="SourceGraphic"/></filter><filter id="c" x="789.71" y="150.413" width="52.455" height="51.712" filterUnits="userSpaceOnUse"><feOffset input="SourceAlpha"/><feGaussianBlur stdDeviation="2.5" result="d"/><feFlood flood-color="#69f8ff" flood-opacity="0"/><feComposite operator="in" in2="d"/><feComposite in="SourceGraphic"/></filter><filter id="e" x="74.74" y="86.459" width="49.209" height="48.53" filterUnits="userSpaceOnUse"><feOffset input="SourceAlpha"/><feGaussianBlur stdDeviation="2.5" result="f"/><feFlood flood-color="#69f8ff" flood-opacity="0"/><feComposite operator="in" in2="f"/><feComposite in="SourceGraphic"/></filter><linearGradient id="g" x1="-29.36" y1="44.801" x2="-29.36" y2="44.091" gradientUnits="objectBoundingBox"><stop offset="0.009" stop-color="#0a1b34" stop-opacity="0.502"/><stop offset="1" stop-color="#0a1b34" stop-opacity="0.251"/></linearGradient><linearGradient id="h" x1="-31.924" y1="92.964" x2="-32.151" y2="94.376" gradientUnits="objectBoundingBox"><stop offset="0" stop-color="#2d1e1c"/><stop offset="0.372" stop-color="#2d1e1c" stop-opacity="0.941"/><stop offset="0.62" stop-color="#2d1e1c" stop-opacity="0.741"/><stop offset="0.831" stop-color="#2d1e1c" stop-opacity="0.408"/><stop offset="1" stop-color="#2d1e1c" stop-opacity="0"/></linearGradient><filter id="i" x="223.016" y="149.185" width="83.457" height="82.099" filterUnits="userSpaceOnUse"><feOffset input="SourceAlpha"/><feGaussianBlur stdDeviation="2.5" result="j"/><feFlood flood-color="#69f8ff" flood-opacity="0"/><feComposite operator="in" in2="j"/><feComposite in="SourceGraphic"/></filter><linearGradient id="k" x1="-47.527" y1="15.894" x2="-46.925" y2="15.894" gradientUnits="objectBoundingBox"><stop offset="0" stop-color="#2d1e1c"/><stop offset="1" stop-color="#412f17"/></linearGradient><linearGradient id="l" x1="-183.12" y1="58.27" x2="-181.859" y2="58.27" xlink:href="#k"/><linearGradient id="m" x1="-537.923" y1="171.579" x2="-537.096" y2="171.579" xlink:href="#k"/><linearGradient id="n" x1="-266.106" y1="229.458" x2="-265.164" y2="229.458" xlink:href="#k"/></defs><g transform="translate(-214.52 -98.696)"><path class="a" d="M946.46,550.733C950.42,412.782,882.69,327,746.505,327c-178,0-186.985,103.76-336.9,196.591-65.552,40.592-176.5,96.316-151.642,244.931,24.99,149.4,302.694,114.356,422.4,74.366,106.519-38.614,226.9,95.79,302.839-29.511C1037.25,724.207,942.625,684.3,946.46,550.733Z" transform="translate(-18.329 -104.924)"/><g class="as" transform="matrix(1, 0, 0, 1, 214.52, 98.7)"><path class="b" d="M1126.694,141.807l2.859,15.542a.982.982,0,0,0,.717.767l17.771,4.548a.973.973,0,0,1-.037,1.9l-17.062,3.648a.972.972,0,0,0-.758.8l-2.467,15.246a.975.975,0,0,1-1.9.117l-4.4-15.161a.989.989,0,0,0-.707-.678l-16.127-3.9a.975.975,0,0,1-.72-1.175h0a.976.976,0,0,1,.709-.716l15.894-4a.972.972,0,0,0,.711-.734l3.608-16.222a.976.976,0,0,1,1.91.027" transform="translate(-623.23 -118.15)"/></g><g class="ar" transform="matrix(1, 0, 0, 1, 214.52, 98.7)"><path class="b" d="M1708.743,391.561l2.383,12.952a.819.819,0,0,0,.6.639l14.809,3.79a.811.811,0,0,1-.03,1.581l-14.219,3.04a.809.809,0,0,0-.631.663l-2.056,12.706a.813.813,0,0,1-1.582.1l-3.671-12.635a.825.825,0,0,0-.589-.565l-13.44-3.253a.812.812,0,0,1-.6-.979v0a.813.813,0,0,1,.591-.6l13.245-3.331a.811.811,0,0,0,.592-.612l3.007-13.519a.813.813,0,0,1,1.592.023" transform="translate(-892.48 -232.99)"/></g><g class="aq" transform="matrix(1, 0, 0, 1, 214.52, 98.7)"><path class="b" d="M384.1,273.161l2.176,11.829a.748.748,0,0,0,.546.584l13.526,3.461a.741.741,0,0,1-.028,1.444l-12.987,2.776a.741.741,0,0,0-.577.606l-1.877,11.6a.742.742,0,0,1-1.445.089l-3.352-11.54a.753.753,0,0,0-.538-.516l-12.274-2.972a.742.742,0,0,1-.549-.894h0a.743.743,0,0,1,.54-.545l12.1-3.042a.742.742,0,0,0,.542-.559l2.746-12.348a.743.743,0,0,1,1.454.021" transform="translate(-284.46 -178.6)"/></g><g transform="translate(648.247 309.326)"><g transform="translate(66.991)"><g transform="translate(0 112.397)"><path class="c" d="M1141.32,762.192c-.6,1.926.331,35.842,3.14,57.818,4.187,1.57,12.56.523,16.746-1.047-2.093-18.316,0-46.829.524-51.539.133-1.2,10.333-26.425,16.728-28.549,1.928-.64,18.328-8.4,19.653-9.939a9.15,9.15,0,0,0,1.719-3.987,42.544,42.544,0,0,0,.308-17.846c-.786-3.981-19.379-9.127-24.274-9.2-4.22-.067-10.8,9.307-14.321,13.525C1154.066,720.379,1141.848,760.5,1141.32,762.192Z" transform="translate(-1141.098 -697.106)"/><path class="d" d="M1141.058,826.747c.051,3.111.19,7.333.416,12.151.524,11.186,2.11,36.109,3.542,47.308,2.9,2.9,13.9,2.317,17.374-1.158-2.094-18.316-1.224-53.843-.7-58.553.07-.635-5.005,5.436-10.466,5.233C1146.351,831.548,1141.029,824.938,1141.058,826.747Z" transform="translate(-1141.057 -756.177)"/><path class="c" d="M1229.9,798.671c1.554-11.389.918-22.483,2.093-34.015,2.578-25.294,4.813-44.357,7.2-60.269-3.339,1.693-10.392-6.623-14.321-7.161-5.838-.8-12.409-.43-18.3-.8-1.072,19.835,2.118,45.56,3.259,65.461.887,15.466-.014,31.042.212,46.473.147,10.061.565,35.441.506,45.458,3.975,1.4,11.719-.1,16.048-.636C1225.865,853.186,1228.052,812.211,1229.9,798.671Z" transform="translate(-1171.068 -696.43)"/></g><path class="e" d="M1323.21,730.788c.769.419,1.81,1.232,2.617,1.57a12.1,12.1,0,0,1,5.233,4.71c.68,1.038,1.913,1.66,1.47,2.818-.947.845-4.527-2.644-5.134-2.295-.371.213-.243.6.017.94,1.812,2.364,5.216,6.385,4.693,7.432-1.046,1.047-1.7.044-2.521-.812a5.914,5.914,0,0,1,1.045,1.92c.181.711.467,1.56-.094,2.032s-1.806-.372-2.093-1.047c-.167.9-.737,1.421-1.57,1.047a5.5,5.5,0,0,1-2.093-2.093c.382.418,1.046,2.093-.524,2.093-.566,0-1.676-1.186-2.093-1.57a20.232,20.232,0,0,1-6.055-8.689c-.672-2.065-1.064-4.294-2.369-6.03a6.317,6.317,0,0,0,6.045-3.1C1321.249,727.116,1321.593,729.905,1323.21,730.788Z" transform="translate(-1220.419 -598.833)"/><path class="f" d="M1224.028,660.228c1.265-.441,3.11-11.115,3.375-13.041,1.322-9.579,5.521-19.84,8.138-29.784.523,7.85-.423,18.093,2.093,25.642,1.57,4.71,9.816,18.513,11.513,19.363,4.565,2.286,9.42-1.57,10.466-6.8-16.222-22.5-9.942-37.821-9.942-63.32,0-1.979-3.663-17.426-9.419-17.98-14.952-1.44-17.021,2.36-31.4-2.217-2.675-.851-15.7.555-19.362,9.978-7.4,19.028-5.757,19.4-7.327,38.25-1.255,15.067-6.8,35.813-6.8,35.813C1185.5,659.71,1213.713,663.824,1224.028,660.228Z" transform="translate(-1156.822 -526.79)"/><path class="g" d="M1236.364,664.859c1.57,2.093,6.277,13.02,4.71,14.129-.491.348-10.863,3.677-14.652.524-1.724-1.434-3.625-7.8-4.606-9.819-3.757-7.715-5-16.4-5.641-24.954a68.485,68.485,0,0,1-.069-12.066c.226-2.229,4.33-19.611,7.176-20.143,2.829-.529,2.094,8.9,3,16.725C1226.8,633.769,1231.1,657.841,1236.364,664.859Z" transform="translate(-1175.438 -545.464)"/><path class="f" d="M1199.568,620.63c-.084,19.484,8.828,45.161,16.582,63.036a4.966,4.966,0,0,0,1.6,2.314,4.453,4.453,0,0,0,2,.58c6.17.654,14.079-5.384,12.8-4.772-9.983-22.374-16.766-34.993-14.672-72.148" transform="translate(-1167.948 -544.147)"/><g transform="translate(47.092)"><path class="g" d="M1245.163,562c6.028,1.031,10.926,5.416,16.732,7.336a.476.476,0,0,1,.326.229.46.46,0,0,1-.009.267,17.193,17.193,0,0,1-1.353,3.4c-.826,1.711-2.706.5-3.532,2.213a38.454,38.454,0,0,0-1.6,5.175c-.073,1.095-1.28.611-2.366.447a33.305,33.305,0,0,1-7.035-1.865c-1.629-.629-3.206-1.386-4.781-2.141a54.6,54.6,0,0,1-5.535-2.921c-3.225-2.032-4.3-4.989-6.45-8.133a2.317,2.317,0,0,1,.8-2.448,16.361,16.361,0,0,1,6.122-2.009C1239.054,561.1,1242.834,561.606,1245.163,562Z" transform="translate(-1228.781 -521.965)"/><path class="e" d="M1243.805,551.54c3.8,3.727,19.755,8.275,16.857,12.8-2.309,3.606-1.229,4.862-1.221,7.512-4.593-.091-13.046.987-20.531-4.695-.247-.188,1.656-5.581,3.132-9.942.236-.7.572-1.675.768-2.383" transform="translate(-1233.112 -517.444)"/><path class="h" d="M1247.567,552.875c3.936,3.277,12.052,5.454,17.217,6.384a.4.4,0,0,1,.334.407c-.041,1.538.074,2.611-.019,4.12-.016.265-1.353,2.911-1.607,2.834-5.142-1.576-16.04-12.967-15.866-14.151" transform="translate(-1237.1 -517.871)"/><path class="i" d="M1234.935,507.321c-.58-1.2-1.3-2.154-1.281-3.488.055-3.791.7-7.671,3.64-10.066,1.861-1.515,8.182-4.73,10.156-5.083,5.573-1,11.477,1.339,16.573,3.8s5.353,9.93,3.65,15.329c.02.042-.745-2.056-.725-2.014-.915-.006-1.876.141-2.791.135a67.517,67.517,0,0,0-13.835.858c-1.069.216-8.485,10.056-9.575,10.107-2.378.113.758-7.981-1.137-6.54-.626.477-.553-1.159-1.239-.772a2.461,2.461,0,0,1-3.645-2.51C1234.586,507.2,1235.074,507.2,1234.935,507.321Z" transform="translate(-1230.705 -488.449)"/><path class="e" d="M1267.464,517.691a12.177,12.177,0,0,0-.266-5.814c-1.354-3.389-2.922-3.655-7.074-4.281-6.154-.928-13.262-.856-14.611,2.1-1.906,4.174-1.668,8.562-4.478,11.9-.026-2.265-.071-3.877-1.768-4.718a4.4,4.4,0,0,0-5.206.8c-1.372,1.626-.965,4.127.022,6.008a7.109,7.109,0,0,0,3.164,3.29c1.411.641,1.582.245,2.525-.121,1.792.733.675,5.795,1.78,6.9,4.769,4.758,7.648,5.555,12.509,7.454,0,.018-.007.036,0,0,2.764,1.128,5.025,1.923,7.06.346,1.772-1.374,2.365-3.895,2.909-6.07A145.368,145.368,0,0,0,1267.464,517.691Z" transform="translate(-1230.488 -497.007)"/><g transform="translate(9.481 22.155)"><path class="j" d="M1246.824,542.1a1.1,1.1,0,0,0-.181-.135C1246.573,541.986,1246.643,542.032,1246.824,542.1Z" transform="translate(-1246.144 -535.201)"/><path class="k" d="M1269.8,545.756c.157-.606-2.026,1.213-2.414.68-.457-.629.206-2.99-.288-4.044a2.935,2.935,0,0,0-1.022-.807c-.482-.276-.725-1-1.1-1.415a.393.393,0,0,0-.168-.128c-.165-.048-.31.122-.377.279s-.129.347-.29.405c-.611.222-.412-1.1-1.042-1.071-.277.011-.634.324-.9.414a3.952,3.952,0,0,1-2.211.189c-1.546-.415-3.064,4.765-4.67,4.44-3.876-.785-7.771-12.081-7.952-15.211-.042-.722-1.387,7.808-1.628,7.749,1.509,1.02.522,5.73,1.583,6.789,4.768,4.758,7.648,5.555,12.509,7.454h0c2.764,1.128,5.025,1.923,7.06.346C1268.666,550.452,1269.259,547.931,1269.8,545.756Z" transform="translate(-1245.742 -529.445)"/></g><g transform="translate(10.905 34.485)"><path class="l" d="M1268.6,556.922a15.153,15.153,0,0,0-.214-1.829c-1.5-1.782-6.158-2.517-9.044-2.833,0,0-1.752,3.2-2.422,3.064-5.013-1.016-9.445-1.872-8.384-.813,4.769,4.758,7.648,5.555,12.509,7.454h0c2.764,1.128,5.057,1.963,7.06.346,1.59-1.283,2.291-4.3,2.291-4.3C1270.536,557.621,1268.848,557.449,1268.6,556.922Z" transform="translate(-1248.378 -552.26)"/></g><path class="e" d="M1268.51,554.722a1.367,1.367,0,0,0-.235.586,1.128,1.128,0,0,0,.131.543c.521,1.125,1.655,1.87,2.195,2.986.235.486.349,1.026.611,1.5a1.442,1.442,0,0,0,1.278.841,1.934,1.934,0,0,0,1.143-.744l2.122-2.273a2.381,2.381,0,0,0,.342-.428,2.306,2.306,0,0,0,.231-.879c.122-1,.59-2.128.636-3.136a1.777,1.777,0,0,0-.4-1.239c-.815-.831-.819-.419-2.873-.851s-1.74-1.2-2.458-1.259C1269.91,550.253,1269.034,553.844,1268.51,554.722Z" transform="translate(-1246.616 -516.904)"/><path class="m" d="M1238.82,533.333c.073-.256.395-.351.541-.573a.684.684,0,0,0,.075-.524,1.312,1.312,0,0,0-.51-.827,1.962,1.962,0,0,0-.983-.228,2.186,2.186,0,0,0-1.216.313,1.967,1.967,0,0,0-.81.953,2.358,2.358,0,0,0,.294,2.089,4.612,4.612,0,0,0,1.631,1.43,2.016,2.016,0,0,0,.732.291.81.81,0,0,0,.722-.242,1.028,1.028,0,0,0,.1-1.033c-.151-.315-.407-.539-.545-.861s-.216-.739.04-.979" transform="translate(-1231.689 -508.087)"/><path class="n" d="M1239.273,532.03a1.888,1.888,0,0,0-.475.9,2.372,2.372,0,0,0,.133,1.486,2.184,2.184,0,0,0,1.03,1.074.839.839,0,0,0,.447.1.393.393,0,0,0,.343-.269c.046-.2-.107-.373-.234-.529a1.683,1.683,0,0,1-.381-.708.84.84,0,0,1,.189-.757,3.083,3.083,0,0,0,.394-.342.625.625,0,0,0,.082-.456,1.876,1.876,0,0,0-.152-.449c-.119-.272-.282-.514-.607-.453a1.415,1.415,0,0,0-.77.4" transform="translate(-1233.041 -508.292)"/><path class="m" d="M1280.378,537.4a10.044,10.044,0,0,0,.118,3.976c.1.442.215.971-.1,1.3a1.3,1.3,0,0,1-1.214.152l-1.631-.344a1.225,1.225,0,0,1-.669-.288.842.842,0,0,1-.134-.83,2.762,2.762,0,0,1,.448-.755,17.462,17.462,0,0,0,2.127-3.81c.132-.327.365-1.459.941-1.154.475.248.18,1.38.116,1.754" transform="translate(-1250.485 -510.116)"/><path class="i" d="M1265.527,527.054c-.207.223.059.617.4.73a2.2,2.2,0,0,0,1.027-.009,7.71,7.71,0,0,1,3.936.5,6.033,6.033,0,0,0,1,.362,1.151,1.151,0,0,0,.962-.161c1.06-.932-2.315-1.53-2.854-1.616-.94-.154-3.831-.492-4.468.2" transform="translate(-1245.32 -505.999)"/><path class="i" d="M1290.869,532.03c.239.157.481.42.352.673a.582.582,0,0,1-.625.225,2.206,2.206,0,0,1-.622-.294,8.767,8.767,0,0,0-2.88-.714c-1.4-.226-.99-1.272.239-1.126a8.851,8.851,0,0,1,3.537,1.237" transform="translate(-1254.861 -507.903)"/><path class="i" d="M1287.289,537.528a.732.732,0,0,0,.011.792,1.067,1.067,0,0,0,.314.256.691.691,0,0,0,.641.124.578.578,0,0,0,.172-.143,1.081,1.081,0,0,0,.266-.962c-.2-.744-1.067-.636-1.4-.067" transform="translate(-1255.304 -510.794)"/><path class="i" d="M1269.861,533.766a.9.9,0,0,0,.031,1.006,1.476,1.476,0,0,0,.417.331.953.953,0,0,0,.844.169.727.727,0,0,0,.223-.179,1.308,1.308,0,0,0,.332-1.215,1,1,0,0,0-1.847-.111" transform="translate(-1247.282 -509.012)"/><path class="o" d="M1276.649,560.64c.1,0,.219.007.257.1a.222.222,0,0,1-.011.158,1.521,1.521,0,0,1-.518.679,2.875,2.875,0,0,1-.765.4.4.4,0,0,1-.245.034.4.4,0,0,1-.184-.146,3.572,3.572,0,0,1-.6-1.059c-.07-.2-.13-.48.082-.617.164-.107.311.077.461.144A3.594,3.594,0,0,0,1276.649,560.64Z" transform="translate(-1249.488 -521.403)"/><path class="p" d="M1248.876,583.273a50.079,50.079,0,0,0,5.989,1.716c4.073.6,5.822.027,8.973-1.589-1.248,4.772-2.705,11.206-3.812,16.012l-1.3,5.638c-1.894-3.99-4.7-7.462-7.306-11.027-1.681-2.3-4.35-4.469-5.59-7.039-.361-.75-3-4.569-2.537-5.368C1243.929,580.519,1248.156,582.927,1248.876,583.273Z" transform="translate(-1235.112 -531.137)"/><path class="f" d="M1229.173,567.216c-.27-1.123-1.371-3.433-.825-4.381.481-.833,3.406-1.451,4.286-1.735,1.136-.366,1.461-.686,2.1-.058.7.685,1.006,3.194,1.28,4.093q1.457,4.775,2.86,9.568c.19.643,3.1,8.482,2.93,8.629-.763.658-4.929-5-5.678-5.483-1.6-1.036-2.65-.844-3.687-2.734A32.527,32.527,0,0,1,1229.173,567.216Z" transform="translate(-1228.198 -521.648)"/><path class="j" d="M1282.263,593.67l-.1-.015" transform="translate(-1253 -536.8)"/><path class="f" d="M1282.723,582.547a98.3,98.3,0,0,0,3.843-10.529.482.482,0,0,0-.152-.5,14.825,14.825,0,0,0-2.114-1.476.473.473,0,0,0-.682.276c-1.148,3.639-1.257,4.171-2.287,8.064a.481.481,0,0,0,.026.34,14.169,14.169,0,0,1,.455,3.692A.475.475,0,0,0,1282.723,582.547Z" transform="translate(-1252.608 -525.92)"/><path class="q" d="M1273.334,553.794c1.355,1.689,3.109,1.9,5.275,1.865" transform="translate(-1248.942 -518.48)"/></g></g><g transform="translate(0 112.701)"><path class="r" d="M1183.031,696.994l-8.054,36.232H1091.33l8.012-36.232h-7.936l-74.31,335.894,7.936.131,9.434-42.661h83.348l-9.094,42.53,7.936.131,74.31-336.025Zm-9.353,42.076-6.756,30.388h-83.6l6.72-30.388ZM1051.526,913.219l6.591-29.8h83.473l-6.626,29.8Zm82.139,5.844-6.625,29.8h-83.4l6.591-29.8Zm-74.255-41.492,6.849-30.972h83.515l-6.885,30.972Zm8.142-36.816,6.591-29.8H1157.7l-6.625,29.8Zm7.883-35.648,6.591-29.8h83.6l-6.626,29.8Zm-39.675,179.408,6.591-29.8h83.39l-6.625,29.8Z" transform="translate(-1017.097 -696.994)"/><path class="s" d="M1164.5,944.956a1.924,1.924,0,0,0,.845-.406,1.493,1.493,0,0,0,.374-.763c.408-1.882-1-3.6-1.892-5.31a10.49,10.49,0,0,1-1.174-5c.035-1.921.547-4.052-.57-5.615a5.764,5.764,0,0,0-3.8-1.9,28.843,28.843,0,0,0-5.1-.49,1.732,1.732,0,0,0-2.041,1.438,24.4,24.4,0,0,0-1.409,9.563,7.3,7.3,0,0,1-.039,1.906,8.493,8.493,0,0,1-.569,1.518c-.481,1.134-1.633,4.075-.869,5.255.606.936,2.708.727,3.685.834A32.735,32.735,0,0,0,1164.5,944.956Z" transform="translate(-1077.261 -801.996)"/><path class="t" d="M1164.516,959.343a1.926,1.926,0,0,0,.845-.406,1.493,1.493,0,0,0,.374-.763c.073-.336.331-1.485-.551-1.4-1.64.162-5.345,1.9-8.309,2.077-2.928.175-6.149-.981-7.789-1.039-.817-.029-1.039.839-1.039,1.039,0,1.558,3.175,2,4.154,2.077C1158.952,961.449,1160.441,960.508,1164.516,959.343Z" transform="translate(-1077.279 -816.383)"/><path class="s" d="M1213.3,988.128a2.42,2.42,0,0,0,.289,1.207,22.238,22.238,0,0,0,3.153,5.1,16.047,16.047,0,0,1,2.448,3.33c.723,1.577.713,3.375.987,5.088s.985,3.545,2.543,4.308a6.652,6.652,0,0,0,2.273.507l4.1.417c1.7.174,3.516.323,5.011-.5a2.412,2.412,0,0,0,1.036-.991,3.124,3.124,0,0,0,.246-.933c.328-2.211.256-4.694-1.21-6.382-1.154-1.329-2.99-1.941-4.069-3.331-1.262-1.624-1.193-3.88-1.066-5.932q.3-4.783.593-9.567-3.307-.063-6.612.075c-1.486.062-5.076-.328-6.252.739-.872.792-.144,2.323-.6,3.4C1215.606,986.018,1213.455,986.68,1213.3,988.128Z" transform="translate(-1107.266 -827.257)"/><path class="p" d="M1213.3,993.7a2.419,2.419,0,0,0,.289,1.207,22.233,22.233,0,0,0,3.153,5.1,16.055,16.055,0,0,1,2.448,3.33c.723,1.577.713,3.375.987,5.088s.985,3.545,2.543,4.308a6.652,6.652,0,0,0,2.273.507l4.1.417c1.7.174,3.516.323,5.011-.5a2.412,2.412,0,0,0,1.036-.991,3.124,3.124,0,0,0,.246-.933,10.878,10.878,0,0,1-3.826.966c-2.683,0-4.167.591-7.711-2.571-.962-.857-2.921-8.179-3.856-9-4.192-3.665-5.815-8.382-6.109-8.067A1.977,1.977,0,0,0,1213.3,993.7Z" transform="translate(-1107.266 -832.825)"/><path class="d" d="M1150.031,928.63c2.9,2.316,7.967,2.574,13.8-.246s-7.642-10.9-7.642-10.9l-5.388,2.694S1148.374,927.3,1150.031,928.63Z" transform="translate(-1077.924 -798.326)"/><path class="u" d="M1154.6,696.994l74.31,356.163h7.936l-9.094-45.217H1311.1l9.434,45.217h7.936l-74.31-356.163h-7.936l8.012,38.4h-83.646l-8.054-38.4Zm100.93,44.6,6.72,32.209h-83.6l-6.756-32.209ZM1210.6,926.178l-6.625-31.59h83.472l6.591,31.59Zm84.73,6.194,6.591,31.59h-83.4l-6.626-31.59Zm-92.655-43.978-6.885-32.829h83.515l6.849,32.829ZM1194.5,849.37l-6.625-31.59h83.557l6.591,31.59Zm-7.925-37.784L1179.946,780h83.6l6.591,31.59Zm39.884,190.16-6.626-31.59h83.39l6.591,31.59Z" transform="translate(-1080.291 -696.994)"/></g><g transform="translate(120.158 101.647)"><g transform="translate(83.112)"><path class="e" d="M1413.518,773.538a1.042,1.042,0,0,1-.651.422,1.028,1.028,0,0,1-.346-.032,5.653,5.653,0,0,1-1.94-1.031.35.35,0,0,1-.136-.144.251.251,0,0,1,.012-.187.586.586,0,0,1,.38-.31,1.739,1.739,0,0,1,.5-.05,18.816,18.816,0,0,1,2.3-.006C1414.382,772.293,1413.764,773.24,1413.518,773.538Z" transform="translate(-1401.137 -720.485)"/><path class="e" d="M1421.932,718.741c-4.129,3-12.812,20.565-17.156,18.2,0,0,2.542,10.917,0,10.917,7.109,0,22.122,3.744,21.989-.659-.154-5.059-.777-5.863-1.193-10.258-.066-.7,2.687-15.417,2.6-16.116" transform="translate(-1398.537 -695.935)"/><path class="v" d="M1433.8,694.92c.453-1.076.627-2.911-.017-3.839-.94-1.354-2.322-.912-2.663-2.676-.365-1.884.19-3.583-.651-5.5-.807-1.837-2.1-2.74-3.7-3.838-2.584-1.777-12.889-3.026-15.38-2.341-1.211.333-6.694,2.3-8.217,3.38-3.591,2.547-.929,10.853-1.013,14.638-.042,1.852-.516,4.309.526,5.961,1.94,3.077,6.4.537,9.251.993,4.953.793,1.285,11.718,6.313,10.64,1.492-.32,4.471.439,5.719-.52C1430.727,706.624,1432.98,696.865,1433.8,694.92Z" transform="translate(-1396.935 -676.539)"/><path class="e" d="M1422.632,702.486a4.478,4.478,0,0,0-4.579-2.511,2.985,2.985,0,0,0-.733.174c-1.567.6-2.645,2.453-2.531.778a25.689,25.689,0,0,1,1.084-5.585,2.226,2.226,0,0,0-.513-2.186c-2.6-2.714-5.832-5.827-10.8-7.4a2.251,2.251,0,0,0-.531-.1c-3.439-.231-1.375,1.816-3.643,4.364-1.226,1.426-1.555,3.693-1.975,5.529-1.256,5.658-1.413,11.389-1.956,17.16-.219,2.14-.341,4.857-.341,6.416a3.807,3.807,0,0,0,1.04,2.6c1.4,1.045,6.787.678,6.787.678s5.691-.158,7.25-2.238c.479-.639.707-3.468,1.04-4.159.485-1.007,2.049-7.057,2.879-6.49a2.131,2.131,0,0,0,1.47.226,6.823,6.823,0,0,0,3.928-1.935c1.5-1.375,2.828-3.4,2.121-5.318" transform="translate(-1394.558 -680.719)"/><path class="w" d="M1413.274,714.842a44.663,44.663,0,0,0-2.079,8.318c-.217,1.74-.864,6.771-2.6,7.8a17.315,17.315,0,0,1-9.358,1.56c-2.291-.382-3.075-2.048-3.091-1.548-.019.582-.029,1.111-.029,1.548a3.806,3.806,0,0,0,1.04,2.6c1.4,1.045,6.787.678,6.787.678s5.691-.158,7.25-2.238a16.166,16.166,0,0,0,1.56-3.119c.52-1.56.52-3.639,1.04-5.719" transform="translate(-1394.558 -694.115)"/><path class="m" d="M1432.659,718.837c.017-.255-.241-.445-.3-.694a.655.655,0,0,1,.1-.5,1.26,1.26,0,0,1,.73-.581,1.884,1.884,0,0,1,.961.115,2.1,2.1,0,0,1,1,.68,1.886,1.886,0,0,1,.42,1.124,2.261,2.261,0,0,1-.947,1.788,4.428,4.428,0,0,1-1.938.758,1.921,1.921,0,0,1-.755.023.773.773,0,0,1-.572-.453.985.985,0,0,1,.245-.965c.238-.235.543-.355.772-.6s.436-.6.284-.9" transform="translate(-1410.734 -695.156)"/><path class="n" d="M1434.163,717.812a1.807,1.807,0,0,1,.133.971,2.271,2.271,0,0,1-.6,1.3,2.1,2.1,0,0,1-1.279.633.8.8,0,0,1-.438-.053.376.376,0,0,1-.221-.354c.022-.191.218-.3.384-.4a1.622,1.622,0,0,0,.575-.515.809.809,0,0,0,.076-.745,2.939,2.939,0,0,1-.245-.436.6.6,0,0,1,.076-.438,1.764,1.764,0,0,1,.283-.356c.2-.207.422-.372.7-.211a1.358,1.358,0,0,1,.565.607" transform="translate(-1410.936 -695.199)"/><path class="m" d="M1395.816,716.93a7.829,7.829,0,0,1-1.545,3.366c-.283.375-1.04.578-1.04,1.04,0,1.04,1.278.966,1.762,1.025l1.888.228c.276.058.366-4.423.3-5.861-.015-.348.174-1.475-.563-1.385-.608.071-.73,1.219-.807,1.587" transform="translate(-1393.232 -694.37)"/><path class="v" d="M1407.248,710.784c.086.326.023.569-.279.545a1.608,1.608,0,0,1-.8-.448,5.2,5.2,0,0,0-3.239-1.152,3.772,3.772,0,0,1-.9-.042.9.9,0,0,1-.7-.582c-.368-1.048,2.328-.415,2.777-.277.786.238,2.875.948,3.139,1.956" transform="translate(-1396.939 -691.234)"/><path class="i" d="M1404.166,713.152c.257-.024.442.216.472.616a2.879,2.879,0,0,1-.07.624,1.974,1.974,0,0,1-.385.973.558.558,0,0,1-.21.128.565.565,0,0,1-.775-.365c-.307-.84.381-1.946.967-1.976" transform="translate(-1397.778 -693.365)"/><path class="v" d="M1419.25,693.041c-.541-2.483-3.285-4.31-5.175-5.732-2.269-1.707-5.6-1.63-8.406-2.276-2.284-.525-4.861,3.8-2.6,5.719,1.092.928,6.758-1.04,8.858-.8,2.668.311,3.715,1.221,4.635,3.833.644,1.828-2.274,12.061-.963,12.271C1417.4,702.364,1420.156,697.2,1419.25,693.041Z" transform="translate(-1397.351 -680.423)"/><path class="x" d="M1397.561,735.134a4.271,4.271,0,0,0,3.639-.52" transform="translate(-1395.221 -703.229)"/></g><path class="s" d="M1307.243,1112.411a1.97,1.97,0,0,1-2.038-1.92c-.439-1.666-.819-3.633.288-4.953,1.6-1.907,4.68-.845,7.107-1.39,2.644-.593,6.122-2.8,5.5-5.44,4.847-.115,8.07-.987,12.916-1.1a2.751,2.751,0,0,1,1.5.249,2.634,2.634,0,0,1,.854,1.034c2.2,3.93,3.713,6.763,3.965,11.257a3.385,3.385,0,0,1-.52,1.56c-1.808,4.23-9.478,3.328-12.572,2.925Z" transform="translate(-1269.464 -870.052)"/><path class="p" d="M1307.61,1123.164a1.97,1.97,0,0,1-2.038-1.92c-.218-.826,7.116.612,14.97,1.734a43.36,43.36,0,0,0,16.636-.52c-1.808,4.23-9.478,3.328-12.572,2.925Z" transform="translate(-1269.831 -880.805)"/><path class="s" d="M1373.328,1141.983a18.9,18.9,0,0,1,.4,3.98c-.189,4.558-3.8,8.5-8.083,10.057a9.031,9.031,0,0,0-2.541,1.14c-1.6,1.24-1.8,3.532-1.869,5.552-.017.487.011,1.066.422,1.33a1.423,1.423,0,0,0,.741.157c4.746.133,9.495.266,14.24.121a13.534,13.534,0,0,0,5.258-.906,14.319,14.319,0,0,0,3.723-2.822l6.767-6.41c1.651-1.564,3.424-3.394,3.435-5.669.01-1.96-1.332-3.679-2.852-4.917a54.753,54.753,0,0,1-4.662-3.574c-2.136-2.161-3.128-5.171-4.026-8.073-.041-.129-10.056,1.054-10.8,1.615C1371.177,1135.293,1372.93,1139.668,1373.328,1141.983Z" transform="translate(-1295.413 -885.832)"/><path class="p" d="M1360.78,1171.829a3.06,3.06,0,0,0,.668,1.951,1.423,1.423,0,0,0,.741.157c4.746.133,9.495.266,14.24.121,1.79-.055,5.189-.161,6.817-.906a14.321,14.321,0,0,0,3.723-2.822c2.256-2.137,2.952-4.274,5.207-6.41,1.652-1.564,3.424-3.394,3.435-5.669.01-1.96-1.332-3.679-2.852-4.917-.545-.444-3.051-.514-7.545,3.42-4.159,3.639-4.679,10.917-9.358,13.517C1371.109,1172.907,1360.8,1171.154,1360.78,1171.829Z" transform="translate(-1295.205 -895.57)"/><path class="y" d="M1389.363,1175.677c1.79-.055,5.189-.161,6.817-.906a14.312,14.312,0,0,0,3.722-2.822c2.256-2.137,2.952-4.274,5.207-6.41,1.652-1.564,3.424-3.394,3.436-5.669.01-1.96-.609-2.322-2.079-3.057-1.04-.52-3.862.263-5.2,1.56-2.613,2.535-3.639,6.239-6.239,10.918C1392.39,1174.037,1387.41,1175.737,1389.363,1175.677Z" transform="translate(-1308.138 -897.189)"/><path class="z" d="M1300.833,986.215c-1.308-6.823,1.478-17.121,4.047-22.259,2.7-5.4,8.094-12.815,12.816-18.887a144.362,144.362,0,0,1,12.049-12.958c1.737-1.737,3.809-5.92,5.212-5.791,2.231.2,1.513,7.6,2.157,9.749a170.005,170.005,0,0,1,5.182,20c-5.459,1.6-8.411,7.214-12.459,12.611-2.379,3.172-9.289,13.223-8.769,16.863,1.438,10.07,10.891,26.072,13.49,36.989.467,1.961-16.188,1.349-19.561-.674-.446-.268-6.563-9.737-9.614-19.519C1302.5,993.094,1302.656,995.726,1300.833,986.215Z" transform="translate(-1267.502 -791.333)"/><path class="d" d="M1369.767,1045.786c4.159,2.08,18.2,1.04,20.276-4.679-9.358-19.756.381-69.414,3.5-83.971,2.106-9.829,6.225-18.013,9.864-28.411-11.931,7.184-29.562-2.237-43.434-3.475C1362.572,960.083,1360.918,1041.361,1369.767,1045.786Z" transform="translate(-1294.835 -790.843)"/><path class="e" d="M1325.444,786.961a13.8,13.8,0,0,1-.972-4.515,2.543,2.543,0,0,1,.359-1.428,1.146,1.146,0,0,1,1.3-.482,5.157,5.157,0,0,1-.336-2.2,1.272,1.272,0,0,1,.35-.912c.256-.216.741-.159.827.165l.49-1.491a.985.985,0,0,1,.273-.487c.423-.334.988.174,1.282.626.064-.618.957-.825,1.474-.48a2.819,2.819,0,0,1,.926,1.574,17.738,17.738,0,0,0,1.589,3.759,7.07,7.07,0,0,0,2.911,2.789,12.051,12.051,0,0,0,.759-4.544.929.929,0,0,1,.115-.6c.255-.333.8-.147,1.1.138a3.814,3.814,0,0,1,1.055,2.3c.118.852.068,1.717.1,2.577.124,3.259,1.435,6.463,1.017,9.7a1.337,1.337,0,0,1-.18.589,1.413,1.413,0,0,1-.335.317,9.583,9.583,0,0,1-2.23,1.389c-2.729,1.07-5.779-.145-7.931-1.852S1326.291,789.477,1325.444,786.961Z" transform="translate(-1278.519 -722.02)"/><path class="p" d="M1347.845,804.773c.348,1.346,1.012,2.969,2.4,3.056a4.313,4.313,0,0,1,.89.038,1.875,1.875,0,0,1,.866.7q2.206,2.669,4.256,5.46a2.507,2.507,0,0,1,.541,1.06,2.478,2.478,0,0,1-.1.938,58.857,58.857,0,0,1-5.329,14.077l-7.444-11.754a5.355,5.355,0,0,1-1.069-2.654,14.783,14.783,0,0,1,.3-1.967,4.711,4.711,0,0,0-.842-2.986c-.692-1.249-.963-1.232.337-1.883C1344.793,807.783,1346.606,806.993,1347.845,804.773Z" transform="translate(-1286.455 -735.473)"/><path class="aa" d="M1347.845,804.773c.348,1.346,1.012,2.969,2.4,3.056a4.313,4.313,0,0,1,.89.038,1.875,1.875,0,0,1,.866.7q2.206,2.669,4.256,5.46a2.507,2.507,0,0,1,.541,1.06,2.478,2.478,0,0,1-.1.938,58.857,58.857,0,0,1-5.329,14.077l-7.444-11.754a5.355,5.355,0,0,1-1.069-2.654,14.783,14.783,0,0,1,.3-1.967,4.711,4.711,0,0,0-.842-2.986c-.692-1.249-.963-1.232.337-1.883C1344.793,807.783,1346.606,806.993,1347.845,804.773Z" transform="translate(-1286.455 -735.473)"/><path class="n" d="M1397.421,862.373c2.076-1.007,3.73-1.4,5.565-2.8,1.929-1.471,1.4-1.444,1.765-3.61q4.193-25.006,8.386-50.013c.7-4.16,4.544-28.417.142-32.117s-18.74-5.989-24.434-5.2c-7.031.975-17.292,2.4-20.275,8.838a67.387,67.387,0,0,0-5.413,21.055l-3.23,31.988c-.751,7.442-4.056,22.148-3.27,25C1360.518,869.536,1386.667,867.58,1397.421,862.373Z" transform="translate(-1293.255 -718.792)"/><path class="b" d="M1307.114,732.115l3.51,19.075a1.206,1.206,0,0,0,.88.941l21.81,5.582a1.195,1.195,0,0,1-.045,2.328l-20.941,4.477a1.194,1.194,0,0,0-.93.977l-3.027,18.712a1.2,1.2,0,0,1-2.33.143l-5.406-18.608a1.214,1.214,0,0,0-.867-.832l-19.793-4.792a1.2,1.2,0,0,1-.884-1.442v0a1.2,1.2,0,0,1,.871-.878l19.506-4.9a1.2,1.2,0,0,0,.873-.9l4.429-19.91a1.2,1.2,0,0,1,2.344.033" transform="translate(-1257.647 -701.634)"/><path class="e" d="M1251.794,746.365c1.832.8,3.714,2.1,4.08,4.068a.7.7,0,0,1-.094.608c-.178.193-.489.153-.746.1l-4.861-1.054a6.019,6.019,0,0,0,1.52,4.823,35.473,35.473,0,0,0,3.815,3.562,2.121,2.121,0,0,1,.888,1.512c-.024.6-.89,1.086-1.25.6.214.98,1.7,1.5.641,2.941a2.061,2.061,0,0,1-1.451.062,1.569,1.569,0,0,1,.244.8.843.843,0,0,1-.94.84,13.883,13.883,0,0,1-10.507-6.888,28.825,28.825,0,0,1-2.485-7.119l-1.1-4.331a1.613,1.613,0,0,1,.008-1.19,1.562,1.562,0,0,1,.723-.555,25.142,25.142,0,0,1,6.7-2.354C1246.714,744.954,1250.207,745.668,1251.794,746.365Z" transform="translate(-1239.44 -706.986)"/><path class="p" d="M1302.565,832.271c-1.835-.638-21.787-9.558-20.849-11.583,1.675-3.612,7.591-5.074,9.266-8.687,6.745,2.023,24.432,10.346,25.482,8.108,3.822-8.15,10.006-18.857,12.93-28.2,1.349-4.312,3.347-9.125,8.4-9.7a8.418,8.418,0,0,1,7.17,2.919c4.053,4.571,3.833,10.652,3.141,16.289-1.52,12.366-11,26.908-21.794,34.327C1324.125,837.247,1315.885,836.9,1302.565,832.271Z" transform="translate(-1258.855 -725.082)"/><path class="p" d="M1404.24,761.684a8.823,8.823,0,0,1,2.154-1.353c5.434-2.568,11.938-2.33,17.535-.139a10.276,10.276,0,0,1,3.742,2.26,4.631,4.631,0,0,1,1.367,4.008,1.384,1.384,0,0,1-.748,1.086,1.786,1.786,0,0,1-1.292-.226c-5.859-2.573-12.586-1.687-18.917-.753-2.593.383-4.965,1.629-9.124-.451C1398.332,764.443,1403.09,762.716,1404.24,761.684Z" transform="translate(-1312.725 -714.197)"/><path class="e" d="M1258.288,831.431a31.237,31.237,0,0,1,4.621-.245,18.4,18.4,0,0,1,5.9.618c2.849.947,5.273,3.291,8.275,3.368.072.38-.243.714-.535.969a39.669,39.669,0,0,1-7.4,5.11,1.935,1.935,0,0,1-.818.286c-.256.009-.926-1.52-1.176-1.47-3.372.674-5.939-1.088-8.172-3.556a3.005,3.005,0,0,0-.858-.762c-1.3-.631-4.959.7-5.037-1.653C1253.026,832.2,1256.948,831.636,1258.288,831.431Z" transform="translate(-1245.712 -747.612)"/><path class="e" d="M1252.863,830.3a3.5,3.5,0,0,1,1.1-1.716,2.439,2.439,0,0,1,2.27-.307c.144-.634.133-1.292.736-1.535a2.061,2.061,0,0,1,1.868.186,1.587,1.587,0,0,1,2.635-.268,1.04,1.04,0,0,1,1.02-.529,2.935,2.935,0,0,1,1.147.4c1.451.746,4.038,2.217,5.41,3.1-.884.49-3.065.041-4.055.238l-6.74,1.346a9.443,9.443,0,0,0-1.7.453c-.451.183-.537,1.161-.992,1.335-.357.136-2.4.395-2.7,0a4.777,4.777,0,0,1,0-1.349C1252.9,831.208,1252.8,830.738,1252.863,830.3Z" transform="translate(-1245.584 -745.264)"/><path class="p" d="M1280.585,844.508a11.964,11.964,0,0,1,2.132-2.135l5.758-4.87a2.511,2.511,0,0,0,.864.413.855.855,0,0,0,.865-.288c.057-.084.1-.186.192-.23a.365.365,0,0,1,.249,0,2.312,2.312,0,0,1,1.549,1.986,4.473,4.473,0,0,1-.6,2.557,8.92,8.92,0,0,1-5.944,4.5,17.631,17.631,0,0,1-2.71.295l-.893.051c-.734.042-.7-.3-.715-.895A1.388,1.388,0,0,0,1280.585,844.508Z" transform="translate(-1258.349 -750.458)"/><path class="e" d="M1346.344,783.058a.539.539,0,0,1,.127-.231.678.678,0,0,1,.3-.134,1.655,1.655,0,0,1,1.153,0,1.248,1.248,0,0,1,.524.913l.342,1.518a4.392,4.392,0,0,1,.159,1.338,1.747,1.747,0,0,1-.634,1.238c-.947.741-2.121,1.006-2.384.176A11.016,11.016,0,0,1,1346.344,783.058Z" transform="translate(-1288.318 -725.277)"/></g></g><path class="b" d="M1055.012,602.558a1.854,1.854,0,1,1-1.854,1.854,1.854,1.854,0,0,1,1.854-1.854" transform="translate(-385.423 -231.566)"/><path class="b" d="M873.605,293.432a1.854,1.854,0,1,1-1.854,1.854,1.854,1.854,0,0,1,1.854-1.854" transform="translate(-302.052 -89.497)"/><path class="b" d="M261.133,449.118a1.854,1.854,0,1,1-1.854,1.854,1.855,1.855,0,0,1,1.854-1.854" transform="translate(-20.57 -161.048)"/><path class="b" d="M1269.534,98.7a1.854,1.854,0,1,1-1.854,1.854,1.854,1.854,0,0,1,1.854-1.854" transform="translate(-484.013)"/><path class="b" d="M1403.488,603.432a1.854,1.854,0,1,1-1.854,1.854,1.855,1.855,0,0,1,1.854-1.854" transform="translate(-545.576 -231.968)"/><path class="b" d="M1553.172,412.468a1.854,1.854,0,1,1-1.854,1.854,1.854,1.854,0,0,1,1.854-1.854" transform="translate(-614.368 -144.204)"/><path class="b" d="M569.727,258.847l.749,4.07a.258.258,0,0,0,.188.2l4.654,1.191a.255.255,0,0,1-.01.5l-4.468.955a.254.254,0,0,0-.2.208L570,269.963a.255.255,0,0,1-.5.03l-1.154-3.97a.258.258,0,0,0-.185-.177l-4.223-1.022a.255.255,0,0,1-.189-.308h0a.255.255,0,0,1,.186-.188l4.162-1.047a.254.254,0,0,0,.186-.192l.945-4.249a.255.255,0,0,1,.5.008" transform="translate(-160.496 -73.507)"/><path class="b" d="M1619.922,207.409l.749,4.07a.258.258,0,0,0,.188.2l4.653,1.191a.255.255,0,0,1-.009.5l-4.469.955a.255.255,0,0,0-.2.208l-.646,3.993a.256.256,0,0,1-.5.031l-1.154-3.97a.26.26,0,0,0-.185-.178l-4.224-1.022a.256.256,0,0,1-.188-.308h0a.254.254,0,0,1,.186-.188l4.162-1.047a.254.254,0,0,0,.186-.192l.945-4.248a.256.256,0,0,1,.5.007" transform="translate(-643.146 -49.867)"/><path class="b" d="M1628.49,671.868l.749,4.07a.257.257,0,0,0,.188.2l4.654,1.191a.255.255,0,0,1-.01.5l-4.468.956a.254.254,0,0,0-.2.209l-.646,3.993a.255.255,0,0,1-.5.03l-1.153-3.97a.259.259,0,0,0-.185-.177l-4.224-1.023a.256.256,0,0,1-.189-.307h0a.258.258,0,0,1,.186-.187l4.162-1.046a.255.255,0,0,0,.187-.192l.945-4.248a.255.255,0,0,1,.5.007" transform="translate(-647.084 -263.324)"/><g transform="translate(386.66 401.758)"><path class="r" d="M706.6,659.488l-8.424,40.277H610.691l8.38-40.277h-8.3l-77.719,371.588,8.3.212,9.866-45.686h87.172l-9.511,45.474,8.3.212,77.719-371.8Zm-9.783,46.773-7.065,33.78H602.31l7.029-33.78ZM569.061,899.851l6.893-33.131h87.3l-6.929,33.131Zm85.906,6.5-6.929,33.131H560.815l6.894-33.131Zm-77.662-46.124,7.164-34.43h87.346l-7.2,34.43Zm8.515-40.926,6.893-33.131H680.1L673.174,819.3Zm8.245-39.627,6.894-33.131h87.433l-6.929,33.131ZM552.57,979.105l6.894-33.131h87.215l-6.929,33.131Z" transform="translate(-533.052 -659.488)"/><path class="u" d="M676.864,659.488l77.719,396.7h8.3l-9.511-50.364h87.172l9.867,50.364h8.3l-77.719-396.7h-8.3l8.38,42.775H693.588l-8.424-42.775Zm105.559,49.674,7.029,35.876h-87.44l-7.065-35.876Zm-46.987,205.6-6.93-35.186h87.3l6.893,35.186Zm88.617,6.9,6.894,35.186H743.724L736.8,921.656Zm-96.9-48.984-7.2-36.566h87.346l7.163,36.566Zm-8.56-43.465-6.93-35.186h87.389l6.893,35.186ZM710.3,787.122l-6.929-35.185H790.8l6.893,35.185Zm41.713,211.8-6.93-35.186H832.3l6.893,35.186Z" transform="translate(-599.145 -659.488)"/></g><g transform="translate(362.029 255.381)"><g transform="translate(83.007)"><g class="ap" transform="matrix(1, 0, 0, 1, -230.52, -156.68)"><path class="b" d="M675.889,389.834l4.355,23.672a1.5,1.5,0,0,0,1.092,1.168L708.4,421.6a1.482,1.482,0,0,1-.056,2.889l-25.988,5.556a1.482,1.482,0,0,0-1.155,1.212l-3.757,23.222a1.485,1.485,0,0,1-2.891.178l-6.708-23.093a1.508,1.508,0,0,0-1.077-1.032l-24.563-5.946a1.484,1.484,0,0,1-1.1-1.79v0a1.485,1.485,0,0,1,1.081-1.09l24.208-6.087a1.483,1.483,0,0,0,1.083-1.118l5.5-24.709a1.486,1.486,0,0,1,2.91.042" transform="translate(-410.55 -231.94)"/></g><path class="s" d="M855.534,1025.686a14.764,14.764,0,0,0-.442-11.61c-1.729-3.365-2.5-10.1-6.051-8.8a36.723,36.723,0,0,0-11,7.151c-1.987,1.9,1.1,8.252-4.4,10.452-.487.2-4.434.462-4.951.55a5.088,5.088,0,0,0-3.3,2.751c-.55,1.651-.659,3.166,0,6.6.432.077,1.09.3,1.524.365a30.172,30.172,0,0,0,20.587-4.535C849.814,1027.126,852.814,1025.273,855.534,1025.686Z" transform="translate(-725.57 -671.952)"/><path class="s" d="M764.135,951.523a5.057,5.057,0,0,1,2.769-.712c2.017.146,4.063,1.906,5.826.916a7.131,7.131,0,0,0,1.16-.98c1.909-1.7,4.694-1.85,7.247-1.916,1.428-.037,3.745-.9,5.081-.4,2.183.824,2.8,3.808,3.4,6.062a22.232,22.232,0,0,1,.357,6.959,177.969,177.969,0,0,1-24.162.438c-3.231-.162-7.377.717-6.35-3.689A10.813,10.813,0,0,1,764.135,951.523Z" transform="translate(-695.41 -645.833)"/><path class="p" d="M790.073,967.546c-.016.74-.056,1.481-.1,2.217a177.93,177.93,0,0,1-24.162.438c-3.231-.162-7.377.717-6.35-3.689.129-.553,3,.491,5.3.683a154.477,154.477,0,0,0,19.253,0C787.644,967.045,790.108,965.944,790.073,967.546Z" transform="translate(-695.41 -654.14)"/><path class="p" d="M845.125,1040.765c2.509-.049,5.176-.258,7.193-1.751s3.006-4.013,3.506-6.473c.642-3.161,1.121-6.81-.6-9.536s-6.021-4.142-8.88-2.647c-2.7,1.411-3.622,4.763-4.2,7.755s-1.29,6.337-3.835,8.011c-1.729,1.137-3.92,1.22-5.988,1.266l-7.108.158a9.9,9.9,0,0,0,.606,3.263C832.116,1041.159,838.65,1040.892,845.125,1040.765Z" transform="translate(-725.698 -678.681)"/><path class="y" d="M858.482,1042.149c2.509-.049,5.176-.258,7.193-1.751s3.006-4.013,3.506-6.473c.642-3.161,1.121-5.71-.6-8.436s-4.4-3.3-6.6-2.2c-2.725,1.363-2.725,5.26-3.3,8.252-.427,2.219-4.4,7.442-4.4,9.9C854.275,1042.542,856.808,1042.182,858.482,1042.149Z" transform="translate(-739.055 -680.065)"/><path class="ab" d="M757.088,787.138a15.141,15.141,0,0,0-2.883,4.756,15.535,15.535,0,0,0-.19,6.312c2.35,21.495,10.22,35.153,15.364,56.155,6.051-3.3,15.4-2.2,17.6-.55-3.318-18.222-7.456-29.773-7.96-48.288a8.792,8.792,0,0,1,.425-3.656c.492-1.174,1.642-1.9,2.425-2.9,13.912-17.827,24.69-28.357,26.565-29.379,12.1-6.6,17.6-12.1,12.1-32.456-1.113-4.119-14.561-.347-19.706-.427-4.437-.07-11.352,9.784-15.055,14.218C777.919,760.331,764.734,777.553,757.088,787.138Z" transform="translate(-692.873 -547.907)"/><path class="ac" d="M804.656,798.965c13.912-17.827,24.69-28.357,26.565-29.379,12.1-6.6,17.6-12.1,12.1-32.456-1.113-4.119-14.561-.347-19.706-.427-4.437-.07-11.351,9.784-15.054,14.218C800.7,760.331,803.873,799.968,804.656,798.965Z" transform="translate(-715.657 -547.907)"/><path class="ac" d="M793.919,827.744c-1.634-11.972-1.293-94.024,2.837-94.589,6.137-.84,16.644-1.43,22.835-1.814,4.12,16.667,11.88,14.122,8.435,34.792-2.751,16.5-8.014,38.79-8.252,55.011-.155,10.577,21.018,57.739,21.08,68.27-2.75-8.252-14.737-7.758-18.588,2.694C823.038,892.107,795.862,841.978,793.919,827.744Z" transform="translate(-710.897 -546.133)"/><g transform="translate(43.137 28.882)"><path class="p" d="M830.329,666.08c-3.289-20.421-3.418-43.348-4.182-64.4-.273-7.538.837-16.727-2.322-20.865l-39.939,3.191c-2.78.222-5.661.474-8.087,1.849s-4.261,4.215-3.563,6.915a455.415,455.415,0,0,1,11.916,65.578c1.341,12.553-4.63,11.047,6.868,9.4C802.73,666.08,821.129,666.08,830.329,666.08Z" transform="translate(-744.42 -505.836)"/><path class="ad" d="M785.236,508.332a24.327,24.327,0,0,0-2.775-2.885,26.964,26.964,0,0,0-4.944-3.39c-7.977-4.679-19.207-14.42-26.261-20.4-1.762-1.494-3.551-3.15-4.253-5.35s.14-5.06,2.329-5.8c7.6,5.706,19.307,15.208,27.968,19.124,3.665,1.657,7.457,3.174,10.613,5.667,4.043,3.194,8.937,6.912,11.542,11.358,1.471,2.51,4.383,5.853,5.854,8.364a65.078,65.078,0,0,0-9.527.652c-1.321.306-3.667,2.044-4.691,1.02C788.581,514.187,786.8,510.368,785.236,508.332Z" transform="translate(-732.781 -455.141)"/><path class="p" d="M850.556,575.831c.711-4.226,1.4-8.688-.112-12.7a23.232,23.232,0,0,0-4.331-6.569c-2.374-2.806-3.24-8.853-6.54-10.471s-10.079-.219-12.917,2.117c-.378.311-1.575.686-1.69,1.161s.868,2.638,1.033,3.094c1.482,4.094,2.37,7.833,3.538,12.027.407,1.462,3.618,2.67,4.261,4.045a16.278,16.278,0,0,0,2.494,3.43,43.15,43.15,0,0,1,4.988,7.361c1.049,1.954,2.663,15.671,4.148,16.945C850.05,600.241,850.175,578.1,850.556,575.831Z" transform="translate(-768.718 -489.558)"/><path class="ad" d="M733.961,443.478c-.592-.481-1.7-.779-1.918-.048-.14.477.313.9.669,1.242a4.877,4.877,0,0,1,1.456,3.288c-1.212-2.455-4.291-6.46-5.609-5.82-1.982.8,4,4.288,3.7,7.045a22.158,22.158,0,0,0-5.212-5.9,1.43,1.43,0,0,0-1.083-.427c-.85.162-.716,1.458-.206,2.157a28.514,28.514,0,0,0,2.757,2.746,4.3,4.3,0,0,1,1.448,3.468,19.259,19.259,0,0,0-5.5-5.929c-.688-.481-2-.645-2.038.193a1.18,1.18,0,0,0,.254.67c1.094,1.674,2.519,3.107,3.667,4.745s2.717,3.855,2.5,5.843c-1.377,1.757-4.917-1.088-6.736-2.218a1.176,1.176,0,0,0-.526-.222c-.66-.042-.82.933-.6,1.556.694,1.952,2.559,3.234,4.428,4.129s3.447,2.469,5.474,2.9c4.653.99,6.52,4.368,10.712,3.63,2.837-.5,2.164-1.5,1.252-3.526C740.009,456.678,739.728,448.166,733.961,443.478Z" transform="translate(-720.892 -442.072)"/></g><g transform="translate(72.997 57.439)"><path class="v" d="M793.085,495.222c-3.258-.94-7.954.408-10.566,2.2-1.093.752-2.6,1.94-2.938,3.295-.35,1.418-1.17,5.594.3,6.054,2.444.762,8.078-2.307,10.348-3.054,2.473-.814,5.165-1.439,7.4-2.817,2.458-1.519,1.892-2.6-.07-4.336C796.335,495.484,794.667,495.679,793.085,495.222Z" transform="translate(-777.473 -494.914)"/><path class="v" d="M783.533,503.324c.468.322,1.269.856,1.482,1.469a4.03,4.03,0,0,1,0,1.933c-2.312,14.874,5.08,29.5,5.508,44.542-2.387.038-4.311-1.876-5.892-3.692a8.261,8.261,0,0,1-1.582-2.318c-.562-1.427-.329-3.033-.354-4.573-.109-6.5-4.921-12.2-4.932-18.706-.008-5.019,1.852-7.956,2.126-12.862.117-2.089,2.108-5.983,4.062-7.663,1.739-1.495,4.01,1,1.636,2.917-1.936,1.564-3.526,3.88-3.388,6.388a19.366,19.366,0,0,1,.232-6.8" transform="translate(-776.887 -497.709)"/><path class="ad" d="M808.449,554.1c-4.1,3.207-18.235-1.529-17.917,3.76.193,3.232,2.018,8.811,1.979,11.624a1.358,1.358,0,0,0,.279.83c.543.731,2.663,3.644,2.663,3.644.515.42,1.618.739,14.167-6.894.259-.157-.128-4.464-.655-8.917-.085-.719-.407-3.33-.516-4.047" transform="translate(-782.754 -522.116)"/><path class="ae" d="M806.559,539.255c-4.268,2.811-11.057,10.409-16.127,10.685a16.685,16.685,0,0,0,.724,5.269c.131.473,12.791,3.688,17.785-3.766" transform="translate(-782.695 -515.292)"/><path class="p" d="M791.141,575.167c9.566-3.749,20.872-5.226,29.792-.127a1.876,1.876,0,0,1,.718.6,1.937,1.937,0,0,1-.029,1.565,50.042,50.042,0,0,1-4.731,10.555,13.467,13.467,0,0,1-4.349,4.915,12.783,12.783,0,0,1-4.511,1.446,36.6,36.6,0,0,1-27.869-6.951c-2.671-2.063-6.461-6.6-1.859-8.842,1.314-.641,3.338-.187,4.76-.409C785.886,577.479,788.5,576.2,791.141,575.167Z" transform="translate(-776.145 -530.23)"/><path class="v" d="M805.939,497.4c8.534,1.539,12.666,9.627,15.128,17.446.882,2.8-1.322,30.385,6.9,27.327-4.53,6.442-11.416,2.731-12.782,2.041-2.85-1.439-4.376-4.652-5.844-7.318-3.087-5.606-2.258-11.9-3.744-17.924-.786-3.19-1.027-6.8-2.95-9.473-.511-.71-5.7-5.686-5.437-6.169C798.149,501.594,803.858,497.025,805.939,497.4Z" transform="translate(-785.823 -496.047)"/><path class="ad" d="M805.8,519.331a4.714,4.714,0,0,0-5.5-1.578c-.869.439-4.4,3.963-3.854,4.878-2.2-2.2,2.484-5.2,2.125-7.476-.341-2.162,2.751-4.367,1.06-5.687-2.94-2.3-6.667-2.847-10.337-2.79-2.615.041-6.142.091-8.314,1.725-2.647,1.991-1.623,7.43-1.574,10.371.056,3.311.418,6.643.7,9.943a25.538,25.538,0,0,0,.754,4.9c.485,1.683,1.614,2.839,2.417,4.362,1.371,2.6,2.127,2.593,4.92,2.257,2.986-.358,4.344-1.735,6.6-3.85a29.622,29.622,0,0,0,3.3-3.3c.779-.936-.55-2.11-.55-3.3v-2.751a5.861,5.861,0,0,0,2.038.575,4.9,4.9,0,0,0,3.4-1.156c1.99-1.5,4.31-4.66,2.811-7.12" transform="translate(-777.537 -500.319)"/><path class="ae" d="M818.294,533.456c-.032-.261-.326-.4-.434-.642a.684.684,0,0,1,.008-.521,1.285,1.285,0,0,1,.614-.728,1.88,1.88,0,0,1,.979-.072,2.118,2.118,0,0,1,1.121.492,1.951,1.951,0,0,1,.635,1.053,2.348,2.348,0,0,1-.6,1.989,4.481,4.481,0,0,1-1.783,1.144,1.93,1.93,0,0,1-.747.171.782.782,0,0,1-.657-.346,1.025,1.025,0,0,1,.057-1.022c.192-.284.472-.464.653-.755a.879.879,0,0,0,.109-.96" transform="translate(-795.069 -511.709)"/><path class="n" d="M819.506,532.237a1.875,1.875,0,0,1,.32.953,2.355,2.355,0,0,1-.351,1.428,2.125,2.125,0,0,1-1.151.889.8.8,0,0,1-.445.032.385.385,0,0,1-.289-.314c-.015-.2.159-.348.3-.48a1.643,1.643,0,0,0,.472-.631.839.839,0,0,0-.068-.766,3.046,3.046,0,0,1-.328-.393.619.619,0,0,1-.01-.457,1.834,1.834,0,0,1,.213-.414c.155-.247.348-.457.651-.349a1.379,1.379,0,0,1,.68.5" transform="translate(-795.192 -511.822)"/><path class="ae" d="M781.942,530.258a10.917,10.917,0,0,1-1.164,4.658c-.251.5-.536,1.111-.19,1.54.324.4,1.013.4,1.6.352l2.286-.171a1.973,1.973,0,0,0,.974-.243.974.974,0,0,0,.39-.957,2.811,2.811,0,0,0-.413-.952,17.72,17.72,0,0,1-1.9-4.783c-.1-.4-.124-1.767-.978-1.491-.7.224-.591,1.6-.6,2.046" transform="translate(-778.113 -510.2)"/><path class="af" d="M787.249,547.973a5.515,5.515,0,0,1-.419,1.554c-.31,1.692-1.436,2.522-2.794,2.063a3.911,3.911,0,0,1-2.132-3.355c0-.03,0-.062-.006-.092.041-.645.386-1.038.856-.971.861-.1,2.09.189,2.785-.377.193-.157.228-.664.529-.514a2.589,2.589,0,0,1,1.181,1.692" transform="translate(-778.789 -518.509)"/><path class="p" d="M787.16,548.981a1.8,1.8,0,0,1-.313.739,3.567,3.567,0,0,1-3.083,1.655,1.361,1.361,0,0,1-1.506-1.529c0-.017.006-.035.01-.052a1.216,1.216,0,0,1,1-.7,11.218,11.218,0,0,0,2.784-.7c.217-.123.337-.416.606-.384.4.045.538.591.5.967" transform="translate(-778.945 -519.317)"/><path class="v" d="M793.4,526.3c.1.2-.165.426-.429.441a1.647,1.647,0,0,1-.733-.2,5.778,5.778,0,0,0-2.916-.4,4.478,4.478,0,0,1-.788.064.85.85,0,0,1-.657-.3c-.573-.864,1.961-.64,2.364-.6.7.072,2.84.387,3.159,1" transform="translate(-781.497 -508.855)"/><path class="v" d="M778.587,526.479a.424.424,0,0,0-.1.491.389.389,0,0,0,.337.258.584.584,0,0,0,.279-.156,2.322,2.322,0,0,1,1.362-.205c.675,0,.356-.886-.243-.924a2.287,2.287,0,0,0-1.633.537" transform="translate(-777.203 -509.172)"/><path class="i" d="M780.706,532.845a1.046,1.046,0,0,1-.051.853.667.667,0,0,1-.255.2.39.39,0,0,1-.5-.017.742.742,0,0,1-.124-.195,1.725,1.725,0,0,1-.153-1.1c.195-.757.854-.435,1.082.259" transform="translate(-777.729 -512.027)"/><path class="i" d="M792.262,531.342a.9.9,0,0,1-.181.975,1.417,1.417,0,0,1-.45.258.914.914,0,0,1-.837.035.706.706,0,0,1-.187-.208,1.3,1.3,0,0,1-.136-1.235.962.962,0,0,1,1.3-.427.982.982,0,0,1,.49.6" transform="translate(-782.684 -511.329)"/><path class="v" d="M801.98,504.58c.208-.552,6.042,2,6.6,2.2,1.87.656,2.53,3.541,2.75,5.5.111.986-3.275,9.55-4.4,9.351-.767-.135-.873-3.182-1.1-3.85C805.388,516.477,802.634,506.038,801.98,504.58Z" transform="translate(-788.018 -499.32)"/><path class="v" d="M816.6,559.932c-.24,2.278-1.006,4.485-1.1,6.775s.678,4.848,2.676,5.92c-1.569-3.1-.87-6.839.082-10.181s2.134-6.819,1.414-10.222a11.684,11.684,0,0,0-2.243-4.651.851.851,0,0,0-.365-.317.755.755,0,0,0-.6.129c-2.152,1.261-.964,3.065-.552,4.908A23.7,23.7,0,0,1,816.6,559.932Z" transform="translate(-794.096 -518.958)"/></g><g transform="translate(88.996 62.071)"><path class="v" d="M809.357,508.319a20.267,20.267,0,0,0,3.2,7.194c1.166,1.652,2.574,3.12,3.812,4.719a28.774,28.774,0,0,1,5.838,14.64,28.152,28.152,0,0,0-5.773-20.263c-1.358-1.728-2.919-3.294-4.2-5.076a11.129,11.129,0,0,1-2.367-6.048,9.471,9.471,0,0,0,.7,7.121" transform="translate(-807.408 -503.485)"/><path class="v" d="M808.228,523.955c.45,1.813.9,3.628,1.2,5.472.9,5.5.461,11.112.719,16.674s1.329,11.346,4.765,15.728c-3.58-8.948-1.51-19.039-2.256-28.648a48.606,48.606,0,0,0-4.07-16c-.459-1.027-1.023-2.988-1.985-3.569C806.281,516.469,807.611,521.466,808.228,523.955Z" transform="translate(-806.119 -508.14)"/><path class="v" d="M846.928,569.212c-2.579-1.249-3.979-4.031-5.2-6.625l-2.305-4.9q-.082,1.945,0,3.893a7.329,7.329,0,0,0,.875,3.692,13.49,13.49,0,0,0,3.027,3.066,4.011,4.011,0,0,0,1.283.656C845.141,569.156,846.57,568.973,846.928,569.212Z" transform="translate(-821.208 -528.393)"/><path class="v" d="M808.878,565.533a7.314,7.314,0,0,1-3.127,3.779,2.72,2.72,0,0,0,1.8-.566,9.723,9.723,0,0,0,3.992-5.372,4.9,4.9,0,0,0,.233-1.525,3.3,3.3,0,0,0-.58-1.757.635.635,0,0,0-.252-.241C810.321,559.584,809.173,564.823,808.878,565.533Z" transform="translate(-805.751 -529.385)"/><path class="v" d="M821.753,579.056a9.108,9.108,0,0,0,5.8,1.687c-.879-.86-2.254-1.131-3-2.111-.931-1.23-.484-3.021-1.056-4.453-.6-1.494-2.165-2.321-3.613-3.024-1.967-.954-2.115,2.266-1.642,3.5A10.724,10.724,0,0,0,821.753,579.056Z" transform="translate(-811.388 -534.505)"/></g></g><g transform="translate(0 212.394)"><g transform="translate(0 37.468)"><path class="s" d="M640.493,1238.6a2.194,2.194,0,0,0,2.27-2.138c.49-1.856.912-4.047-.32-5.518-1.78-2.124-5.214-.942-7.917-1.548-2.945-.661-6.819-3.123-6.122-6.06-5.4-.129-8.989-1.1-14.388-1.228a3.069,3.069,0,0,0-1.672.277,2.929,2.929,0,0,0-.951,1.152c-2.446,4.377-4.137,7.533-4.417,12.539a3.767,3.767,0,0,0,.579,1.738c2.014,4.712,10.558,3.708,14.005,3.258Z" transform="translate(-542.393 -1021.541)"/><path class="p" d="M640.986,1250.579a2.195,2.195,0,0,0,2.27-2.138c.243-.921-7.927.681-16.676,1.931a48.288,48.288,0,0,1-18.532-.579c2.014,4.712,10.558,3.708,14.005,3.258Z" transform="translate(-542.886 -1033.519)"/><path class="s" d="M512.527,1316.679a21.1,21.1,0,0,0-.444,4.434c.211,5.078,4.23,9.463,9.005,11.2a10.072,10.072,0,0,1,2.83,1.27c1.778,1.381,2,3.935,2.082,6.185.019.543-.012,1.188-.47,1.481a1.584,1.584,0,0,1-.826.175c-5.286.148-10.577.3-15.863.134a15.079,15.079,0,0,1-5.857-1.009,15.932,15.932,0,0,1-4.147-3.144l-7.538-7.141c-1.84-1.742-3.814-3.781-3.827-6.315-.011-2.184,1.484-4.1,3.177-5.478s3.658-2.428,5.193-3.982c2.378-2.407,3.483-5.76,4.483-8.993.046-.144,11.2,1.174,12.034,1.8C514.924,1309.227,512.971,1314.1,512.527,1316.679Z" transform="translate(-487.473 -1059.863)"/><path class="p" d="M526.274,1349.925a3.41,3.41,0,0,1-.744,2.174,1.587,1.587,0,0,1-.826.175c-5.286.148-10.577.3-15.863.134-1.994-.061-5.78-.179-7.594-1.009a15.948,15.948,0,0,1-4.147-3.144c-2.513-2.38-3.288-4.76-5.8-7.141-1.84-1.742-3.814-3.781-3.827-6.315-.011-2.184,1.484-4.1,3.177-5.478.607-.495,3.4-.572,8.405,3.809,4.633,4.054,5.212,12.161,10.425,15.057C514.768,1351.127,526.248,1349.175,526.274,1349.925Z" transform="translate(-487.473 -1070.711)"/><path class="y" d="M508.841,1354.212c-1.994-.061-5.78-.179-7.594-1.009a15.947,15.947,0,0,1-4.147-3.144c-2.513-2.38-3.288-4.76-5.8-7.141-1.84-1.742-3.814-3.781-3.827-6.315-.011-2.184.678-2.587,2.316-3.406,1.159-.579,4.3.293,5.792,1.738,2.911,2.824,4.054,6.95,6.949,12.161C505.469,1352.386,511.016,1354.279,508.841,1354.212Z" transform="translate(-487.473 -1072.514)"/><path class="ad" d="M601.217,901.784a4.316,4.316,0,0,1,1.584-2.855.769.769,0,0,1,1.109.57,18.1,18.1,0,0,1,.037,6.086.772.772,0,0,0,1.249.724,10.027,10.027,0,0,0,2.766-3.952c.864-2.08,1.289-4.316,2.095-6.419a2.22,2.22,0,0,1,.753-1.132.83.83,0,0,1,1.19.239c.095.222.05.483.135.709.242.643,1.208.5,1.785.128s1.249-.884,1.872-.595a1.564,1.564,0,0,1,.566.536,8.282,8.282,0,0,1,1.547,4.215,15.279,15.279,0,0,1-.7,5,18.753,18.753,0,0,1-2.413,5.975,23.222,23.222,0,0,1-2.937,3.229,91.178,91.178,0,0,0-9.4,10.847c-.177.24-2.559,3.934-2.852,3.876-.156-.03-2.542-3.6-2.653-3.714-3.408-3.486.284-5.069,1.859-9.249C600.482,911.572,600.295,906.454,601.217,901.784Z" transform="translate(-537.145 -871.053)"/><path class="b" d="M621.248,852.061l3.909,21.249a1.344,1.344,0,0,0,.98,1.049l24.3,6.219a1.33,1.33,0,0,1-.05,2.593l-23.328,4.987a1.332,1.332,0,0,0-1.036,1.088l-3.372,20.844a1.333,1.333,0,0,1-2.6.159l-6.022-20.728a1.355,1.355,0,0,0-.966-.927l-22.048-5.337a1.333,1.333,0,0,1-.985-1.607v0a1.334,1.334,0,0,1,.97-.978l21.73-5.464a1.33,1.33,0,0,0,.972-1l4.934-22.179a1.334,1.334,0,0,1,2.612.037" transform="translate(-534.59 -850.978)"/><path class="e" d="M639.523,912.369c.266-1.348.9-2.953,1.975-3.559a.958.958,0,0,1,1.383.711,22.558,22.558,0,0,1,.046,7.586.963.963,0,0,0,1.557.9,12.5,12.5,0,0,0,3.448-4.927c1.076-2.592,1.607-5.38,2.611-8a2.767,2.767,0,0,1,.939-1.411,1.034,1.034,0,0,1,1.483.3c.118.277.062.6.168.884.3.8,1.506.625,2.225.158s1.557-1.1,2.334-.741a1.952,1.952,0,0,1,.706.668,10.324,10.324,0,0,1,1.928,5.254,19.028,19.028,0,0,1-.868,6.234,23.354,23.354,0,0,1-3.007,7.449,28.949,28.949,0,0,1-3.661,4.025,113.746,113.746,0,0,0-11.719,13.522c-.221.3-.525.636-.89.565a1,1,0,0,1-.484-.329c-4.248-4.346-5.135-6.354-3.172-11.564C638.606,924.57,638.373,918.191,639.523,912.369Z" transform="translate(-555.517 -875.111)"/></g><g transform="translate(11.415)"><path class="ag" d="M568.083,792.646c-.6-.732-2.169-.553-3.085-.794a2.2,2.2,0,0,0-2.479.893,3.415,3.415,0,0,0-.249,1.8,5.809,5.809,0,0,0,1.487,4.237c1.8,2.42,3.662,5.312,6.12,7.11,1.051-1.531.427-3.48.2-5.165C569.727,798.136,569.76,794.693,568.083,792.646Z" transform="translate(-533.257 -786.3)"/><path class="m" d="M582.84,825.982a.826.826,0,0,1,.384.286.741.741,0,0,1-.13.721,2.34,2.34,0,0,1-1.221,1.108c-.537.161-1.149-.005-1.656.234-.352.167-.7.527-1.059.383a.833.833,0,0,1-.4-.491c-.993-2.331-1.785-5.636-.756-7.93a16.817,16.817,0,0,1,2.117,3.02A8.185,8.185,0,0,0,582.84,825.982Z" transform="translate(-540.272 -799.408)"/><path class="e" d="M528.872,828.36c-2.786-3.823-6.142-7.313-8.065-11.637a20.4,20.4,0,0,1-1.011-13.61,17.369,17.369,0,0,1,6.711-9.735c3.324-2.268,8.911-4.453,12.74-3.216,6.262,2.023,10.326,8.928,11.87,15.326s4.464,11.609,5.3,18.8c.607,4.079-6.569,3.479-8.608,3.783.3,2.039,2.062,6.654,2.542,10.425.192,1.515.579,5.633.579,5.792,0,1.737-3.749-1.322-4.054-1.159-3.173,1.7-12.173-3.152-13.9-2.9C530.936,840.541,533,834.023,528.872,828.36Z" transform="translate(-513.41 -785.395)"/><path class="ag" d="M522.273,810.885a5.523,5.523,0,0,1-2.32,1.249,4.455,4.455,0,0,1-3.537-1.366,13.03,13.03,0,0,1-3.824-11.482,20.2,20.2,0,0,1,5.788-10.966,24.547,24.547,0,0,1,9.97-6.279c2.779-.9,10.042-.541,13.217,3.989,1.183,1.688,1.137,4.834.911,6.118-.207,1.178-1.2,1.529-1.2,2.725a3.363,3.363,0,0,0-.768-1.112l-.315,2.5-.805-.7a17.683,17.683,0,0,0-.772,1.87l-.484-.583c-.249.7-1.9,1.4-2.151,2.1.226-1.284.694-1.232.032-.892-.523.269-1.088,1.4-1.477,1.873C531.023,804.17,526.615,807.547,522.273,810.885Z" transform="translate(-510.367 -781.647)"/><path class="ah" d="M559.14,842.818c-2.872-2.491-3.224-4.03-4.547-6.8l-3.156-6.594a.968.968,0,0,0-1.193.747,2.788,2.788,0,0,0,.217,1.561,92.639,92.639,0,0,0,3.9,9.882,8.2,8.2,0,0,0,1.9,2.8c.678.579,6.583,3.687,8.015,3.9,3.644.537,6.093.109,6.521-.386.474-.549.546-3.758.075-4.43-.529-.755-.619-.414-1.284-.226C567.579,843.841,560.75,844.215,559.14,842.818Z" transform="translate(-527.715 -803.582)"/><path class="s" d="M574.5,823.143a1.166,1.166,0,0,0,.566-1.273,1.6,1.6,0,0,0-.346-.9.85.85,0,0,0-.879-.277.873.873,0,0,0-.523.621,1.968,1.968,0,0,0,.007.838,1.411,1.411,0,0,0,.284.705.8.8,0,0,0,1.341-.84" transform="translate(-538.321 -799.577)"/><path class="ai" d="M571.545,812.159c.308-1.014-.186-1.109-.669-1.257a1.209,1.209,0,0,0-.732.077,6.5,6.5,0,0,0-2.909,1.954c-.381.462-1.677,2.462-.883,3.029.593.423,1.392-.925,1.726-1.3C568.965,813.676,571.243,813.158,571.545,812.159Z" transform="translate(-535.023 -795.078)"/><path class="ag" d="M509.184,826.151c1.117,3.36,3.654,6.043,6.279,8.421,3.235,2.931,5.63,5.943,9.8,7.232.554-2.424,6.524-6.979,5.216-9.095s-2.944-4.057-3.853-6.372a8.978,8.978,0,0,0-.911-2.016c-.514-.718,4.54-1.4,4.181-2.208-2.317-5.212-14.524-.991-15.591-2.732-.662-1.082-2.073-4.15-3.666-3.358-1.3.646-1.76,3.487-1.932,4.749A11.967,11.967,0,0,0,509.184,826.151Z" transform="translate(-508.594 -797.386)"/><path class="e" d="M537.159,833.563a1.416,1.416,0,0,1-.046-.444c.117-1.8,1.184-4.155,2.98-4.607a2.862,2.862,0,0,1,1.776.068,14.211,14.211,0,0,0,2.064.667l2.163,7.338c0,.006-.152.227-1.167.517a7.442,7.442,0,0,1-4.586-.364C538.442,836.033,537.642,835.413,537.159,833.563Z" transform="translate(-521.7 -803.135)"/><path class="m" d="M543.509,835.074c-.105-.232.086-.505.061-.76a.623.623,0,0,0-.275-.426,1.328,1.328,0,0,0-.928-.274,2.124,2.124,0,0,0-.92.461,2.238,2.238,0,0,0-.758,1,1.813,1.813,0,0,0-.031,1.206,2.221,2.221,0,0,0,1.562,1.324,4.9,4.9,0,0,0,2.2,0,2.185,2.185,0,0,0,.762-.256.816.816,0,0,0,.414-.634.94.94,0,0,0-.577-.813c-.319-.132-.664-.131-.977-.276s-.641-.4-.593-.733" transform="translate(-523.29 -805.528)"/><path class="n" d="M542.859,834.563a1.7,1.7,0,0,0,.2.957,2.2,2.2,0,0,0,1.051.991,2.283,2.283,0,0,0,1.495.121.907.907,0,0,0,.418-.21.374.374,0,0,0,.1-.413c-.088-.171-.322-.2-.521-.234a1.678,1.678,0,0,1-.751-.27.762.762,0,0,1-.333-.669,2.956,2.956,0,0,0,.093-.5.564.564,0,0,0-.226-.382,1.8,1.8,0,0,0-.406-.229c-.267-.122-.549-.192-.766.059a1.39,1.39,0,0,0-.354.776" transform="translate(-524.339 -805.532)"/><path class="ag" d="M547.478,823.2a1.3,1.3,0,0,0,1.022.233.957.957,0,0,0,.574-.72,3.372,3.372,0,0,0,.015-.959,11.7,11.7,0,0,1,.426-3.976c.136-.475.6-3.913.355-4.34-.168-.289-.826,1.2-1.158,1.158s-.647,1.278-.968,1.372a3.74,3.74,0,0,0-2.639,2.229c-.122.386-.149.8-.278,1.181s-.462.893-.28,1.317c.122.285.487.465.7.681A10.854,10.854,0,0,0,547.478,823.2Z" transform="translate(-525.093 -796.241)"/><path class="p" d="M577.291,839.429c-1.465-.438-.546,1.384.037,1.959a4.261,4.261,0,0,0,2.043,1.094c.965.218,2.337.111,2.453-.427.132-.612-.447-3.507-1.606-2.928A3.942,3.942,0,0,1,577.291,839.429Z" transform="translate(-539.804 -808.028)"/><path class="aj" d="M584.588,847.539c-.124.069-.313.089-.317.231a.3.3,0,0,0,.049.147,2.429,2.429,0,0,0,1.27,1.077.431.431,0,0,0,.524-.15c.148-.192-.05-1.406-.36-1.522A1.418,1.418,0,0,0,584.588,847.539Z" transform="translate(-543.374 -811.806)"/><path class="ak" d="M580.081,835.834c-.822-.1-.98-.377-1.622-.38a2.207,2.207,0,0,0-1.278.275,1.029,1.029,0,0,0-.215.995.316.316,0,0,0,.444.211,3.86,3.86,0,0,1,1.249-.4c.636-.064,1.285.377,2.134.18.26-.06.18-.559.04-.794C580.669,835.641,580.338,835.865,580.081,835.834Z" transform="translate(-540.002 -806.376)"/></g><path class="al" d="M617.977,1108.194c2.316,4.633,4.3,20.805-1.3,42.677-6.792.509-14.278,1.217-20.849-.579,5.024-11.25,5.274-25.714-.441-33.99-2.4-3.474-14.285-9.889-14.478-15.057-.252-6.755.1-1.916-.748-8.622l-2.868-22.705c-.49-3.881-2.457-8.368,2.1-7.282,3.2.763,7.107,7.462,8.919,9.915C592.39,1078.066,610.435,1093.11,617.977,1108.194Z" transform="translate(-528.367 -910.709)"/><path class="am" d="M518.582,1080.693c.456,2.069.542,50.031.336,51.768-.245,2.073-13.7,41.331-21.722,63.045,7.772,3.224,14.622,4.683,23.408,3.224.771-.128,18.157-38.458,24.9-65.441.465-1.859,8.483-70.182,5.441-79.514.178.546-18.12-1.695-19.817-1.99-4.243-.738-13.408-7.824-17.346-5.782C504.024,1051.064,517.256,1074.668,518.582,1080.693Z" transform="translate(-491.942 -902.971)"/><path class="ab" d="M519.625,913.82c-1.339,12.754-7,26.833-8.339,39.587-.051.485-.235,8.867.537,11.127,1.509,4.418,3.444,5.313,5.832,5.3,5.906-.044,11.083-6.442,16.282-9.889" transform="translate(-498.391 -842.391)"/><path class="ac" d="M518.008,972.166c4.79-14.657,4.9-30.461,2.9-45.751s-3.039-17.9.579-31.852c1.044-4.026,3.693-7.674,8.345-13.36,5.173-6.323,14.781-2.779,21.709,1.55,4.135,2.584,7.644,19.255,8.27,23.776,1.5,10.8,5.738,19.737,5.643,30.6-.088,10.069-4.093,31.485-4.093,41.241C561.357,986.977,529.433,977.507,518.008,972.166Z" transform="translate(-501.506 -825.823)"/><path class="an" d="M555.515,924.921s2.741,30.651,6.37,45.172c.579,2.316-1.263,4.017-1.158,4.633.245,1.445.346,1.963.579,2.9,1.737,6.949,6.37,12.741,10.425,11.582s4.1.666,6.37-.579c2.111-1.158.964-6.946,2.316-6.95Z" transform="translate(-518.744 -847.493)"/><path class="ac" d="M553.52,903.3c1.64,9.554,3.294,19.119,5.622,28.534,2.133,8.625,5.975,16.8,7.907,25.42,1.092,4.873.935,10.827,6.782,12.234,7.345,1.768,14.408-10.465,15.244-16.688.453-3.376-.725-7.164-3.618-8.964-1.213,2.8-2.49,5.7-4.763,7.743a21.342,21.342,0,0,1-4.776,2.964l-7.563,3.815a5.309,5.309,0,0,0-1.938,1.38c-1.457,1.921.122,4.5,1.893,5.53,2.26,1.311,3.469.533,5.559-.591A25.922,25.922,0,0,0,584.5,953.721a11.311,11.311,0,0,0,1.278-3.947,14.988,14.988,0,0,0-.42-4.243c-2.739-14.1-8.508-27.924-9.328-42.268-.579-5.791-6.259-12.028-6.37-11.583" transform="translate(-517.827 -832.206)"/><path class="e" d="M597.082,995.467c2.8,2.3,7.1,1.928,10.176.021s5.174-5.037,6.984-8.173c5.846-10.128,7.206-22.315,15.473-32.786-1.6-.566-7.271-1.3-8.871-1.867a2.364,2.364,0,0,0-1.313-.2c-.5.12-.012-2.227-.286-1.795-3.858,6.062-9.528,17.065-13.778,23.7" transform="translate(-537.847 -859.302)"/><path class="ao" d="M581.243,1012.5c1.321,1.092,3.918.8,5.615.564a5.975,5.975,0,0,0,2.6-1.2c4.836-3.473,7.727-8.842,9.214-14.608a8.94,8.94,0,0,0,.228-2.684c-.071-.788.111-2.382-.228-3.1a23.17,23.17,0,0,0-3.855-5.782c1.121,1.308-7.587,9.5-8.541,10.379-3.393,3.118-7.2,4.995-11.32,6.888a1.794,1.794,0,0,0,.636,1.107C574.873,1005.548,578.61,1010.321,581.243,1012.5Z" transform="translate(-527.678 -875.42)"/><path class="ao" d="M540.772,877.053c1.529-1.235,4.118-1.414,6.439-1.426,3.254-.016,6.68.164,9.411,1.416,3.422,1.569,5.049,4.481,6.129,7.263a13.134,13.134,0,0,1-4.652-1.02,34.77,34.77,0,0,0-14.305-1.415c-1.8.2-4.529,1.144-4.846-.836A5.425,5.425,0,0,1,540.772,877.053Z" transform="translate(-511.119 -824.838)"/></g></g><g transform="translate(214.52 262.182)"><path class="b" d="M220.507,658.447l.748,4.07a.258.258,0,0,0,.188.2l4.654,1.191a.255.255,0,0,1-.009.5l-4.469.956a.255.255,0,0,0-.2.209l-.646,3.993a.255.255,0,0,1-.5.031l-1.153-3.97a.26.26,0,0,0-.185-.178l-4.223-1.023a.255.255,0,0,1-.189-.307h0a.256.256,0,0,1,.186-.188l4.162-1.046a.255.255,0,0,0,.186-.192l.945-4.248a.256.256,0,0,1,.5.007" transform="translate(-214.52 -519.338)"/><path class="b" d="M403.181,739.077a1.854,1.854,0,1,1-1.854,1.854,1.854,1.854,0,0,1,1.854-1.854" transform="translate(-300.373 -556.49)"/><path class="b" d="M459.581,501.691a1.854,1.854,0,1,1-1.854,1.854,1.854,1.854,0,0,1,1.854-1.854" transform="translate(-326.293 -447.391)"/><path class="b" d="M1031.874,401.214a1.854,1.854,0,1,1-1.854,1.854,1.854,1.854,0,0,1,1.854-1.854" transform="translate(-589.309 -401.214)"/><path class="b" d="M1819.159,579a1.854,1.854,0,1,1-1.854,1.854,1.854,1.854,0,0,1,1.854-1.854" transform="translate(-951.131 -482.923)"/><path class="b" d="M1683.16,902a1.882,1.882,0,1,1-1.854,1.854A1.853,1.853,0,0,1,1683.16,902" transform="translate(-888.628 -631.368)"/></g><path class="ad" d="M681.572,708.8a2.126,2.126,0,0,1-1.813-3.64,2.575,2.575,0,0,1-1.14-3.886,1.8,1.8,0,0,1-.972-2.542,3.538,3.538,0,0,1,2.553-1.643c1.027-.207,2.092-.185,3.115-.415,2.314-.519,4.139-2.239,5.841-3.89a2.481,2.481,0,0,1-.661-1.912,5.993,5.993,0,0,1,5.045,2.073,12.107,12.107,0,0,1,2.517,5.024c.657,2.374.944,5-.078,7.236a8.829,8.829,0,0,1-5.065,4.351c-2.068.771-4.287.848-6.3,1.595C683.088,711.708,680.305,711.129,681.572,708.8Z" transform="translate(-212.756 -272.132)"/><path class="ad" d="M746.531,667.119c.414-.2.6-28.412,3.754-42.617a119.475,119.475,0,0,1-12.677-6.374c-3.588,12.215-5.522,34.821-4.976,38.566-7.528,2.9-16.19,6.139-22.113,5.615-3.24-.288-4.253-.378-4.3,3.121a15.261,15.261,0,0,0,2.088,6.321C710.387,674.926,746.115,667.318,746.531,667.119Z" transform="translate(-225.977 -238.722)"/><path class="p" d="M753.949,615.691c5.979,5.685,13.3,5.827,21.386,4.209-.289-6.414,1.474-12.767,1.433-19.187-.045-6.936,6.138-19.191-8.341-17.453-5.779.693-11.155,11.694-12.162,16.216C755.927,601,753.366,615.137,753.949,615.691Z" transform="translate(-247.872 -222.62)"/></g></svg>