<svg xmlns="http://www.w3.org/2000/svg" width="1267" height="377" viewBox="0 0 1267 377"><defs><style>.a{fill:#1e88e5;}.b,.c{fill:#fff;}.b{opacity:0.089;}.c{opacity:0.103;}</style></defs><g transform="translate(-315 -7540)"><rect class="a" width="1267" height="377" rx="26" transform="translate(315 7540)"/><path class="b" d="M13413.974-1002.827v-267.625a170.413,170.413,0,0,0-25.444,3.141c-40.7,8.214-76.981,30.358-115.271,46.411-54.465,22.835-113.175,33.378-169.573,50.905-39.652,12.322-80.474,29.863-104.128,63.992-12.166,17.551-18.849,38.242-24.922,58.716-6.884,23.209-13.205,46.714-17.969,70.46h431.308A26,26,0,0,0,13413.974-1002.827Z" transform="translate(-11831.974 8893.827)"/><path class="c" d="M12426.089-1527.827c-22.362,52.6-62.932,97.44-113.441,124.3-50.268,26.726-109.8,35.332-165.674,24.693v138.827c86.306,14.975,221.311,19.04,373.34-47.228,235.623-102.708,193.32-164.246,453.153-240.587Z" transform="translate(-11831.974 9067.941)"/></g></svg>