<svg xmlns="http://www.w3.org/2000/svg" xmlns:xlink="http://www.w3.org/1999/xlink" width="263.27" height="210.033" viewBox="0 0 263.27 210.033"><defs><style>.a{fill:url(#a);}.b{fill:url(#b);}.c{fill:url(#c);}.d{fill:url(#d);}.e{fill:url(#e);}.f{fill:url(#f);}.g{fill:url(#g);}.h{fill:url(#h);}.i{fill:url(#i);}.j{fill:url(#j);}.k{fill:url(#k);}.l{fill:url(#l);}</style><linearGradient id="a" x1="-22.133" y1="-32.849" x2="2.36" y2="3.241" gradientUnits="objectBoundingBox"><stop offset="0" stop-color="#9769f6"/><stop offset="1" stop-color="#c673f2"/></linearGradient><linearGradient id="b" x1="-0.885" y1="-1.04" x2="3.931" y2="4.315" xlink:href="#a"/><linearGradient id="c" x1="-1.432" y1="-1.649" x2="3.383" y2="3.706" xlink:href="#a"/><linearGradient id="d" x1="-1.98" y1="-2.258" x2="2.836" y2="3.097" xlink:href="#a"/><linearGradient id="e" x1="-1.409" y1="-1.623" x2="3.407" y2="3.733" xlink:href="#a"/><linearGradient id="f" x1="-1.957" y1="-2.232" x2="2.859" y2="3.123" xlink:href="#a"/><linearGradient id="g" x1="-2.504" y1="-2.841" x2="2.311" y2="2.514" xlink:href="#a"/><linearGradient id="h" x1="-1.933" y1="-2.206" x2="2.883" y2="3.15" xlink:href="#a"/><linearGradient id="i" x1="-2.481" y1="-2.815" x2="2.335" y2="2.54" xlink:href="#a"/><linearGradient id="j" x1="-3.029" y1="-3.424" x2="1.787" y2="1.931" xlink:href="#a"/><linearGradient id="k" x1="0.025" y1="0.01" x2="0.758" y2="0.971" xlink:href="#a"/><linearGradient id="l" x1="-3.164" y1="-5.022" x2="1.735" y2="2.083" xlink:href="#a"/></defs><g transform="translate(-2724.501 -2412.363)"><path class="a" d="M2891.482,2616.542h0l-2.389.009a2.705,2.705,0,0,0-1.942.822,2.8,2.8,0,0,0,1.957,4.765h0l2.379-.009a2.705,2.705,0,0,0,1.942-.822,2.8,2.8,0,0,0-1.947-4.765Z"/><path class="b" d="M2803.585,2463.6a7.187,7.187,0,0,0-7.179-7.179h-25.755a7.186,7.186,0,0,0-7.178,7.179v23.355a7.187,7.187,0,0,0,7.178,7.179h25.755a7.188,7.188,0,0,0,7.179-7.179Zm-6.154,23.355a1.027,1.027,0,0,1-1.025,1.026h-25.755a1.027,1.027,0,0,1-1.025-1.026V2463.6a1.027,1.027,0,0,1,1.025-1.026h25.755a1.027,1.027,0,0,1,1.025,1.026Z"/><path class="c" d="M2849.574,2463.6a7.186,7.186,0,0,0-7.179-7.179h-25.754a7.187,7.187,0,0,0-7.179,7.179v23.355a7.188,7.188,0,0,0,7.179,7.179H2842.4a7.187,7.187,0,0,0,7.179-7.179Zm-6.153,23.355a1.028,1.028,0,0,1-1.026,1.026h-25.754a1.028,1.028,0,0,1-1.026-1.026V2463.6a1.028,1.028,0,0,1,1.026-1.026H2842.4a1.028,1.028,0,0,1,1.026,1.026Z"/><path class="d" d="M2888.385,2456.425H2862.63a7.187,7.187,0,0,0-7.179,7.179v23.355a7.188,7.188,0,0,0,7.179,7.179h25.755a7.187,7.187,0,0,0,7.178-7.179V2463.6A7.186,7.186,0,0,0,2888.385,2456.425Zm1.025,30.534a1.027,1.027,0,0,1-1.025,1.026H2862.63a1.027,1.027,0,0,1-1.025-1.026V2463.6a1.027,1.027,0,0,1,1.025-1.026h25.755a1.027,1.027,0,0,1,1.025,1.026Z"/><path class="e" d="M2803.585,2505.7a7.188,7.188,0,0,0-7.179-7.179h-25.755a7.187,7.187,0,0,0-7.178,7.179v23.356a7.186,7.186,0,0,0,7.178,7.178h25.755a7.187,7.187,0,0,0,7.179-7.178Zm-6.154,23.356a1.026,1.026,0,0,1-1.025,1.025h-25.755a1.026,1.026,0,0,1-1.025-1.025V2505.7a1.026,1.026,0,0,1,1.025-1.025h25.755a1.026,1.026,0,0,1,1.025,1.025Z"/><path class="f" d="M2849.574,2505.7a7.187,7.187,0,0,0-7.179-7.179h-25.754a7.188,7.188,0,0,0-7.179,7.179v23.356a7.187,7.187,0,0,0,7.179,7.178H2842.4a7.186,7.186,0,0,0,7.179-7.178Zm-6.153,23.356a1.027,1.027,0,0,1-1.026,1.025h-25.754a1.027,1.027,0,0,1-1.026-1.025V2505.7a1.027,1.027,0,0,1,1.026-1.025H2842.4a1.027,1.027,0,0,1,1.026,1.025Z"/><path class="g" d="M2888.385,2498.523H2862.63a7.188,7.188,0,0,0-7.179,7.179v23.356a7.187,7.187,0,0,0,7.179,7.178h25.755a7.186,7.186,0,0,0,7.178-7.178V2505.7A7.187,7.187,0,0,0,2888.385,2498.523Zm1.025,30.535a1.026,1.026,0,0,1-1.025,1.025H2862.63a1.026,1.026,0,0,1-1.025-1.025V2505.7a1.026,1.026,0,0,1,1.025-1.025h25.755a1.026,1.026,0,0,1,1.025,1.025Z"/><path class="h" d="M2796.406,2540.622h-25.755a7.186,7.186,0,0,0-7.178,7.179v23.355a7.187,7.187,0,0,0,7.178,7.179h25.755a7.188,7.188,0,0,0,7.179-7.179V2547.8A7.187,7.187,0,0,0,2796.406,2540.622Zm1.025,30.534a1.027,1.027,0,0,1-1.025,1.026h-25.755a1.027,1.027,0,0,1-1.025-1.026V2547.8a1.027,1.027,0,0,1,1.025-1.026h25.755a1.027,1.027,0,0,1,1.025,1.026Z"/><path class="i" d="M2842.4,2540.622h-25.754a7.187,7.187,0,0,0-7.179,7.179v23.355a7.188,7.188,0,0,0,7.179,7.179H2842.4a7.187,7.187,0,0,0,7.179-7.179V2547.8A7.186,7.186,0,0,0,2842.4,2540.622Zm1.026,30.534a1.027,1.027,0,0,1-1.026,1.026h-25.754a1.027,1.027,0,0,1-1.026-1.026V2547.8a1.028,1.028,0,0,1,1.026-1.026H2842.4a1.028,1.028,0,0,1,1.026,1.026Z"/><path class="j" d="M2888.385,2540.622H2862.63a7.187,7.187,0,0,0-7.179,7.179v23.355a7.188,7.188,0,0,0,7.179,7.179h25.755a7.187,7.187,0,0,0,7.178-7.179V2547.8A7.186,7.186,0,0,0,2888.385,2540.622Zm1.025,30.534a1.027,1.027,0,0,1-1.025,1.026H2862.63a1.027,1.027,0,0,1-1.025-1.026V2547.8a1.027,1.027,0,0,1,1.025-1.026h25.755a1.027,1.027,0,0,1,1.025,1.026Z"/><path class="k" d="M2946.562,2461.529a41.064,41.064,0,0,0-12.027,1.795v-39.68a11.294,11.294,0,0,0-11.282-11.281h-187.47a11.294,11.294,0,0,0-11.282,11.281v187.471a11.294,11.294,0,0,0,11.282,11.281h139.725a3.077,3.077,0,0,0,0-6.153H2735.783a5.133,5.133,0,0,1-5.128-5.128V2423.644a5.133,5.133,0,0,1,5.128-5.127h187.47a5.133,5.133,0,0,1,5.128,5.127v42.124a41.19,41.19,0,0,0,0,73.94v71.407a5.133,5.133,0,0,1-5.128,5.128h-16.246a3.077,3.077,0,1,0,0,6.153h16.246a11.294,11.294,0,0,0,11.282-11.281v-68.962a41.072,41.072,0,0,0,12.027,1.795h0a41.209,41.209,0,0,0,0-82.419Zm0,76.468a35.259,35.259,0,1,1,35.259-35.259A35.092,35.092,0,0,1,2946.562,2538Z"/><path class="l" d="M2963.277,2489.069a2.945,2.945,0,0,0-2.076.892l-19.423,19.361-7.243-6.433-2.739-2.432a2.982,2.982,0,0,0-3.415-.326,2.916,2.916,0,0,0-.736.572,2.975,2.975,0,0,0,.209,4.212l.527.468,6.154,5.467,7.474,6.642,23.369-23.294.084-.083a2.976,2.976,0,0,0-.067-4.208A3.047,3.047,0,0,0,2963.277,2489.069Z"/></g></svg>