<svg xmlns="http://www.w3.org/2000/svg" xmlns:xlink="http://www.w3.org/1999/xlink" width="252.984" height="248.497" viewBox="0 0 252.984 248.497"><defs><style>.a{fill:url(#a);}.b{fill:url(#b);}.c{fill:url(#c);}.d{fill:url(#d);}.e{fill:url(#e);}.f{fill:url(#f);}.g{fill:url(#g);}.h{fill:url(#h);}</style><linearGradient id="a" x1="-6.239" y1="-25.635" x2="4.473" y2="15.907" gradientUnits="objectBoundingBox"><stop offset="0" stop-color="#654ace"/><stop offset="0.45" stop-color="#5b49ca"/><stop offset="1" stop-color="#003ba8"/></linearGradient><linearGradient id="b" x1="-1.207" y1="-3.968" x2="3.383" y2="8.046" xlink:href="#a"/><linearGradient id="c" x1="-1.012" y1="-3.458" x2="3.578" y2="8.557" xlink:href="#a"/><linearGradient id="d" x1="-14.006" y1="-12.654" x2="31.812" y2="28.895" xlink:href="#a"/><linearGradient id="e" x1="-12.973" y1="-11.718" x2="32.845" y2="29.831" xlink:href="#a"/><linearGradient id="f" x1="-11.941" y1="-10.782" x2="33.877" y2="30.768" xlink:href="#a"/><linearGradient id="g" x1="0.032" y1="-0.003" x2="1.022" y2="0.912" xlink:href="#a"/><linearGradient id="h" x1="-5.38" y1="-7.139" x2="30.8" y2="39.858" xlink:href="#a"/></defs><g transform="translate(-2502.037 -3046.717)"><path class="a" d="M2619.565,3234.952h17.928a2.735,2.735,0,0,0,0-5.471h-17.928a2.735,2.735,0,0,0,0,5.471Z"/><path class="b" d="M2545.858,3169.484h25.376l.247.642a9.441,9.441,0,0,0,17.647,0l.246-.642H2595a2.734,2.734,0,1,0,0-5.469h-5.622l-.246-.642a9.441,9.441,0,0,0-17.647,0l-.247.642h-25.376a2.734,2.734,0,0,0,0,5.469Zm34.446-6.722a3.988,3.988,0,1,1-3.988,3.988A3.993,3.993,0,0,1,2580.3,3162.762Z"/><path class="c" d="M2545.858,3148.07h5.457l.246.642a9.441,9.441,0,0,0,17.646,0l.246-.642H2595a2.735,2.735,0,0,0,0-5.47h-25.543l-.246-.642a9.441,9.441,0,0,0-17.646,0l-.246.642h-5.457a2.735,2.735,0,0,0,0,5.47Zm14.526-6.723a3.988,3.988,0,1,1-3.988,3.988A3.993,3.993,0,0,1,2560.384,3141.347Z"/><path class="d" d="M2595.743,3108.237a2.735,2.735,0,1,0,2.735,2.735A2.738,2.738,0,0,0,2595.743,3108.237Z"/><path class="e" d="M2585.451,3108.237a2.735,2.735,0,1,0,2.735,2.735A2.738,2.738,0,0,0,2585.451,3108.237Z"/><path class="f" d="M2575.158,3108.237a2.735,2.735,0,1,0,2.735,2.735A2.738,2.738,0,0,0,2575.158,3108.237Z"/><path class="g" d="M2744.816,3069.615H2741l2.75-2.75a7.024,7.024,0,0,0,0-9.922l-8.176-8.175a7.024,7.024,0,0,0-9.922,0l-20.847,20.847H2512.242a10.217,10.217,0,0,0-10.2,10.205v155.114a12.709,12.709,0,0,0,12.695,12.7H2604.2v28.422h-19a7.724,7.724,0,0,0-7.716,7.715v3.732a7.724,7.724,0,0,0,7.716,7.715h86.654a7.724,7.724,0,0,0,7.716-7.715v-3.732a7.724,7.724,0,0,0-7.716-7.715h-19V3247.63h89.471a12.71,12.71,0,0,0,12.7-12.7V3079.82A10.217,10.217,0,0,0,2744.816,3069.615Zm-15.29-16.981a1.547,1.547,0,0,1,2.183,0l8.175,8.176a1.544,1.544,0,0,1,0,2.187l-8.505,8.507-10.362-10.361Zm-12.379,12.379,10.36,10.361-4.019,4.019-10.36-10.361Zm-7.888,7.887,10.361,10.362-45.613,45.613-10.361-10.361Zm-5.53,34.563a10.214,10.214,0,1,1-10.213,10.213l.033-.536.269-.347,9.316-9.314.405-.007C2703.619,3107.466,2703.674,3107.463,2703.729,3107.463Zm-34.438,24.433-14.651,5.985,5.985-14.652Zm2.565,149.626a2.248,2.248,0,0,1,2.245,2.246v3.732a2.248,2.248,0,0,1-2.245,2.245H2585.2a2.248,2.248,0,0,1-2.245-2.245v-3.732a2.248,2.248,0,0,1,2.245-2.246Zm-62.183-5.469v-28.422h37.712v28.422Zm139.877-41.119a7.233,7.233,0,0,1-7.224,7.225H2514.732a7.234,7.234,0,0,1-7.225-7.225v-12.056H2749.55Zm0-17.525H2507.507V3079.82a4.741,4.741,0,0,1,4.735-4.734h187.1l-7.7,7.7H2564.285a2.735,2.735,0,1,0,0,5.47h121.889l-28.052,28.054a6.944,6.944,0,0,0-1.509,2.28l-8.344,20.426a4.02,4.02,0,0,0,5.241,5.24l20.426-8.343a6.963,6.963,0,0,0,2.225-1.459l12.429-12.427.56,1.416a15.679,15.679,0,1,0,20.342-20.34l-1.415-.561,14.287-14.285h14.021v115.992h-3.556L2719,3180.3a2.735,2.735,0,1,0-4.738,2.735l12.246,21.21h-54.486l-6.174-10.693,27.243-47.187,12.455,21.574a2.735,2.735,0,0,0,4.738-2.735l-12.364-21.415a5.577,5.577,0,0,0-9.659,0l-25.572,44.293-32.567-56.406a5.576,5.576,0,0,0-9.658,0l-10.288,17.819v-43.769a7.724,7.724,0,0,0-7.715-7.715h-64.077a7.723,7.723,0,0,0-7.715,7.715V3187.4a5.231,5.231,0,0,0,5.225,5.226h49.382l-6.709,11.619h-57.9V3088.251h12.734a2.735,2.735,0,1,0,0-5.47h-12.98a5.231,5.231,0,0,0-5.225,5.225v116.482a5.231,5.231,0,0,0,5.225,5.226h216.2a5.231,5.231,0,0,0,5.224-5.226V3088.006a5.231,5.231,0,0,0-5.224-5.225h-8.8l7.7-7.7h9.284a4.74,4.74,0,0,1,4.734,4.734Zm-144.838-92v61.743h-68.569V3125.41Zm-68.569-5.47v-14.216a2.247,2.247,0,0,1,2.245-2.245h64.078a2.247,2.247,0,0,1,2.246,2.245v14.216Zm68.814,72.684a5.23,5.23,0,0,0,5.224-5.226v-9.5l1.433.688a6.078,6.078,0,0,0,7.873-2.435l6.356-11.008a1.8,1.8,0,0,1,3.129,0l3.918,6.785a6.054,6.054,0,0,0,10.485,0l1.839-3.185,20.5,35.5h-80.823l6.709-11.619Zm5.224-25.373v-6.817l15.118-26.184,16.756,29.023-3.923,6.794-4.423-7.662a7.278,7.278,0,0,0-12.6,0l-6.861,11.884Z"/><path class="h" d="M2547.363,3088h0l2.089-.008a2.414,2.414,0,0,0,0-4.828h0l-2.1.007a2.415,2.415,0,1,0,.013,4.829Z"/></g></svg>