<svg xmlns="http://www.w3.org/2000/svg" xmlns:xlink="http://www.w3.org/1999/xlink" width="156.241" height="209.719" viewBox="0 0 156.241 209.719"><defs><style>.a{fill:url(#a);}.b{fill:url(#b);}.c{fill:url(#c);}.d{fill:url(#d);}</style><linearGradient id="a" x1="-0.475" y1="-5.122" x2="2.478" y2="10.959" gradientUnits="objectBoundingBox"><stop offset="0" stop-color="#00e6ca"/><stop offset="1" stop-color="#3bcee7"/></linearGradient><linearGradient id="b" x1="-4.419" y1="-9.442" x2="13.832" y2="27.445" xlink:href="#a"/><linearGradient id="c" x1="-4.899" y1="-10.412" x2="13.352" y2="26.474" xlink:href="#a"/><linearGradient id="d" x1="0.161" y1="-0.008" x2="0.842" y2="1.017" xlink:href="#a"/></defs><g transform="translate(-2271.093 -3068.915)"><path class="a" d="M2383.374,3117.734a15.661,15.661,0,0,1-13.326,7.094c-9.741,0-13.093-6.628-13.23-6.91a2.522,2.522,0,0,0-2.273-1.435,2.529,2.529,0,0,0-2.364,1.669,2.507,2.507,0,0,0,.094,1.923c.189.4,4.791,9.777,17.772,9.781a20.874,20.874,0,0,0,17.677-9.6,2.514,2.514,0,0,0-4.35-2.523Z"/><circle class="b" cx="2.915" cy="2.915" r="2.915" transform="translate(2359.543 3103.591)"/><circle class="c" cx="2.915" cy="2.915" r="2.915" transform="translate(2373.777 3103.591)"/><path class="d" d="M2406.115,3179.647v-97.834a12.974,12.974,0,0,0-12.9-12.9h-88.554a12.976,12.976,0,0,0-12.9,12.906v58.926a52.05,52.05,0,0,0,0,83.045l.036.029-.036-.022v41.938a12.976,12.976,0,0,0,12.907,12.9h88.551a12.975,12.975,0,0,0,12.9-12.905v-61.467l16.011-15.725v17.151a2.6,2.6,0,0,0,5.208,0v-26.041Zm-40.28-105.365-2.32,8.256H2334l-2.063-8.256Zm-68.709,62.888v-55.352a7.572,7.572,0,0,1,7.531-7.536H2326.4l2.9,11.589a2.674,2.674,0,0,0,2.6,2.035h33.641a2.707,2.707,0,0,0,2.579-1.964l3.282-11.669h21.8a7.575,7.575,0,0,1,7.537,7.53v120.751l-20.362,20.362-13.512-12.387a50.865,50.865,0,0,0,7.731-36.09c-4.557-28.512-30.6-39.888-30.6-39.888a51.825,51.825,0,0,0-46.88,2.63h0Zm88.544,87.824v32.774h-10.416v-32.49l5.286,4.846Zm-15.624-4.489v37.263H2359.63v-46.813Zm-78.289-3.5a46.8,46.8,0,0,1,0-69.508,47.3,47.3,0,0,1,5.369-4.194,46.85,46.85,0,0,1,65.858,63.662l-3.916-3.591a41.636,41.636,0,0,0-61.942-53.608,42.06,42.06,0,0,0-5.369,5.164,41.517,41.517,0,0,0,0,54.623,42,42,0,0,0,5.369,5.149,41.534,41.534,0,0,0,23.743,9.1l-4.565,4.781a46.7,46.7,0,0,1-24.547-11.574Zm58.545-21.663a1.675,1.675,0,0,0-2.345.078l-14.451,15.139c-.023-.242-.02-.487-.06-.727l-4.671-28.045a5.679,5.679,0,0,0-11.2,0l-4.671,28.043a10.158,10.158,0,0,0-.144,1.713v1.959a10.353,10.353,0,0,0,.763,3.869,36.466,36.466,0,0,1-26.67-32.514h12.4v-5.208h-12.4a36.187,36.187,0,0,1,4.907-15.8h0a36.6,36.6,0,0,1,3.9-5.434l1.472,1.472,5.793,5.793L2306.6,3162l-7.265-7.265a36.26,36.26,0,0,1,21.234-8.8v10.284h5.208v-10.284a36.251,36.251,0,0,1,21.233,8.8l-7.265,7.265,3.682,3.682,7.265-7.265a36.249,36.249,0,0,1,8.8,21.233h-10.283v5.208h10.322a36.228,36.228,0,0,1-4.4,14.919Zm4.12,10.839v51.586h-10.416V3207.1l5.33-5.583Zm-31.768,12.5a5.364,5.364,0,0,1-4.689-5.414v-1.727a5.272,5.272,0,0,1,.071-.856l4.671-28.04a.485.485,0,0,1,.927,0l4.672,28.042a4.725,4.725,0,0,1,.076.854v1.959A5.213,5.213,0,0,1,2322.654,3218.682Zm.52,10.246v28.84h-10.417V3239.84Zm5.208-5.458,10.416-10.91v45.208h-10.416Zm-16.408,9.648-14.848,15.556v-21.316A51.679,51.679,0,0,0,2311.974,3233.118Zm-4.425,12.177v12.473h-10.416v-1.562Zm93.2,20.439a7.577,7.577,0,0,1-7.531,7.535h-88.551a7.578,7.578,0,0,1-7.538-7.532v-2.761h103.62Zm.548-7.966h-10.416v-37.982l9.868-9.868h0l.548-.548Zm14.068-69.83-9.247,9.247v-12.33h12.329Z"/></g></svg>