<svg xmlns="http://www.w3.org/2000/svg" xmlns:xlink="http://www.w3.org/1999/xlink" width="244.811" height="193" viewBox="0 0 244.811 193"><defs><style>.a{fill:url(#a);}.b{fill:url(#b);}.c{fill:url(#c);}.d{fill:url(#d);}.e{fill:url(#e);}.f{fill:url(#f);}.g{fill:url(#g);}.h{fill:url(#h);}.i{fill:url(#i);}.j{fill:url(#j);}.k{fill:url(#k);}.l{fill:url(#l);}.m{fill:url(#m);}.n{fill:url(#n);}.o{fill:url(#o);}</style><linearGradient id="a" x1="-3.015" y1="-2.215" x2="16.405" y2="12.785" gradientUnits="objectBoundingBox"><stop offset="0" stop-color="#654ace"/><stop offset="1" stop-color="#9769f6"/></linearGradient><linearGradient id="b" x1="-2.051" y1="-1.47" x2="17.37" y2="13.53" xlink:href="#a"/><linearGradient id="c" x1="-3.98" y1="-2.961" x2="15.442" y2="12.041" xlink:href="#a"/><linearGradient id="d" x1="-2.997" y1="-1.45" x2="7.729" y2="3.943" xlink:href="#a"/><linearGradient id="e" x1="-4.71" y1="-1.929" x2="6.033" y2="3.475" xlink:href="#a"/><linearGradient id="f" x1="-5.6" y1="-0.844" x2="9.498" y2="2.483" xlink:href="#a"/><linearGradient id="g" x1="-0.061" y1="-0.014" x2="0.924" y2="0.951" xlink:href="#a"/><linearGradient id="h" x1="-43.223" y1="-33.272" x2="1.205" y2="1.044" xlink:href="#a"/><linearGradient id="i" x1="-1.833" y1="-1.302" x2="1.031" y2="0.91" xlink:href="#a"/><linearGradient id="j" x1="-4.855" y1="-4.573" x2="1.812" y2="1.588" xlink:href="#a"/><linearGradient id="k" x1="-26.423" y1="-29.928" x2="3.941" y2="4.388" xlink:href="#a"/><linearGradient id="l" x1="-22.041" y1="-24.975" x2="8.323" y2="9.341" xlink:href="#a"/><linearGradient id="m" x1="-33.216" y1="-17.299" x2="11.21" y2="6.154" xlink:href="#a"/><linearGradient id="n" x1="-38.158" y1="-19.907" x2="6.27" y2="3.546" xlink:href="#a"/><linearGradient id="o" x1="-16.938" y1="-21.138" x2="10.68" y2="13.132" xlink:href="#a"/></defs><g transform="translate(-6128.594 475.245)"><path class="a" d="M6238.23-442.515a6.22,6.22,0,0,0-6.212,6.212,6.221,6.221,0,0,0,6.212,6.212,6.22,6.22,0,0,0,6.212-6.212A6.219,6.219,0,0,0,6238.23-442.515Zm0,8.5a2.289,2.289,0,0,1-2.286-2.286,2.289,2.289,0,0,1,2.286-2.286,2.288,2.288,0,0,1,2.286,2.286A2.288,2.288,0,0,1,6238.23-434.017Z" transform="translate(-69.992 -22.15)"/><path class="b" d="M6179.185-442.7a6.219,6.219,0,0,0-6.212,6.212,6.219,6.219,0,0,0,6.212,6.212,6.219,6.219,0,0,0,6.212-6.212A6.219,6.219,0,0,0,6179.185-442.7Zm0,8.5a2.289,2.289,0,0,1-2.286-2.286,2.29,2.29,0,0,1,2.286-2.286,2.289,2.289,0,0,1,2.287,2.286A2.289,2.289,0,0,1,6179.185-434.2Z" transform="translate(-30.033 -22.024)"/><path class="c" d="M6297.278-442.328a6.219,6.219,0,0,0-6.211,6.211,6.219,6.219,0,0,0,6.211,6.212,6.219,6.219,0,0,0,6.212-6.212A6.219,6.219,0,0,0,6297.278-442.328Zm0,8.5a2.288,2.288,0,0,1-2.285-2.286,2.288,2.288,0,0,1,2.285-2.286,2.289,2.289,0,0,1,2.287,2.286A2.289,2.289,0,0,1,6297.278-433.831Z" transform="translate(-109.953 -22.276)"/><path class="d" d="M6264.239-273.855l17.154,14.605a2.638,2.638,0,0,0,1.715.633v.009a2.65,2.65,0,0,0,2.036-.94,2.651,2.651,0,0,0-.314-3.736l-14.781-12.589,14.781-12.589c.027-.021.052-.044.078-.066a2.651,2.651,0,0,0,.227-3.742,2.65,2.65,0,0,0-3.742-.227l-17.154,14.6a2.665,2.665,0,0,0-.3.3A2.651,2.651,0,0,0,6264.239-273.855Z" transform="translate(-91.166 -123.223)"/><path class="e" d="M6421.092-261.143a2.653,2.653,0,0,0,2.658,2.647,2.642,2.642,0,0,0,1.716-.642l17.153-14.6a2.651,2.651,0,0,0,.3-.3,2.653,2.653,0,0,0-.3-3.74l-17.153-14.6a2.651,2.651,0,0,0-3.664.294,2.651,2.651,0,0,0,.227,3.742l14.782,12.589-14.782,12.589A2.65,2.65,0,0,0,6421.092-261.143Z" transform="translate(-197.947 -123.343)"/><path class="f" d="M6352.05-269.71a2.694,2.694,0,0,0,.551.058,2.652,2.652,0,0,0,2.59-2.1l10.689-50.756a2.65,2.65,0,0,0-2-3.076,2.651,2.651,0,0,0-3.182,1.983L6350-272.85A2.65,2.65,0,0,0,6352.05-269.71Z" transform="translate(-149.799 -101.232)"/><path class="g" d="M6373.137-342.552a54.958,54.958,0,0,0-15.795-33.331,54.533,54.533,0,0,0-26.824-14.728v-6.9a9.247,9.247,0,0,0,7-8.959,9.243,9.243,0,0,0-9.232-9.232h-19.552a9.243,9.243,0,0,0-9.232,9.232,9.248,9.248,0,0,0,7,8.959v6.919a54.557,54.557,0,0,0-17.35,7.182V-457.44a17.819,17.819,0,0,0-17.8-17.8H6146.4a17.819,17.819,0,0,0-17.8,17.8v106.049a17.817,17.817,0,0,0,17.8,17.8h104.656a2.712,2.712,0,0,0,.7.094h12.095a55.147,55.147,0,0,0,1.7,10.438h-17.592a2.715,2.715,0,0,0-2.715,2.716,2.715,2.715,0,0,0,2.715,2.715h19.325a54.53,54.53,0,0,0,12.491,19.316,54.95,54.95,0,0,0,33.364,15.8q2.69.266,5.382.265a54.987,54.987,0,0,0,29.935-8.847,2.716,2.716,0,0,0,.794-3.758,2.716,2.716,0,0,0-3.758-.794,49.624,49.624,0,0,1-61.877-6.505,49.478,49.478,0,0,1,0-69.893,49.478,49.478,0,0,1,69.893,0,49.635,49.635,0,0,1,6.54,61.824,2.716,2.716,0,0,0,.8,3.756,2.715,2.715,0,0,0,3.756-.8A55.028,55.028,0,0,0,6373.137-342.552ZM6283.851-438.1v58.531c-1.406,1.15-2.771,2.375-4.082,3.686a55.037,55.037,0,0,0-4.611,5.233c-.068-.005-.136-.01-.206-.01H6255.6a2.715,2.715,0,0,0-2.715,2.715,2.716,2.716,0,0,0,2.715,2.716h15.862a54.4,54.4,0,0,0-4.818,10.437h-29.554a2.716,2.716,0,0,0-2.716,2.716,2.716,2.716,0,0,0,2.716,2.715h28.02a55.1,55.1,0,0,0-1.348,10.438h-12.009a2.717,2.717,0,0,0-.413.035H6146.4a12.512,12.512,0,0,1-12.5-12.5v-90.178h149.955Zm0-8.764H6133.9V-457.44a12.512,12.512,0,0,1,12.5-12.5h124.956a12.513,12.513,0,0,1,12.5,12.5Zm41.236,55.329a55.305,55.305,0,0,0-13.146.01v-5.712h13.146Zm2.715-11.133h-19.065a3.806,3.806,0,0,1-3.8-3.8,3.806,3.806,0,0,1,3.8-3.8h19.552a3.806,3.806,0,0,1,3.8,3.8,3.806,3.806,0,0,1-3.8,3.8Z"/><path class="h" d="M6824.611,57.77a2.717,2.717,0,1,0,1.92.8A2.73,2.73,0,0,0,6824.611,57.77Z" transform="translate(-469.189 -360.716)"/><path class="i" d="M6628.055-178.19a42.172,42.172,0,0,0-42.125,42.125,42.172,42.172,0,0,0,42.125,42.125,42.173,42.173,0,0,0,42.125-42.125A42.173,42.173,0,0,0,6628.055-178.19Zm0,78.819a36.735,36.735,0,0,1-36.693-36.694,36.735,36.735,0,0,1,36.693-36.694,36.736,36.736,0,0,1,36.694,36.694A36.736,36.736,0,0,1,6628.055-99.371Z" transform="translate(-309.5 -201.031)"/><path class="j" d="M6703.312-114.557l-13.45,13.449a8.385,8.385,0,0,0-3.727-.87,8.389,8.389,0,0,0-3.728.87l-6.02-6.019a2.716,2.716,0,0,0-3.841,0,2.716,2.716,0,0,0,0,3.84l6.02,6.019a8.379,8.379,0,0,0-.87,3.727,8.448,8.448,0,0,0,8.438,8.438,8.448,8.448,0,0,0,8.438-8.438,8.392,8.392,0,0,0-.87-3.727l13.055-13.055.395-.395a2.715,2.715,0,0,0,0-3.84A2.715,2.715,0,0,0,6703.312-114.557Zm-17.177,24.024a3.011,3.011,0,0,1-3.008-3.007,3.011,3.011,0,0,1,3.008-3.007,3.011,3.011,0,0,1,3.007,3.007A3.011,3.011,0,0,1,6686.135-90.533Z" transform="translate(-367.58 -243.556)"/><path class="k" d="M6795.109-56.173h-2.516a2.715,2.715,0,0,0-2.715,2.715,2.716,2.716,0,0,0,2.715,2.716h2.516a2.716,2.716,0,0,0,2.715-2.716A2.715,2.715,0,0,0,6795.109-56.173Z" transform="translate(-447.521 -283.605)"/><path class="l" d="M6623.259-56.378h-2.516a2.716,2.716,0,0,0-2.716,2.716,2.716,2.716,0,0,0,2.716,2.715h2.516a2.715,2.715,0,0,0,2.715-2.715A2.716,2.716,0,0,0,6623.259-56.378Z" transform="translate(-331.222 -283.466)"/><path class="m" d="M6710.662-138.145a2.716,2.716,0,0,0,2.716-2.715v-2.516a2.716,2.716,0,0,0-2.716-2.716,2.716,2.716,0,0,0-2.715,2.716v2.516A2.715,2.715,0,0,0,6710.662-138.145Z" transform="translate(-392.074 -222.753)"/><path class="n" d="M6710.458,25.759a2.716,2.716,0,0,0-2.716,2.715V30.99a2.716,2.716,0,1,0,5.431,0V28.474A2.716,2.716,0,0,0,6710.458,25.759Z" transform="translate(-391.936 -339.052)"/><rect class="o" width="8.736" height="5.438" rx="2.719" transform="translate(6230.695 -323.055)"/></g></svg>