<svg xmlns="http://www.w3.org/2000/svg" xmlns:xlink="http://www.w3.org/1999/xlink" width="307.857" height="277.491" viewBox="0 0 307.857 277.491"><defs><style>.a{fill:url(#a);}.b{fill:url(#b);}.c{fill:url(#c);}.d{fill:url(#d);}.e{fill:url(#e);}.f{fill:url(#f);}.g{fill:url(#g);}.h{fill:url(#h);}.i{fill:url(#i);}.j{fill:url(#j);}.k{fill:url(#k);}.l{fill:url(#l);}.m{fill:url(#m);}.n{fill:url(#n);}.o{fill:url(#o);}.p{fill:url(#p);}.q{fill:url(#q);}.r{fill:url(#r);}.s{fill:url(#s);}.t{fill:url(#t);}.u{fill:url(#u);}.v{fill:url(#v);}.w{fill:url(#w);}.x{fill:url(#x);}</style><linearGradient id="a" x1="-2.605" y1="-1.055" x2="1.006" y2="0.754" gradientUnits="objectBoundingBox"><stop offset="0" stop-color="#48c7e2"/><stop offset="1" stop-color="#0999f0"/></linearGradient><linearGradient id="b" x1="-10.559" y1="-13.86" x2="27.094" y2="35.031" xlink:href="#a"/><linearGradient id="c" x1="0.11" y1="0.044" x2="1.557" y2="1.854" xlink:href="#a"/><linearGradient id="d" x1="-2.972" y1="-12.038" x2="10.431" y2="36.362" xlink:href="#a"/><linearGradient id="e" x1="-22.712" y1="-29.64" x2="14.941" y2="19.251" xlink:href="#a"/><linearGradient id="f" x1="-7.298" y1="-27.654" x2="6.105" y2="20.736" xlink:href="#a"/><linearGradient id="g" x1="-35.665" y1="-46.457" x2="1.989" y2="2.433" xlink:href="#a"/><linearGradient id="h" x1="-11.909" y1="-44.308" x2="1.495" y2="4.092" xlink:href="#a"/><linearGradient id="i" x1="-0.431" y1="-0.693" x2="1.232" y2="1.439" xlink:href="#a"/><linearGradient id="j" x1="-26.85" y1="-35.047" x2="10.82" y2="13.913" xlink:href="#a"/><linearGradient id="k" x1="-27.848" y1="-36.345" x2="9.821" y2="12.615" xlink:href="#a"/><linearGradient id="l" x1="-28.848" y1="-37.643" x2="8.823" y2="11.317" xlink:href="#a"/><linearGradient id="m" x1="-29.85" y1="-38.941" x2="7.825" y2="10.019" xlink:href="#a"/><linearGradient id="n" x1="-32.459" y1="-20.332" x2="21.566" y2="13.814" xlink:href="#a"/><linearGradient id="o" x1="-33.757" y1="-21.146" x2="20.267" y2="12.99" xlink:href="#a"/><linearGradient id="p" x1="-35.056" y1="-21.973" x2="18.969" y2="12.173" xlink:href="#a"/><linearGradient id="q" x1="-17.817" y1="-11.075" x2="36.208" y2="23.066" xlink:href="#a"/><linearGradient id="r" x1="-16.518" y1="-10.256" x2="37.506" y2="23.89" xlink:href="#a"/><linearGradient id="s" x1="-16.517" y1="-21.622" x2="21.152" y2="27.348" xlink:href="#a"/><linearGradient id="t" x1="-17.516" y1="-22.92" x2="20.154" y2="26.05" xlink:href="#a"/><linearGradient id="u" x1="-18.515" y1="-24.218" x2="19.156" y2="24.751" xlink:href="#a"/><linearGradient id="v" x1="-19.516" y1="-25.516" x2="18.159" y2="23.453" xlink:href="#a"/><linearGradient id="w" x1="-20.546" y1="-26.859" x2="17.124" y2="22.111" xlink:href="#a"/><linearGradient id="x" x1="-21.578" y1="-28.201" x2="16.091" y2="20.769" xlink:href="#a"/></defs><g transform="translate(-2461.422 -3468.918)"><path class="a" d="M2760.346,3582.075H2706a8.982,8.982,0,0,0-8.934,8.935v112.874a8.983,8.983,0,0,0,8.936,8.931h54.348a8.98,8.98,0,0,0,8.932-8.934V3591.007A8.98,8.98,0,0,0,2760.346,3582.075ZM2742.2,3587.4l-.852,3.033H2724.8l-.758-3.033Zm21.75,116.475a3.63,3.63,0,0,1-3.606,3.61H2706a3.629,3.629,0,0,1-3.609-3.607V3591.012A3.626,3.626,0,0,1,2706,3587.4h12.55l1.588,6.342a2.655,2.655,0,0,0,2.584,2.019h20.644a2.682,2.682,0,0,0,2.561-1.947l1.8-6.42h12.611a3.629,3.629,0,0,1,3.609,3.607Z"/><path class="b" d="M2615.8,3478.945h0l-2.1.008a2.414,2.414,0,1,0,.013,4.828h0l2.089-.008a2.414,2.414,0,0,0,0-4.828Z"/><path class="c" d="M2641.686,3578.141a2.691,2.691,0,0,0-2.68-2.678h-9.438v-95.734a10.838,10.838,0,0,0-10.809-10.811H2483.5a10.84,10.84,0,0,0-10.811,10.811v95.731H2464.1a2.687,2.687,0,0,0-2.677,2.68v5.913a15.547,15.547,0,0,0,15.506,15.505h149.253a15.549,15.549,0,0,0,15.505-15.506Zm-163.632-98.411a5.469,5.469,0,0,1,5.45-5.451h135.257a5.469,5.469,0,0,1,5.451,5.45v95.734h-146.16Zm89.823,101.091a4.168,4.168,0,0,1-4.186,4.012H2539.4a4.165,4.165,0,0,1-4.173-4.012Zm58.3,13.38H2476.93a10.176,10.176,0,0,1-10.151-10.149v-3.231h63.089v0a9.542,9.542,0,0,0,9.544,9.368h24.282a9.541,9.541,0,0,0,9.541-9.37h63.093v3.231A10.173,10.173,0,0,1,2626.18,3594.2Z"/><path class="d" d="M2605.545,3478.979h-.009l-14.631.057a2.414,2.414,0,0,0,.01,4.828h.009l14.632-.057a2.429,2.429,0,0,0,1.7-.714,2.413,2.413,0,0,0-1.715-4.114Z"/><path class="e" d="M2615.8,3648.127h0l-2.1.008a2.412,2.412,0,0,0-2.41,2.418,2.419,2.419,0,0,0,2.423,2.41h0l2.089-.008a2.414,2.414,0,0,0,0-4.828Z"/><path class="f" d="M2605.545,3648.16h-.009l-14.631.058a2.413,2.413,0,0,0-1.69,4.127,2.391,2.391,0,0,0,1.7.7h.009l14.632-.058a2.428,2.428,0,0,0,1.7-.714,2.414,2.414,0,0,0-1.715-4.114Z"/><path class="g" d="M2736.374,3695.423h-.005l-2.1.008a2.414,2.414,0,1,0,.013,4.828h.005l2.088-.008a2.414,2.414,0,0,0,0-4.828Z"/><path class="h" d="M2726.115,3695.457h-.009l-14.631.057a2.418,2.418,0,0,0-2.4,2.424,2.412,2.412,0,0,0,2.414,2.4h.008l14.632-.057a2.417,2.417,0,0,0,2.406-2.425,2.414,2.414,0,0,0-2.416-2.4Z"/><path class="i" d="M2618.759,3635.522H2483.5a10.841,10.841,0,0,0-10.811,10.812V3735.6a10.839,10.839,0,0,0,10.81,10.81h135.257a10.837,10.837,0,0,0,10.809-10.811v-89.265A10.839,10.839,0,0,0,2618.759,3635.522Zm5.448,100.075a5.469,5.469,0,0,1-5.449,5.451H2483.5a5.471,5.471,0,0,1-5.451-5.45l0-89.263a5.469,5.469,0,0,1,5.45-5.451h135.257a5.469,5.469,0,0,1,5.45,5.45Z"/><path class="j" d="M2644.7,3673.688h-2.1a2.415,2.415,0,1,0,0,4.829h2.094a2.419,2.419,0,0,0,2.414-2.414h0A2.422,2.422,0,0,0,2644.7,3673.688Z"/><path class="k" d="M2657.3,3673.688h-2.1a2.415,2.415,0,0,0,0,4.829h2.095a2.419,2.419,0,0,0,2.414-2.414h0A2.421,2.421,0,0,0,2657.3,3673.688Z"/><path class="l" d="M2669.9,3673.688h-2.1a2.415,2.415,0,0,0,0,4.829h2.1a2.419,2.419,0,0,0,2.414-2.414h0A2.42,2.42,0,0,0,2669.9,3673.688Z"/><path class="m" d="M2682.492,3673.688h-2.1a2.415,2.415,0,0,0,0,4.829h2.094a2.419,2.419,0,0,0,2.414-2.414h0A2.42,2.42,0,0,0,2682.492,3673.688Z"/><path class="n" d="M2710.949,3542.687a2.414,2.414,0,1,0-4.828,0v2.094a2.419,2.419,0,0,0,2.414,2.414h0a2.42,2.42,0,0,0,2.415-2.409Z"/><path class="o" d="M2710.949,3555.283a2.414,2.414,0,1,0-4.828,0v2.1a2.422,2.422,0,0,0,1.665,2.294l-.061.122h.809a2.423,2.423,0,0,0,2.415-2.41Z"/><path class="p" d="M2710.949,3569.98v-2.1a2.414,2.414,0,0,0-4.828,0v2.1a2.419,2.419,0,0,0,2.414,2.414h0A2.423,2.423,0,0,0,2710.949,3569.98Z"/><path class="q" d="M2504.468,3625.175a2.414,2.414,0,1,0,4.828,0v-2.1a2.423,2.423,0,0,0-2.413-2.413h0a2.421,2.421,0,0,0-2.415,2.41Z"/><path class="r" d="M2504.468,3610.478v2.1a2.414,2.414,0,0,0,4.828,0v-2.1a2.421,2.421,0,0,0-2.414-2.413h0A2.422,2.422,0,0,0,2504.468,3610.478Z"/><path class="s" d="M2644.7,3529.91h-2.1a2.414,2.414,0,1,0,0,4.828h2.095a2.421,2.421,0,0,0,2.413-2.414h0A2.422,2.422,0,0,0,2644.7,3529.91Z"/><path class="t" d="M2657.3,3529.91h-2.1a2.414,2.414,0,0,0,0,4.828h2.1a2.421,2.421,0,0,0,2.413-2.414h0A2.422,2.422,0,0,0,2657.3,3529.91Z"/><path class="u" d="M2669.9,3529.91h-2.1a2.414,2.414,0,0,0,0,4.828h2.1a2.421,2.421,0,0,0,2.413-2.414h0A2.42,2.42,0,0,0,2669.9,3529.91Z"/><path class="v" d="M2682.492,3529.91h-2.1a2.414,2.414,0,0,0,0,4.828h2.095a2.421,2.421,0,0,0,2.413-2.414h0A2.42,2.42,0,0,0,2682.492,3529.91Z"/><path class="w" d="M2697.925,3532.324h0a2.422,2.422,0,0,0-2.41-2.415h-2.1a2.414,2.414,0,0,0,0,4.828h2.1A2.421,2.421,0,0,0,2697.925,3532.324Z"/><path class="x" d="M2706.439,3534.738h2.1a2.421,2.421,0,0,0,2.413-2.414h0a2.422,2.422,0,0,0-2.41-2.415h-2.1a2.414,2.414,0,0,0,0,4.828Z"/></g></svg>