<svg xmlns="http://www.w3.org/2000/svg" xmlns:xlink="http://www.w3.org/1999/xlink" width="190.718" height="190.989" viewBox="0 0 190.718 190.989"><defs><style>.a{fill:url(#a);}.b{fill:url(#b);}.c{fill:url(#c);}.d{fill:url(#d);}.e{fill:url(#e);}</style><linearGradient id="a" x1="-1.185" y1="-1.63" x2="0.773" y2="0.845" gradientUnits="objectBoundingBox"><stop offset="0" stop-color="#003ba8"/><stop offset="1" stop-color="#1783e3"/></linearGradient><linearGradient id="b" x1="-3.233" y1="-4.248" x2="1.104" y2="1.268" xlink:href="#a"/><linearGradient id="c" x1="0.035" y1="-0.092" x2="1.457" y2="1.718" xlink:href="#a"/><linearGradient id="d" x1="0.127" y1="0.125" x2="0.901" y2="1.108" xlink:href="#a"/><linearGradient id="e" x1="-8.896" y1="-11.063" x2="10.142" y2="12.365" xlink:href="#a"/></defs><g transform="translate(-2801.69 -3078.291)"><path class="a" d="M2990.726,3228.314l-4.574-2.017-.048-.171c-.169-.61-.354-1.2-.55-1.767l-.056-.162,2.544-4.384a2.843,2.843,0,0,0,.022-2.792,35.821,35.821,0,0,0-4.55-6.357,2.8,2.8,0,0,0-2.728-.867l-4.817,1.1-.141-.109q-.675-.527-1.388-1.024l-.142-.1-.465-5.1a2.824,2.824,0,0,0-1.625-2.3,34.193,34.193,0,0,0-7.33-2.46,2.79,2.79,0,0,0-2.713.918l-3.364,3.906h-1.9l-3.363-3.905a2.779,2.779,0,0,0-2.713-.92,34.239,34.239,0,0,0-7.329,2.46,2.823,2.823,0,0,0-1.627,2.3l-.465,5.1-.143.1q-.713.5-1.386,1.023l-.141.11-4.817-1.1a2.8,2.8,0,0,0-2.727.866,35.445,35.445,0,0,0-4.548,6.361,2.835,2.835,0,0,0,.021,2.789l2.542,4.383-.056.162c-.2.57-.381,1.16-.552,1.769l-.048.17-4.573,2.017a2.823,2.823,0,0,0-1.683,2.582v7.231a2.817,2.817,0,0,0,1.683,2.579l4.573,2.019.048.171c.17.61.353,1.2.552,1.765l.055.162-2.544,4.386a2.84,2.84,0,0,0-.021,2.793,35.638,35.638,0,0,0,4.55,6.355,2.8,2.8,0,0,0,2.73.869l4.812-1.1.141.111c.449.355.915.7,1.388,1.026l.143.1.465,5.1a2.825,2.825,0,0,0,1.625,2.3,34.193,34.193,0,0,0,7.33,2.46,2.789,2.789,0,0,0,2.713-.919l3.364-3.905h1.9l3.363,3.9a2.81,2.81,0,0,0,2.134.98h.015a2.7,2.7,0,0,0,.565-.06,34.222,34.222,0,0,0,7.329-2.459,2.824,2.824,0,0,0,1.626-2.3l.465-5.1.143-.1q.713-.5,1.388-1.024l.14-.109,4.817,1.1a2.806,2.806,0,0,0,2.727-.868,35.743,35.743,0,0,0,4.551-6.357,2.842,2.842,0,0,0-.022-2.793l-2.544-4.385.056-.162c.2-.569.382-1.155.551-1.765l.048-.17,4.574-2.019a2.817,2.817,0,0,0,1.682-2.58V3230.9A2.821,2.821,0,0,0,2990.726,3228.314Zm-3.956,7.976-4.158,1.833a2.818,2.818,0,0,0-1.61,1.955,24.418,24.418,0,0,1-1.223,3.912,2.848,2.848,0,0,0,.163,2.5l2.39,4.116-.124.194c-.515.8-1.082,1.594-1.687,2.362l-.147.188-4.512-1.035a2.8,2.8,0,0,0-2.49.633,24.159,24.159,0,0,1-3.241,2.4,2.841,2.841,0,0,0-1.327,2.141l-.435,4.792-.216.084c-.874.344-1.753.642-2.611.886l-.23.067-3.083-3.58a2.82,2.82,0,0,0-2.136-.981h-4.487a2.821,2.821,0,0,0-2.136.981l-3.082,3.579-.231-.066c-.859-.244-1.738-.542-2.611-.886l-.216-.084-.435-4.792a2.836,2.836,0,0,0-1.329-2.141,23.873,23.873,0,0,1-3.235-2.394,2.836,2.836,0,0,0-2.5-.636l-4.509,1.032-.146-.186c-.593-.748-1.161-1.542-1.688-2.359l-.124-.194,2.39-4.117a2.846,2.846,0,0,0,.165-2.5,24.365,24.365,0,0,1-1.225-3.915,2.819,2.819,0,0,0-1.609-1.954l-4.158-1.833v-3.559l4.158-1.833a2.813,2.813,0,0,0,1.609-1.954,24.626,24.626,0,0,1,1.224-3.919,2.843,2.843,0,0,0-.164-2.5l-2.387-4.115.124-.193c.522-.811,1.088-1.6,1.685-2.361l.146-.185,4.512,1.032a2.806,2.806,0,0,0,2.491-.634,24.276,24.276,0,0,1,3.24-2.392,2.842,2.842,0,0,0,1.327-2.143l.435-4.791.216-.084c.874-.344,1.753-.641,2.611-.886l.231-.066,3.082,3.579a2.817,2.817,0,0,0,2.137.981h4.486a2.82,2.82,0,0,0,2.137-.981l3.083-3.578.23.065c.85.241,1.728.538,2.611.886l.216.084.435,4.791a2.841,2.841,0,0,0,1.328,2.143,24.272,24.272,0,0,1,3.238,2.391,2.811,2.811,0,0,0,2.491.635l4.513-1.032.147.185c.6.762,1.168,1.557,1.687,2.364l.124.193-2.39,4.116a2.853,2.853,0,0,0-.164,2.5,24.425,24.425,0,0,1,1.224,3.915,2.815,2.815,0,0,0,1.609,1.952l4.159,1.834Z"/><path class="b" d="M2957.849,3218.913a15.6,15.6,0,1,0,15.6,15.6A15.615,15.615,0,0,0,2957.849,3218.913Zm0,25.557a9.958,9.958,0,1,1,9.959-9.959A9.969,9.969,0,0,1,2957.849,3244.47Z"/><path class="c" d="M2890.763,3091.13a47.544,47.544,0,1,0,47.544,47.544A47.6,47.6,0,0,0,2890.763,3091.13Zm11.947,87.691a41.9,41.9,0,1,1-11.957-82.051h.01a41.643,41.643,0,0,1,11.945,1.756l.769.231-1.29.846c-.567.367-1.152.746-1.673,1.138a2.822,2.822,0,0,0-.984,3.134l1.541,4.691-.174.164c-.592.559-1.179,1.145-1.744,1.743l-.163.173-4.687-1.54a2.842,2.842,0,0,0-3.133.982,47.453,47.453,0,0,0-5.827,9.975,2.816,2.816,0,0,0,.713,3.205l3.732,3.341-.07.229c-.235.768-.451,1.568-.643,2.377l-.055.231-4.863,1.023a2.832,2.832,0,0,0-2.238,2.759v10.893a2.833,2.833,0,0,0,2.238,2.759l4.863,1.022.055.232c.188.79.4,1.59.64,2.378l.068.228-3.727,3.341a2.816,2.816,0,0,0-.713,3.2,47.624,47.624,0,0,0,5.821,9.973,2.816,2.816,0,0,0,3.135.983l4.691-1.54.163.174c.562.595,1.149,1.182,1.743,1.743l.174.163-1.54,4.689a2.824,2.824,0,0,0,.981,3.131c.529.4,1.126.786,1.7,1.16l1.267.83Zm19.167-12.177a41.971,41.971,0,0,1-11.691,9.127l-.172.091-.174-.089a45.187,45.187,0,0,1-4.065-2.352l-.241-.157,1.473-4.481a2.815,2.815,0,0,0-.857-3.034,35.206,35.206,0,0,1-4.133-4.131,2.824,2.824,0,0,0-3.034-.852l-4.485,1.476-.159-.233a42.507,42.507,0,0,1-2.848-4.854l-.129-.256,3.565-3.195a2.809,2.809,0,0,0,.774-3.057,34.823,34.823,0,0,1-1.517-5.623,2.808,2.808,0,0,0-2.2-2.257l-4.431-.933v-6.319l4.431-.933a2.809,2.809,0,0,0,2.2-2.257,35.337,35.337,0,0,1,1.517-5.63,2.806,2.806,0,0,0-.774-3.053l-3.565-3.193.129-.256a42.69,42.69,0,0,1,2.848-4.853l.159-.234,4.489,1.477a2.827,2.827,0,0,0,3.036-.857,35.341,35.341,0,0,1,4.129-4.133,2.818,2.818,0,0,0,.854-3.032l-1.473-4.479.242-.157a45.133,45.133,0,0,1,4.064-2.351l.174-.089.172.091a41.987,41.987,0,0,1,11.692,9.129l.407.454-.589.158a28.328,28.328,0,0,0,0,54.714l.589.158Zm4.18-50.46.13.2a41.72,41.72,0,0,1,0,44.571l-.13.2-.241-.034a22.685,22.685,0,0,1-19.223-25.687,22.811,22.811,0,0,1,19.223-19.224Z"/><path class="d" d="M2944.68,3165.563l.243-.5,3.866,4.255a2.868,2.868,0,0,0,2.664.862,30.992,30.992,0,0,0,6.633-2.223,2.847,2.847,0,0,0,1.648-2.313l.41-4.454.14-.1q.524-.371,1.024-.757l.139-.108,4.2.961a2.791,2.791,0,0,0,2.734-.87,32.551,32.551,0,0,0,4.1-5.732,2.845,2.845,0,0,0,0-2.828l-2.222-3.831.054-.162c.148-.434.284-.877.413-1.33l.048-.169,3.993-1.762a2.819,2.819,0,0,0,1.682-2.579v-6.508a2.813,2.813,0,0,0-1.683-2.579h0l-3.992-1.761-.048-.17c-.129-.452-.265-.9-.413-1.329l-.054-.162,2.222-3.832a2.848,2.848,0,0,0,0-2.83,32.512,32.512,0,0,0-4.1-5.729,2.807,2.807,0,0,0-2.734-.871l-4.2.961-.139-.108c-.337-.259-.678-.512-1.026-.754l-.142-.1-.41-4.457a2.838,2.838,0,0,0-1.623-2.3,30.91,30.91,0,0,0-6.655-2.234,2.811,2.811,0,0,0-2.649.851l-3.9,4.233-.242-.488a60.253,60.253,0,0,0-107.951,53.556c.878,1.772,1.857,3.523,2.91,5.205l.142.225-8.712,10.89a2.844,2.844,0,0,0-.592,2.137,2.808,2.808,0,0,0,1.137,1.905l7.258,5.278-.25.307-36.291,44.664a2.825,2.825,0,0,0,.417,3.973l15.983,12.787a2.836,2.836,0,0,0,3.951-.425l15.048-18.564a2.819,2.819,0,1,0-4.379-3.55l-13.281,16.388-11.571-9.258,34.942-43,12,8.729-7.863,9.677a2.819,2.819,0,0,0,4.376,3.556l8.056-9.914,6.747,4.908a2.816,2.816,0,0,0,3.861-.517l10.106-12.634.219.038A59.95,59.95,0,0,0,2944.68,3165.563Zm7.148-52.5.223.064c.657.191,1.331.419,2,.678l.217.083.379,4.141a2.8,2.8,0,0,0,1.311,2.132,21.047,21.047,0,0,1,2.9,2.142,2.816,2.816,0,0,0,2.49.627l3.884-.89.147.19c.449.578.876,1.174,1.268,1.773l.127.194-2.062,3.557a2.792,2.792,0,0,0-.181,2.452,22.164,22.164,0,0,1,1.1,3.536,2.8,2.8,0,0,0,1.606,1.944l3.572,1.575v2.835l-3.571,1.574a2.81,2.81,0,0,0-1.612,1.961,22.158,22.158,0,0,1-1.083,3.478,2.832,2.832,0,0,0,.163,2.5l2.063,3.555-.127.2q-.582.891-1.236,1.733l-.179.23-3.883-.89a2.786,2.786,0,0,0-2.547.679,17.274,17.274,0,0,1-2.821,2.079,2.843,2.843,0,0,0-1.333,2.144l-.378,4.139-.217.084c-.661.257-1.332.483-1.993.676l-.225.065-4.482-4.934.111-.3a58.761,58.761,0,0,0-.052-40.9l-.08-.214Zm-83.947,92.033-7.1-5.159-23.48-17.079,5.828-7.282.293.371a60.67,60.67,0,0,0,30.6,20.642l.531.155Zm25.494-11.8a54.683,54.683,0,1,1,52.009-52.009A54.741,54.741,0,0,1,2893.375,3193.295Z"/><path class="e" d="M2841.457,3219.976l0,0-1.556,1.813a2.707,2.707,0,0,0-.649,2.006,2.8,2.8,0,0,0,4.884,1.638l0-.005,1.549-1.8a2.71,2.71,0,0,0,.65-2.007,2.8,2.8,0,0,0-.971-1.9A2.775,2.775,0,0,0,2841.457,3219.976Z"/></g></svg>