<svg xmlns="http://www.w3.org/2000/svg" xmlns:xlink="http://www.w3.org/1999/xlink" width="64.143" height="64.144" viewBox="0 0 64.143 64.144"><defs><style>.a{fill:url(#a);}</style><linearGradient id="a" x1="0.163" y1="0.131" x2="0.837" y2="0.869" gradientUnits="objectBoundingBox"><stop offset="0" stop-color="#3bcee7"/><stop offset="1" stop-color="#0999f0"/></linearGradient></defs><g transform="translate(-332.999 -1860)"><g transform="translate(-48 -179)"><g transform="translate(-3533.182 1492.194)"><path class="a" d="M3946.252,610.95a32.072,32.072,0,1,1,32.072-32.073A32.108,32.108,0,0,1,3946.252,610.95Zm0-61.144a29.072,29.072,0,1,0,29.072,29.071A29.1,29.1,0,0,0,3946.252,549.806Z"/><path class="a" d="M3942.577,589.468l-10.7-9.507a1.5,1.5,0,0,1,1.992-2.243l8.592,7.632,16.117-16.066a1.5,1.5,0,1,1,2.117,2.125Z"/></g></g></g></svg>