<svg xmlns="http://www.w3.org/2000/svg" xmlns:xlink="http://www.w3.org/1999/xlink" width="1588.697" height="1607.839" viewBox="0 0 1588.697 1607.839"><defs><style>.a{opacity:0.554;fill:url(#a);}</style><linearGradient id="a" x1="0.5" y1="1" x2="0.5" gradientUnits="objectBoundingBox"><stop offset="0" stop-color="#09a7fe"/><stop offset="1" stop-color="#1783e3"/></linearGradient></defs><path class="a" d="M967.057,520.6C942.223,550.18,911.839,574.955,889,606.1c-65.758,89.658-57.206,211.625-84.345,319.44a478.917,478.917,0,0,1-115.788,210.982c-25.473,26.95-54.53,51.182-88.285,66.534-34.679,15.777-73.023,21.641-111,24.652-39.774,3.155-79.918,3.354-119.44-2.111A425.222,425.222,0,0,1,85.7,1053.3C11.6,949.255-11.391,814.453,5.032,687.775s69.52-246.169,135.918-355.293c52.737-86.662,115.133-168.986,195.181-231.31S515.458-2.415,616.873.11C685.495,1.817,752.01,23.1,816.666,46.124c98.584,35.108,169.418,73.962,202.766,175.259C1052.537,321.907,1035.988,438.495,967.057,520.6Z" transform="translate(0 679.603) rotate(-41)"/></svg>