<svg xmlns="http://www.w3.org/2000/svg" width="635.111" height="1274.23" viewBox="0 0 635.111 1274.23"><defs><style>.a{fill:rgba(101,74,206,0.04);stroke:rgba(0,0,0,0);stroke-miterlimit:10;}</style></defs><path class="a" d="M-4710,6353.184h0V5080.121c4.858,1.418,9.646,2.908,14.23,4.427a382.69,382.69,0,0,1,40.575,16.039,365.445,365.445,0,0,1,36.338,19.421,367.074,367.074,0,0,1,32.481,22.312c9.905,7.618,19.663,15.932,29,24.71,8.805,8.276,17.52,17.231,25.9,26.615,7.824,8.76,15.623,18.19,23.18,28.028A665.2,665.2,0,0,1-4468.583,5280c11.082,18.1,22.619,38.09,35.272,61.109,11.293,20.546,22.394,41.518,33.129,61.8,18.963,35.826,38.573,72.872,59.809,108.64,11.424,19.243,22.4,36.6,33.557,53.065,12.518,18.473,24.932,35.342,37.949,51.574,18.22,22.716,38.536,45.21,58.183,66.964,22.341,24.737,45.443,50.316,65.535,76.306a474.411,474.411,0,0,1,27.834,39.708c4.289,6.9,8.267,13.8,11.824,20.519,3.735,7.054,7.133,14.142,10.1,21.067a240.2,240.2,0,0,1,19.023,79.891,257.643,257.643,0,0,1-8.5,82.363,309.865,309.865,0,0,1-34.961,80.868,389.308,389.308,0,0,1-60.371,75.408,471.98,471.98,0,0,1-40.03,34.952c-14.02,10.944-29.188,21.587-45.082,31.634-15.592,9.856-32.252,19.371-49.519,28.281-16.967,8.755-34.914,17.13-53.341,24.891a910.76,910.76,0,0,1-115.689,39.471,1068.655,1068.655,0,0,1-123.6,25.483c-15.956,2.331-32.627,4.23-50.964,5.807-15.58,1.339-32.451,2.446-51.578,3.384Z" transform="translate(4710.5 -5079.454)"/></svg>