<svg xmlns="http://www.w3.org/2000/svg" xmlns:xlink="http://www.w3.org/1999/xlink" width="490.934" height="513.994" viewBox="0 0 490.934 513.994"><defs><style>.a{opacity:0.554;fill:url(#a);}</style><linearGradient id="a" x1="0.5" y1="1" x2="0.5" gradientUnits="objectBoundingBox"><stop offset="0" stop-color="#29218c"/><stop offset="1" stop-color="#0999f0"/></linearGradient></defs><path class="a" d="M313.982,169.026c-8.063,9.6-17.928,17.649-25.345,27.761-21.35,29.11-18.573,68.71-27.385,103.715A155.494,155.494,0,0,1,223.659,369c-8.27,8.75-17.7,16.618-28.664,21.6-11.26,5.123-23.709,7.026-36.04,8a179.641,179.641,0,0,1-38.779-.685,138.06,138.06,0,0,1-92.35-55.942C3.766,308.2-3.7,264.435,1.634,223.305s22.571-79.925,44.13-115.356c17.123-28.137,37.381-54.866,63.371-75.1S167.358-.784,200.285.036c22.28.554,43.876,7.464,64.868,14.94,32.008,11.4,55.006,24.014,65.833,56.9C341.736,104.516,336.363,142.369,313.982,169.026Z" transform="matrix(-0.866, -0.5, 0.5, -0.866, 291.27, 513.994)"/></svg>