<svg xmlns="http://www.w3.org/2000/svg" xmlns:xlink="http://www.w3.org/1999/xlink" width="517.044" height="509.354" viewBox="0 0 517.044 509.354"><defs><style>.a{opacity:0.554;fill:url(#a);}</style><linearGradient id="a" x1="0.5" y1="1" x2="0.5" gradientUnits="objectBoundingBox"><stop offset="0" stop-color="#09a7fe"/><stop offset="1" stop-color="#1783e3"/></linearGradient></defs><path class="a" d="M310.946,167.392c-7.985,9.512-17.755,17.478-25.1,27.492C264.7,223.713,267.452,262.93,258.726,297.6a153.99,153.99,0,0,1-37.23,67.839c-8.19,8.665-17.534,16.457-28.387,21.393-11.151,5.073-23.48,6.958-35.692,7.927a177.9,177.9,0,0,1-38.4-.679,136.726,136.726,0,0,1-91.457-55.4c-23.827-33.454-31.219-76.8-25.938-117.53s22.353-79.153,43.7-114.24c16.957-27.865,37.02-54.336,62.758-74.375S165.739-.777,198.348.035c22.064.549,43.452,7.392,64.241,14.8,31.7,11.289,54.474,23.782,65.2,56.352C338.431,103.506,333.11,140.993,310.946,167.392Z" transform="matrix(-0.643, -0.766, 0.766, -0.643, 214.098, 509.354)"/></svg>