<svg xmlns="http://www.w3.org/2000/svg" xmlns:xlink="http://www.w3.org/1999/xlink" width="610.266" height="638.931" viewBox="0 0 610.266 638.931"><defs><style>.a{opacity:0.554;fill:url(#a);}</style><linearGradient id="a" x1="0.5" y1="1" x2="0.5" gradientUnits="objectBoundingBox"><stop offset="0" stop-color="#29218c"/><stop offset="1" stop-color="#9769f6"/></linearGradient></defs><path class="a" d="M390.3,210.112c-10.023,11.939-22.286,21.939-31.505,34.509-26.54,36.186-23.088,85.411-34.041,128.925A193.29,193.29,0,0,1,278.024,458.7c-10.281,10.877-22.008,20.657-35.632,26.853-14,6.368-29.472,8.734-44.8,9.95-16.053,1.273-32.255,1.354-48.206-.852a171.619,171.619,0,0,1-114.8-69.54C4.681,383.117-4.6,328.711,2.031,277.584s28.058-99.353,54.856-143.4c21.285-34.976,46.468-68.2,78.774-93.356S208.038-.975,248.969.044c27.7.689,54.541,9.278,80.636,18.571,39.788,14.169,68.377,29.851,81.836,70.734C424.8,129.921,418.123,176.975,390.3,210.112Z" transform="matrix(-0.866, -0.5, 0.5, -0.866, 362.069, 638.932)"/></svg>