<svg xmlns="http://www.w3.org/2000/svg" xmlns:xlink="http://www.w3.org/1999/xlink" width="797.132" height="834.574" viewBox="0 0 797.132 834.574"><defs><style>.a{opacity:0.554;fill:url(#a);}</style><linearGradient id="a" x1="0.5" y1="1" x2="0.5" gradientUnits="objectBoundingBox"><stop offset="0" stop-color="#9769f6"/><stop offset="1" stop-color="#29218c"/></linearGradient></defs><path class="a" d="M509.814,274.449c-13.092,15.595-29.11,28.656-41.152,45.076C434,366.791,438.5,431.089,424.2,487.927a252.476,252.476,0,0,1-61.041,111.226c-13.429,14.207-28.747,26.982-46.542,35.076-18.282,8.317-38.5,11.409-58.518,13-20.968,1.663-42.131,1.768-62.966-1.113A224.169,224.169,0,0,1,45.18,555.279C6.114,500.428-6,429.364,2.653,362.582S39.3,232.806,74.307,175.278c27.8-45.686,60.7-89.086,102.9-121.942S271.74-1.273,325.2.058c36.176.9,71.241,12.119,105.327,24.258,51.972,18.508,89.314,38.991,106.894,92.393C554.878,169.7,546.153,231.166,509.814,274.449Z" transform="matrix(-0.866, -0.5, 0.5, -0.866, 472.936, 834.575)"/></svg>