<svg xmlns="http://www.w3.org/2000/svg" xmlns:xlink="http://www.w3.org/1999/xlink" width="1922.908" height="643.024" viewBox="0 0 1922.908 643.024"><defs><style>.a{fill:url(#a);}</style><linearGradient id="a" x1="-1.456" y1="1.814" x2="1.082" y2="3.333" gradientUnits="objectBoundingBox"><stop offset="0" stop-color="#003b9a"/><stop offset="1" stop-color="#654ace"/></linearGradient></defs><path class="a" d="M844.009,2353.749c-127.406,0-253.166-10.281-373.787-30.565-31.24-5.252-62.508-11.251-92.934-17.828-30.963-6.693-61.884-14.166-91.908-22.21-30.545-8.183-60.982-17.179-90.469-26.74-30.027-9.736-59.843-20.309-88.621-31.426.026-2.192.024-294.543.022-514.255H2029.2v500.23c-.181,0-20.99.5-56.732,2.449-33.125,1.808-86.41,5.278-152.145,11.543-73.867,7.041-148.044,16.1-220.472,26.928-42.99,6.428-85.854,13.559-127.4,21.2-45.679,8.4-90.871,17.622-134.32,27.405a2158.21,2158.21,0,0,1-238.279,39.376c-41.621,4.555-84.117,8.035-126.313,10.347C930.6,2352.555,887.019,2353.748,844.009,2353.749Z" transform="translate(-106.29 -1710.725)"/></svg>