<svg xmlns="http://www.w3.org/2000/svg" width="674.161" height="1372.976" viewBox="0 0 674.161 1372.976"><defs><style>.a{fill:rgba(101,74,206,0.04);}</style></defs><path class="a" d="M557.636,1360.477c-59.877,2.052-121.285,15.556-180.969,11.863-111.514-6.9-220.422-52.814-292.2-140.208C14.5,1146.938-14.716,1029.688,7.1,921.624c17.353-85.969,64.129-162.615,98.039-243.5,48.237-115.052,70.507-239.07,107.532-358.205,26.03-83.763,63.083-169.993,135.177-219.961,37.074-25.7,80.783-39.817,124.031-52.645C538.255,27.629,605.778,10.1,674.16,0V1358.659C635.312,1358.954,596.462,1359.147,557.636,1360.477Z" transform="translate(674.16 1372.976) rotate(180)"/></svg>