<svg xmlns="http://www.w3.org/2000/svg" xmlns:xlink="http://www.w3.org/1999/xlink" width="909.671" height="767.068" viewBox="0 0 909.671 767.068"><defs><style>.a{fill:none;}.b{fill:#489fd8;}.c{fill:#fff;}.d{fill:#17134a;}.e{fill:#292180;}.f{fill:rgba(82,189,255,0.61);}.g{fill:#0999f0;}.h{fill:#1f1961;}.i{fill:#292080;}.j{fill:url(#a);}.k{fill:#2379cc;}.l{fill:#365eab;}.m{fill:#52bdff;}.n{fill:#396ab3;}.o,.t{fill:#3d439b;}.p{fill:#917d5b;}.q{fill:#dcb0ff;}.r{fill:#3b7cc0;}.s{fill:#bf83ed;}.t{opacity:0.2;}.u{fill:#c570f2;}.v{fill:#ab66d8;}.w{fill:#9ce5ff;}.x{fill:#c17bef;}.y{fill:#001738;}.z{fill:#00d8bc;}.aa{fill:#8969e8;}.ab{clip-path:url(#b);}.ac{fill:#784721;}.ad{fill:#0a1b34;}.ae{fill:#3f2b29;}.af{fill:#2d1e1c;}.ag{fill:url(#c);}.ah{fill:#19a9ff;}.ai{fill:#3c7dc1;}.aj{fill:#3c7dc0;}.ak{fill:#1593de;}.al{fill:#d1a3ef;}.am{fill:#bd97db;}.an{fill:#051a36;}.ao{fill:#9462bc;}.ap{fill:#f2f2f2;}</style><linearGradient id="a" y1="0.5" x2="1" y2="0.5" gradientUnits="objectBoundingBox"><stop offset="0.07" stop-color="#00d8bc"/><stop offset="1" stop-color="#48c7e2"/></linearGradient><clipPath id="b"><path class="a" d="M2251.792-1810.583h-99.579a8.79,8.79,0,0,1-8.5-9.053v-96a8.79,8.79,0,0,1,8.5-9.053h99.579a8.789,8.789,0,0,1,8.5,9.053v96a8.789,8.789,0,0,1-8.5,9.053" transform="translate(-2143.712 1924.693)"/></clipPath><linearGradient id="c" x1="0.5" y1="1" x2="0.5" gradientUnits="objectBoundingBox"><stop offset="0" stop-color="#2d1e1c"/><stop offset="1" stop-color="#412f17"/></linearGradient></defs><g transform="translate(-1501.065 2358.196)"><path class="b" d="M2048.491-1574.19a19.648,19.648,0,0,1-.12,11.665c-.378,1-3.464,4.685-9.526,3.819-7.07-1.01-19.674-5.953-25.113-12.413-1.279-1.518-1.606-4.823-.866-6.684a7.7,7.7,0,0,1,3.464-3.819,6.247,6.247,0,0,1,4.33-.955,10.186,10.186,0,0,1,6.062,2.865c-.262.2,5.211,2.609,9.226,3.388,1.122.217,2.252.375,3.383.533C2042.674-1575.326,2048.253-1574.37,2048.491-1574.19Z" transform="translate(-68.546 -103.95)"/><circle class="c" cx="0.995" cy="0.995" r="0.995" transform="translate(2203.167 -1744.172)"/><path class="d" d="M1507.309-1855.062c-16.441,113.314-2.824,178.689,69.971,230.392,71.763,50.97,181.734,37.522,278.17,21.515,103.924-17.248,221.686-78.878,325.608-96.127,66.528-11.042,138.747-24.773,184.859-68.9,49.906-47.759,53.516-118.173,33.293-175.946-48.23-137.76-216.016-176.395-359.86-248.762-86.468-43.5-196.635-141.915-299.708-146.908-130.053-6.3-207.334,85.265-222.157,171.347C1500.181-2067.91,1539.036-2011.252,1507.309-1855.062Z" transform="translate(0 -2.425)"/><path class="e" d="M2231.017-1690.035H1636.3c-10.531,0-19.069-8.823-19.069-19.708v-323.874h632.856v323.874C2250.086-1698.859,2241.549-1690.035,2231.017-1690.035Z" transform="translate(-15.57 -43.504)"/><path class="f" d="M1936.27-1948.98c-6.176,0-11.184,6.382-11.184,14.253V-1678.7h107.161v-256.031c0-7.871-5.008-14.253-11.184-14.253Z" transform="translate(-56.833 -54.848)"/><path class="g" d="M1936.564-1948.625c-6.749,0-12.447,5.514-12.333,14.213l.114,256.071,97.184,16.006.947-276.755c0-7.871-1.767-11.612-8.515-11.612Z" transform="translate(-56.718 -54.618)"/><path class="a" d="M1806.059-1809.01H1704.628a8.952,8.952,0,0,1-8.658-9.221v-97.788a8.953,8.953,0,0,1,8.658-9.222h101.431a8.953,8.953,0,0,1,8.658,9.222v97.788a8.953,8.953,0,0,1-8.658,9.221" transform="translate(-26.124 -58.03)"/><rect class="h" width="632.855" height="37.31" transform="translate(1601.661 -2076.624)"/><path class="i" d="M2287.65-2262.656v60.867l52.294,71.364v-132.231Z" transform="translate(-105.428 -12.805)"/><path class="j" d="M2346.344-2243.545H2292.1a3.837,3.837,0,0,1-3.838-3.838v-13.008a3.837,3.837,0,0,1,3.838-3.838h54.248a3.838,3.838,0,0,1,3.838,3.838v13.008a3.838,3.838,0,0,1-3.838,3.838" transform="translate(-105.51 -12.595)"/><path class="k" d="M1681.911-2295.758a10.634,10.634,0,0,0-9.272,5.533l-100.934,181.413s-24,40.06,28.5,40.06h662.405a10.293,10.293,0,0,0,2.99-.439c7.083-2.151,34.856-12.583,16.427-39.62-18.574-27.254-83.693-152.522-98.5-181.122a10.646,10.646,0,0,0-9.428-5.824Z" transform="translate(-8.734 -8.369)"/><path class="b" d="M2097.816-1575.655c-4.357,1.975-7.5,1.974-12.122.966-1.418-.309-11.111-6.191-13.237-8.755-1.146-1.382-2.355-2.926-2.437-4.8a4.66,4.66,0,0,1,2.231-4.384c9.114-4.29,26.722,4.471,27.684,7.49C2100.816-1582.36,2100.5-1576.873,2097.816-1575.655Z" transform="translate(-76.258 -102.456)"/><path class="l" d="M2076.663-1605.723a2.414,2.414,0,0,0,2.178,1.825c3.555.245,11.37.442,15.563-3,.593-.487-9.248-74.4-9.526-75.919-1.851-10.134,2.6-26.735,4.33-42.011.621-5.48,2.928-20.177.866-25.054-3.056-7.228-17.848-2.781-24.328-3.262-7.926-.589-30.75-5.715-33.954,3.593-2.293,6.662,19.309,29.819,21.046,36.181,6.118,22.421,1.593,34.794,9.929,57.866C2067.072-1643.589,2074.782-1613.212,2076.663-1605.723Z" transform="translate(-71.112 -80.837)"/><path class="b" d="M2043.672-1575.41a18.36,18.36,0,0,1,.115,10.311,2.656,2.656,0,0,1-1.39,1.738c-1.969,1.158-6.141,2.781-7.994,2.781-6.836,0-11.354-.7-16.568-5.445-1.39-1.275-6.6-4.751-7.414-6.373-.927-1.737-1.506-4.634-.811-6.372a8.014,8.014,0,0,1,3.359-3.707,5.9,5.9,0,0,1,4.171-.927,9.428,9.428,0,0,1,5.792,2.781c-.232.231,4.982,2.432,8.805,3.244a31.4,31.4,0,0,0,3.244.463C2038.11-1576.453,2043.439-1575.642,2043.672-1575.41Z" transform="translate(-68.121 -103.838)"/><path class="c" d="M1813.182-1778.922h-118.83c-5.6,0-10.144-5.772-10.144-12.894v-136.738c0-7.122,4.542-12.894,10.144-12.894h118.83c5.6,0,10.143,5.773,10.143,12.894v136.738c0,7.122-4.541,12.894-10.143,12.894" transform="translate(-24.547 -55.858)"/><path class="m" d="M1805.306-1790.041h-99.593c-4.7,0-8.5-4.838-8.5-10.806v-114.6c0-5.968,3.806-10.806,8.5-10.806h99.593c4.695,0,8.5,4.838,8.5,10.806v114.6c0,5.968-3.807,10.806-8.5,10.806" transform="translate(-26.29 -57.894)"/><path class="n" d="M2023.952-1595.873c10.016,2.275,13.034,2.486,21.117-1.91a.973.973,0,0,0,.486-.71c2.913-18.933,2.387-61.942,4.255-68.75,8.992-32.788,8.256-48.92,12.124-48.7,6.96.4,21.932-.411,25.979-6.07,1.449-2.026,1.732-7.149,1.732-9.548,0-9.548-.318-17.988-.6-18.89-1.266-3.994-5.433-1.75-8.833-2.039-9.358-.8-16.177,1.908-25.632.425-2.958-.464-24.346-1.209-24.684-.161-7.8,24.225-6.393,50.734-7.794,75.431-.794,14.014,1.91,73.022,1.158,79.835A.975.975,0,0,0,2023.952-1595.873Z" transform="translate(-69.816 -81.135)"/><path class="o" d="M1723.283-1793.5h64.379c.87-1.981-2.042-19.954-2.4-22.315l-9.215-59.931c-.864-5.621-5.485-9.63-10.716-9.3l-43.472,2.763c-5.941.378-10.341,6.157-9.573,12.576l6.839,57.168C1719.262-1811.346,1722.831-1794.535,1723.283-1793.5Z" transform="translate(-28.298 -63.416)"/><g transform="translate(1716.846 -1967.635)"><path class="p" d="M1817.418-1847.024a74.939,74.939,0,0,1-9.668-3.564,7.163,7.163,0,0,1-2.892-1.956,7.552,7.552,0,0,1-1.145-3.918c-.719-7.142-1.939-11.835-2.658-18.976a18.872,18.872,0,0,1,.006-5.71,12.923,12.923,0,0,1,2.116-4.637c1.5-2.176,6.948-10.484,10.083-9.87,2.367.463,1.44,14.257,1.547,17C1815.254-1867.285,1816.458-1858.367,1817.418-1847.024Z" transform="translate(-1757.025 1905.643)"/><path class="p" d="M1783.194-1903.84c-6.292,5.723-7.618,17.566-8.231,26.05-.526,7.273.117,12.267-.69,19.515a16.643,16.643,0,0,1-1.289,5.564,17.079,17.079,0,0,0-1.519,3.088,8.079,8.079,0,0,0-.057,2.869c.513,4.837,1.726,10.06,5.553,13.061-1.068-3.338-1.791-6.949-.865-10.33.7-2.561,2.289-4.77,3.752-6.987,4.285-6.491,7.3-11.3,7.872-19.061.532-7.193-1.486-14.444-.529-21.593.669-5,8.953-9.293,10.826-13.674,1.182-2.766-5.842-1.749-8.361-1.218C1786.908-1905.975,1785-1905.482,1783.194-1903.84Z" transform="translate(-1753.067 1907.184)"/><path class="q" d="M1788.878-1865.609a31.654,31.654,0,0,0,13.14,7.9c-.093,2.518.3,2.569.266,5.153-4.267-.164-17.169,2.148-16.282-2.029,1.1-5.185,1.773-5.273,2.6-9.507.1-.5.193-1.005.278-1.518" transform="translate(-1755.031 1901.612)"/><path class="r" d="M1809.17-1816.643c10.639-9.882.625-9.6,7.929-23.732,3.45-6.677-2.281-11.166-8.991-12.677-10.447-2.353-32.26-2.66-34.908-2.318-2.478.319-9.062,2.31-10.259,5.045-4.4,10.047,11.54,19.737,9.828,35.35" transform="translate(-1751.843 1900.255)"/><path class="s" d="M1789.246-1870.959c3.713,3.326,8.475,6.285,13.365,7.259-.024,1.786-.085,3.536-.151,5.279a31.653,31.653,0,0,1-13.14-7.9A16.658,16.658,0,0,0,1789.246-1870.959Z" transform="translate(-1755.471 1902.329)"/><path class="p" d="M1806.3-1900.174c-1.636-1.336-2.8-2.159-3.734-4.154a1.188,1.188,0,0,1,.676-1.613,3.329,3.329,0,0,1,1.967.01,12.97,12.97,0,0,1,4.933,1.867c2.53,1.818,3.589,5.041,4.207,8.094a4.538,4.538,0,0,1-.155,3.14c-1.341,2.349-1.932-2.368-2.189-2.948C1811.124-1897.768,1807.963-1898.817,1806.3-1900.174Z" transform="translate(-1757.239 1907.037)"/><path class="q" d="M1776.911-1885.737a5.425,5.425,0,0,1,5.526-1.986,3.655,3.655,0,0,1,2.476,3.61,19.006,19.006,0,0,0,2.16-12.355c3.287-2.529,6.57-4.961,12.587-5.774,3.55.267,6.561,1.383,8.467,4.422a10.4,10.4,0,0,1,1.422,5.108,145.5,145.5,0,0,1-.1,17.872c-.132,2.208-1.021,5.017-2.809,6.318-2.111,1.535-3.763,1.556-6.611.966a24.72,24.72,0,0,1-12.247-6.557c-.008-.048-.01-.1-.018-.15-.338-1.878-1.262-4.147-3.112-4.523a3.809,3.809,0,0,1-4.047,1.354c-1.461-.442-1.631-1.758-2.519-3.01A5.976,5.976,0,0,1,1776.911-1885.737Z" transform="translate(-1753.789 1906.522)"/><g transform="translate(47.163 45.127)"><path class="r" d="M1805.789-1854.787c-.335-.051-.739-.234-1.074-.285-.023,0,.021.126,0,.142s-.015.048-.008.074a2.057,2.057,0,0,0,.251.516,1.235,1.235,0,0,0,.226.3.42.42,0,0,0,.346.113.407.407,0,0,0,.288-.294.915.915,0,0,0,0-.428c0-.016-.009-.035-.023-.04s-.033.02-.017.026" transform="translate(-1804.706 1855.072)"/></g><path class="t" d="M1805.789-1854.787c-.335-.051-.739-.234-1.074-.285-.023,0,.021.126,0,.142s-.015.048-.008.074a2.057,2.057,0,0,0,.251.516,1.235,1.235,0,0,0,.226.3.42.42,0,0,0,.346.113.407.407,0,0,0,.288-.294.915.915,0,0,0,0-.428c0-.016-.009-.035-.023-.04s-.033.02-.017.026" transform="translate(-1757.544 1900.2)"/><path class="u" d="M1782.063-1880.623c.042-.256.342-.385.462-.615a.667.667,0,0,0,.012-.516,1.274,1.274,0,0,0-.587-.744,1.923,1.923,0,0,0-.978-.11,2.152,2.152,0,0,0-1.143.443,1.917,1.917,0,0,0-.677,1.015,2.3,2.3,0,0,0,.523,1.99,4.526,4.526,0,0,0,1.742,1.2,1.962,1.962,0,0,0,.743.2.791.791,0,0,0,.674-.316,1,1,0,0,0-.018-1.012c-.184-.288-.454-.476-.625-.772a.863.863,0,0,1-.072-.953" transform="translate(-1754.112 1903.893)"/><path class="v" d="M1781.256-1881.958a1.865,1.865,0,0,0-.358.929,2.313,2.313,0,0,0,.3,1.425,2.141,2.141,0,0,0,1.121.925.834.834,0,0,0,.443.049.378.378,0,0,0,.3-.3c.022-.193-.147-.351-.288-.485a1.63,1.63,0,0,1-.448-.644.82.82,0,0,1,.1-.754c.1-.135.263-.226.344-.377a.614.614,0,0,0,.031-.45,1.8,1.8,0,0,0-.2-.417c-.146-.251-.332-.467-.641-.371a1.4,1.4,0,0,0-.7.469" transform="translate(-1754.351 1903.869)"/><path class="w" d="M1780.8-1873.591a2.2,2.2,0,0,0,.457,2.291,2.146,2.146,0,0,0,2.277.486,2.489,2.489,0,0,0,.258-.151,2.393,2.393,0,0,0,.662-3.318,2.252,2.252,0,0,0-.735-.5,2.23,2.23,0,0,0-2.92,1.193m.963,1.776a1.453,1.453,0,0,1-.3-1.52,1.49,1.49,0,0,1,.331-.485,1.478,1.478,0,0,1,2.092.027,1.787,1.787,0,0,1,.1.171,1.587,1.587,0,0,1-.712,2.129,1.421,1.421,0,0,1-1.509-.321" transform="translate(-1754.32 1902.865)"/><path class="q" d="M1780.785-1873.937c-.037-.216.329-.613.441-.805s.431.016.614-.114a1.04,1.04,0,0,1,.666-.251.868.868,0,0,1,.676.479,2.143,2.143,0,0,1,.066.783,2.527,2.527,0,0,1-1.969.106" transform="translate(-1754.337 1902.885)"/><path class="x" d="M1808.32-1884.8a14.49,14.49,0,0,0,1.472,4.677,2.046,2.046,0,0,1,.345,1.582,1.286,1.286,0,0,1-1.134.675l-1.707.25a1.075,1.075,0,0,1-.75-.075,1.146,1.146,0,0,1-.413-.932,4.062,4.062,0,0,1,.179-1.077,26.156,26.156,0,0,0,.776-5.386c.017-.442-.141-1.882.525-1.75.545.1.642,1.567.708,2.037" transform="translate(-1757.735 1904.458)"/><path class="p" d="M1800.69-1902.475c-5.511,3.543-12.044,11.9-14.54,17.957a14.761,14.761,0,0,1-.181-13.244,17.832,17.832,0,0,1,10.074-8.847,4.553,4.553,0,0,1,3.057-.267C1803.18-1905.383,1802.189-1903.44,1800.69-1902.475Z" transform="translate(-1754.834 1907.166)"/><path class="p" d="M1776.405-1883.737a27.878,27.878,0,0,1,1.239-4.33,13.026,13.026,0,0,1,3.536-5.078c1.582-1.354,5.771-4.465,5.657-2.386-.328,5.982-1.775,9.681-3.5,12-2.988,4-5.48,9.577-5.728,14.566l-1.128-5.749a22.841,22.841,0,0,1-.625-5.588A21,21,0,0,1,1776.405-1883.737Z" transform="translate(-1753.674 1905.716)"/><path class="a" d="M1786.378-1855.6l-.158-.169" transform="translate(-1755.066 1900.292)"/><path class="r" d="M1809.668-1806.239c-.48,3.241.945,7.732,1.367,10.822.171,1.245-40.69,6.184-39.977-.756.218-2.128,2.985-16.558,3.006-18.65.081-8.176-2.455-15.938-.568-23.119.255-.966.884-1.506,1.1-.974.153.381.337.658.555.674,7.407.5,14.372,10.18,21.337,15.741,4.872,3.889,10.055-.714,13.952,7.431C1810.782-1814.344,1809.841-1807.409,1809.668-1806.239Z" transform="translate(-1753.032 1898.062)"/><path class="q" d="M1750.872-1811.454c-.563,2.093-1.108,5.205.078,6.483a7.952,7.952,0,0,0,4.864,1.823c10.528.3,21.549.688,32.005-.577,1.037-.126,1.6-2.158,2.156-3.046.729-1.175-.211-2.8-1.495-3.318a11.659,11.659,0,0,0-4.745-.385c-7.126.7-12.943-.783-20.61-1.445,1.5-4.947,2.3-8.886,3.8-13.834a5.821,5.821,0,0,0-.418-4.745,3.965,3.965,0,0,0-1.535-1.325c-3.757-1.979-8.136.351-9.382,4.061C1753.794-1822.421,1752.335-1816.9,1750.872-1811.454Z" transform="translate(-1750.244 1897.18)"/><path class="q" d="M1802.695-1848.907c-1.059,1.946-3.259,6.328-3.721,8.495-1.911-3.9-5.863-9.229-9.572-11.485a5.92,5.92,0,0,1-3.034-3.974c2.608-1.186,5.451-2.5,8.315-2.481,3.862.028,7.643,1.852,8.66,4.243C1803.927-1852.73,1803.908-1851.137,1802.695-1848.907Z" transform="translate(-1755.086 1900.639)"/><path class="t" d="M1797.54-1840.312l.145.5c-2.814-4.371-9.083-4.956-12.256-9.075a8.458,8.458,0,0,1-1.6-6.578,3.918,3.918,0,0,0-3.366,3.131,6.961,6.961,0,0,0,.888,4.748,11.676,11.676,0,0,0,6.067,5.318c3.052,1.16,6.453.983,9.6,1.85C1797.349-1840.331,1797.443-1840.64,1797.54-1840.312Z" transform="translate(-1754.277 1900.253)"/><path class="r" d="M1810.788-1847.571a3.575,3.575,0,0,0-.261-3.382,8.327,8.327,0,0,0-5.421-3.82c-.277,1.353.393,2.224.337,3.194a9.634,9.634,0,0,1-1.512,4.034c-1.037,1.536-3.81,6.469-2.806,8.3,1.037-.6,2.517-4.484,3.348-5.378A10.208,10.208,0,0,1,1810.788-1847.571Z" transform="translate(-1757.035 1900.159)"/><path class="t" d="M1810.788-1847.571a3.575,3.575,0,0,0-.261-3.382,8.327,8.327,0,0,0-5.421-3.82,3.268,3.268,0,0,0-.067.593c-.022,1.031.451,1.78.4,2.6a9.634,9.634,0,0,1-1.512,4.034c-1.037,1.536-3.81,6.469-2.806,8.3,1.037-.6,2.517-4.484,3.348-5.378A10.208,10.208,0,0,1,1810.788-1847.571Z" transform="translate(-1757.035 1900.159)"/><path class="r" d="M1784.738-1848.235a8.166,8.166,0,0,0,2.067,1.832c3.836,2.521,8.809,3.277,12.034,6.544a14.858,14.858,0,0,0-4.234-7.215c-1.981-2.019-4.273-3.7-6.394-5.572a3.851,3.851,0,0,1-1.055-1.241c-.2-.446-.555-2.517-.69-2.98-.2-.688-.882-.714-1.354-.277C1782.483-1854.7,1783.324-1850.1,1784.738-1848.235Z" transform="translate(-1754.688 1900.516)"/><path class="q" d="M1836.517-1815.584c1.618,1.442,3.708,2.969,5.754,2.257,1.424-.5,2.272-1.922,2.986-3.25,4.985-9.277,12.835-25.665,16.391-35.578.352-.984-2.22-2.088-2.767-2.979-.724-1.178-3.651-2.289-4.074-.973-2.3,7.165-10.59,22.085-14.619,28.641-3.75-3.559-5.725-4.906-9.474-8.465-1.184-1.124-2.59-2.329-4.214-2.165a3.961,3.961,0,0,0-1.872.778c-3.453,2.471-3.334,7.43-.575,10.207C1828.024-1823.113,1832.309-1819.332,1836.517-1815.584Z" transform="translate(-1759.863 1900.418)"/><path class="r" d="M1833.53-1836.173c-2.134,3.237-9.792,8.906-13.33,10.49,1.293-.578-.249-19.477,2.429-21.281C1825.453-1848.867,1830.55-1836.84,1833.53-1836.173Z" transform="translate(-1759.62 1899.14)"/><path class="r" d="M1755.259-1830.958a1.4,1.4,0,0,1-.586-.392,1.562,1.562,0,0,1-.041-1.381c.78-2.532,4.793-12.206,5.789-14.59,1.762-4.22,4-5.088,6.277-4.053,1.513.688,2.362,3.512,2.984,5.132,1.506,3.911,1.888,11.78.576,16.439C1768.278-1822.775,1758.59-1829.491,1755.259-1830.958Z" transform="translate(-1750.813 1899.757)"/><path class="p" d="M1777.955-1859.082c-.564,2.544.076,2.739.267,5.338a18.4,18.4,0,0,0,.895,4.848c.538,1.57,4.5,11.673,4.5,11.673s-1.6-12.354-1.507-14.85c.121-3.284.876-3.708,1.854-5.686.736-1.489.486-.4.836-2.025.254-1.178.214-2.626-.774-3.316a2.362,2.362,0,0,0-2.4-.022,5.612,5.612,0,0,0-1.808,1.727c-.946,1.28-1.254.5-.64,1.965" transform="translate(-1753.928 1901.321)"/><path class="p" d="M1775.3-1845.579c1.015,4.869.253,9.024.746,13.178,2.27-9.053.951-16.654,1.741-25.954.081-.958-1.489-5.474-2.361-3.376a29.123,29.123,0,0,0-.554,5.45C1774.739-1852.587,1774.335-1850.22,1775.3-1845.579Z" transform="translate(-1753.519 1901.166)"/><path class="q" d="M1792.516-1800.324c.961.109,1.732.783,2.7.682l2.294-.235a6.543,6.543,0,0,1,2.51.066c1.658.489,2.733,2.225,4.286,3a2.054,2.054,0,0,0,2.244-.063,5.344,5.344,0,0,0,2.227,2.272c.567.3,1.448.346,1.684-.332.228-.655-.4-1.193-.9-1.581a6.023,6.023,0,0,1-1.856-2.554,10.051,10.051,0,0,1,2,2.073c.536.741,1.242,1.663,2.084,1.338a.645.645,0,0,0,.418-.455.892.892,0,0,0-.179-.6l-3.078-5.126a4.06,4.06,0,0,0-1.243-1.481c2.255.153,3.259,3.7,5.519,3.8a.589.589,0,0,0,.359-.073c.345-.227.183-.8-.036-1.153a13.861,13.861,0,0,0-13.351-6.562,85.109,85.109,0,0,1-8.713.168c-1.769-.033.412.935-1.328.655a6.817,6.817,0,0,0-1.683.193c-.191.1-1.567-.006-1.682.193-.659,1.142-.136,1.8-.009,3.114a2.666,2.666,0,0,0,2.175,2.36A19.438,19.438,0,0,0,1792.516-1800.324Z" transform="translate(-1755.1 1893.811)"/><path class="q" d="M1875.455-1870.879a1.421,1.421,0,0,0,.2-.954.718.718,0,0,0-.874-.469.887.887,0,0,0-.421.424l-3,5.014a1.75,1.75,0,0,1-1.24,1.017l3.351-8.46c.166-.419.3-.955-.1-1.25a1.077,1.077,0,0,0-1.193.084,2.186,2.186,0,0,0-.633.939l-2.951,6.754c-.159.366-.593.812-.977.583.388-3.474,3.338-6.452,3.688-9.928a.713.713,0,0,0-.049-.422.831.831,0,0,0-1.08-.14,1.708,1.708,0,0,0-.62.881l-3.4,8.24c-.138.335-.508.746-.872.557l1.6-8.364c.087-.452.1-1.035-.4-1.24a.988.988,0,0,0-1.033.262,1.964,1.964,0,0,0-.411.9,114.5,114.5,0,0,1-3.5,11.073c-.251.676-.674,1.466-1.519,1.535-.891.073-1.51-.7-1.987-1.344a13.238,13.238,0,0,0-3.059-2.937c-.439-.306-1.078-.6-1.535-.32a.713.713,0,0,0-.193.967,4,4,0,0,0,.769.85,7.7,7.7,0,0,1,1.8,4.468c.349,2.109,1.847,4.367,2.2,6.476.133.8-1.891-.48,6.542,1.475,3.405.789,6.731-8.266,8.3-11.36Q1874.2-1868.21,1875.455-1870.879Z" transform="translate(-1764.036 1903.249)"/><ellipse class="y" cx="1.046" cy="0.897" rx="1.046" ry="0.897" transform="translate(43.547 20.653) rotate(-87.887)"/><ellipse class="y" cx="0.98" cy="0.817" rx="0.98" ry="0.817" transform="translate(52.461 20.71) rotate(-87.887)"/><path class="p" d="M1811.464-1888.157a3.038,3.038,0,0,1-.9-.016c-.288-.088-.527-.435-.364-.687a.641.641,0,0,1,.374-.227,3.254,3.254,0,0,1,2.02,0,2.207,2.207,0,0,1,1.393,1.407.73.73,0,0,1-.195.834c-.313.2-.49-.062-.655-.3A2.048,2.048,0,0,0,1811.464-1888.157Z" transform="translate(-1758.274 1904.78)"/><path class="p" d="M1801.008-1888.45a3.925,3.925,0,0,0,1.052.057c.344-.071.653-.423.483-.707a.765.765,0,0,0-.42-.275,4.154,4.154,0,0,0-2.369-.17,2.514,2.514,0,0,0-1.748,1.4.742.742,0,0,0,.158.913c.351.241.58-.026.793-.269A2.458,2.458,0,0,1,1801.008-1888.45Z" transform="translate(-1756.635 1904.834)"/><path class="c" d="M1809.087-1872.965a10.189,10.189,0,0,0-1.735-.043,3.837,3.837,0,0,1-2.135-.2,5.48,5.48,0,0,0-.946-.478,1.348,1.348,0,0,0-1.244.328,1.8,1.8,0,0,0-.452,1.106c-.009.888.869,1.745,1.648,2.284a5.117,5.117,0,0,0,1.631.681c1.479.384,3.241.3,4.132-1.015C1810.6-1871.211,1810.421-1872.817,1809.087-1872.965Z" transform="translate(-1757.258 1902.7)"/></g><g transform="translate(1656.142 -1892.858)"><path class="z" d="M1747.9-1802.713a15.994,15.994,0,0,0-9.494,3.106,20.69,20.69,0,0,0-19.952-15.227,20.685,20.685,0,0,0-18.977,12.452,16.078,16.078,0,0,0-3.259-.331,16.074,16.074,0,0,0-16.075,16.075,16.075,16.075,0,0,0,16.075,16.075,16.033,16.033,0,0,0,12.135-5.537,20.584,20.584,0,0,0,10.1,2.634,20.617,20.617,0,0,0,14.895-6.34,16.073,16.073,0,0,0,14.552,9.242,16.075,16.075,0,0,0,16.076-16.075,16.075,16.075,0,0,0-16.076-16.075" transform="translate(-1680.144 1820.03)"/><path class="z" d="M1787.9-1808.713a15.994,15.994,0,0,0-9.494,3.106,20.69,20.69,0,0,0-19.952-15.227,20.685,20.685,0,0,0-18.977,12.452,16.078,16.078,0,0,0-3.259-.331,16.074,16.074,0,0,0-16.075,16.075,16.075,16.075,0,0,0,16.075,16.075,16.033,16.033,0,0,0,12.135-5.537,20.584,20.584,0,0,0,10.1,2.634,20.617,20.617,0,0,0,14.895-6.34,16.073,16.073,0,0,0,14.552,9.242,16.075,16.075,0,0,0,16.076-16.075,16.075,16.075,0,0,0-16.076-16.075" transform="translate(-1685.505 1820.834)"/><path class="z" d="M1820.9-1800.713a15.994,15.994,0,0,0-9.494,3.106,20.69,20.69,0,0,0-19.952-15.227,20.685,20.685,0,0,0-18.977,12.452,16.078,16.078,0,0,0-3.259-.331,16.074,16.074,0,0,0-16.075,16.075,16.075,16.075,0,0,0,16.075,16.075,16.033,16.033,0,0,0,12.135-5.537,20.584,20.584,0,0,0,10.1,2.634,20.617,20.617,0,0,0,14.895-6.34,16.073,16.073,0,0,0,14.552,9.242,16.075,16.075,0,0,0,16.076-16.075,16.075,16.075,0,0,0-16.076-16.075" transform="translate(-1689.928 1819.762)"/><path class="aa" d="M1681.777-1775.834s-.919,18.528,11.32,22.646c9.519,3.2,79.546,1.423,110.2.474,11.927-.37,21.9-10.023,23.1-22.669.014-.15.027-.3.04-.451Z" transform="translate(-1680.361 1814.802)"/></g><path class="c" d="M2259.682-1778.922H2140.851c-5.6,0-10.143-5.772-10.143-12.894v-136.738c0-7.122,4.542-12.894,10.143-12.894h118.831c5.6,0,10.143,5.773,10.143,12.894v136.738c0,7.122-4.541,12.894-10.143,12.894" transform="translate(-84.393 -55.858)"/><path class="m" d="M2251.805-1790.041h-99.592c-4.7,0-8.5-4.838-8.5-10.806v-114.6c0-5.968,3.806-10.806,8.5-10.806h99.592c4.7,0,8.5,4.838,8.5,10.806v114.6c0,5.968-3.807,10.806-8.5,10.806" transform="translate(-86.136 -57.894)"/><g transform="translate(2057.576 -1982.797)"><g class="ab"><g transform="translate(-5.602 10.5)"><path class="s" d="M2232.841-1867.57c5.127-.122,12.792-1.38,17.184-3.891a22.7,22.7,0,0,1-.146,3.613c-6,8.21-12.134,4.6-17.36,5.308C2232.735-1864.175,2232.575-1865.9,2232.841-1867.57Z" transform="translate(-2150.014 1907.058)"/><path class="ac" d="M2227.645-1898.958a3.73,3.73,0,0,1,.417-1.6,6.429,6.429,0,0,1,1.387-1.347,16.61,16.61,0,0,0,2.876-4.054c1.721-2.8,2.618-4.062,5.7-5.523a13.315,13.315,0,0,1,10.52,0,20.735,20.735,0,0,1,5.664,3.414c2.165,2.03,3.746,4.038,4.21,6.875a4.231,4.231,0,0,0,.645,1.849,11.361,11.361,0,0,1,1.089,1.616,2.89,2.89,0,0,1-.62,2.551c-1,1.612-2.106,3.2-2.976,4.881a9.592,9.592,0,0,1-1.406,2.664,3.527,3.527,0,0,1-1.4.836,30.781,30.781,0,0,0-1.014,3q-.325,1.163-.559,2.347a3.358,3.358,0,0,1-.1.552c-.083.21-.13.167-.231.3a1.781,1.781,0,0,0-.32.757c-.058.231-.245.482-.5.453a.608.608,0,0,1-.245-.1,5.482,5.482,0,0,1-1.144-.909.689.689,0,0,1-.207-.331.728.728,0,0,1,.186-.506,31.465,31.465,0,0,0,2.844-5.363c-2.055.034-4.387-1.056-6.112-1.534a13.678,13.678,0,0,0-8.682.5,8.41,8.41,0,0,1-3.68,1.056c-1.257-.1-2.321-.9-3.539-1.2a4.965,4.965,0,0,1-1.6-.482,2.707,2.707,0,0,1-.939-1.948A34.726,34.726,0,0,1,2227.645-1898.958Z" transform="translate(-2149.339 1912.568)"/><path class="q" d="M2260.947-1886.95a1.353,1.353,0,0,0-.106-.417c-.707-1.59-2.454-3.343-4.231-3.17-1.052.1-2.091,1.571-2.5,1.925-.927.807-1.905.87-1.055-.83,1.7-3.4-.259-3.925.471-6.286a1.369,1.369,0,0,0-.338-1.356c-2.614-2.73-5.2-6.2-10.521-7.773l-.387-.07a11.743,11.743,0,0,0-9.272,3.543,14.727,14.727,0,0,0-3.36,5.333c-1.287,5.435-.657,9.63-1.214,15.172-.224,2.055,1.8,8.514,2.833,9.482.809.759,4.734,1.138,5.664,1.138,4.595,0,10.924-3.793,14.161-6.827.4-.379,1.023-4.277,1.284-4.428.56-.324.535-.426,1.021-.011.342.292.691.443,1.705.367a7.177,7.177,0,0,0,4.023-1.858C2260.61-1884.289,2261.127-1885.116,2260.947-1886.95Z" transform="translate(-2149.464 1911.547)"/><path class="x" d="M2260.506-1883.684c.017-.245-.247-.428-.309-.667a.6.6,0,0,1,.106-.476,1.278,1.278,0,0,1,.747-.558,2.046,2.046,0,0,1,.985.111,2.155,2.155,0,0,1,1.019.653,1.744,1.744,0,0,1,.43,1.079,2.137,2.137,0,0,1-.97,1.717,4.719,4.719,0,0,1-1.986.728,2.1,2.1,0,0,1-.774.023.784.784,0,0,1-.586-.435.9.9,0,0,1,.25-.927c.244-.226.557-.34.791-.575s.447-.573.291-.861" transform="translate(-2153.58 1908.927)"/><path class="v" d="M2261.912-1884.71a1.641,1.641,0,0,1,.136.933,2.123,2.123,0,0,1-.619,1.246,2.206,2.206,0,0,1-1.311.608.862.862,0,0,1-.448-.051.358.358,0,0,1-.227-.34c.022-.184.223-.29.393-.385a1.613,1.613,0,0,0,.589-.494.736.736,0,0,0,.078-.715,2.8,2.8,0,0,1-.25-.419.544.544,0,0,1,.077-.421,1.777,1.777,0,0,1,.29-.342c.2-.2.433-.357.713-.2a1.343,1.343,0,0,1,.579.583" transform="translate(-2153.622 1908.92)"/><path class="x" d="M2235.653-1886.878a10.762,10.762,0,0,1-1.931,4.26c-.327.438-.7.967-.456,1.445.232.448.881.572,1.438.641l2.18.266a1.837,1.837,0,0,0,.958-.05.95.95,0,0,0,.539-.846,2.831,2.831,0,0,0-.217-.993,17.8,17.8,0,0,1-.929-4.959c-.017-.406.2-1.723-.649-1.619-.7.083-.843,1.425-.932,1.855" transform="translate(-2150.103 1909.374)"/><path class="c" d="M2240.786-1875.3a2.8,2.8,0,0,1-.9.887,7.748,7.748,0,0,1-6.071,1.153c-1.67-.348-2.486-1.508-1.823-2.59.013-.021.028-.044.042-.066a2.556,2.556,0,0,1,2.053-.591,25.293,25.293,0,0,0,5.093.034c.43-.09.779-.443,1.221-.306.656.2.631.985.379,1.479" transform="translate(-2149.913 1907.775)"/><path class="ad" d="M2232.93-1888.391a.646.646,0,0,1-.357.729,1.678,1.678,0,0,1-.488.132,1.1,1.1,0,0,1-.823-.1.553.553,0,0,1-.144-.189.854.854,0,0,1,.1-.979,1.03,1.03,0,0,1,1.713.408" transform="translate(-2149.811 1909.424)"/><path class="ad" d="M2244.29-1888.168a.772.772,0,0,1-.559.8,2.091,2.091,0,0,1-.613.079,1.377,1.377,0,0,1-.978-.244.651.651,0,0,1-.142-.246.991.991,0,0,1,.287-1.131,1.409,1.409,0,0,1,1.656.054.868.868,0,0,1,.35.691" transform="translate(-2151.274 1909.43)"/><path class="ae" d="M2245.344-1891.436c-1.09-.435-3.631-.13-3.7-.49-.173-.918.871-1.272,2.035-1.224a8.35,8.35,0,0,1,3.573.636c.713.429,2.413,3.4,1.967,3.617-.559.271-1.075-.792-1.507-1.167A8.348,8.348,0,0,0,2245.344-1891.436Z" transform="translate(-2151.234 1909.966)"/><path class="ae" d="M2232.056-1891.73c.9-.257,2.659-.053,2.758-.324-.1-2.817-6.325-.647-5.832,2.373C2229.216-1889.289,2231.072-1891.317,2232.056-1891.73Z" transform="translate(-2149.535 1909.993)"/><path class="ac" d="M2240.412-1898.495c-.2-1.436,3.706,2.983,1.936.1a.116.116,0,0,1,.162-.16q1.493,1.043,3.071,1.952l.007,0q2.989,2.124,1.239-.135a.117.117,0,0,1,.161-.167c2.829,2.025,5.757,2.821,8.755,4.572a.12.12,0,0,0,.176-.075c.973-4.123,1.6-6.947-.981-10.453-2.333-3.163-5.477-6.106-9.426-6.987-3.616-.805-9.915.741-11.937,4.293-2.249,3.951,2.79,6.674,6.705,7.208A.123.123,0,0,0,2240.412-1898.495Z" transform="translate(-2150.08 1912.231)"/><path class="af" d="M2234.949-1871.461a9.371,9.371,0,0,0-2.35-.171c-.388.386,1.763,1.266,2.048,1.3.9.1,2.689-.667,2.609-1.1C2236.79-1871.846,2235.486-1871.445,2234.949-1871.461Z" transform="translate(-2150.018 1907.088)"/><path class="af" d="M2232.3-1878.035c-.76.033-2.775,1.146-2.038,2.178a.535.535,0,0,0,.52,0c.362-.238.747-.834.857-.877a9.924,9.924,0,0,1,2.389-.248c.484-.062.931-.441.406-.956A6.973,6.973,0,0,0,2232.3-1878.035Z" transform="translate(-2149.69 1907.943)"/><path class="af" d="M2240.759-1878.443c1.266,0,3.048,1.15,2.256,2.257-.351.49-.692-.584-1.493-.926a4.605,4.605,0,0,0-2.461.135c-.456.067-3.171.4-2.323-.83C2237.23-1878.519,2240.1-1878.443,2240.759-1878.443Z" transform="translate(-2150.557 1907.994)"/><path class="ag" d="M2252.855-1886.571c-2.173,3.708-2.084,8.5-4.591,11.947-2.077,2.859-6.755,5.8-10.418,5-1.894-.412-2.925-.98-5.1-.9-1.848.068-1.773,1.08-2.819-.983-.524-1.033-1.986-6.613-1.458-7.6-1.033,1.937.873,11.741,2.531,13.066,2.011,1.609,7.872,1.144,10.22.238,4.82-1.859,9.576-5.987,11.089-10.894a39.736,39.736,0,0,0,1.769-9.176C2254.105-1886.451,2253.874-1886.129,2252.855-1886.571Z" transform="translate(-2149.431 1909.083)"/><path class="ah" d="M2261.85-1847.015l-8.018-3.422c-2-1.3-4.5-2.654-6.719-1.711a11.19,11.19,0,0,0-2.387,1.733c-2.678,2.1-1.725-1.947-5.129-2.668s-10.5,2.333-12.947,0c-6.619,1.374-6.632,1.277-11.988,3.72.13,6.41.089,12.938.638,19.284a4.281,4.281,0,0,1-.117,1.477c.977,17.213-3.408,36.076-3.1,56.684,16.219,1.112,31.121,3.228,46.123-2.655.8-.313-2.241-15.469-2.023-16.688,1.677-9.339,3.988-20.625,5.665-29.962.818-4.553,4.229-20.178,4.45-20.86C2266.672-1843.235,2263.984-1846.138,2261.85-1847.015Z" transform="translate(-2147.272 1904.61)"/><path class="ai" d="M2268.27-1790.353c-.029-.03.061-.043.058,0s.988.216.954.239c-1.032.673-3.315.176-4.4-.76a2.109,2.109,0,0,1-.476-.4,1.038,1.038,0,0,1-.133-.634,2,2,0,0,1,.9-1.462,3.283,3.283,0,0,1,1.682-.509,3.308,3.308,0,0,1,1.9.423,2.024,2.024,0,0,1,.995,1.618,1.253,1.253,0,0,1-.177.695,1.411,1.411,0,0,1-.864.562,2.4,2.4,0,0,1-1.854-.3" transform="translate(-2154.269 1896.66)"/><path class="q" d="M2228.4-1782.453c-.044.009-3.464.411-5.551-.513a4.554,4.554,0,0,0-2.708-.09c-1.823.379-3.111,2.026-4.843,2.7a2.378,2.378,0,0,1-2.411-.2,5.7,5.7,0,0,1-2.571,2.1c-.633.258-1.586.251-1.788-.431-.2-.661.526-1.151,1.087-1.5a6.192,6.192,0,0,0,2.192-2.4,10.7,10.7,0,0,0-2.314,1.921c-.634.7-1.463,1.564-2.346,1.192a.647.647,0,0,1-.416-.475.847.847,0,0,1,.239-.584l3.7-4.868a4.241,4.241,0,0,1,1.451-1.383c-2.44.012-3.79,3.446-6.231,3.4a.678.678,0,0,1-.38-.094c-.354-.245-.136-.8.125-1.134a15.736,15.736,0,0,1,14.873-5.65c2.157.381,4.259,1.209,6.438,1.3a14.081,14.081,0,0,0,5.491-.746c1.745-.753,3.752-1.85,5.442-2.749,6.034-3.209,11.317-6.412,17.8-8.723.266-.1,1.407.437,1.686.49a1.483,1.483,0,0,1,.688.41c1.877,1.688,5.347,6.022,4.941,7.539-1.213.759-18.674,5.693-20.262,6.353A142.714,142.714,0,0,1,2228.4-1782.453Z" transform="translate(-2146.369 1897.667)"/><path class="ah" d="M2267.828-1828.6a95.122,95.122,0,0,1-2.38,16.761c-.568,2.433-.71,2.849-2.638,4.179-.209.145-3.059,1.212-2.979,1.518-.138-.53,2.976.6,3.2.715,1.635.838,2.8,2.717,3.924,4.027,1.551,1.8,2.844,3.9,5.461,2.053,4.809-3.4,3.385-13.125,4.3-17.77,1.691-8.59,4.468-16.342-2.162-23.661C2261.39-1855.3,2268.032-1832.584,2267.828-1828.6Z" transform="translate(-2153.674 1903.588)"/><path class="aj" d="M2265.561-1795.917c-1.56-2.645-4.647-4.6-7.687-3.792.3-1.162.637-2.77,1.429-2.529.469.144.518-.675,1.1-.748,3.387-.423,7.3,1.833,9,5.357,1.026,2.136,2.31,6.186-.322,6.186-.66,0-.692.272-1.137.367C2264.661-1790.374,2266.889-1793.665,2265.561-1795.917Z" transform="translate(-2153.412 1897.887)"/><path class="q" d="M2249.771-1867.291c-1.752,1.195-3.052,3.356-5.612,4.162-3.624,1.14-8.687.735-11.75,1.146-.308,2.361-.312,4.217-.7,6.631a22.875,22.875,0,0,0,2.832.379c.642.041,1.339,6.8,2.023,6.827.859.032,5.6-6.445,6.474-6.448,4.9-.016,7.315-.9,6.878-3.413-.117-.669-.056-8.613-.146-9.285" transform="translate(-2149.905 1906.499)"/><path class="ak" d="M2250.552-1857.968c-.773-1.5-2.433,1.4-3.058,1.9-1.831,1.456-4.286,1.231-6.063,2.471-1.883,1.315-2.794,4.37-4.853,5.815-1.442-2.194-.958-4.714-2.579-6.715-.346-.427-1.4-.288-1.787-.841-.8-1.135.4-2.379-.218-3.546-.882-.55-3.041,5.123-3.106,5.581-.445,3.062.683,3.011,3.279,4.924.8-1.467.642-3.169,1.175-4.713,1.08,1.552,1.23,7.289,3.237,7.586.941.139,5.656-6.033,6.069-6.827,2.065,3.419,2.087,6.39,6.5,3.782C2253.365-1851.043,2252.5-1854.2,2250.552-1857.968Z" transform="translate(-2149.514 1905.377)"/><g transform="translate(35.271 55.15)"><path class="q" d="M2192.4-1785.911a5.072,5.072,0,0,1-3.492-.236,1.73,1.73,0,0,0-1.661.047c-1,.482-1.334,2.228-2.2,3a1.02,1.02,0,0,1-1.511-.08,3.77,3.77,0,0,1-.987,2.28.717.717,0,0,1-1.2-.348,1.6,1.6,0,0,1,.251-1.592,5.289,5.289,0,0,0,.677-2.568,7.191,7.191,0,0,0-.882,2.08c-.195.746-.463,1.672-1.1,1.337a.841.841,0,0,1-.379-.462,1.17,1.17,0,0,1-.012-.608l.927-5.159a3.216,3.216,0,0,1,.5-1.487c-1.471.138-1.362,3.713-2.849,3.8a.343.343,0,0,1-.255-.076,1.352,1.352,0,0,1-.229-1.165c.91-4.664,3.859-7.245,7.467-6.534,1.406.277,1.028-.136,2.367-.159,1.034-.018,2.656.951,3.395.208.852-.857,3.591-3.513,4.369-4.518a37.816,37.816,0,0,1,7.44-7.537,8.377,8.377,0,0,1,1.9-.545,1.248,1.248,0,0,1,.526.384c1.589,1.625,3.954,5.786,4.118,7.356-.529.836-7.434,5.575-8.217,6.33A79.331,79.331,0,0,1,2192.4-1785.911Z" transform="translate(-2177.973 1843.165)"/><path class="ah" d="M2209.357-1832.513a106.751,106.751,0,0,1-3.79,20.21c-1.384.732-3.887,3.828-2.354,3.516,2.911-.594,6.5.19,9.317,4.158.172.242,2.429-.743,2.626-.964a2.263,2.263,0,0,0,.437-1.059c.787-3.617.991-7.339,1.7-10.972.716-3.65,1.941-7.184,2.7-10.825s1.044-7.5-.115-11.031a28.226,28.226,0,0,0-2.557-5.228c-.748-1.3-1.121-4.842-2.572-4.063-2.432,1.306-3.5,2.006-3.772,3.581C2210.269-1841.133,2209.792-1836.605,2209.357-1832.513Z" transform="translate(-2181.292 1848.882)"/><path class="r" d="M2208.621-1802.047a12.025,12.025,0,0,0-5.178-.8,1.876,1.876,0,0,1-.87-.094.6.6,0,0,1-.362-.714c.124-.307,2.435-3.039,3.283-2.988,3.257.427,5.181,1.974,7.773,3.991a3.374,3.374,0,0,1,1.038,1.134,3.383,3.383,0,0,1-.113,2.518c-.532,1.567-1.516.908-2.091-.1A7.142,7.142,0,0,0,2208.621-1802.047Z" transform="translate(-2181.218 1843.22)"/></g><path class="o" d="M2220.762-1775.86h0a1.194,1.194,0,0,0-1.194-1.194h-23.035a1.2,1.2,0,0,1-1.127-.8l-10.585-40.327a1.193,1.193,0,0,0-1.127-.8h-45.255a1.193,1.193,0,0,0-1.131,1.575l10.738,41.927a1.192,1.192,0,0,0,1.131.812h70.392A1.194,1.194,0,0,0,2220.762-1775.86Z" transform="translate(-2137.243 1900.024)"/><path class="ah" d="M2213.693-1848.075a3.122,3.122,0,0,1,.489-.5,3.1,3.1,0,0,1,.778-.409,1.126,1.126,0,0,1,.751-.1.836.836,0,0,1,.5.72,2.184,2.184,0,0,1-.553,1.516,4.294,4.294,0,0,1-1.971,1.5,1.2,1.2,0,0,1-.864.033c-.171-.075-.3-.149-.476-.049-.09-.156.078-.5.134-.654a5.618,5.618,0,0,1,.327-.747A7.805,7.805,0,0,1,2213.693-1848.075Z" transform="translate(-2147.307 1904.063)"/></g></g></g><path class="z" d="M2193.783-1803.381a16.574,16.574,0,0,0-9.837,3.218,21.435,21.435,0,0,0-20.671-15.775,21.432,21.432,0,0,0-19.661,12.9,16.676,16.676,0,0,0-3.376-.343,16.654,16.654,0,0,0-16.654,16.655,16.654,16.654,0,0,0,16.654,16.654,16.614,16.614,0,0,0,12.572-5.737,21.321,21.321,0,0,0,10.464,2.73,21.364,21.364,0,0,0,15.432-6.568,16.652,16.652,0,0,0,15.076,9.576,16.655,16.655,0,0,0,16.655-16.654,16.655,16.655,0,0,0-16.655-16.655" transform="translate(-83.438 -72.681)"/><path class="z" d="M2235.225-1809.6a16.575,16.575,0,0,0-9.837,3.218,21.436,21.436,0,0,0-20.67-15.776,21.431,21.431,0,0,0-19.661,12.9,16.685,16.685,0,0,0-3.376-.343,16.655,16.655,0,0,0-16.654,16.655,16.655,16.655,0,0,0,16.654,16.654,16.61,16.61,0,0,0,12.572-5.737,21.337,21.337,0,0,0,10.466,2.729,21.362,21.362,0,0,0,15.431-6.568,16.653,16.653,0,0,0,15.077,9.576,16.654,16.654,0,0,0,16.654-16.654,16.654,16.654,0,0,0-16.654-16.655" transform="translate(-88.993 -71.847)"/><path class="z" d="M2269.414-1801.309a16.57,16.57,0,0,0-9.838,3.219,21.434,21.434,0,0,0-20.67-15.776,21.432,21.432,0,0,0-19.661,12.9,16.727,16.727,0,0,0-3.375-.343,16.655,16.655,0,0,0-16.654,16.655A16.655,16.655,0,0,0,2215.869-1768a16.612,16.612,0,0,0,12.572-5.737,21.321,21.321,0,0,0,10.464,2.73,21.358,21.358,0,0,0,15.431-6.568,16.654,16.654,0,0,0,15.077,9.576,16.655,16.655,0,0,0,16.655-16.654,16.655,16.655,0,0,0-16.655-16.655" transform="translate(-93.575 -72.958)"/><path class="aa" d="M2125.276-1775.533s-.953,19.2,11.728,23.463c9.862,3.318,82.413,1.474,114.168.492,12.357-.384,22.693-10.385,23.931-23.487l.042-.468Z" transform="translate(-83.663 -78.096)"/><path class="al" d="M2035.083-1816.329a15.6,15.6,0,0,0,3.092.151c6.085-.119,12.388-.292,17.872-3.039,2.945-1.475,5.877-3.725,9.112-3.245a9.9,9.9,0,0,1,4.556,2.331,31.36,31.36,0,0,1,5.406,5.571c4.462,5.914-2.192,6.432-6.259,6.936a94.733,94.733,0,0,1-16.032.617c-5.258-.243-10.951-.807-15.494,1.773Q2036.224-1810.785,2035.083-1816.329Z" transform="translate(-71.576 -71.797)"/><path class="al" d="M2070.237-1821.5a2.812,2.812,0,0,1-.627-.713c-.136-.25-1.3-.5-1.362-.783-.335-1.6.917-3.4.582-5.007a.611.611,0,0,1,.717-.837,21.5,21.5,0,0,1,8.36,5.077,69.629,69.629,0,0,1,6.665,7.717c-1.164,1.3-2.97,5.207-4.55,5.875C2076.538-1812.74,2073.464-1818.591,2070.237-1821.5Z" transform="translate(-76.013 -70.948)"/><path class="am" d="M2016.026-1793.906a8.636,8.636,0,0,1-3.928-1.318,12.007,12.007,0,0,1-3.393-4.605c-.4-.769-.769-1.786-.211-2.438a1.888,1.888,0,0,1-.094-3.274c-.461-.692-.808-1.863-.062-2.187a1.427,1.427,0,0,1,1.142.21,10.966,10.966,0,0,0,8.24.465,7.653,7.653,0,0,1-2.844-4.54c-.128-.626.023-1.527.637-1.531a1.093,1.093,0,0,1,.508.173c4.374,2.349,8.929,4.86,11.71,9.088.293.444,9.6,1.819,9.817,2.317.421.966-2.159,9.262-2.4,10.274-.4,1.671-7.767-4.332-9.146-3.464C2023.084-1792.9,2018.782-1793.565,2016.026-1793.906Z" transform="translate(-67.879 -73.058)"/><path class="y" d="M2054.352-1893.348c.144-.774.128-2.514.349-3.269a15.4,15.4,0,0,0,.348-3.995c-1.311,2.834-1.76,6.165-2.637,9.176a14.854,14.854,0,0,0,.545,8.984c1.046,2.542,4.487,5.428,6.277,5.085,1.117-.215.467.262-.473-2.441a6.694,6.694,0,0,0-2.877-3C2053.791-1883.533,2053.629-1889.556,2054.352-1893.348Z" transform="translate(-73.838 -61.331)"/><path class="al" d="M2084.238-1894.252c-2.26.1-3.785,2.841-4.544,5.205-.02.062-.133,2.354-.151,2.417-5.22,3.529-10.609,3.4-16.7,3.571,0,.023-.006.047,0,0-3.484.158-6.284.129-7.892-2.69-1.4-2.455-1.051-5.789-.785-8.68a207.637,207.637,0,0,1,3.292-23.185c.511-2.479,1.109-5.042,2.6-6.968a12.845,12.845,0,0,1,11.254-4.963c6.957,2.337,10.927,6.9,14.332,10.883-1.639,5.354-1.27,9.806-1.27,16.343" transform="translate(-74.1 -57.446)"/><path class="b" d="M2082.016-1813.156a24.219,24.219,0,0,0-15.17-9.4,1.4,1.4,0,0,1-1.076-.565c-.26-.514.167-1.138.626-1.5s1.024-.685,1.181-1.255a2.45,2.45,0,0,1,.187-.716,1.057,1.057,0,0,1,.649-.377,11.817,11.817,0,0,1,10.177,2.354,20.2,20.2,0,0,1,6.131,8.909c.4,1.053.662,2.453-.205,3.188a2.822,2.822,0,0,1-2.849.575A.876.876,0,0,0,2082.016-1813.156Z" transform="translate(-75.679 -71.156)"/><path class="r" d="M2089.824-1784.879c-.908,9.833,3.4,23.92-3.006,24.646-8.933,1.012-20.28.473-28.781,0-8.885-.495-22.792-.346-24.942-2-2.106-1.619-2.846-7.859-2.75-10.657.96-27.977,1.111-52.272,11.512-73.939.96-2,12.017-9.041,13.43-8.992,15.8.539,17.959.2,33.577,3,4.8.859,2.438,1.047,6.716,6.995,4.547,6.324,3.9,17.972,3.837,25.978C2099.342-1809.755,2091.017-1797.813,2089.824-1784.879Z" transform="translate(-70.94 -67.335)"/><path class="r" d="M2043.64-1848.49c5.031-8.8,8.755-18.431,17.968-19.444,16.1-1.767,28.314,4.414,36.713,22.442" transform="translate(-72.723 -65.673)"/><path class="al" d="M2059.85-1874.107c6.618-.989,22.96-15.655,25.454-14.789.113.945-1.76,10.858-1.6,11.652,1.368,6.58.979,6.705,1.919,11.99-3.881-.118-12.09,1.382-18.734,2.121-.376.042-1.046-1.159-1.412-1.121-.325.032-.346,1.3-.661,1.329-.856.075-.5-.361-1.258-.331-.374.016-2.533,3.995-2.878,4s-.647-2.985-.96-3c-.425-.016-.217-.544-.573-.591C2059.644-1866.243,2059.458-1870.786,2059.85-1874.107Z" transform="translate(-74.802 -62.897)"/><path class="x" d="M2082.86-1887.89c-5.56,3.533-16.817,9.513-23.309,9.685-.336,2.346,2.523,5.9,2.523,5.9,3.325,3.464,10.972,3.079,19.766-5.8,1.223-1.235,2.683-8.145,2.683-9.786" transform="translate(-74.852 -63.037)"/><path class="an" d="M2056.076-1904.625l.382-14.36a5.035,5.035,0,0,1,.153-1.329,4.837,4.837,0,0,1,2.679-2.529c.482-.256,1.13-.489,1.508-.086a1.4,1.4,0,0,1,.143,1.224,57.93,57.93,0,0,1-4.374,13.246" transform="translate(-74.39 -58.311)"/><path class="y" d="M2099.425-1919.588a3.812,3.812,0,0,0-2.295-1.8c-1.444-.243-2.705,1-3.577,2.222-3.79,5.32-5.152,12.044-6.417,18.535l-.908,4.659a5.55,5.55,0,0,0-.071,2.72,1.759,1.759,0,0,0,2.017,1.32l.225.068c3.526-.048,5.511-1.927,7.8-4.721a22.854,22.854,0,0,0,4.346-10.519C2101.227-1911.551,2101.942-1915.928,2099.425-1919.588Z" transform="translate(-78.402 -58.542)"/><g transform="translate(2006.647 -1963.685)"><path class="al" d="M2085.034-1898.7c0-2.947,2.183-3.587,4.381-3.865s3.1.474,3.867,2.775c.861,2.586.562,5.042-1.27,6.9-1.291,1.43-2.632,2.641-4.441,2.905-1.806.16-1.782.212-2.672-.65" transform="translate(-2084.9 1902.623)"/><path class="x" d="M2088.333-1896.092c.058-.354-.152-.657-.169-1.014a1.288,1.288,0,0,1,.178-.68,1.352,1.352,0,0,1,.776-.708,1.269,1.269,0,0,1,.88.3,2.289,2.289,0,0,1,.819,1.092,3.619,3.619,0,0,1,.21,1.632,3.7,3.7,0,0,1-1.175,2.368,3.4,3.4,0,0,1-1.934.786,1.238,1.238,0,0,1-.709-.074.913.913,0,0,1-.461-.715,1.86,1.86,0,0,1,.385-1.316c.26-.3.564-.419.818-.729a1.544,1.544,0,0,0,.411-1.213" transform="translate(-2085.147 1902.07)"/><path class="ao" d="M2089.774-1897.394a3.747,3.747,0,0,1-.033,1.377,3.911,3.911,0,0,1-.776,1.73,1.763,1.763,0,0,1-1.3.7.54.54,0,0,1-.4-.136.616.616,0,0,1-.149-.527.811.811,0,0,1,.424-.507,1.854,1.854,0,0,0,.621-.638,1.62,1.62,0,0,0,.191-1.031,5.418,5.418,0,0,1-.158-.645,1.188,1.188,0,0,1,.142-.6,2.509,2.509,0,0,1,.322-.457c.217-.262.455-.461.684-.2a1.9,1.9,0,0,1,.43.93" transform="translate(-2085.196 1902.063)"/></g><path class="y" d="M2071.339-1876.191a13.633,13.633,0,0,0,8.117-6.537c1.262-2.445,1.61-5.806,2.113-8.6q.97-5.371,1.8-10.776l-1.427-.564a22.817,22.817,0,0,1-4.971,13.342,9.663,9.663,0,0,1-1.8,1.751c-1.611,1.143-1.658,1.585-3.521,1.94a16.226,16.226,0,0,1-4.683,0c-2.525-.587-8.027,5.814-6.869,9.08C2061.249-1873.31,2067.28-1875.1,2071.339-1876.191Z" transform="translate(-74.908 -61.056)"/><path class="y" d="M2053.934-1883.34c-.083-1.682-.921-3.049-.77-4.724a11.471,11.471,0,0,1,1.864-4.6c.452-.6,1.408-1.054,2.038-1.784,1.03-1.194,3.592-.675,4.437.73.931,1.549,2.145.273,2.814,2.107a11.844,11.844,0,0,1-.039,4.468c-.089,1.823.688,4.336.279,6.088-.37,1.794.326,2.839-.84,3.984-1.334,1.183-4.857-.306-6.437-.843s-1.593-.157-2.394-1.156C2053.969-1880.216,2053.93-1881.734,2053.934-1883.34Z" transform="translate(-73.997 -62.068)"/><path class="al" d="M2062.794-1885a6.724,6.724,0,0,1-1.449,3.408,4.649,4.649,0,0,1-1.256.953,3.426,3.426,0,0,1-2.257.473,2.473,2.473,0,0,1-1.815-1.651,6.224,6.224,0,0,1-.225-1.9c-.02-1.4-.246-2.642-.267-4.039a9.1,9.1,0,0,1,.272-1.453c.148-.369.527.238.849.219,1.658-.1,3.306.352,4.964.214.9-.075,1.088-.437,1.384.61A9.521,9.521,0,0,1,2062.794-1885Z" transform="translate(-74.316 -62.845)"/><path class="c" d="M2062.3-1888.313a2.914,2.914,0,0,1-.71.98,3.333,3.333,0,0,1-4.253.642,2.717,2.717,0,0,1-.94-3.433c.011-.025.024-.051.037-.076a1.2,1.2,0,0,1,1.462-.466c1.063.225,2.372.9,3.453.7.3-.056.579-.447.864-.22.422.332.314,1.3.087,1.876" transform="translate(-74.398 -62.652)"/><path class="y" d="M2068.675-1906.75c.148.417-.059.89-.312.918a1.266,1.266,0,0,1-.759-.44,3.311,3.311,0,0,0-2.92-.9,1.958,1.958,0,0,1-.749.12c-.26-.015-.524-.251-.707-.638-.759-1.82,1.749-1.3,2.15-1.208.7.164,2.843.864,3.3,2.151" transform="translate(-75.329 -60.202)"/><path class="y" d="M2056.582-1909.342a.876.876,0,0,0-.309.8c.025.338.139.6.282.658a.49.49,0,0,0,.377-.1,2,2,0,0,1,1.63.478c.768.408.752-1.333.087-1.768a1.874,1.874,0,0,0-2.067-.062" transform="translate(-74.416 -60.124)"/><path class="w" d="M2061.847-1900.176l5.185.984c.323.062.627-.223.676-.63l.423-3.562a.747.747,0,0,0-.5-.854l-5.186-.984c-.323-.061-.627.222-.676.631l-.423,3.561A.747.747,0,0,0,2061.847-1900.176Z" transform="translate(-75.095 -60.712)"/><path class="w" d="M2055.251-1901.2l2.759.585c.26.055.5-.2.542-.566l.395-3.713a.679.679,0,0,0-.4-.766l-2.76-.586c-.259-.054-.5.2-.542.566l-.395,3.713A.679.679,0,0,0,2055.251-1901.2Z" transform="translate(-74.225 -60.575)"/><path class="u" d="M2058.233-1904.291a10.729,10.729,0,0,1-3.221,4.486c-.522.447-1.125.988-.795,1.546.31.521,1.267.735,2.094.876l2.6.442a.656.656,0,0,0,.748-.549,67.217,67.217,0,0,0,.954-6.877c.006-.451.437-1.882-.841-1.865-1.052.01-1.369,1.477-1.536,1.942" transform="translate(-74.128 -60.578)"/><path class="an" d="M2063.781-1901.483a1.613,1.613,0,0,1,.157-.663.858.858,0,0,1,.309-.353.393.393,0,0,1,.271-.071c.145.025.284.174.381.407a2.049,2.049,0,0,1,.144.923c-.059.21-.148.027-.242-.028A3.687,3.687,0,0,0,2063.781-1901.483Z" transform="translate(-75.423 -61.069)"/><path class="an" d="M2056.534-1902.682a1.436,1.436,0,0,1,.135-.576.731.731,0,0,1,.265-.307.327.327,0,0,1,.231-.062c.124.022.244.151.327.353a1.793,1.793,0,0,1,.124.8c-.05.183-.127.023-.207-.024A3.138,3.138,0,0,0,2056.534-1902.682Z" transform="translate(-74.451 -60.927)"/><path class="y" d="M2090.877-1913.676a5.039,5.039,0,0,0,.179-2.895,4.483,4.483,0,0,0-2.208-2.193,32.4,32.4,0,0,0-5.082-2.382,1.329,1.329,0,0,0-.8-.113c-.419.118-.631.591-.791,1.011a20.606,20.606,0,0,0-1.591,5.955,6.912,6.912,0,0,0,1.976,5.617,3.82,3.82,0,0,1,1.211,1.287c.721,1.781.2,7.42,3.358,3.472C2089.194-1906.507,2090.038-1910.511,2090.877-1913.676Z" transform="translate(-77.672 -58.56)"/><path class="y" d="M2093.814-1925.662c-1.759-1.612-4.958-3.459-13.251-8.354-4.606-2.718-12.679-1.822-17.784-.363-7.815,2.232-9.415,15.257-6.277,14.89,4.757-.555,6.209-5.6,13.956-2.572,3.206,1.252,9.836-1.27,12.625.908.742.579,2.615,1.556,3.351,2.143,3.513,2.806,2.925,8.808,7.458.455C2095-1920.6,2097.157-1922.6,2093.814-1925.662Z" transform="translate(-74.245 -56.619)"/><path class="y" d="M2062.771-1871.549a8.591,8.591,0,0,1-4.473-1.806,13.445,13.445,0,0,1-1.592-1.69l-1.122-1.337a5.751,5.751,0,0,1-.875-1.254,2.6,2.6,0,0,1,1.79-.518,7.335,7.335,0,0,1,1.851.414q3.9,1.243,7.709,2.762a14.552,14.552,0,0,1,1.414.625c.58.3,1.125.682,1.717.959.677.319,3.342-1.6,3.878-1.069a6.886,6.886,0,0,1-2.494,1.732,10.17,10.17,0,0,1-3.687,1.227c-.682.026-1.362.072-2.045.073S2063.458-1871.549,2062.771-1871.549Z" transform="translate(-74.207 -64.341)"/><path class="y" d="M2058.59-1884.631c-.167-.036-1.644-.512-1.764-.364-.135.165.336,2,1.176,2.18,1.208.264,2.52-1.01,2.353-1.816C2060.275-1885.02,2058.9-1884.563,2058.59-1884.631Z" transform="translate(-74.487 -63.421)"/><path class="al" d="M2009.27-1825.153c-2.248-.878-8.314-4.33-9.636-6.738-.829-1.51-4.5-3.654-17.69-31.37-.514-1.081,9.593-3.2,9.593-2,0,2,9.8,11.2,19.4,20.19,5.69.683,5.951,1.916,11.64,2.6,1.8.216-.668,19.437-4.989,19.051C2011.364-1823.976,2015.921-1822.556,2009.27-1825.153Z" transform="translate(-64.451 -66.021)"/><path class="b" d="M2020.71-1818.77a5.652,5.652,0,0,1-2.541-4.2c-.5-6.437-1.3-12.017,1.36-16.973,1.179-2.2,4.123-4.763,5.989-3.606a20.844,20.844,0,0,0,2.579,1.19,14.1,14.1,0,0,1,1.569.468c1.447.823,1.957,3.518,1.034,5.466-1.274,2.687-2.954,6.564-3.387,9.4-.383,2.508,2.245,5.574,1.259,7.711-.813,1.764-.684,2.639-2.042,2.278C2024.825-1817.492,2022.258-1817.807,2020.71-1818.77Z" transform="translate(-69.24 -68.941)"/><path class="n" d="M2064.949-1813.209c-4.361,1.643-9.04,2.068-13.621,2.82a47.606,47.606,0,0,1-5.188.709,19.4,19.4,0,0,1-11.921-3.373,6.757,6.757,0,0,1,.521-4.81,138.678,138.678,0,0,0,14.493-1.031,48.012,48.012,0,0,0,11.18-2.464c6.073-2.3,11.246-6.565,16.3-10.758.036-.029.469,6.065.34,6.781a9.13,9.13,0,0,1-2.3,5.1C2071.787-1817.372,2068.829-1814.67,2064.949-1813.209Z" transform="translate(-71.43 -70.512)"/><path class="al" d="M1981.317-1867.417v-.5c-.255.414-.166,1.933-.831.755-1.037-2.665-.771-2.337-1.806-5-.675-1.734-1.244-6.259-1.919-7.994-1.159-2.981-3.557-5.608-4.717-8.589a1.334,1.334,0,0,1-.118-.935c.23-.6,1.076-.487,1.63-.2a8.087,8.087,0,0,1,2.215,1.667c-.29-2.4-2.905-4.666-.929-5.927.959-1,4.035,1.712,4.8,4-.2-.94-1.718-2.058-1.918-3a3.82,3.82,0,0,1,0-1c.275-.507,1.458-.33,1.918,0a8.307,8.307,0,0,1,1.919,2c1.372,3.249,1.506,2.747,2.878,6-.55-3.784-2.564-7.115-1.918-7.993.959-1,1.316-.608,1.918,0a11.306,11.306,0,0,1,1.919,3c1.422,3.995,3.74,7.043,4.357,11.253.843-1.154.782-2.735.981-4.171s.984-3.065,2.374-3.161c1.881.075.941,10.954-.692,16.179a16.566,16.566,0,0,1-3.1,6.165,6.652,6.652,0,0,1-6.017,2.419C1982.054-1862.9,1981.317-1865.079,1981.317-1867.417Z" transform="translate(-63.104 -62.116)"/><path class="c" d="M2019.644-1805.023c0,3.537-2.226,6.4-4.97,6.4s-4.972-2.868-4.972-6.4,2.226-6.4,4.972-6.4,4.97,2.867,4.97,6.4" transform="translate(-68.174 -73.285)"/><path class="r" d="M2064.418-1861.334c.976-.063,1.956.006,2.934.032a66.269,66.269,0,0,0,7.131-.323l4.886-.4,6.336-.515a2.415,2.415,0,0,1-.114,2.111,5.645,5.645,0,0,1-1.4,1.628,15.851,15.851,0,0,1-3.718,2.469c-3.589,1.656-7.667,1.5-11.555,2.052a12.688,12.688,0,0,1-4,.229c-.53-.094-1.045-.269-1.575-.36-.513-.087-1.034-.094-1.55-.156a6.433,6.433,0,0,1-2.4-.766,3.327,3.327,0,0,1-1.294-1.2,8.832,8.832,0,0,1-.608-2.453c-.156-.685-.453-1.594.194-2.129.459-.379,1.014-.125,1.524-.013C2060.953-1860.74,2062.674-1861.221,2064.418-1861.334Z" transform="translate(-74.552 -66.435)"/><path class="r" d="M2064.956-1822.882c2.366-1.327,9.865-6.568,11.621-8.686,3.271-3.945-.821-5.684-.481-10.884.227-3.473.121-7.128-1.945-10.05a6.777,6.777,0,0,0-2.812-2.339c-3.462-1.488-6.1.724-8.35,2.868a97.161,97.161,0,0,1-7.594,6.893c-2.705,2.075-1.285.773-4.592,1.388-5.721,1.064-14.714.852-20.787.866a4.517,4.517,0,0,0-2.109,1.542c-1.261,2.585-1.506,5.961-2.169,8.955-.727,3.286-1.075,6.794-.016,9.98a4.821,4.821,0,0,0,1.524,1.844C2028.353-1819.444,2053.708-1816.576,2064.956-1822.882Z" transform="translate(-70.232 -67.401)"/><path class="b" d="M2064.627-1862.442c1.748-.094,3.5-.187,5.235-.4,4.158-.507,7.842-2.5,11.647-4.32.731-.35,2.027-1.21,2.941-1.594a.723.723,0,0,1,.7.054c1.438,1.017,2.064,3.442,2.18,5,.016.223-1.827,1.567-2.031,1.841-.113.154-7.859,5.953-15.43,5.953-4.989,0-7.907-.653-8.314-.866-1.089-.567-.831-1.732-.831-2.6,0-.743-.177-1.923-.84-2.2a.513.513,0,0,0-.328-.053c-.143.039-.231.184-.3.32-.575,1.1-.574,3.724-1,3.588-.382.107-.585-.451-.609-.862l-.215-3.73c-.59,1-1.119,3.469-1.413,3.193-.367-.207-.394-.736-.362-1.169a26.218,26.218,0,0,1,.723-4.493c.431-1.717,1.231-3.592,2.852-4.143l.026,3.26c.006.8-.271,2.334.066,3.051.33.7,1.485.364,2.08.333Z" transform="translate(-74.333 -65.58)"/><g transform="translate(2263.068 -2358.196)"><circle class="c" cx="2.549" cy="2.549" r="2.549" transform="translate(51.974 162.474)"/><circle class="c" cx="1.043" cy="1.043" r="1.043" transform="translate(129.788 67.805)"/><path class="ap" d="M2392.511-2357.7l1.391,7.763a.369.369,0,0,0,.347.347l8.92,2.317c.232.116.464.347.348.579a.37.37,0,0,1-.348.347l-8.573,1.854a.37.37,0,0,0-.347.347l-1.275,7.646a.442.442,0,0,1-.579.347.307.307,0,0,1-.347-.347l-2.2-7.646a.522.522,0,0,0-.347-.347l-8.11-1.97c-.232-.115-.464-.347-.348-.579a.524.524,0,0,1,.348-.347l7.994-1.969a.37.37,0,0,0,.347-.348l1.854-8.11c.116-.231.347-.463.579-.347a.62.62,0,0,1,.347.463Z" transform="translate(-2381.01 2358.196)"/></g></g></svg>