<svg xmlns="http://www.w3.org/2000/svg" width="98.329" height="77.093" viewBox="0 0 98.329 77.093"><defs><style>.a{fill:#fff;}</style></defs><g transform="translate(-1 -9)"><path class="a" d="M99.329,70.258,79.536,54.424v9.552H65.381A31.289,31.289,0,0,0,70.808,52.5l5.587-1.445V39.191l-5.579-1.412a31.113,31.113,0,0,0-3.762-9.044l2.956-4.959-8.394-8.392-4.959,2.955a31.129,31.129,0,0,0-9.043-3.762L46.2,9H34.332L32.92,14.579a31.086,31.086,0,0,0-9.043,3.762l-4.959-2.955-8.394,8.392,2.956,4.959a31.138,31.138,0,0,0-3.762,9.044L4.141,39.192V51.059l5.582,1.425a31.1,31.1,0,0,0,5.449,11.491H1V76.541H79.536v9.552ZM4.141,73.4V67.117H17.9A31.748,31.748,0,0,0,26.677,73.4Zm36.127,0A28.366,28.366,0,0,1,12.584,50.883l-.2-.961-5.1-1.3V41.637l5.1-1.29.2-.964a28.019,28.019,0,0,1,4.057-9.757l.54-.821-2.7-4.533,4.935-4.935,4.533,2.7.821-.54a28.019,28.019,0,0,1,9.757-4.057l.964-.2,1.29-5.1h6.979l1.29,5.1.964.2A28.019,28.019,0,0,1,55.768,21.5l.821.54,4.533-2.7,4.935,4.935-2.7,4.533.54.821a28.019,28.019,0,0,1,4.057,9.757l.2.964,5.1,1.291v6.985l-5.106,1.321-.2.957a28.187,28.187,0,0,1-6.628,13.075H51.538a21.944,21.944,0,1,0-11.27,3.143h42.41V60.961l11.622,9.3-11.622,9.3V73.4Zm0-9.424A18.849,18.849,0,1,1,59.117,45.127,18.87,18.87,0,0,1,40.268,63.975Z"/><path class="a" d="M19.968,29.446l-2.917-1.165a15.789,15.789,0,0,0-.927,3.357l3.1.493A12.513,12.513,0,0,1,19.968,29.446Z" transform="translate(8.632 11.004)"/><path class="a" d="M19.155,32.507,16.02,32.7a15.592,15.592,0,0,0,.6,3.434l3.014-.883A12.575,12.575,0,0,1,19.155,32.507Z" transform="translate(8.572 13.416)"/><path class="a" d="M17.26,37.418a15.813,15.813,0,0,0,2.022,2.835l2.34-2.1A12.545,12.545,0,0,1,20,35.888Z" transform="translate(9.28 15.346)"/><path class="a" d="M32.424,37.707a4.706,4.706,0,0,0-3.141-4.423V22H26.141V33.284a4.7,4.7,0,0,0,1.571,9.135,4.635,4.635,0,0,0,2.018-.473l4.725,4.725,2.221-2.221-4.725-4.725A4.635,4.635,0,0,0,32.424,37.707Zm-4.712,1.571a1.571,1.571,0,1,1,1.571-1.571A1.573,1.573,0,0,1,27.712,39.278Z" transform="translate(12.556 7.419)"/></g></svg>