<svg xmlns="http://www.w3.org/2000/svg" width="79.553" height="79.553" viewBox="0 0 79.553 79.553"><defs><style>.a{fill:#fff;}</style></defs><g transform="translate(-3135.844 -2837.92)"><path class="a" d="M3485.8,2933.414l-.959-.982a1.253,1.253,0,1,0-1.794,1.75l.958.983a1.254,1.254,0,0,0,1.795-1.751Z" transform="translate(-283.352 -76.903)"/><path class="a" d="M3210.47,2888.96a2.462,2.462,0,0,1,.525-2.7l1.867-1.868-5.446-5.446-1.87,1.868a2.475,2.475,0,0,1-2.747.5,2.444,2.444,0,0,1-1.517-2.268v-2.637h-2.632a22.737,22.737,0,0,0-1.137-5.965l14.848-14.848a10.356,10.356,0,1,0-14.645-14.647l-14.833,14.834a22.784,22.784,0,0,0-6.052-1.13,10.211,10.211,0,0,0-11.727-4.787,12.806,12.806,0,0,0-23.79,8.911,7.7,7.7,0,0,0,2.226,15.066h9.308a23.224,23.224,0,0,0-.326,3.849,17.621,17.621,0,0,0,1.365,7.085l-11.446,11.448-6.37,16.56a3.412,3.412,0,0,0-.229,1.236,3.448,3.448,0,0,0,4.685,3.218l16.56-6.369,8.37-8.371a5.094,5.094,0,0,1-.1,5.988,3.843,3.843,0,0,0,2.874,3.708,7.816,7.816,0,0,0,14.782,0,3.844,3.844,0,0,0,2.874-3.708c0-.1-.022-.186-.028-.28l1.594,1.594,1.869-1.868a2.513,2.513,0,0,1,4.264,1.767v2.637h7.7V2909.7a2.515,2.515,0,0,1,4.265-1.767l1.868,1.868,5.446-5.446-1.867-1.868a2.482,2.482,0,0,1-.5-2.747,2.449,2.449,0,0,1,2.27-1.518h2.637v-7.7h-2.637A2.469,2.469,0,0,1,3210.47,2888.96Zm-10.937-46.193a7.79,7.79,0,0,1,11.017,11.017l-1.568,1.568-11.017-11.017Zm-7.761,7.761.529-.529,4.342,4.342a1.246,1.246,0,0,0,1.772-1.751l-4.3-4.406.373-.373,1.662-1.663,11.017,11.017-1.741,1.741-.294.294-1.814,1.814-.428.428-6.425,6.425a23.309,23.309,0,0,0-3.68-5.521l0,0-1.814-1.816a23.255,23.255,0,0,0-5.519-3.684Zm-48.229,20.752a5.133,5.133,0,1,1,5.025-6.179,1.283,1.283,0,1,0,2.515-.512,7.709,7.709,0,0,0-7.211-6.123,10.254,10.254,0,0,1,18.878-7.586,10.273,10.273,0,0,0-5.028,7.731,5.158,5.158,0,0,0-3.639,3.317,1.254,1.254,0,0,0,1.191,1.653h.058a1.275,1.275,0,0,0,1.193-.865,2.567,2.567,0,0,1,4.836.008,1.259,1.259,0,0,0,1.181.857h.083a1.241,1.241,0,0,0,1.182-1.63,5.159,5.159,0,0,0-3.5-3.294,7.689,7.689,0,1,1,15.032,3.055,6.456,6.456,0,0,0-3.357,4.1,1.286,1.286,0,0,0,1.237,1.622h0a1.271,1.271,0,0,0,1.237-.948,3.85,3.85,0,1,1,3.731,4.8Zm-3.934,43.567a.882.882,0,0,1-1.141-1.138l1.286-3.344,3.2,3.2Zm5.962-2.293-4.809-4.809,3.27-8.5,10.039,10.039Zm10.8-4.595-11.017-11.017h0l9.79-9.79a28.858,28.858,0,0,0,4.225,4.977l1.832,1.8a23.268,23.268,0,0,1,4.124,5.077h0Zm5.638-16.837c-3.56-3.471-6.921-6.75-6.921-13.427a20.7,20.7,0,0,1,.4-3.849h13.719v3.849a3.854,3.854,0,0,0,3.85,3.849h10.265a1.283,1.283,0,1,1,0,2.566h-12.831a3.849,3.849,0,1,0,0,7.7h2.566a1.284,1.284,0,0,1,1.283,1.283v6.415h-5.132a3.789,3.789,0,0,0-.759.077C3166.98,2895.985,3164.463,2893.514,3162.012,2891.123Zm13.608,23.784a5.272,5.272,0,0,1-4.521-2.566h9.043A5.273,5.273,0,0,1,3175.621,2914.907Zm6.416-5.132h-12.832a1.283,1.283,0,1,1,0-2.566h12.832a1.283,1.283,0,0,1,0,2.566Zm0-5.133h-12.832a1.283,1.283,0,0,1,0-2.566h12.832a1.283,1.283,0,0,1,0,2.566Zm.759-5.055a3.792,3.792,0,0,0-.759-.077H3176.9v-6.415a3.854,3.854,0,0,0-3.849-3.85h-2.566a1.283,1.283,0,1,1,0-2.566h12.831a3.849,3.849,0,1,0,0-7.7h-10.265a1.285,1.285,0,0,1-1.283-1.283v-3.849h6.416a6.416,6.416,0,0,0,0-12.831c-.036,0-.069.01-.1.01a9.175,9.175,0,0,0-.2-3.726,20.64,20.64,0,0,1,18.266,20.4c0,6.676-3.361,9.956-6.921,13.427C3186.779,2893.514,3184.261,2895.985,3182.8,2899.587Zm14.638-11.625a6.479,6.479,0,1,1-6.189,4.781,38.257,38.257,0,0,0,4.012-4.377A6.342,6.342,0,0,1,3197.434,2887.962Zm15.4,7.7h-.07a5.081,5.081,0,0,0-3.582,8.646l.054.054-1.817,1.817-.054-.054a5.08,5.08,0,0,0-8.646,3.581v.071h-2.566v-.071a5.08,5.08,0,0,0-8.646-3.581l-.054.054-1.738-1.739a3.768,3.768,0,0,0,.174-1.079,3.812,3.812,0,0,0-.862-2.4,16.548,16.548,0,0,1,3.505-5.469,8.978,8.978,0,1,0,8.9-10.1c-.125,0-.248.013-.372.018a16.841,16.841,0,0,0,1.616-6.434h.04v.071a5.081,5.081,0,0,0,8.646,3.581l.054-.054,1.817,1.817-.054.054a5.081,5.081,0,0,0,3.582,8.646h.07Z" transform="translate(0)"/></g></svg>