<svg xmlns="http://www.w3.org/2000/svg" xmlns:xlink="http://www.w3.org/1999/xlink" width="132" height="132" viewBox="0 0 132 132"><defs><style>.a{fill:url(#a);}.b{fill:#fff;}</style><linearGradient id="a" x1="0.153" y1="0.145" x2="0.898" y2="0.821" gradientUnits="objectBoundingBox"><stop offset="0" stop-color="#1681e3"/><stop offset="1" stop-color="#09a7fe"/></linearGradient></defs><g transform="translate(-635 -4397)"><circle class="a" cx="66" cy="66" r="66" transform="translate(635 4397)"/><path class="b" d="M3194.049,3664.716a4.3,4.3,0,0,0-1.265-3.061l-2.4-2.391a4.348,4.348,0,0,0-5.142-.734l-.131.073-4.766-4.761.361-.361a4.511,4.511,0,0,0,0-6.37,4.466,4.466,0,0,0-2.262-1.223l-.211-.044.06-.208a4.531,4.531,0,0,0,.18-1.265,4.5,4.5,0,0,0-3.58-4.408l-.211-.044.06-.208a4.543,4.543,0,0,0,.179-1.265,4.5,4.5,0,0,0-3.58-4.406l-.211-.043.06-.208a4.5,4.5,0,0,0-4.808-5.741l-.019,0-.029,0-8.964-1.7c-1.32-.25-2.965-.42-3.976.5a2.281,2.281,0,0,0-.188.2l-.09.105-.13-.048a4.535,4.535,0,0,0-4.743,1.043,4.472,4.472,0,0,0-1.316,3.186,4.543,4.543,0,0,0,.179,1.265l.06.208-.212.044a4.5,4.5,0,0,0-3.579,4.4,4.537,4.537,0,0,0,.179,1.269l.06.207-.212.044a4.507,4.507,0,0,0-2.793,6.954l.149.218-.25.085a4.443,4.443,0,0,0-1.731,1.077,4.513,4.513,0,0,0,0,6.374l.361.359-4.76,4.751-.127-.06a4.348,4.348,0,0,0-4.909.85l-2.4,2.392a4.335,4.335,0,0,0,0,6.121l2.994,2.991a1.158,1.158,0,0,0,1.636-1.638l-2.994-2.991a2.019,2.019,0,0,1,0-2.844l2.4-2.393a2.014,2.014,0,0,1,2.458-.3l.045.038a1.488,1.488,0,0,0,.165.2,1.15,1.15,0,0,0,.333.231l.04.025,13.8,13.781.01.021a1.172,1.172,0,0,0,.237.347,1.151,1.151,0,0,0,.326.228l.044.029a2.011,2.011,0,0,1-.063,2.771l-2.4,2.394a2.022,2.022,0,0,1-2.848,0l-2.995-2.994a1.157,1.157,0,1,0-1.637,1.636l3,3a4.345,4.345,0,0,0,6.119,0l2.4-2.4a4.338,4.338,0,0,0,.607-5.358l-.084-.135,5.213-5.206.03-.029.023-.023h0c.682-.612,2.3-.5,3.875-.389a19.56,19.56,0,0,0,3.535.025l.1-.011.068.069,5.676,5.668-.072.132a4.336,4.336,0,0,0,.736,5.136l2.4,2.4a4.339,4.339,0,0,0,6.12,0l14.548-14.531A4.293,4.293,0,0,0,3194.049,3664.716Zm-39.1-36.169.149-.037a4.776,4.776,0,0,1,1.837.116l6.26,1.185-3.892,3.89-.127-.06a8.7,8.7,0,0,1-2.165-1.572,6.432,6.432,0,0,1-2.058-3.211,1.473,1.473,0,0,1-.007-.158Zm-5.074,1.241a2.2,2.2,0,0,1,2.786-.264l.042.029.034.064a9.577,9.577,0,0,0,2.673,4.125,9.91,9.91,0,0,0,3.82,2.373l.048.011.054.047a2.2,2.2,0,0,1,.406,1.274,2.193,2.193,0,0,1-3.742,1.547l-6.122-6.111a2.2,2.2,0,0,1,0-3.1Zm-3.547,5.923a2.2,2.2,0,0,1,3.1,0l4.929,4.919a2.195,2.195,0,0,1-3.106,3.1l-3.664-3.663h0l-1.263-1.263a2.192,2.192,0,0,1,0-3.1Zm-3.554,5.922a2.208,2.208,0,0,1,3.093-.01l3.752,3.75a2.192,2.192,0,0,1-3.1,3.095l-3.74-3.734a2.2,2.2,0,0,1,0-3.1Zm-2.364,7.115a2.206,2.206,0,0,1,3.107,0l1.362,1.36a2.192,2.192,0,0,1-3.107,3.093l-1.36-1.355A2.193,2.193,0,0,1,3140.415,3648.748Zm25.386,19.377.208-.134a5.177,5.177,0,0,0,.858-.691l11.09-11.083a1.157,1.157,0,0,0,0-1.637,1.185,1.185,0,0,0-1.637,0l-11.091,11.083c-1.212,1.211-3.337,1.064-5.391.921-2.139-.148-4.35-.3-5.748,1.132l-5.143,5.136-12.786-12.766,4.678-4.67.134.083a4.507,4.507,0,0,0,6.861-3.844l0-.24.239.005a4.5,4.5,0,0,0,4.5-4.5l0-.235h.221a4.489,4.489,0,0,0,4.521-4.534v-.2h.222a4.509,4.509,0,0,0,3.863-6.853l-.082-.134,3.989-3.988a2.19,2.19,0,0,1,1.121-.6c.051-.006.084-.011.118-.019a2.189,2.189,0,0,1,1.872,3.713l-2.554,2.546a1.158,1.158,0,0,0,0,1.637,1.159,1.159,0,0,0,1.637,0l1.366-1.363a2.2,2.2,0,0,1,3.1.007,2.191,2.191,0,0,1,0,3.1l-2.548,2.545a1.158,1.158,0,0,0,1.634,1.641l1.366-1.361a2.192,2.192,0,1,1,3.1,3.1l-2.368,2.368a1.158,1.158,0,0,0,0,1.638,1.185,1.185,0,0,0,1.637,0l1.224-1.224h0a2.192,2.192,0,0,1,3.058,3.141l-3.056,3.052a1.159,1.159,0,0,0,0,1.637,1.186,1.186,0,0,0,1.637,0l1.057-1.056,4.674,4.668-12.785,12.77Zm25.346-1.986-14.549,14.531a2.024,2.024,0,0,1-2.848,0l-2.4-2.4a2.015,2.015,0,0,1,0-2.841L3185.9,3660.9a2.024,2.024,0,0,1,2.849,0l2.4,2.391a2.02,2.02,0,0,1,0,2.845Z" transform="translate(-2458.88 808.761)"/><path class="b" d="M3150.663,3759.188l-1.071-1.071a1.383,1.383,0,0,0-1.956,1.956l1.07,1.071a1.383,1.383,0,0,0,1.957-1.956Z" transform="translate(-2472.896 723.195)"/></g></svg>