<svg xmlns="http://www.w3.org/2000/svg" xmlns:xlink="http://www.w3.org/1999/xlink" width="130.613" height="130.614" viewBox="0 0 130.613 130.614"><defs><style>.a{fill:url(#a);}.b{fill:#fff;}</style><linearGradient id="a" x1="0.11" y1="0.185" x2="0.954" y2="0.866" gradientUnits="objectBoundingBox"><stop offset="0" stop-color="#003ba8"/><stop offset="1" stop-color="#29218c"/></linearGradient></defs><g transform="translate(-1160.033 -3639.998)"><circle class="a" cx="65.307" cy="65.307" r="65.307" transform="translate(1160.033 3639.998)"/><g transform="translate(1188.049 3659.466)"><path class="b" d="M10.526,33.9c.389-.9.82-1.769,1.284-2.605a29.514,29.514,0,0,1,1.936-3.053,1.1,1.1,0,0,1,1.79,1.3,27.544,27.544,0,0,0-1.8,2.827c-.28.5-.544,1.016-.79,1.535h4.031a1.1,1.1,0,0,1,1.108,1.1v9.685a7,7,0,0,1-.619,2.881,9.627,9.627,0,0,1,2.911,1.819,4.9,4.9,0,0,1,1.71,3.575v5.4a1.11,1.11,0,0,1-1.108,1.108H14.109c.364.623.753,1.234,1.162,1.823a26.85,26.85,0,0,0,2.5,3.09,1.1,1.1,0,0,1-1.61,1.514,30.043,30.043,0,0,1-2.71-3.341,29.631,29.631,0,0,1-1.878-3.086H1.108A1.11,1.11,0,0,1,0,58.366v-5.4a4.9,4.9,0,0,1,1.685-3.554,9.673,9.673,0,0,1,2.935-1.84A7,7,0,0,1,4,44.692v-6.36A4.433,4.433,0,0,1,8.43,33.9h2.1Zm58.791,9.12-5.838-1.978L59.66,42.919v1.773a4.828,4.828,0,0,0,9.656,0ZM59.66,40.465,62.855,38.9a1.094,1.094,0,0,1,.9-.092l5.558,1.882V38.332A2.228,2.228,0,0,0,67.1,36.116H61.872a2.22,2.22,0,0,0-2.212,2.216v2.133ZM6.214,39.139h9.66V36.116H8.43a2.228,2.228,0,0,0-2.216,2.216v.807Zm9.66,2.212H6.214v3.341a4.83,4.83,0,0,0,9.66,0V41.351ZM42.595,63.234A7.693,7.693,0,0,1,36.3,61.553a5.792,5.792,0,0,1-3.366.8v2.68a4.83,4.83,0,0,0,9.66,0Zm-9.66-3.095a3.564,3.564,0,0,0,2.743-.832l0,0,.025-.025a1.1,1.1,0,0,1,1.556.113,5.494,5.494,0,0,0,5.332,1.61V58.676a2.227,2.227,0,0,0-2.216-2.216H35.151a2.227,2.227,0,0,0-2.216,2.216v1.464ZM16.221,49.451a7.015,7.015,0,0,1-10.354,0,7.853,7.853,0,0,0-2.659,1.556,2.775,2.775,0,0,0-1,1.957v4.295H19.876V52.968A2.776,2.776,0,0,0,18.864,51a7.91,7.91,0,0,0-2.643-1.547Zm55.307-4.759a7,7,0,0,1-.619,2.881,9.719,9.719,0,0,1,2.931,1.836,4.9,4.9,0,0,1,1.689,3.559v5.4a1.106,1.106,0,0,1-1.1,1.108H63.913A31.317,31.317,0,0,1,62.006,62.5a31.9,31.9,0,0,1-2.726,3.324,1.1,1.1,0,0,1-1.61-1.514,29.22,29.22,0,0,0,2.538-3.09q.608-.853,1.154-1.748H54.55a1.11,1.11,0,0,1-1.108-1.108v-5.4A4.911,4.911,0,0,1,55.148,49.4a9.631,9.631,0,0,1,2.919-1.823,6.933,6.933,0,0,1-.623-2.881v-6.36A4.433,4.433,0,0,1,61.872,33.9H62.6c-.238-.51-.5-1.012-.774-1.505a27.308,27.308,0,0,0-1.836-2.869,1.1,1.1,0,0,1,1.781-1.3,29.822,29.822,0,0,1,1.982,3.1A28.322,28.322,0,0,1,65.017,33.9H67.1a4.426,4.426,0,0,1,4.428,4.428v6.36Zm-1.865,4.763a7.019,7.019,0,0,1-10.354,0A7.863,7.863,0,0,0,56.662,51a2.778,2.778,0,0,0-1,1.965v4.295H73.318V52.968a2.765,2.765,0,0,0-1-1.957,7.79,7.79,0,0,0-2.655-1.556ZM44.807,65.036a6.983,6.983,0,0,1-.619,2.881,9.73,9.73,0,0,1,2.931,1.84,6.016,6.016,0,0,1,1.029,1.263,26.92,26.92,0,0,0,2.588-1.267,28.223,28.223,0,0,0,3.354-2.2A1.1,1.1,0,1,1,55.428,69.3a30.344,30.344,0,0,1-3.621,2.379,28.337,28.337,0,0,1-3,1.455c0,.058,0,.121,0,.18v5.4a1.1,1.1,0,0,1-1.1,1.1H27.829a1.106,1.106,0,0,1-1.108-1.1v-5.4c0-.059,0-.117,0-.176a30.75,30.75,0,0,1-3.069-1.455,29.657,29.657,0,0,1-3.613-2.321A1.1,1.1,0,1,1,21.364,67.6a28.1,28.1,0,0,0,3.345,2.145,27.435,27.435,0,0,0,2.668,1.275A6.171,6.171,0,0,1,28.4,69.77a9.6,9.6,0,0,1,2.948-1.848,6.936,6.936,0,0,1-.623-2.885v-6.36a4.44,4.44,0,0,1,4.428-4.428h5.227a4.44,4.44,0,0,1,4.428,4.428v6.36ZM42.942,69.8a7.019,7.019,0,0,1-10.354,0,7.846,7.846,0,0,0-2.668,1.568,2.761,2.761,0,0,0-.987,1.949v4.29H46.6v-4.29a2.767,2.767,0,0,0-1-1.957,7.854,7.854,0,0,0-2.66-1.56ZM18.688,25.908a1.1,1.1,0,0,1-1.531-1.589,28.78,28.78,0,0,1,5.29-4.044A15.363,15.363,0,0,1,53.078,20.2c.865.531,1.7,1.108,2.5,1.719a29.975,29.975,0,0,1,2.773,2.392,1.1,1.1,0,1,1-1.535,1.581,28.787,28.787,0,0,0-2.576-2.216c-.385-.3-.778-.577-1.171-.849-.343,4.2-2.22,7.059-4.023,9.794-1.631,2.48-3.195,4.855-3.22,8.046l0,5.114a5.361,5.361,0,0,1-5.344,5.344H35.043A5.354,5.354,0,0,1,29.7,45.779l0-5.114c-.029-3.191-1.589-5.566-3.22-8.046-1.8-2.726-3.667-5.566-4.019-9.743-.414.276-.82.565-1.217.861a26.387,26.387,0,0,0-2.559,2.17ZM31.911,44.1H43.619V41.861H31.911Zm11.663,2.212H31.957a3.144,3.144,0,0,0,3.086,2.6h5.449a3.144,3.144,0,0,0,3.082-2.6ZM36.7,29.885c-.18-.661-.493-1.564-.849-2.6-1-2.889-2.329-6.737-2.329-9.643,0-2.789,1.066-4.78,4.244-4.78s4.249,1.99,4.249,4.78c0,2.906-1.33,6.753-2.329,9.643-.36,1.037-.673,1.949-.857,2.609a1.1,1.1,0,0,1-2.128-.013Zm-.966-12.24c0,2.417,1.116,5.783,2.032,8.447.92-2.664,2.037-6.03,2.037-8.447,0-1.5-.514-2.568-2.037-2.568S35.733,16.148,35.733,17.645Zm.928,16.145a1.106,1.106,0,0,1,2.212,0v1.15a1.106,1.106,0,0,1-2.212,0Zm-4.8,5.859H43.674c.293-3.308,1.882-5.725,3.538-8.238,1.811-2.752,3.7-5.633,3.7-9.965a13.149,13.149,0,1,0-26.3,0c0,4.332,1.894,7.213,3.7,9.965,1.652,2.513,3.245,4.93,3.534,8.238Z" transform="translate(0)"/></g></g></svg>