<svg xmlns="http://www.w3.org/2000/svg" xmlns:xlink="http://www.w3.org/1999/xlink" viewBox="0 0 130.61 130.61"><defs><style>.cls-1{fill:url(#Degradado_sin_nombre_3);}.cls-2{fill:#fff;}</style><linearGradient id="Degradado_sin_nombre_3" x1="-1075.79" y1="-4.5" x2="-1075.17" y2="-5.28" gradientTransform="matrix(130.61, 0, 0, -130.61, 140539.96, -570.97)" gradientUnits="userSpaceOnUse"><stop offset="0" stop-color="#654ace"/><stop offset="1" stop-color="#9769f6"/></linearGradient></defs><g id="Capa_2" data-name="Capa 2"><g id="Layer_1" data-name="Layer 1"><circle id="Ellipse_370" data-name="Ellipse 370" class="cls-1" cx="65.31" cy="65.31" r="65.31"/><g id="Group_1056" data-name="Group 1056"><path id="Path_1890" data-name="Path 1890" class="cls-2" d="M60.32,39.08H59a1.17,1.17,0,0,0,0,2.33h1.28a1.17,1.17,0,0,0,0-2.33Z"/><path id="Path_1891" data-name="Path 1891" class="cls-2" d="M66.63,39.08H65.35a1.17,1.17,0,1,0,0,2.33h1.27a1.17,1.17,0,1,0,0-2.33Z"/><path id="Path_1892" data-name="Path 1892" class="cls-2" d="M71.1,94.73H69.82a1.17,1.17,0,0,0,0,2.33H71.1a1.17,1.17,0,0,0,0-2.33Z"/><path id="Path_1893" data-name="Path 1893" class="cls-2" d="M64.22,94.73H63a1.17,1.17,0,1,0,0,2.33h1.27a1.17,1.17,0,1,0,0-2.33Z"/><g id="Group_1055" data-name="Group 1055"><g id="Group_1039" data-name="Group 1039"><g id="Group_1038" data-name="Group 1038"><g id="Group_1037" data-name="Group 1037"><path id="Path_1894" data-name="Path 1894" class="cls-2" d="M83.93,33.66A13.83,13.83,0,0,0,70.1,47.49h0v.87L65.91,59.89a1.07,1.07,0,0,0,.64,1.36,1.1,1.1,0,0,0,.36.07h5.32V67.7a1.06,1.06,0,0,0,1.06,1.06H83.93V73A1.07,1.07,0,0,0,85,74.08h11.7A1.07,1.07,0,0,0,97.76,73V47.48A13.83,13.83,0,0,0,83.93,33.66ZM95.63,72H86.06V67.7A1.06,1.06,0,0,0,85,66.64H74.36V60.26a1.07,1.07,0,0,0-1.07-1.07H68.43l3.74-10.27a1.15,1.15,0,0,0,.06-.37V47.49a11.71,11.71,0,0,1,23.41,0h0Z"/><path id="Path_1895" data-name="Path 1895" class="cls-2" d="M96.7,74.18H85A1.17,1.17,0,0,1,83.84,73V68.85H73.29a1.16,1.16,0,0,1-1.16-1.16V61.41H66.91a1.18,1.18,0,0,1-1.16-1.17,1.07,1.07,0,0,1,.07-.39L70,48.34v-.86a13.93,13.93,0,1,1,27.86,0V73A1.16,1.16,0,0,1,96.7,74.18ZM83.93,33.75A13.75,13.75,0,0,0,70.2,47.48v.91L66,59.92a1,1,0,0,0,.91,1.3h5.42v6.47a1,1,0,0,0,1,1H84V73a1,1,0,0,0,1,1h11.7a1,1,0,0,0,1-1h0V47.48A13.74,13.74,0,0,0,83.93,33.75Zm11.8,38.3H86V67.69a1,1,0,0,0-1-1H74.26V60.24a1,1,0,0,0-1-1h-5l3.78-10.41a1,1,0,0,0,.06-.33V47.48a11.8,11.8,0,0,1,23.6,0Zm-9.57-.2h9.38V47.48a11.61,11.61,0,0,0-23.21,0v1.07a1.34,1.34,0,0,1-.07.39L68.57,59.09h4.72a1.16,1.16,0,0,1,1.16,1.16v6.29H85a1.17,1.17,0,0,1,1.17,1.16Z"/></g></g></g><g id="Group_1042" data-name="Group 1042"><g id="Group_1041" data-name="Group 1041"><g id="Group_1040" data-name="Group 1040"><path id="Path_1896" data-name="Path 1896" class="cls-2" d="M81.86,47.36a4,4,0,0,1-5.68,0h0l-1.51,1.52a6.17,6.17,0,0,0,8.7,0Z"/><path id="Path_1897" data-name="Path 1897" class="cls-2" d="M79,50.77a6.25,6.25,0,0,1-4.42-1.83l-.07-.06,1.65-1.65.07.07a3.94,3.94,0,0,0,5.54,0l.07-.07,1.65,1.65-.07.06A6.24,6.24,0,0,1,79,50.77ZM74.8,48.88a6.09,6.09,0,0,0,8.43,0L81.86,47.5a4.13,4.13,0,0,1-5.68,0Z"/></g></g></g><g id="Group_1045" data-name="Group 1045"><g id="Group_1044" data-name="Group 1044"><g id="Group_1043" data-name="Group 1043"><path id="Path_1898" data-name="Path 1898" class="cls-2" d="M65.78,82.23,61.59,70.69v-.87a13.83,13.83,0,0,0-27.66,0V95.36A1.07,1.07,0,0,0,35,96.42H46.7a1.07,1.07,0,0,0,1.06-1.07V91.1H58.4A1.07,1.07,0,0,0,59.46,90h0V83.65h5.32a1.06,1.06,0,0,0,1.06-1.07,1,1,0,0,0-.06-.35Zm-7.38-.7a1.05,1.05,0,0,0-1.06,1.06h0V89H46.7A1.07,1.07,0,0,0,45.63,90v4.25H36.06V69.82a11.7,11.7,0,1,1,23.4,0h0v1.06a.86.86,0,0,0,.07.36l3.73,10.28Z"/><path id="Path_1899" data-name="Path 1899" class="cls-2" d="M46.7,96.51H35a1.16,1.16,0,0,1-1.16-1.16V69.82a13.93,13.93,0,1,1,27.85-.23v1.08l4.19,11.52a1.17,1.17,0,0,1-.71,1.49,1.23,1.23,0,0,1-.39.07H59.56V90a1.16,1.16,0,0,1-1.16,1.16H47.86v4.16A1.16,1.16,0,0,1,46.7,96.51Zm1.06-40.42A13.74,13.74,0,0,0,34,69.82V95.36a1,1,0,0,0,1,1h11.7a1,1,0,0,0,1-1V91H58.4a1,1,0,0,0,1-1V83.55h5.41a1,1,0,0,0,.91-1.29l-4.2-11.57v-.87A13.74,13.74,0,0,0,47.76,56.09Zm-2,38.3H36V69.82a11.8,11.8,0,0,1,23.6,0v1.07a.87.87,0,0,0,.06.32L63.4,81.62h-5a1,1,0,0,0-1,1v6.47H46.7a1,1,0,0,0-1,1Zm-9.58-.2h9.39V90a1.16,1.16,0,0,1,1.16-1.16H57.24V82.59a1.16,1.16,0,0,1,1.16-1.16h4.72L59.44,71.28a1.07,1.07,0,0,1-.07-.39V69.82a11.61,11.61,0,0,0-23.22,0Z"/></g></g></g><g id="Group_1048" data-name="Group 1048"><g id="Group_1047" data-name="Group 1047"><g id="Group_1046" data-name="Group 1046"><path id="Path_1900" data-name="Path 1900" class="cls-2" d="M54.62,69.7a4,4,0,0,1-5.68,0l-1.51,1.52a6.16,6.16,0,0,0,8.7,0Z"/><path id="Path_1901" data-name="Path 1901" class="cls-2" d="M51.78,73.11a6.25,6.25,0,0,1-4.42-1.83l-.07-.07,1.65-1.64.07.07a3.94,3.94,0,0,0,5.54,0l.07-.07,1.65,1.64-.07.07A6.25,6.25,0,0,1,51.78,73.11Zm-4.22-1.9a6.07,6.07,0,0,0,8.43,0l-1.37-1.37a4.13,4.13,0,0,1-5.68,0Z"/></g></g></g><g id="Group_1051" data-name="Group 1051"><g id="Group_1050" data-name="Group 1050"><g id="Group_1049" data-name="Group 1049"><path id="Path_1902" data-name="Path 1902" class="cls-2" d="M92.14,83.43a1.07,1.07,0,0,0-1.51,0h0l-3.14,3.15a.06.06,0,0,0,0,.09h0l1.42,1.42a.07.07,0,0,0,.09,0h0l1.21-1.22a.08.08,0,0,1,.1,0s0,0,0,0v4.66a3.25,3.25,0,0,1-3.26,3.25H70.53a.07.07,0,0,0-.07.07h0v2a.07.07,0,0,0,.07.07H87.06a5.39,5.39,0,0,0,5.38-5.39V86.91a.07.07,0,0,1,.07-.07l0,0,1.21,1.22a.06.06,0,0,0,.09,0h0l1.41-1.41a.06.06,0,0,0,0-.09h0Z"/><path id="Path_1903" data-name="Path 1903" class="cls-2" d="M87.06,97H70.53a.16.16,0,0,1-.17-.15h0v-2a.16.16,0,0,1,.16-.16H87.06a3.18,3.18,0,0,0,3.16-3.17V87l-1.16,1.17a.17.17,0,0,1-.23,0l-1.42-1.41a.16.16,0,0,1,0-.11.17.17,0,0,1,0-.12l3.18-3.18a1.15,1.15,0,0,1,.79-.31h0a1.15,1.15,0,0,1,.82.34l3.14,3.15a.16.16,0,0,1,0,.22h0l-1.41,1.41a.17.17,0,0,1-.23,0L92.54,87v4.58A5.49,5.49,0,0,1,87.06,97Zm-16.5-.19h16.5a5.3,5.3,0,0,0,5.29-5.29V86.91a.15.15,0,0,1,.1-.15.14.14,0,0,1,.17,0L93.81,88l1.38-1.37-3.13-3.13a.94.94,0,0,0-.68-.28h0a1,1,0,0,0-.68.28l-3.13,3.13L88.94,88l1.19-1.2a.17.17,0,0,1,.28.12v4.65a3.37,3.37,0,0,1-3.35,3.36H70.55Z"/></g></g></g><g id="Group_1054" data-name="Group 1054"><g id="Group_1053" data-name="Group 1053"><g id="Group_1052" data-name="Group 1052"><path id="Path_1904" data-name="Path 1904" class="cls-2" d="M38.68,52.71a1.07,1.07,0,0,0,1.5,0h0l3.15-3.15a.07.07,0,0,0,0-.09l-1.42-1.42a.06.06,0,0,0-.09,0h0L40.6,49.27a.06.06,0,0,1-.09,0,.06.06,0,0,1,0-.05V44.57a3.26,3.26,0,0,1,3.26-3.26H60.28a.07.07,0,0,0,.06-.07v-2a.07.07,0,0,0-.06-.07H43.75a5.39,5.39,0,0,0-5.38,5.39h0v4.65a.07.07,0,0,1-.07.07.06.06,0,0,1,0,0L37,48A.06.06,0,0,0,37,48h0l-1.41,1.42a.06.06,0,0,0,0,.09h0Z"/><path id="Path_1905" data-name="Path 1905" class="cls-2" d="M39.43,53.11h0a1.13,1.13,0,0,1-.81-.34l-3.15-3.15a.17.17,0,0,1,0-.23L36.88,48a.16.16,0,0,1,.11,0h0a.16.16,0,0,1,.11,0l1.16,1.16V44.56a5.5,5.5,0,0,1,5.49-5.48H60.29a.16.16,0,0,1,.16.16h0v2a.16.16,0,0,1-.16.16H43.75a3.17,3.17,0,0,0-3.16,3.16v4.58L41.75,48a.13.13,0,0,1,.12,0h0A.13.13,0,0,1,42,48l1.41,1.41a.16.16,0,0,1,0,.22h0l-3.17,3.17A1.14,1.14,0,0,1,39.43,53.11Zm-3.81-3.6,3.13,3.12a.91.91,0,0,0,.68.29h0a1,1,0,0,0,.68-.28l3.13-3.13-1.38-1.38-1.19,1.21a.15.15,0,0,1-.17,0,.18.18,0,0,1-.1-.15V44.57a3.35,3.35,0,0,1,3.35-3.36h16.5V39.28H43.75a5.3,5.3,0,0,0-5.29,5.29v4.65a.16.16,0,0,1-.17.16.15.15,0,0,1-.11,0L37,48.14Z"/></g></g></g></g></g></g></g></svg>