<svg xmlns="http://www.w3.org/2000/svg" xmlns:xlink="http://www.w3.org/1999/xlink" width="130.613" height="130.614" viewBox="0 0 130.613 130.614"><defs><style>.a{fill:url(#a);}.b,.c{fill:#fff;stroke-width:0.2px;}.b{stroke:#fff;stroke-miterlimit:10;}.c{stroke:rgba(0,0,0,0);}</style><linearGradient id="a" x1="1" y1="1.186" x2="0.162" y2="0.089" gradientUnits="objectBoundingBox"><stop offset="0" stop-color="#09c9d3"/><stop offset="0.509" stop-color="#06d1d0"/><stop offset="1" stop-color="#00e6ca"/></linearGradient></defs><g transform="translate(-933.438 -4397.998)"><circle class="a" cx="65.307" cy="65.307" r="65.307" transform="translate(933.438 4397.998)"/><g transform="translate(972.007 4428.718)"><g transform="translate(0 0)"><path class="b" d="M4050.052,3652.32h0l-5.128-12.282a1.043,1.043,0,0,0-1.928.8l4.3,10.276-7.137-2.068a1.043,1.043,0,0,0-1.2.5l-3.584,6.509-8.4-20.269a21.036,21.036,0,1,0-20.85-8.1l-10.205,24.638a1.043,1.043,0,0,0,1.254,1.4l8.42-2.44,4.229,7.679a1.042,1.042,0,0,0,.914.54h.058a1.043,1.043,0,0,0,.906-.642l9.484-22.756c0-.006,0-.012.006-.019.593.051,1.191.083,1.8.083.625,0,1.242-.029,1.853-.082l9.433,22.774a1.044,1.044,0,0,0,.906.642h.058a1.044,1.044,0,0,0,.914-.54l4.228-7.679,8.42,2.44a1.043,1.043,0,0,0,1.254-1.4Zm-39.45,3.732-3.584-6.509a1.043,1.043,0,0,0-1.2-.5l-7.137,2.068,8.957-21.625a21.009,21.009,0,0,0,11.418,6.3Zm12.384-21.974a18.933,18.933,0,1,1,18.933-18.933A18.955,18.955,0,0,1,4022.985,3634.079Z" transform="translate(-3995.839 -3594.126)"/><path class="b" d="M4063.319,3627.447a1.013,1.013,0,0,0-.8-.687l-6.82-1.145-3.2-6.132a1.014,1.014,0,0,0-1.8,0l-3.2,6.132-6.82,1.145a1.014,1.014,0,0,0-.556,1.71l4.845,4.935-1.019,6.84a1.014,1.014,0,0,0,1.454,1.057l6.19-3.083,6.19,3.083a1.014,1.014,0,0,0,1.455-1.057l-1.019-6.84,4.845-4.935A1.013,1.013,0,0,0,4063.319,3627.447Zm-6.885,4.9a1.014,1.014,0,0,0-.279.859l.807,5.416-4.9-2.441a1.015,1.015,0,0,0-.9,0l-4.9,2.441.806-5.416a1.013,1.013,0,0,0-.279-.859l-3.836-3.907,5.4-.906a1.015,1.015,0,0,0,.731-.531l2.531-4.855,2.53,4.855a1.013,1.013,0,0,0,.731.531l5.4.906Z" transform="translate(-4024.462 -3610.264)"/></g><path class="c" d="M4123.246,3704.554l-.572-1.352a1.341,1.341,0,0,0-2.471,1.045l.573,1.353a1.341,1.341,0,0,0,2.47-1.046Z" transform="translate(-4076.657 -3664.537)"/></g></g></svg>