<svg xmlns="http://www.w3.org/2000/svg" xmlns:xlink="http://www.w3.org/1999/xlink" width="130.613" height="130.614" viewBox="0 0 130.613 130.614"><defs><style>.a{fill:url(#a);}.b,.c{fill:#fff;stroke:#fff;stroke-width:0.2px;}.c{stroke-miterlimit:10;}</style><linearGradient id="a" x1="0.109" y1="0.187" x2="1.325" y2="1.245" gradientUnits="objectBoundingBox"><stop offset="0" stop-color="#c570f2"/><stop offset="0.091" stop-color="#c570f2"/><stop offset="1" stop-color="#29218c"/></linearGradient></defs><g transform="translate(-505.848 -3135.998)"><circle class="a" cx="65.307" cy="65.307" r="65.307" transform="translate(505.848 3135.998)"/><g transform="translate(537.438 3176.702)"><path class="b" d="M3539.31,3714.354l.006-1.514a1.383,1.383,0,0,0-2.766-.012l-.007,1.514a1.383,1.383,0,0,0,2.767.011Z" transform="translate(-3536.543 -3680.418)"/><g transform="translate(0.359)"><path class="c" d="M3606.163,3651.736a5.086,5.086,0,0,0-6.04-2.024,3.874,3.874,0,0,0-3.084-4.579,22.458,22.458,0,0,0,1.351-3.39,1.043,1.043,0,0,0-.548-1.265,1.017,1.017,0,0,0-1.386.636,25.354,25.354,0,0,1-10.215,13.2l-1.667.551a4.447,4.447,0,0,0,.1-.59,4.26,4.26,0,0,0-3.647-4.621c-3.759-.53-7.525-1.455-11.24-2.218a40.6,40.6,0,0,0-6.316-1.05,6.7,6.7,0,0,0-2.651.794c-.093-.135-.186-.269-.275-.405a19.727,19.727,0,0,1-3.46-11.082,11.137,11.137,0,0,1,4.539-8.8,10.656,10.656,0,0,1,6.43-2.17c3.927,0,6.889,2.551,8.127,7a1.017,1.017,0,0,0,1.117.735,1.045,1.045,0,0,0,.85-.762c1.242-4.431,4.2-6.972,8.12-6.972a10.656,10.656,0,0,1,6.429,2.17,11.138,11.138,0,0,1,4.54,8.8c0,.329,0,.661-.014.989a1.041,1.041,0,0,0,.828,1.083,1.018,1.018,0,0,0,1.2-.954c.017-.38.023-.766.017-1.148a13.132,13.132,0,0,0-5.339-10.389,12.7,12.7,0,0,0-7.663-2.587,9.978,9.978,0,0,1-18.214,0,12.7,12.7,0,0,0-7.663,2.587,13.132,13.132,0,0,0-5.339,10.389,21.743,21.743,0,0,0,3.794,12.23c.08.121.162.241.245.361-.252.177-.5.355-.74.53a8.678,8.678,0,0,1-4.473,1.74c-.476.018-4.506-.294-4.506-.776v-.789a3.106,3.106,0,0,0-3.106-3.106h-5.585a3.107,3.107,0,0,0-3.106,3.106v1.557a1.046,1.046,0,0,0,.986,1.059,1.017,1.017,0,0,0,1.048-1.017v-1.6a1.072,1.072,0,0,1,1.072-1.072h5.585a1.072,1.072,0,0,1,1.072,1.072v16.322a1.073,1.073,0,0,1-1.072,1.073h-5.585a1.072,1.072,0,0,1-1.072-1.072v-3.586a1.045,1.045,0,0,0-.986-1.059,1.017,1.017,0,0,0-1.048,1.017v3.629a3.106,3.106,0,0,0,3.106,3.106h5.585a3.106,3.106,0,0,0,3.106-3.106v-1.292l7.246-.423.027,0a10.95,10.95,0,0,1,4.683.63l7.849,2.891a13.209,13.209,0,0,0,4.623.822c3.18,0,6.172-1.068,9.1-2.112.665-.238,1.354-.483,2.033-.712,2.988-1.007,6.071-1.922,9.051-2.807,3.3-.98,10.119-3.173,10.157-3.192a4.568,4.568,0,0,0,2.66-3.218,5.107,5.107,0,0,0-.632-4.127Zm-10.233-4.593a1.843,1.843,0,0,1,.959,3.555l-5.231,1.8A28.246,28.246,0,0,0,3595.93,3647.143Zm8.905,8.178a2.981,2.981,0,0,1-1.981,2.057c-3.124,1.064-6.339,2.019-9.455,2.944-3,.89-6.1,1.811-9.122,2.83-.7.234-1.393.483-2.067.724-4.141,1.478-8.052,2.874-12.334,1.3l-7.849-2.89a12.989,12.989,0,0,0-4.475-.795c-.357,0-.715.015-1.07.045l-7.114.416v-10.073c2.982.881,6.317,1.294,9.64-1.065,1.363-.967,2.843-2.284,4.59-2.4.64-.041,4.369.724,5.775,1.012,3.755.77,7.525,1.487,11.288,2.227l.072.011c2.828.332,2.284,4.8-.6,4.415l-.027,0-8.985-.953a1.018,1.018,0,0,0-1.125,1.037,1.041,1.041,0,0,0,.945.99l8.938.948a4.241,4.241,0,0,0,1.79-.147c.051-.008,18.963-6.253,18.993-6.265a3.069,3.069,0,0,1,4.173,3.636Z" transform="translate(-3537.571 -3622.683)"/></g></g></g></svg>