<svg xmlns="http://www.w3.org/2000/svg" xmlns:xlink="http://www.w3.org/1999/xlink" width="130.613" height="130.614" viewBox="0 0 130.613 130.614"><defs><style>.a{fill:url(#a);}.b{fill:#fff;}</style><linearGradient id="a" x1="0.226" y1="0.111" x2="0.849" y2="0.888" gradientUnits="objectBoundingBox"><stop offset="0" stop-color="#654ace"/><stop offset="1" stop-color="#9769f6"/></linearGradient></defs><g transform="translate(-699.895 -3639.998)"><circle class="a" cx="65.307" cy="65.307" r="65.307" transform="translate(699.895 3639.998)"/><g transform="translate(733.801 3678.099)"><path class="b" d="M4493.726,3688.938l11.88-12.76a1.152,1.152,0,0,0-.058-1.627,1.152,1.152,0,0,0-1.626.058l-10.312,11.076-5.049-4.7a1.116,1.116,0,0,0-.825-.307,1.151,1.151,0,0,0-.742,1.993Z" transform="translate(-4455.842 -3653.615)"/><g transform="translate(0 0)"><path class="b" d="M4479.617,3617.787h6.283a2.561,2.561,0,0,1,2.561,2.561v2.1a1.3,1.3,0,0,0,1.007,1.285,1.278,1.278,0,0,0,1.542-1.248v-2.136a5.111,5.111,0,0,0-5.111-5.111h-6.283a1.275,1.275,0,0,0-1.275,1.275h0A1.275,1.275,0,0,0,4479.617,3617.787Z" transform="translate(-4450.454 -3615.237)"/><path class="b" d="M4456.069,3626.88h-34.846a5.682,5.682,0,0,0-5.682,5.681v9.447h-3.134l-.047,0a2.8,2.8,0,0,0-1.811,1.041l-5.642,7.143v-6.937a1.271,1.271,0,0,0-1.251-1.275,2.569,2.569,0,0,1-2.535-2.559v-19.075a2.561,2.561,0,0,1,2.561-2.561H4416.3a1.275,1.275,0,0,0,1.275-1.275h0a1.275,1.275,0,0,0-1.275-1.275h-12.617a5.111,5.111,0,0,0-5.111,5.111v19.075a5.117,5.117,0,0,0,3.787,4.935v7.723a1.941,1.941,0,0,0,1.225,1.84,1.886,1.886,0,0,0,.649.116,1.844,1.844,0,0,0,1.453-.711l6.8-8.6c.43-.065,2.082-.125,2.792-.151l.269-.01v9.912a5.681,5.681,0,0,0,5.681,5.681h24.424a.486.486,0,0,1,.383.186l7.887,9.986a1.933,1.933,0,0,0,1.521.745,1.979,1.979,0,0,0,.68-.122,2.033,2.033,0,0,0,1.282-1.928v-9.026a5.659,5.659,0,0,0,4.35-5.521v-21.911A5.681,5.681,0,0,0,4456.069,3626.88Zm3.131,27.593a3.142,3.142,0,0,1-3.09,3.13,1.28,1.28,0,0,0-1.259,1.275v8.515l-6.82-8.634a3.022,3.022,0,0,0-2.384-1.155h-24.424a3.136,3.136,0,0,1-3.132-3.132v-21.911a3.135,3.135,0,0,1,3.132-3.132h34.846a3.135,3.135,0,0,1,3.131,3.132Z" transform="translate(-4398.571 -3615.237)"/></g><path class="b" d="M4462.144,3615.407l-1.514-.006a1.383,1.383,0,0,0-.012,2.766l1.515.007a1.383,1.383,0,0,0,.011-2.767Z" transform="translate(-4438.031 -3615.344)"/></g></g></svg>