<svg xmlns="http://www.w3.org/2000/svg" xmlns:xlink="http://www.w3.org/1999/xlink" width="771.323" height="724.991" viewBox="0 0 771.323 724.991"><defs><style>.a{fill:rgba(9,153,240,0.04);}.b{fill:#02539a;}.b,.c,.d{fill-rule:evenodd;}.c{fill:rgba(69,209,253,0.85);}.d{fill:#45d1fd;}.e,.m{fill:none;stroke-miterlimit:10;}.e{stroke:#b8b9ba;stroke-width:1.5px;stroke-dasharray:12;}.f{fill:#001738;}.g{fill:#001d46;}.h{fill:#2b5998;}.i{fill:#48c7e2;}.j{fill:url(#a);}.k{fill:#fff;}.l{fill:#1680d5;}.m{stroke:#0999f0;stroke-width:3px;}.n{fill:#d0d2d6;}.n,.p{isolation:isolate;}.o{fill:url(#b);}.q{fill:#8b8b8d;}</style><linearGradient id="a" y1="0.5" x2="1" y2="0.5" gradientUnits="objectBoundingBox"><stop offset="0" stop-color="#09a7fe"/><stop offset="1" stop-color="#1783e3"/></linearGradient><linearGradient id="b" x1="0.4" y1="-3.263" x2="1.084" y2="10.747" xlink:href="#a"/></defs><path class="a" d="M576.839,289.086c14.033,54.034,26.207,116.188-12.728,160.2-38.383,43.383-98.143,67.777-166.392,63.012-69.756-3.772-89.009-22.363-152-27.027-19.273-1.427-42.847-1.535-73.356.535-43.551,2.183-91.065,3.417-126.237-18.869C8.059,442.814-3.846,397.381,1.038,356.833c11.65-96.69,112.4-145.574,193.41-213.088C243.145,103.161,299.313,23.4,363.767,5.6c81.324-22.464,142.677,26.374,163.809,80.448C552.252,149.206,535.441,191.656,576.839,289.086Z" transform="matrix(0.891, -0.454, 0.454, 0.891, 0, 268.008)"/><g transform="translate(179.835 169.262)"><g transform="translate(148.257 0)"><path class="b" d="M6001.107-1624.657l-36.708-36.467,20.288-20.641,57.222,57.108Z" transform="translate(-5932.453 1760.308)"/><path class="c" d="M5963.792-1666.46l36.381-36.381h40.9l-56.6,56.6Z" transform="translate(-5932.298 1765.673)"/><path class="d" d="M5921.543-1719.65l20.656,20.642,88.12-88.12h-41.113Z" transform="translate(-5921.543 1787.128)"/></g><g transform="translate(134.584 153.003)"><line class="e" x1="41.19" y2="22.574"/><line class="e" x2="41.19" y2="22.574" transform="translate(155.558)"/><line class="e" y2="45.32" transform="translate(100.962 31.055)"/></g><g transform="translate(368.084 74.189)"><rect class="f" width="183.87" height="119.778" rx="13.55" transform="translate(19.024)"/><path d="M6197.655-1462.671v5.316c0,1.655.952,3,2.126,3h219.152c1.174,0,2.126-1.342,2.126-3v-4.612c0-1.639-.935-2.975-2.1-3l-217.6-4.236C6200.181-1469.223,6197.655-1464.343,6197.655-1462.671Z" transform="translate(-6197.655 1632.01)"/><rect class="f" width="183.87" height="119.778" rx="27.227" transform="translate(19.024)"/><path class="g" d="M6214.906-1520.334l-15.737,37.965c-.014.035-.029.068-.045.1-.361.748-4.937,10.593,4.16,10.593h213.946a1.983,1.983,0,0,0,.468-.055c1.079-.257,4.9-1.563,2.683-6.839-2.561-6.107-17.14-40.977-17.14-40.977s-1.379-4.137-10.638-4.137H6225.42c-.047,0-.092,0-.14-.005C6224.47-1523.744,6216.5-1524.186,6214.906-1520.334Z" transform="translate(-6197.654 1645.891)"/><path class="h" d="M6294.595-1487.467l-6.254,15.087s-2.11,4.222,1.642,4.222h84.972s2.189-.313,1.174-2.737-6.8-16.259-6.8-16.259-.547-1.641-4.221-1.641h-66.367S6295.263-1489.077,6294.595-1487.467Z" transform="translate(-6220.588 1637.003)"/><rect class="i" width="174.485" height="111.431" rx="7.455" transform="translate(23.716 4.174)"/><path class="h" d="M6236.4-1517.264l-1.18,2.878a.861.861,0,0,0,.737,1.213h164.495a.856.856,0,0,0,.767-1.129l-.861-2.877a.814.814,0,0,0-.768-.6H6237.138A.806.806,0,0,0,6236.4-1517.264Z" transform="translate(-6207.199 1644.376)"/><g transform="translate(39.583 13.839)"><path class="j" d="M6392.07-1662.6a6.445,6.445,0,0,0-6.445-6.445H6257.2a6.445,6.445,0,0,0-6.445,6.445v4.9H6392.07Z" transform="translate(-6250.754 1669.041)"/><path class="k" d="M6250.754-1653.824v73.77a6.445,6.445,0,0,0,6.445,6.445h128.426a6.445,6.445,0,0,0,6.445-6.445v-73.77Z" transform="translate(-6250.754 1665.167)"/><g transform="translate(5.875 3.749)"><ellipse class="k" cx="1.923" cy="1.923" rx="1.923" ry="1.923"/><ellipse class="k" cx="1.923" cy="1.923" rx="1.923" ry="1.923" transform="translate(5.524)"/><ellipse class="k" cx="1.923" cy="1.923" rx="1.923" ry="1.923" transform="translate(11.048)"/></g></g><rect class="l" width="141.316" height="9.381" transform="translate(39.583 25.183)"/><path class="m" d="M6323.359-1568.228v-64.458h70.666v64.458" transform="translate(-6229.653 1673.626)"/><rect class="n" width="38.678" height="16.825" transform="translate(47.38 44.611)"/><rect class="n" width="38.678" height="16.825" transform="translate(47.38 63.883)"/><rect class="n" width="38.678" height="16.825" transform="translate(47.38 83.156)"/><ellipse class="k" cx="2.525" cy="2.525" rx="2.525" ry="2.525" transform="translate(164.781 27.348)"/><ellipse class="k" cx="2.525" cy="2.525" rx="2.525" ry="2.525" transform="translate(172.633 27.348)"/></g><g transform="translate(142.668 257.506)"><rect class="f" width="179.447" height="129.022" rx="13.904"/><path class="k" d="M5901.153-1316.783a9.027,9.027,0,0,0,9.027,9.027H6062.8a9.028,9.028,0,0,0,9.027-9.027v-88.161h-170.67Z" transform="translate(-5896.765 1432.337)"/><rect class="l" width="170.671" height="11.089" transform="translate(4.388 16.304)"/><path class="o" d="M6071.823-1426.708a9.027,9.027,0,0,0-9.027-9.027H5910.18a9.027,9.027,0,0,0-9.027,9.027v2.837h170.67Z" transform="translate(-5896.765 1440.175)"/><g transform="translate(13.234 8.449)"><ellipse class="k" cx="1.923" cy="1.923" rx="1.923" ry="1.923"/><ellipse class="k" cx="1.923" cy="1.923" rx="1.923" ry="1.923" transform="translate(5.524)"/><ellipse class="k" cx="1.923" cy="1.923" rx="1.923" ry="1.923" transform="translate(11.048)"/></g><g transform="translate(158.928 19.324)"><ellipse class="k" cx="2.525" cy="2.525" rx="2.525" ry="2.525"/><ellipse class="k" cx="2.525" cy="2.525" rx="2.525" ry="2.525" transform="translate(7.852)"/></g><rect class="n" width="52.23" height="22.721" transform="translate(18.757 38.602)"/><rect class="n" width="52.23" height="22.721" transform="translate(18.757 64.627)"/><rect class="n" width="52.23" height="22.721" transform="translate(18.757 90.653)"/><path class="m" d="M6015.627-1303.928v-85.981h70.667v85.981" transform="translate(-5925.904 1428.51)"/></g><g transform="translate(0 77.332)"><g class="p" transform="translate(7.885 150.18)"><path class="q" d="M5715.913-1471.516a1.454,1.454,0,0,0-1.454,1.454v6.786a1.454,1.454,0,0,0,1.454,1.454,1.453,1.453,0,0,0,1.454-1.454v-6.786A1.453,1.453,0,0,0,5715.913-1471.516Z" transform="translate(-5714.459 1479.277)"/><path class="q" d="M5738.021-1471.516a1.453,1.453,0,0,0-1.454,1.454v6.786a1.454,1.454,0,0,0,1.454,1.454,1.453,1.453,0,0,0,1.454-1.454v-6.786A1.453,1.453,0,0,0,5738.021-1471.516Z" transform="translate(-5720.087 1479.277)"/><path class="q" d="M5730.81-1471.516h-10.664a.485.485,0,0,0-.485.485v7.755a2.425,2.425,0,0,0,1.939,2.376v3.441a1.454,1.454,0,0,0,1.454,1.454,1.454,1.454,0,0,0,1.454-1.454v-3.393h1.939v3.393a1.455,1.455,0,0,0,1.455,1.454,1.454,1.454,0,0,0,1.454-1.454v-3.441a2.424,2.424,0,0,0,1.939-2.376v-7.755A.484.484,0,0,0,5730.81-1471.516Z" transform="translate(-5715.783 1479.277)"/><path class="q" d="M5729-1479.913l1.182-1.181a.486.486,0,0,0,.012-.686.486.486,0,0,0-.686-.012l-.011.012-1.377,1.377a6.631,6.631,0,0,0-5.286,0l-1.377-1.378a.485.485,0,0,0-.685.012.485.485,0,0,0,0,.673l1.181,1.182a5.115,5.115,0,0,0-2.292,4.292.485.485,0,0,0,.485.485h10.664a.484.484,0,0,0,.484-.485A5.114,5.114,0,0,0,5729-1479.913Zm-5.948,2.838a.484.484,0,0,1-.484-.485.484.484,0,0,1,.484-.484.485.485,0,0,1,.485.484A.485.485,0,0,1,5723.054-1477.075Zm4.847,0a.484.484,0,0,1-.484-.485.484.484,0,0,1,.484-.484.485.485,0,0,1,.486.484A.485.485,0,0,1,5727.9-1477.075Z" transform="translate(-5715.783 1481.927)"/></g><g class="p" transform="translate(49.904 150.18)"><path class="q" d="M5777.153-1456.831c-3.463-.019-6.327-7.089-6.327-10.688,0-5.88,4.412-7.167,6.111-7.167a7.039,7.039,0,0,1,2.306.567,5.164,5.164,0,0,0,1.316.377,4.077,4.077,0,0,0,.945-.306,7.561,7.561,0,0,1,2.847-.689h.007a5.837,5.837,0,0,1,4.883,2.467l.355.535-.513.386a4.314,4.314,0,0,0-2.067,3.557,4.016,4.016,0,0,0,2.24,3.712c.32.192.652.391.652.827,0,.285-2.269,6.388-5.563,6.388a4.46,4.46,0,0,1-1.877-.456,3.812,3.812,0,0,0-1.672-.4,4.3,4.3,0,0,0-1.325.359,6.484,6.484,0,0,1-2.3.535Z" transform="translate(-5770.826 1480.097)"/><path class="q" d="M5787.945-1481.927c.086,3.094-2.127,5.24-4.336,5.1C5783.245-1479.291,5785.818-1481.927,5787.945-1481.927Z" transform="translate(-5774.071 1481.927)"/></g><path class="f" d="M5769.266-1683.389h-56.827a8.584,8.584,0,0,0-8.558,8.559v118.024a8.584,8.584,0,0,0,8.558,8.559h56.827a8.585,8.585,0,0,0,8.559-8.559V-1674.83A8.584,8.584,0,0,0,5769.266-1683.389Z" transform="translate(-5703.881 1683.389)"/><path class="f" d="M5759.019-1678.019l-1.248,4.74h-17.335l-1.11-4.74Z" transform="translate(-5712.903 1682.022)"/><g transform="translate(4.004 3.998)"><path class="k" d="M5775.188-1673.471a4.568,4.568,0,0,0-4.555-4.555h-13.783l-2.049,7.284a2.009,2.009,0,0,1-1.927,1.464h-21.584a2,2,0,0,1-1.94-1.516l-1.809-7.227h-13.736a4.569,4.569,0,0,0-4.554,4.556v7.262h65.937Z" transform="translate(-5709.252 1678.026)"/><path class="k" d="M5709.252-1544.955a4.569,4.569,0,0,0,4.554,4.556h56.827a4.571,4.571,0,0,0,4.556-4.556h0v-91.878h-65.937Z" transform="translate(-5709.252 1667.54)"/><rect class="j" width="65.937" height="8.738" transform="translate(0 11.823)"/><rect class="l" width="65.937" height="10.147" transform="translate(0 20.561)"/></g><g transform="translate(52.014 27.107)"><ellipse class="k" cx="2.525" cy="2.525" rx="2.525" ry="2.525"/><ellipse class="k" cx="2.525" cy="2.525" rx="2.525" ry="2.525" transform="translate(7.852)"/></g><rect class="m" width="49.194" height="63.805" transform="translate(12.424 40.802)"/><rect class="n" width="52.23" height="20.073" transform="translate(10.906 111.067)"/></g></g></svg>