<svg xmlns="http://www.w3.org/2000/svg" xmlns:xlink="http://www.w3.org/1999/xlink" width="1429.769" height="1408.503" viewBox="0 0 1429.769 1408.503"><defs><style>.a{opacity:0.554;fill:url(#a);}</style><linearGradient id="a" x1="0.5" y1="1" x2="0.5" gradientUnits="objectBoundingBox"><stop offset="0" stop-color="#1e6ac5"/><stop offset="1" stop-color="#1783e3"/></linearGradient></defs><path class="a" d="M859.851,462.885c-22.081,26.3-49.1,48.331-69.408,76.024-58.468,79.719-50.864,188.164-74.994,284.027A425.825,425.825,0,0,1,612.5,1010.529c-22.649,23.962-48.485,45.508-78.5,59.159-30.835,14.028-64.928,19.242-98.7,21.919-35.365,2.805-71.059,2.982-106.2-1.877a378.083,378.083,0,0,1-252.9-153.2c-65.889-92.51-86.328-212.368-71.725-325s61.813-218.879,120.85-315.906c46.891-77.055,102.37-150.253,173.543-205.667S458.315-2.147,548.488.1C609.5,1.616,668.643,20.537,726.132,41.011c87.655,31.216,150.636,65.763,180.287,155.83C935.855,286.221,921.14,389.884,859.851,462.885Z" transform="matrix(-0.643, -0.766, 0.766, -0.643, 592.039, 1408.503)"/></svg>