<svg xmlns="http://www.w3.org/2000/svg" xmlns:xlink="http://www.w3.org/1999/xlink" width="799.424" height="699.119" viewBox="0 0 799.424 699.119"><defs><style>.a{fill:#292180;}.b{fill:none;stroke:#fff;stroke-miterlimit:10;stroke-width:2px;}.c{fill:#f2f2f2;}.d{fill:#4538a9;}.e{fill:#bca0f6;opacity:0.23;}.f{fill:url(#a);}.g{fill:url(#b);}.h{fill:url(#c);}.i{fill:#8969e8;}</style><linearGradient id="a" x1="0.141" y1="0.038" x2="0.784" y2="0.865" gradientUnits="objectBoundingBox"><stop offset="0.07" stop-color="#00d8bc"/><stop offset="1" stop-color="#48c7e2"/></linearGradient><linearGradient id="b" x1="0.147" y1="0.047" x2="0.779" y2="0.858" gradientUnits="objectBoundingBox"><stop offset="0" stop-color="#0999f0"/><stop offset="1" stop-color="#48c7e2"/></linearGradient><linearGradient id="c" x1="0.166" y1="0.07" x2="0.764" y2="0.84" xlink:href="#a"/></defs><g transform="translate(1342.833 -1803.323)"><path class="a" d="M-821.616,2485.158c107.81,57.216,308.47-32.376,274.353-198.611-41.378-201.6-12.471-198.739-.561-317.058,7.786-77.35-66.27-163.7-179.222-166.133-89.52-1.928-192.216,78.8-270.277,112.155-129.859,55.481-277.88,79.479-329.974,199.034-21.843,50.138-24.029,112.992,15.535,158.556,36.554,42.1,97.979,58.775,154.684,72.707C-987.88,2384.227-946.481,2418.89-821.616,2485.158Z"/><circle class="b" cx="4.441" cy="4.441" r="4.441" transform="translate(-1154.64 1823.133)"/><path class="c" d="M-724.016,1832.726h-226.75a34.253,34.253,0,0,0-34.151,34.151v470.954a34.252,34.252,0,0,0,34.152,34.151h226.749a34.255,34.255,0,0,0,34.15-34.151V1866.877A34.252,34.252,0,0,0-724.016,1832.726Z" transform="translate(-8.661 -0.711)"/><path class="d" d="M-704.733,2335.289a18.235,18.235,0,0,1-18.175,18.177H-949.674a18.237,18.237,0,0,1-18.177-18.177V1864.335a18.236,18.236,0,0,1,18.176-18.178h54.811l7.214,28.835a7.976,7.976,0,0,0,7.747,6.052h86.124a8.017,8.017,0,0,0,7.685-5.821l8.174-29.064h55a18.235,18.235,0,0,1,18.177,18.176Z" transform="translate(-9.074 -1.037)"/><path class="e" d="M-763.979,2086.279a18.813,18.813,0,0,0-18.872-18.756,18.806,18.806,0,0,0-9.4,2.549l-45.753,26.6a5.2,5.2,0,0,1-4.617-.1l-.054-.021-6.922-3.985-3.73-2.119v-.032a5.116,5.116,0,0,1-2.453-4.458,5.021,5.021,0,0,1,2.56-4.379l61.248-35.551a6.032,6.032,0,0,0,2.189-8.245,6.046,6.046,0,0,0-2.217-2.206l-27.3-15.651a18.852,18.852,0,0,0-18.814.058l-59.7,34.712c-.258.151-.5.316-.74.484l-1.334.9v.072a18.7,18.7,0,0,0-7.217,13.8v.154l.1,51.529a18.778,18.778,0,0,0,18.768,18.788,18.771,18.771,0,0,0,9.505-2.578l45.75-26.6a5.2,5.2,0,0,1,4.617.1h0l10.482,6.04.2.129h0a5.115,5.115,0,0,1,2.453,4.455,5.021,5.021,0,0,1-2.56,4.382l-61.248,35.551a6.03,6.03,0,0,0-2.2,8.239,6.024,6.024,0,0,0,2.224,2.212l27.3,15.651a18.856,18.856,0,0,0,18.814-.058l59.7-34.712c.258-.15.5-.315.74-.484l1.334-.9v-.071a18.717,18.717,0,0,0,7.217-13.8v-.154Zm-71.269-61.395a13.171,13.171,0,0,1,13.144-.04l27.3,15.651a.36.36,0,0,1,.135.489.366.366,0,0,1-.135.136l-61.245,35.551a10.713,10.713,0,0,0-5.38,9.127l-26.366-14.966a13.58,13.58,0,0,1-1.568-1.043c-.164-.126-.307-.269-.465-.4-.311-.263-.624-.528-.908-.815-.168-.172-.315-.358-.472-.542-.243-.272-.483-.548-.718-.839-.15-.2-.28-.416-.421-.628-.19-.294-.358-.588-.541-.893-.123-.225-.229-.458-.338-.692-.147-.312-.284-.627-.4-.95q-.135-.359-.247-.743c-.1-.33-.186-.663-.263-1-.054-.259-.1-.517-.146-.779-.055-.359-.09-.717-.116-1.051-.021-.265-.04-.527-.044-.8v-.358ZM-881.57,2132.93a13.142,13.142,0,0,1-17.967-4.748,13.162,13.162,0,0,1-1.782-6.574l-.1-31.85v-19.578a13.1,13.1,0,0,1,1.886-6.043v.051c.141.542.3,1.076.489,1.589.051.136.1.272.157.409.154.4.319.8.5,1.19.061.136.123.269.191.406a15.429,15.429,0,0,0,.793,1.435l.1.15c.266.42.544.828.842,1.227l.291.381c.284.358.578.717.883,1.039.078.083.15.169.225.252.383.405.789.792,1.212,1.165.1.09.208.176.311.262.342.287.7.566,1.075.835l.394.283c.476.33.965.646,1.478.936l34.35,19.5,19.8,11.426Zm45.845,50.094a13.164,13.164,0,0,1-13.141.039l-27.306-15.651h0a.333.333,0,0,1-.179-.312.331.331,0,0,1,.179-.311l61.248-35.551a10.711,10.711,0,0,0,5.38-9.128l26.371,14.966a13.953,13.953,0,0,1,1.563,1.043c.161.126.3.265.459.4.315.265.63.531.914.822.168.172.315.359.473.538.239.276.483.552.7.843.15.2.283.416.42.627.191.291.359.588.542.893.122.226.229.459.359.693.143.311.28.627.4.95.093.243.172.491.247.742.1.33.185.663.263,1,.059.258.107.516.147.778.055.359.09.717.115,1.051.021.265.041.527.048.8v.359Zm66.182-45.3a13.081,13.081,0,0,1-1.885,6.043v-.051c-.137-.538-.305-1.075-.489-1.589l-.154-.409c-.154-.4-.322-.8-.506-1.191-.06-.136-.122-.272-.185-.4a15.552,15.552,0,0,0-.8-1.435c-.032-.054-.068-.1-.1-.158-.265-.42-.544-.824-.842-1.223l-.291-.381c-.28-.358-.574-.7-.882-1.036-.075-.086-.147-.172-.226-.258q-.577-.6-1.211-1.161c-.1-.09-.209-.177-.312-.263-.342-.29-.695-.566-1.058-.835l-.4-.283c-.476-.331-.965-.646-1.478-.94l-34.317-19.478c-.082-.058-.2-.136-.266-.169l-19.571-11.275,45.138-26.244a13.148,13.148,0,0,1,17.972,4.768,13.159,13.159,0,0,1,1.777,6.554l.1,31.853Z" transform="translate(-10.544 -5.181)"/><path class="c" d="M-1228.859,1894.887l2.682,14.577a.923.923,0,0,0,.673.719l16.667,4.266a.915.915,0,0,1,.665,1.108h0a.918.918,0,0,1-.7.671l-16,3.421a.914.914,0,0,0-.71.746l-2.314,14.3a.915.915,0,0,1-1.049.755.912.912,0,0,1-.732-.646l-4.132-14.219a.922.922,0,0,0-.663-.634l-15.124-3.663a.913.913,0,0,1-.675-1.1v0a.91.91,0,0,1,.665-.67l14.906-3.749a.912.912,0,0,0,.667-.688l3.384-15.215a.916.916,0,0,1,1.091-.7A.913.913,0,0,1-1228.859,1894.887Z" transform="translate(-2.239 -2.198)"/><rect class="f" width="221.281" height="221.281" rx="20.186" transform="translate(-860.001 1919.144)"/><rect class="g" width="166.144" height="166.144" rx="20.186" transform="translate(-1070.39 2085.58)"/><circle class="c" cx="42.371" cy="42.371" r="42.371" transform="translate(-794.216 1988.111)"/><rect class="h" width="97.217" height="97.217" rx="20.186" transform="translate(-1025.533 1931.085)"/><rect class="c" width="36.96" height="36.96" transform="translate(-995.405 1961.214)"/><rect class="i" width="97.217" height="97.217" rx="20.186" transform="translate(-846.052 2219.459)"/><rect class="c" width="36.96" height="36.96" transform="translate(-815.924 2249.587)"/><path class="c" d="M-979.594,2135.43l22.02,38.14,22.02,38.14h-88.081l22.02-38.14Z" transform="translate(-7.724 -8.036)"/><circle class="c" cx="4.172" cy="4.172" r="4.172" transform="translate(-1113.441 1904.261)"/></g></svg>