<svg xmlns="http://www.w3.org/2000/svg" xmlns:xlink="http://www.w3.org/1999/xlink" width="1922" height="1426.742" viewBox="0 0 1922 1426.742"><defs><style>.a{stroke:rgba(0,0,0,0);stroke-miterlimit:10;fill:url(#a);}</style><linearGradient id="a" x1="0.5" x2="0.5" y2="1" gradientUnits="objectBoundingBox"><stop offset="0" stop-color="#8051ec"/><stop offset="1" stop-color="#5b37c4"/></linearGradient></defs><path class="a" d="M3852.79,6219.785h-.042c-10.974,0-21.986-.234-32.731-.694-10.241-.439-20.564-1.1-30.681-1.962-18.653-1.589-37.048-3.877-56.236-6.992-35.621-5.785-68.36-13.577-100.022-21.112l-.114-.029-.243-.057-.046-.012c-15.233-3.624-30.984-7.371-46.751-10.812-17.816-3.892-33.841-6.992-48.991-9.479-18.161-2.981-35.485-5.168-52.963-6.686-9.493-.824-19.127-1.454-28.637-1.87-9.961-.438-20.2-.66-30.428-.66-12.406,0-25.065.3-37.626.887-11.891.559-24.057,1.4-36.163,2.488-22.148,2-44.417,4.843-68.079,8.7-19.478,3.175-39.975,7.059-62.662,11.875-20.013,4.248-39.046,8.638-57.452,12.885l-.086.02-.021,0-.03.007c-23.852,5.5-46.38,10.7-67.638,14.791-23.788,4.578-42.9,7.18-60.154,8.188-1.724.1-3.443.184-5.11.25-3.384.134-6.744.2-9.985.2-3.531.046-7.066.069-10.507.069h-.042c-10.974,0-21.987-.234-32.733-.694-10.25-.44-20.572-1.1-30.681-1.962-18.657-1.59-37.052-3.877-56.235-6.992-35.626-5.785-68.36-13.577-100.017-21.111l-.109-.026-.066-.016-.033-.008c-15.3-3.64-31.115-7.4-46.95-10.86-17.809-3.891-33.835-6.99-48.992-9.479-18.161-2.981-35.485-5.168-52.963-6.686-9.48-.823-19.115-1.453-28.637-1.87-9.961-.438-20.2-.66-30.427-.66-14.259,0-28.8.393-43.221,1.17-13.533.728-27.422,1.817-41.283,3.237V4798.452c13.849-1.419,27.739-2.509,41.283-3.239,14.438-.776,28.98-1.17,43.221-1.17,10.17,0,20.407.224,30.427.661,9.565.42,19.2,1.049,28.637,1.87,17.5,1.521,34.821,3.707,52.966,6.686,15.132,2.484,31.158,5.584,48.994,9.478,15.965,3.486,31.823,7.26,47.16,10.911,31.667,7.535,64.412,15.327,100.018,21.109,19.162,3.112,37.555,5.4,56.231,6.992,10.125.863,20.446,1.524,30.676,1.962,10.748.46,21.774.694,32.77.694,3.525,0,7.062-.024,10.512-.068,41.395,0,88.429-10.856,142.891-23.426h.008l.055-.012c18.426-4.253,37.479-8.651,57.475-12.9,22.683-4.817,43.182-8.7,62.667-11.881,23.665-3.857,45.94-6.7,68.1-8.7,12.094-1.093,24.265-1.929,36.174-2.489,12.544-.59,25.208-.89,37.64-.89,10.17,0,20.407.224,30.428.661,9.564.42,19.2,1.049,28.638,1.87,17.489,1.52,34.814,3.707,52.965,6.686,15.124,2.482,31.151,5.583,48.994,9.478,15.96,3.486,31.821,7.26,47.16,10.911l.04.009c31.657,7.532,64.393,15.321,99.98,21.1,19.16,3.112,37.553,5.4,56.23,6.992,10.125.863,20.447,1.524,30.678,1.962,10.746.46,21.771.694,32.768.694,3.525,0,7.062-.024,10.513-.068,41.392,0,88.426-10.856,142.886-23.425h.007l.06-.013.049-.011.052-.011c18.393-4.247,37.412-8.636,57.374-12.873,22.675-4.816,43.174-8.7,62.668-11.881,23.67-3.857,45.944-6.7,68.1-8.7,12.094-1.093,24.264-1.929,36.174-2.489,12.544-.59,25.208-.89,37.64-.89,10.168,0,20.405.224,30.428.661,9.556.419,19.191,1.049,28.637,1.87,17.489,1.52,34.814,3.707,52.966,6.686,11.922,1.956,24.243,4.266,37.665,7.06V6175.7c-13.4-2.791-25.719-5.1-37.667-7.062-18.162-2.981-35.487-5.168-52.963-6.686-9.48-.823-19.115-1.453-28.637-1.87-9.962-.438-20.2-.66-30.428-.66-12.425,0-25.089.3-37.64.888-11.9.56-24.068,1.4-36.174,2.49-22.177,2-44.452,4.848-68.1,8.7-19.475,3.175-39.973,7.06-62.668,11.879-19.943,4.235-38.946,8.62-57.323,12.86l-.095.022-.091.021-.022.005-.031.008c-54.452,12.566-101.479,23.419-142.866,23.419C3859.766,6219.762,3856.231,6219.785,3852.79,6219.785Z" transform="translate(-2496.501 -4793.543)"/></svg>