<svg xmlns="http://www.w3.org/2000/svg" xmlns:xlink="http://www.w3.org/1999/xlink" width="1922.002" height="2099.741" viewBox="0 0 1922.002 2099.741"><defs><style>.a{stroke:rgba(0,0,0,0);stroke-miterlimit:10;fill:url(#a);}</style><linearGradient id="a" x1="0.5" x2="0.5" y2="1" gradientUnits="objectBoundingBox"><stop offset="0" stop-color="#8051ec"/><stop offset="1" stop-color="#5b37c4"/></linearGradient></defs><path class="a" d="M3852.789,6892.784h-.039c-10.98,0-21.993-.344-32.734-1.021-10.275-.649-20.6-1.621-30.682-2.888a515.327,515.327,0,0,1-56.236-10.292c-15.967-3.817-32.753-8.563-51.318-14.511-16.538-5.3-32.833-11.007-48.591-16.526l-.113-.04-.01,0-.171-.06-.068-.024c-15.282-5.352-31.084-10.886-46.9-15.971-17.833-5.733-33.858-10.3-48.991-13.953a485.947,485.947,0,0,0-52.962-9.842c-9.479-1.211-19.113-2.138-28.636-2.753-9.981-.645-20.219-.972-30.429-.972-12.43,0-25.09.44-37.628,1.307-11.886.822-24.053,2.054-36.163,3.662a664.894,664.894,0,0,0-68.08,12.8c-19.46,4.668-39.957,10.386-62.663,17.48-20.067,6.269-39.085,12.729-57.477,18.976l-.061.021-.091.031c-23.834,8.094-46.347,15.739-67.6,21.758-11.355,3.218-21.488,5.729-30.978,7.679a251.282,251.282,0,0,1-29.174,4.373c-1.656.142-3.375.266-5.111.37-3.381.2-6.74.3-9.984.3-3.453.067-6.989.1-10.509.1h-.04c-10.978,0-21.992-.344-32.735-1.021-10.275-.649-20.6-1.621-30.681-2.888a515.487,515.487,0,0,1-56.236-10.292c-15.967-3.817-32.753-8.563-51.318-14.511-16.5-5.288-32.813-11-48.584-16.524l-.019-.007-.1-.035-.014,0c-15.334-5.373-31.19-10.928-47.14-16.055-17.832-5.733-33.857-10.3-48.991-13.953a485.863,485.863,0,0,0-52.962-9.842c-9.467-1.21-19.1-2.137-28.636-2.753-9.981-.645-20.219-.972-30.429-.972-14.252,0-28.794.58-43.22,1.723-13.541,1.071-27.431,2.674-41.285,4.765V4800.534c13.853-2.091,27.743-3.695,41.285-4.768,14.43-1.144,28.971-1.723,43.22-1.723,10.189,0,20.427.328,30.427.974,9.508.613,19.143,1.538,28.637,2.751a486.575,486.575,0,0,1,52.965,9.842c15.143,3.659,31.171,8.223,49,13.953,15.967,5.134,31.821,10.688,47.153,16.059l.008,0,.033.01.156.055.033.012c15.741,5.513,32.018,11.212,48.482,16.485,18.566,5.948,35.352,10.694,51.316,14.511a516.058,516.058,0,0,0,56.227,10.291c10.159,1.274,20.479,2.247,30.675,2.89,10.742.679,21.766,1.023,32.766,1.023,3.507,0,6.946-.033,10.514-.1a200.662,200.662,0,0,0,32.157-2.8c10.5-1.694,21.769-4.158,34.457-7.531,23.787-6.322,49.268-14.98,76.244-24.146l.04-.012c18.4-6.252,37.426-12.717,57.529-19,22.686-7.092,43.186-12.812,62.669-17.489a664.594,664.594,0,0,1,68.1-12.811c12.135-1.61,24.306-2.843,36.174-3.664,12.556-.869,25.22-1.309,37.641-1.309,10.189,0,20.426.328,30.427.974,9.508.612,19.143,1.538,28.637,2.751a486.521,486.521,0,0,1,52.965,9.842c15.149,3.661,31.177,8.225,49,13.953,15.976,5.135,31.831,10.69,47.163,16.062l.023.007c15.807,5.536,32.148,11.259,48.682,16.555,18.566,5.948,35.351,10.695,51.316,14.511a516.1,516.1,0,0,0,56.227,10.291c10.159,1.274,20.479,2.247,30.675,2.89,10.741.679,21.765,1.023,32.764,1.023,3.506,0,6.946-.033,10.516-.1a200.653,200.653,0,0,0,32.156-2.8c10.494-1.694,21.766-4.157,34.459-7.531,23.795-6.325,49.279-14.983,76.259-24.15l.019-.006h.005l.081-.027c18.4-6.25,37.42-12.714,57.45-18.976,22.7-7.1,43.2-12.815,62.669-17.487a664.571,664.571,0,0,1,68.1-12.811c12.135-1.61,24.306-2.843,36.173-3.664,12.556-.869,25.22-1.309,37.639-1.309,10.189,0,20.427.328,30.427.974,9.56.618,19.2,1.543,28.638,2.753a486.285,486.285,0,0,1,52.967,9.84c11.924,2.881,24.245,6.281,37.665,10.393V6827.889c-13.408-4.11-25.729-7.511-37.67-10.4a485.729,485.729,0,0,0-52.961-9.842c-9.474-1.211-19.108-2.137-28.636-2.753-9.981-.645-20.219-.972-30.429-.972-12.419,0-25.083.44-37.639,1.309-11.884.82-24.054,2.053-36.173,3.664a664.347,664.347,0,0,0-68.1,12.811c-19.48,4.673-39.98,10.394-62.669,17.487-20.069,6.273-39.109,12.743-57.522,19l-.009,0-.012,0c-27,9.172-52.5,17.835-76.271,24.153-12.68,3.371-23.952,5.834-34.458,7.533a200.747,200.747,0,0,1-32.157,2.793C3859.844,6892.75,3856.308,6892.784,3852.789,6892.784Z" transform="translate(-2496.499 -4793.543)"/></svg>