<svg xmlns="http://www.w3.org/2000/svg" xmlns:xlink="http://www.w3.org/1999/xlink" width="2139.394" height="1539.16" viewBox="0 0 2139.394 1539.16"><defs><style>.a{fill:url(#a);}</style><linearGradient id="a" x1="0.5" x2="0.5" y2="1" gradientUnits="objectBoundingBox"><stop offset="0" stop-color="#6355c8"/><stop offset="1" stop-color="#1f40b3"/></linearGradient></defs><path class="a" d="M14219.217-199.813c-121.471-3.031-246.041-22.976-367.117-17.522-226.219,10.191-447.152,78.007-592.756,207.091-141.947,125.833-201.215,299.013-156.963,458.626,35.207,126.978,130.094,240.185,198.885,359.651,97.852,169.934,143.033,353.112,218.141,529.077,52.809,123.72,127.977,251.083,274.223,324.887,75.215,37.959,163.877,58.811,251.613,77.757,134.66,29.078,271.637,54.974,410.361,69.887V-197.128C14376.795-197.563,14297.982-197.849,14219.217-199.813Z" transform="matrix(-0.087, -0.996, 0.996, -0.087, 1477.332, 14558.316)"/></svg>