<svg xmlns="http://www.w3.org/2000/svg" xmlns:xlink="http://www.w3.org/1999/xlink" width="429.357" height="954.201" viewBox="0 0 429.357 954.201"><defs><style>.a{stroke:rgba(0,0,0,0);stroke-miterlimit:10;fill:url(#a);}</style><linearGradient id="a" x1="0.996" y1="0.934" x2="-0.002" y2="0.061" gradientUnits="objectBoundingBox"><stop offset="0" stop-color="#003ba8"/><stop offset="1" stop-color="#1783e3"/></linearGradient></defs><path class="a" d="M18246.426,4927.825c3.523-.757,7.039-1.538,10.566-2.253a5.151,5.151,0,0,1,.535-.076l2.07-.295a245.854,245.854,0,0,1,41.941-6.823c.086-.009.168-.017.242-.022,4.619-.346,9.4-.352,9.4-.352,4.1-.161,8.211-.062,12.313.086,2.852.1,5.7.434,8.539.723,2.488.253,4.973.569,7.453.893,2.078.271,4.148.584,6.219.9,2.9.438,5.813.862,8.711,1.344,2.773.462,5.535,1,8.3,1.489,2.67.468,5.344.906,8.012,1.368,2.844.493,5.688,1,8.531,1.5l2.578.453h0l3.74.578c1.188.084,2.385.4,3.574.572,2.146.311,4.291.646,6.441.939s4.3.568,6.457.813c3.018.342,6.037.682,9.061.964a155.491,155.491,0,0,0,18.732.518c3.131-.086,6.258-.442,9.385-.678.154-.011,6.385-.793,9.281-1.557,4.883-1.287,9.725-2.8,14.576-4.236,1.527-.454,3.021-1.059,4.559-1.457.7-.182,6.389-2,8.674-2.645,4.346-1.229,8.689-2.489,13.063-3.59q4.992-1.257,10.055-2.134c4-.688,8.02-1.3,12.051-1.711a83.644,83.644,0,0,1,15.672-.165c2.844.242,5.7.459,8.527.869,2.953.427,5.9.971,8.814,1.646,3.914.9,7.8,1.966,11.693,2.991,3.148.829,6.279,1.751,9.436,2.542,3.059.767,6.135,1.446,9.213,2.108,2.875.619,5.758,1.215,8.648,1.725,2.516.443,5.047.79,7.574,1.115,3.418.438,6.84.867,10.266,1.2,2.82.274,5.648.519,8.477.578,6.707.141,13.418.2,20.125.221,4.5.017,8.984-.366,13.469-.655,2.93-.188,5.859-.334,8.783-.592,4.064-.358,8.125-.806,12.186-1.207.785-.077,1.75-.105,2.629-.167,0,18.976,0,939.692,0,939.692-.076.2-426.895,1.711-427.746,0-1.281-2.583-.254-935.9-.254-935.9C18240.549,4928.8,18244.879,4928.158,18246.426,4927.825Z" transform="translate(-18238.146 -4912.173)"/></svg>