<svg xmlns="http://www.w3.org/2000/svg" xmlns:xlink="http://www.w3.org/1999/xlink" width="431.543" height="982.311" viewBox="0 0 431.543 982.311"><defs><style>.a{stroke:rgba(0,0,0,0);stroke-miterlimit:10;fill:url(#a);}</style><linearGradient id="a" x1="0.996" y1="0.934" x2="-0.002" y2="0.061" gradientUnits="objectBoundingBox"><stop offset="0" stop-color="#003ba8"/><stop offset="1" stop-color="#1783e3"/></linearGradient></defs><path class="a" d="M18243.676,4928.141c3.543-.756,7.084-1.537,10.635-2.252a4.92,4.92,0,0,1,.537-.076l2.082-.3a249.243,249.243,0,0,1,42.219-6.819c.086-.008.168-.016.244-.021,4.648-.346,9.459-.351,9.463-.351,4.125-.161,8.264-.063,12.395.085,2.867.1,5.732.434,8.594.723,2.5.252,5,.568,7.5.892,2.088.271,4.172.584,6.258.9,2.922.437,5.85.861,8.77,1.344,2.789.462,5.57,1,8.357,1.487,2.686.468,5.377.9,8.064,1.367,2.863.493,5.725,1,8.586,1.5l2.594.453h0l3.766.578c1.2.084,2.4.4,3.6.572,2.16.31,4.32.646,6.484.938s4.33.569,6.5.813c3.037.342,6.074.682,9.117.964a157.752,157.752,0,0,0,18.855.518c3.152-.086,6.3-.442,9.449-.677.152-.011,6.426-.793,9.34-1.556,4.914-1.287,9.789-2.793,14.672-4.234,1.537-.453,3.043-1.058,4.588-1.456.705-.181,6.43-2,8.73-2.643,4.375-1.229,8.748-2.488,13.146-3.588q5.027-1.255,10.121-2.132c4.029-.687,8.074-1.3,12.131-1.71a84.773,84.773,0,0,1,15.773-.165c2.865.242,5.736.459,8.584.868,2.973.427,5.938.971,8.871,1.644,3.941.9,7.854,1.966,11.771,2.99,3.17.828,6.32,1.75,9.5,2.54,3.078.766,6.174,1.445,9.273,2.107,2.895.618,5.793,1.214,8.7,1.724,2.533.443,5.078.79,7.625,1.114,3.441.438,6.883.866,10.332,1.2,2.838.274,5.686.519,8.531.578,6.754.14,13.506.2,20.258.221,4.527.017,9.043-.366,13.559-.654,2.945-.188,5.895-.335,8.84-.592,4.09-.358,8.176-.806,12.266-1.206.789-.078,1.58-.113,2.465-.175V4979h.176v885.737c-1.5,4.008-398.312,64.4-430.543,0-1.293-2.581,2.719-724.313,2.719-724.784l-.176-80.477V4929.135Q18241.338,4928.638,18243.676,4928.141Z" transform="translate(-18235.957 -4912.5)"/></svg>