<?xml version="1.0" encoding="utf-8"?>
<!-- Generator: Adobe Illustrator 25.0.1, SVG Export Plug-In . SVG Version: 6.00 Build 0)  -->
<svg version="1.1" id="Capa_1" xmlns="http://www.w3.org/2000/svg" xmlns:xlink="http://www.w3.org/1999/xlink" x="0px" y="0px"
	 viewBox="0 0 175 165.8" style="enable-background:new 0 0 175 165.8;" xml:space="preserve">
<style type="text/css">
	.st0{fill:url(#SVGID_1_);}
	.st1{fill:url(#SVGID_2_);}
	.st2{fill:#FFFFFF;}
</style>
<g transform="translate(-1105.935 -3302.775)">
	
		<linearGradient id="SVGID_1_" gradientUnits="userSpaceOnUse" x1="505.9776" y1="4111.5234" x2="506.7896" y2="4110.6094" gradientTransform="matrix(116.882 0 0 -110.762 -57971.8125 458763.0938)">
		<stop  offset="0" style="stop-color:#1783E3"/>
		<stop  offset="1" style="stop-color:#09A7FE"/>
	</linearGradient>
	<ellipse class="st0" cx="1209.7" cy="3407.1" rx="58.4" ry="55.4"/>
	
		<linearGradient id="SVGID_2_" gradientUnits="userSpaceOnUse" x1="504.5197" y1="4113.0708" x2="505.3317" y2="4112.1567" gradientTransform="matrix(175.018 0 0 -165.838 -87169.1719 685422.375)">
		<stop  offset="0" style="stop-color:#1783E3"/>
		<stop  offset="1" style="stop-color:#09A7FE"/>
	</linearGradient>
	<ellipse class="st1" cx="1193.4" cy="3385.7" rx="87.5" ry="82.9"/>
	<g transform="matrix(-0.966, -0.259, 0.259, -0.966, 1313.194, 3524.573)">
		<g transform="translate(44.948 0)">
			<path class="st2" d="M129.8,104.6c-1.9,0-3.8-0.9-5-2.3c-1.2-1.4-1.7-3.1-1.6-4.9h-10.4c-0.9,0-1.6-0.7-1.6-1.6V84.7
				c0-0.9,0.7-1.6,1.6-1.6c0.1,0,0.2,0,0.3,0l0.1,0c1.8,0.3,3.6-0.9,3.9-2.7s-0.9-3.6-2.7-3.9c-0.4-0.1-0.8-0.1-1.2,0l-0.1,0
				c-0.9,0.2-1.7-0.4-1.9-1.3c0-0.1,0-0.2,0-0.3V62.8c0-0.9,0.7-1.6,1.6-1.6h27.2c4.1,0,7.4,3.3,7.4,7.4v27.2c0,0.9-0.7,1.6-1.6,1.6
				h-9.3c0.3,3.7-2.4,6.9-6,7.2C130.2,104.6,130,104.6,129.8,104.6L129.8,104.6L129.8,104.6z M114.4,94.1h10.7
				c0.9,0,1.6,0.7,1.6,1.6c0,0.1,0,0.2,0,0.3l-0.2,1.2c-0.2,1,0.1,2.1,0.8,2.9c0.6,0.8,1.6,1.2,2.6,1.2c1.9,0,3.3-1.6,3.3-3.4
				c0-0.2,0-0.4-0.1-0.6l-0.2-1.3c-0.2-0.9,0.4-1.7,1.3-1.9c0.1,0,0.2,0,0.3,0h9.6V68.5c0-2.3-1.9-4.1-4.1-4.1h-25.5v8.8
				c3.7,0.4,6.3,3.6,6,7.3c-0.3,3.2-2.8,5.7-6,6V94.1z"/>
		</g>
		<g transform="translate(0 14.681)">
			<path class="st2" d="M178.7,103.3c0.9,0,1.6-0.7,1.6-1.6v-5.9c0-0.9-0.7-1.6-1.6-1.6h-11.2c-0.9,0-1.6,0.7-1.6,1.6
				c0,0.1,0,0.2,0,0.3l0.2,1.3c0.3,1.8-0.9,3.6-2.7,3.9c-0.2,0-0.4,0.1-0.6,0.1c-1,0-1.9-0.4-2.6-1.2c-0.7-0.8-1-1.9-0.8-2.9
				l0.2-1.2c0.2-0.9-0.4-1.7-1.3-1.9c-0.1,0-0.2,0-0.3,0h-10.7v-7.7c3.7-0.4,6.3-3.6,6-7.3c-0.3-3.2-2.8-5.7-6-6V62.8
				c0-0.9-0.7-1.6-1.6-1.6h-27.2c-4.1,0-7.4,3.3-7.4,7.4v54.4c0,4.1,3.3,7.4,7.4,7.4h54.4c4.1,0,7.4-3.3,7.4-7.4v-4.8
				c0-0.9-0.8-1.6-1.7-1.6c-0.9,0-1.6,0.7-1.6,1.6v4.8c0,2.3-1.9,4.1-4.1,4.1h-25.5v-10.6c0-0.9-0.7-1.6-1.6-1.6c-0.1,0-0.2,0-0.3,0
				l-0.1,0c-1.8,0.3-3.6-0.9-3.9-2.7c-0.3-1.8,0.9-3.6,2.7-3.9c0.4-0.1,0.8-0.1,1.2,0l0.1,0c0.9,0.2,1.7-0.4,1.9-1.3
				c0-0.1,0-0.2,0-0.3v-9.3h8.8c-0.1,1.8,0.4,3.5,1.6,4.9c2.4,2.8,6.6,3.1,9.3,0.8c1.6-1.4,2.5-3.5,2.3-5.6h7.7v4.3
				C177,102.6,177.8,103.3,178.7,103.3z M114.4,68.5c0-2.3,1.9-4.1,4.1-4.1h25.5v10.5c0,0.9,0.7,1.6,1.6,1.6c0.1,0,0.2,0,0.3,0
				l0.1,0l0,0c1.8-0.3,3.6,0.9,3.9,2.7c0.3,1.8-0.9,3.6-2.7,3.9c-0.4,0.1-0.8,0.1-1.2,0l-0.1,0c-0.9-0.2-1.7,0.4-1.9,1.3
				c0,0.1,0,0.2,0,0.3v9.4h-7c-1-3.5-4.7-5.5-8.3-4.5c-2.2,0.6-3.9,2.3-4.5,4.5h-9.9V68.5z M140.5,106.5c-2.8,2.4-3.2,6.5-0.8,9.4
				c1.1,1.3,2.7,2.2,4.5,2.4v8.9h-25.5c-2.3,0-4.1-1.9-4.1-4.1V97.4h11.3c0.9,0,1.6-0.7,1.6-1.6c0.1-1.9,1.7-3.3,3.5-3.2
				c1.7,0.1,3.1,1.5,3.2,3.2c0,0.9,0.8,1.6,1.6,1.6h8.4v7.6C142.7,105.1,141.5,105.6,140.5,106.5L140.5,106.5z"/>
			<g transform="translate(65.945 47.072)">
				<g transform="translate(0 0)">
					<path class="st2" d="M112.7,64.4c-0.9,0-1.6-0.7-1.6-1.6c0-0.5,0.2-0.9,0.6-1.2c0.7-0.6,1.7-0.5,2.3,0.2
						c0.3,0.4,0.5,0.9,0.4,1.4C114.2,63.8,113.5,64.4,112.7,64.4z"/>
				</g>
			</g>
		</g>
	</g>
</g>
</svg>
