<?xml version="1.0" encoding="utf-8"?>
<!-- Generator: Adobe Illustrator 25.0.1, SVG Export Plug-In . SVG Version: 6.00 Build 0)  -->
<svg version="1.1" id="Capa_1" xmlns="http://www.w3.org/2000/svg" xmlns:xlink="http://www.w3.org/1999/xlink" x="0px" y="0px"
	 viewBox="0 0 175 165.8" style="enable-background:new 0 0 175 165.8;" xml:space="preserve">
<style type="text/css">
	.st0{fill:url(#SVGID_1_);}
	.st1{fill:url(#SVGID_2_);}
	.st2{fill:#FFFFFF;}
</style>
<g transform="translate(-460.408 -3302.775)">
	
		<linearGradient id="SVGID_1_" gradientUnits="userSpaceOnUse" x1="-139.5486" y1="4111.5234" x2="-138.7366" y2="4110.6094" gradientTransform="matrix(116.882 0 0 -110.762 16833.0547 458763.0938)">
		<stop  offset="0" style="stop-color:#9769F6"/>
		<stop  offset="1" style="stop-color:#654ACE"/>
	</linearGradient>
	<ellipse class="st0" cx="564.1" cy="3407.1" rx="58.4" ry="55.4"/>
	
		<linearGradient id="SVGID_2_" gradientUnits="userSpaceOnUse" x1="-141.0065" y1="4113.0708" x2="-140.1945" y2="4112.1567" gradientTransform="matrix(175.018 0 0 -165.838 25164.0059 685422.375)">
		<stop  offset="0" style="stop-color:#9769F6"/>
		<stop  offset="1" style="stop-color:#502ED5"/>
	</linearGradient>
	<ellipse class="st1" cx="547.9" cy="3385.7" rx="87.5" ry="82.9"/>
	<g transform="translate(592.592 3430.486)">
		<g transform="translate(16.85)">
			<path class="st2" d="M-43.9-15.3v-0.6c0-2.9-2.4-5.3-5.3-5.3l0,0h-8.7v-25.9c3.9-0.8,6.4-4.5,5.6-8.4c-0.6-2.8-2.8-5.1-5.6-5.6
				v-25.3c0-0.8-0.6-1.4-1.4-1.4c-0.1,0-0.3,0-0.4,0h0c-5.5,0.1-10.9,1.6-15.6,4.3c-4.6,2.7-8.5,6.5-11.3,11
				c-0.4,0.7-0.1,1.5,0.6,1.9c0.6,0.3,1.4,0.2,1.8-0.4c5.1-8.3,13.9-13.5,23.6-13.9v23.9c-3.9,0.8-6.4,4.5-5.6,8.4
				c0.6,2.8,2.8,5.1,5.6,5.6v25.9h-7.6c-2,0-3.6-1.6-3.6-3.6c0-2.5-1.3-4.8-3.3-6.2c-11.9-7.7-16.6-22.8-11.2-35.9
				c0.3-0.7-0.1-1.5-0.9-1.8c-0.7-0.2-1.4,0.1-1.7,0.7c-6,14.3-0.8,30.9,12.2,39.3c1.3,0.9,2.1,2.3,2.1,3.9c0,1.7,0.7,3.3,1.9,4.5
				c0.1,0.1,0.1,0.1,0.2,0.2c-1.3,1-2.1,2.6-2.1,4.2v0.6c0,1.5,0.6,2.9,1.7,3.9c-1.1,1-1.7,2.4-1.7,3.9v0.6c0,2.9,2.4,5.3,5.3,5.3
				l0,0h0.9C-67.8,3.5-63,7-57.9,6.2c4-0.6,7.2-3.8,7.8-7.8h0.9c2.9,0,5.3-2.4,5.3-5.3c0,0,0,0,0,0v-0.6c0-1.5-0.6-2.9-1.7-3.9
				C-44.5-12.4-43.9-13.8-43.9-15.3z M-57.9-58.2c2.3,0.8,3.5,3.3,2.8,5.5c-0.4,1.3-1.5,2.3-2.8,2.8V-58.2z M-60.7-49.9
				c-2.3-0.8-3.5-3.3-2.8-5.5c0.4-1.3,1.5-2.3,2.8-2.8V-49.9z M-59.3,3.5c-3.1,0-5.7-2.1-6.4-5.1H-53C-53.6,1.4-56.3,3.5-59.3,3.5
				L-59.3,3.5z M-46.7-15.3c0,1.4-1.1,2.5-2.5,2.5h-3.3c-0.8,0-1.4,0.6-1.4,1.4s0.6,1.4,1.4,1.4h3.3c1.4,0,2.5,1.1,2.5,2.5v0.6
				c0,1.4-1.1,2.5-2.5,2.5h-20.2c-1.4,0-2.5-1.1-2.5-2.5v-0.6c0-1.4,1.1-2.5,2.5-2.5h12.3c0.8,0,1.4-0.6,1.4-1.4s-0.6-1.4-1.4-1.4
				h-12.3c-1.4,0-2.5-1.1-2.5-2.5v-0.6c0-1.4,1.1-2.5,2.5-2.5h20.2c1.4,0,2.5,1.1,2.5,2.5L-46.7-15.3z"/>
		</g>
		<g transform="translate(51.764 2.39)">
			<path class="st2" d="M-63.3-64.5l-7.6-1.4c-0.9-2.2-2.1-4.3-3.6-6.2l2.6-7.3c0.2-0.6,0-1.3-0.6-1.7l-11.5-6.6
				c-0.6-0.3-1.3-0.2-1.8,0.3l-5.5,6.5c-0.5,0.6-0.3,1.5,0.3,2c0.6,0.4,1.3,0.3,1.8-0.2l4.7-5.6l9.5,5.5l-2.5,6.9
				c-0.2,0.5-0.1,1,0.2,1.4c1.7,2,3,4.3,3.9,6.8c0.2,0.5,0.6,0.8,1.1,0.9l7.2,1.3V-51l-7.2,1.3c-0.5,0.1-0.9,0.4-1.1,0.9
				c-0.9,2.5-2.2,4.8-3.9,6.8c-0.3,0.4-0.4,0.9-0.2,1.4l2.5,6.9l-9.5,5.5l-4.7-5.6c-0.5-0.6-1.3-0.8-2-0.3c-0.6,0.5-0.8,1.3-0.3,2
				c0,0.1,0.1,0.1,0.1,0.1l5.5,6.5c0.4,0.5,1.2,0.6,1.8,0.3l11.5-6.6c0.6-0.3,0.8-1,0.6-1.7l-2.6-7.2c1.5-1.9,2.7-4,3.6-6.2l7.6-1.4
				c0.7-0.1,1.1-0.7,1.1-1.4v-13.3C-62.1-63.8-62.6-64.4-63.3-64.5z"/>
		</g>
		<g transform="translate(51.764 20.442)">
			<path class="st2" d="M-89.6-87.7c-0.7-0.2-1.5,0.2-1.7,1c-0.2,0.7,0.2,1.4,0.8,1.7c5.8,2,8.9,8.4,6.9,14.3
				c-1.1,3.2-3.7,5.7-6.9,6.9c-0.7,0.2-1.2,1-1,1.7c0.2,0.7,1,1.2,1.7,1c0,0,0.1,0,0.1,0c7.3-2.5,11.1-10.5,8.6-17.8
				C-82.4-83.2-85.6-86.3-89.6-87.7L-89.6-87.7z"/>
		</g>
		<g transform="translate(0 22.857)">
			<path class="st2" d="M-79.5-85.7l-10.3-2c-0.7-0.2-1.5,0.3-1.7,1c-0.2,0.7,0.3,1.5,1,1.7c0.1,0,0.1,0,0.2,0l10.3,2
				c0.1,0,0.2,0,0.3,0c0.8,0,1.4-0.6,1.4-1.4C-78.4-85-78.9-85.6-79.5-85.7L-79.5-85.7z"/>
		</g>
		<g transform="translate(11.115 0.32)">
			<g transform="translate(0)">
				<path class="st2" d="M-81.3-80.6l-7.9-6.9c-0.5-0.5-1.4-0.5-2,0s-0.5,1.4,0,2c0,0,0.1,0.1,0.1,0.1l7.9,6.9
					c0.6,0.5,1.5,0.4,2-0.2C-80.7-79.3-80.8-80.1-81.3-80.6z"/>
			</g>
		</g>
		<g transform="translate(15.605 60.944)">
			<path class="st2" d="M-82.3-87.5c-0.6-0.5-1.5-0.5-2,0.1l-6.9,7.9c-0.5,0.6-0.4,1.5,0.2,2c0.6,0.4,1.4,0.4,1.9-0.1l6.9-7.9
				C-81.6-86.1-81.7-87-82.3-87.5z"/>
		</g>
		<g transform="translate(1.644 44.563)">
			<g transform="translate(0)">
				<path class="st2" d="M-78.8-86.9c-0.2-0.7-1-1.1-1.8-0.9l-9.9,3.4c-0.7,0.2-1.2,1-1,1.7c0.2,0.7,1,1.2,1.7,1c0,0,0.1,0,0.1,0
					l9.9-3.4C-79-85.3-78.6-86.1-78.8-86.9z"/>
			</g>
		</g>
	</g>
</g>
</svg>
