<svg xmlns="http://www.w3.org/2000/svg" xmlns:xlink="http://www.w3.org/1999/xlink" width="178.764" height="129.142" viewBox="0 0 178.764 129.142"><defs><style>.a{fill:url(#a);}</style><linearGradient id="a" y1="0.5" x2="1" y2="0.5" gradientUnits="objectBoundingBox"><stop offset="0" stop-color="#09c9d3"/><stop offset="1" stop-color="#00e6ca"/></linearGradient></defs><path class="a" d="M800.284,111.227a1.914,1.914,0,0,1-1.341,3.273l-14.631.058a1.914,1.914,0,0,1-.015-3.828l14.631-.058h.008A1.9,1.9,0,0,1,800.284,111.227Zm7.013-.588h-.008l-2.09.008a1.914,1.914,0,0,0,.007,3.828h.008l2.09-.008a1.914,1.914,0,0,0-.007-3.828Zm-60.241,37.239a1.914,1.914,0,0,0-2.468,1.112l-8.634,22.8a1.914,1.914,0,1,0,3.58,1.356l8.634-22.8a1.914,1.914,0,0,0-1.112-2.468Zm10.8,1.54a1.9,1.9,0,0,0-1.284-.707,2,2,0,0,0-.215-.012,1.915,1.915,0,0,0-1.491,3.111l7.4,9.255-7.4,9.255a1.915,1.915,0,0,0,2.989,2.393l8.361-10.451a1.9,1.9,0,0,0,0-2.393Zm-36.007,11.648,7.4-9.255a1.915,1.915,0,1,0-2.99-2.393L717.9,159.869a1.9,1.9,0,0,0,0,2.393l8.361,10.451h0a1.915,1.915,0,1,0,2.99-2.393Zm109.272,49.725V216.7a14.773,14.773,0,0,1-14.756,14.756H667.115A14.773,14.773,0,0,1,652.359,216.7v-5.912a1.931,1.931,0,0,1,1.929-1.929h9.342V112.378a10.072,10.072,0,0,1,10.061-10.061H808.946a10.072,10.072,0,0,1,10.06,10.061v96.484h10.187A1.932,1.932,0,0,1,831.123,210.791Zm-163.634-1.929h147.66V112.378a6.21,6.21,0,0,0-6.2-6.2H673.691a6.21,6.21,0,0,0-6.2,6.2Zm57.147,3.858.032.779a4.928,4.928,0,0,0,4.936,4.733h24.275a4.929,4.929,0,0,0,4.936-4.734l.032-.778Zm102.63,0h-64.58l-.013.735a8.84,8.84,0,0,1-8.794,8.635H729.6a8.839,8.839,0,0,1-8.794-8.636l-.014-.734H656.217V216.7a10.911,10.911,0,0,0,10.9,10.9H816.367a10.91,10.91,0,0,0,10.9-10.9Z" transform="translate(-652.359 -102.317)"/></svg>