<svg xmlns="http://www.w3.org/2000/svg" xmlns:xlink="http://www.w3.org/1999/xlink" viewBox="0 0 1054.38 1006.64"><defs><style>.cls-1,.cls-33{fill:none;}.cls-2{fill:#29218c;}.cls-3{fill:#f2f2f2;}.cls-4{fill:#4538a9;}.cls-5{fill:#bca0f6;}.cls-6{clip-path:url(#clip-path);}.cls-7{fill:#9769f6;}.cls-8{fill:#09a7fe;}.cls-10,.cls-9{isolation:isolate;}.cls-10{font-size:21.86px;font-family:Montserrat-Medium, Montserrat;font-weight:500;}.cls-10,.cls-13{fill:#fff;}.cls-11{letter-spacing:0.01em;}.cls-12{fill:#c570f2;}.cls-14{fill:url(#Degradado_sin_nombre_10);}.cls-15{fill:url(#Degradado_sin_nombre_10-2);}.cls-16{fill:url(#Degradado_sin_nombre_10-3);}.cls-17{fill:url(#Degradado_sin_nombre_10-4);}.cls-18{fill:#001738;}.cls-19{fill:url(#Degradado_sin_nombre_10-5);}.cls-20{fill:#dcb0ff;}.cls-21{fill:#e1d7ff;}.cls-22{fill:#1371b7;}.cls-23{fill:#1681e3;}.cls-24{fill:#917d5b;}.cls-25{fill:#c17bef;}.cls-26{fill:#9462bc;}.cls-27{fill:#00e6ca;}.cls-28{fill:#c985ff;}.cls-29{fill:#ad72db;}.cls-30{fill:#2e2d2d;}.cls-31{fill:#aa71d8;}.cls-32{fill:#07ccb4;}.cls-33{stroke:#fff;stroke-miterlimit:10;stroke-width:2px;}.cls-34{fill:#48d5f0;}</style><clipPath id="clip-path"><path class="cls-1" d="M642.62,879.77A18.69,18.69,0,0,1,624,898.4H391.61A18.69,18.69,0,0,1,373,879.77V397.14a18.69,18.69,0,0,1,18.63-18.63h56.17l7.39,29.55a8.18,8.18,0,0,0,7.94,6.2h88.26a8.21,8.21,0,0,0,7.88-6l8.38-29.79H624a18.68,18.68,0,0,1,18.62,18.63Z"/></clipPath><linearGradient id="Degradado_sin_nombre_10" x1="-704.36" y1="2164.03" x2="-704.29" y2="2164.34" gradientTransform="matrix(30.42, 0, 0, -7.05, 22226.15, 15291.25)" gradientUnits="userSpaceOnUse"><stop offset="0.09" stop-color="#c570f2"/><stop offset="0.47" stop-color="#7d4bc3"/><stop offset="0.83" stop-color="#402c9b"/><stop offset="1" stop-color="#29218c"/></linearGradient><linearGradient id="Degradado_sin_nombre_10-2" x1="-702.8" y1="2162.9" x2="-702.69" y2="2163.36" gradientTransform="matrix(30.42, 0, 0, -7.05, 22342.07, 15292.27)" xlink:href="#Degradado_sin_nombre_10"/><linearGradient id="Degradado_sin_nombre_10-3" x1="-727.69" y1="1991.12" x2="-727.69" y2="1991.14" gradientTransform="matrix(71.26, 0, 0, -186.88, 52363.39, 371934.52)" xlink:href="#Degradado_sin_nombre_10"/><linearGradient id="Degradado_sin_nombre_10-4" x1="-714.49" y1="2188.11" x2="-714.44" y2="2188.56" gradientTransform="matrix(48.31, 0, 0, -7.49, 35459.73, 16192.89)" xlink:href="#Degradado_sin_nombre_10"/><linearGradient id="Degradado_sin_nombre_10-5" x1="-1002.85" y1="2019.32" x2="-1002.79" y2="2019.32" gradientTransform="matrix(20.95, 0, 0, -25.14, 15310.82, 51175.6)" xlink:href="#Degradado_sin_nombre_10"/></defs><g id="Capa_2" data-name="Capa 2"><g id="Capa_1-2" data-name="Capa 1"><path id="Path_176" data-name="Path 176" class="cls-2" d="M24.11,625.28C-.95,718.75-22.7,826.27,46.84,902.4c68.56,75.05,196,86.71,308.72,92.19,121.51,5.9,269.47-34.92,391-29,77.79,3.77,162.65,5.9,225.47-32.65,68-41.72,89.25-120.31,80.53-190.46-20.81-167.26-200.76-251.82-345.45-368.62-87-70.2-187.29-208.17-302.41-239C259.42,96,149.84,180.5,112.1,274,68,383.3,98.05,456.73,24.11,625.28Z"/><path id="Path_177" data-name="Path 177" class="cls-3" d="M624,362.14H391.62a35.1,35.1,0,0,0-35,35V879.77a35.11,35.11,0,0,0,35,35H624a35.1,35.1,0,0,0,35-35V397.14A35.1,35.1,0,0,0,624,362.14Z"/><path id="Path_178" data-name="Path 178" class="cls-4" d="M643.33,876.83a18.68,18.68,0,0,1-18.63,18.63H392.32a18.68,18.68,0,0,1-18.63-18.63V394.2a18.68,18.68,0,0,1,18.62-18.63h56.17l7.4,29.55a8.15,8.15,0,0,0,7.94,6.2h88.26a8.2,8.2,0,0,0,7.87-6l8.38-29.79h56.36a18.69,18.69,0,0,1,18.63,18.63Z"/><path id="Path_179" data-name="Path 179" class="cls-5" d="M341.28,582.67c-17.51,6.67-23.87,30.82-15.06,47.35S355,655,373.71,654.21,410,645,425.65,634.66c11.34-7.48,22.21-16.27,29.25-27.89s9.75-26.54,4.3-39-20.28-20.92-33.2-16.72c-17.9,5.82-22.92,31.18-41.25,35.21C370.07,589.51,357,576.67,341.28,582.67Z"/><path id="Path_180" data-name="Path 180" class="cls-5" d="M660.24,570.93c13,8.91,13.45,29.94,3,41.73s-28.49,14.73-43.66,10.42-27.9-14.74-38.66-26.27c-7.8-8.38-15-17.72-18.42-28.63s-2.74-23.65,4.19-32.76,20.74-13.12,30.49-7.12c13.5,8.3,12.59,30.05,26.81,37C635.32,570.82,648.53,562.9,660.24,570.93Z"/><path id="Path_181" data-name="Path 181" class="cls-5" d="M414.3,527.41c4.19,7.05,14,8.91,21.85,6.5,14.18-4.34,18.25-22.94,2.75-28C426,501.63,404.74,511.28,414.3,527.41Z"/><g id="Group_150" data-name="Group 150"><g id="Group_263" data-name="Group 263"><g class="cls-6"><g id="Group_262" data-name="Group 262"><g id="Group_149" data-name="Group 149"><path id="Path_182" data-name="Path 182" class="cls-5" d="M793.26,761.69c-30.62-29.41-35.29-34-90.87-13.88-9.89-35.22-49.72-58.14-84-48.3-7.08-39.73-45.17-70.94-84.28-69.06s-74.22,36.62-77.68,76.85A115.94,115.94,0,0,0,358.2,696c-32.26,11.17-59.24,37.54-71.79,70.17v190.5s-4.94,27.47,11.3,40.93c5.19,3.92,12,8.87,20.82,9s164.07,0,164.07,0H758.21s13,1.72,25.9-11.79c5.75-8.82,9.15-12.79,9.15-24.3Z"/><path id="Path_183" data-name="Path 183" class="cls-7" d="M706,814.9c-20.09-15.49-23.16-17.9-59.63-7.31C639.91,789,613.77,777,591.3,782.14c-4.64-20.93-29.64-37.37-55.31-36.38s-48.7,19.29-51,40.49c-19.09-9.6-43.33-11.83-64.49-6s-38.87,19.78-47.11,37V917.63s-3.23,14.47,7.42,21.57c3.41,2.06,7.85,4.67,13.66,4.72s107.66,0,107.66,0H683a24.65,24.65,0,0,0,17-6.21c3.77-4.65,6-6.74,6-12.81Z"/></g></g></g></g></g><path id="Rectangle_492" data-name="Rectangle 492" class="cls-8" d="M433.6,657.52H582a28.2,28.2,0,0,1,28.2,28.2h0A28.21,28.21,0,0,1,582,713.93H433.6a28.21,28.21,0,0,1-28.21-28.21h0a28.2,28.2,0,0,1,28.21-28.2Z"/><g id="Start"><g id="Start-2" class="cls-9"><text class="cls-10" transform="translate(478.02 691.28)">Sta<tspan class="cls-11" x="35.69" y="0">r</tspan><tspan x="44.98" y="0">t</tspan></text></g></g><g id="Group_153" data-name="Group 153"><path id="Path_185" data-name="Path 185" class="cls-7" d="M481.43,473.42a9,9,0,0,0-3.95,9.08c.48,3.35,2.28,6.48,3.92,9.59s3.14,6.38,3,9.74c-.25,4.92-4,9.15-6.78,13.51s-4.55,9.93-1.08,14c4.7,5.52,15.52,4.64,21.72,9.08a13,13,0,0,1,5.19,10.13,44.88,44.88,0,0,1-1.58,11.11c-.5,2.45-.62,5.46,1.93,6.87a6.68,6.68,0,0,0,7.56-1.62,13.64,13.64,0,0,0,2.65-6.58,62.3,62.3,0,0,1,12.2-24.94c4.44-5.57,9.9-10.64,13.52-16.6,8.12-13.33,5.52-30.52-6.35-42.07-.77,0-2.08-.53-2.86-.55Z"/><path id="Path_186" data-name="Path 186" class="cls-12" d="M495.7,474.09a6.26,6.26,0,0,0-2.31,6,21.66,21.66,0,0,0,2.25,6.3,13.9,13.9,0,0,1,1.71,6.4c-.15,3.23-2.34,6-4,8.89s-2.66,6.54-.65,9.21c2.72,3.61,9,3,12.6,5.93a8.84,8.84,0,0,1,3,6.64,32.69,32.69,0,0,1-.94,7.31c-.3,1.61-.37,3.59,1.1,4.52a3.58,3.58,0,0,0,4.4-1.08,9.62,9.62,0,0,0,1.55-4.33,43.57,43.57,0,0,1,7.14-16.41c2.59-3.68,5.78-7,7.89-11a24.35,24.35,0,0,0-3.61-27.64c-.45,0-1.2-.34-1.66-.36Z"/><g id="Group_152" data-name="Group 152"><path id="Path_187" data-name="Path 187" class="cls-13" d="M414.41,416.21l-9.3,17.13,38.63,1-10-17.72Z"/><path id="Path_188" data-name="Path 188" class="cls-8" d="M446.09,261.37a81.66,81.66,0,0,0-11.89-28.13s-3.7-5.93-5.91-6h0c-2.2,0-6.21,5.73-6.21,5.73a82.27,82.27,0,0,0-13.69,28.82C420.42,258.19,433.34,259.13,446.09,261.37Z"/><path id="Path_189" data-name="Path 189" class="cls-8" d="M613,265.67a81.71,81.71,0,0,0-11.88-28.12s-3.71-5.93-5.91-6h0c-2.21,0-6.22,5.73-6.22,5.73a82.46,82.46,0,0,0-13.68,28.81C587.31,262.49,600.24,263.43,613,265.67Z"/><path id="Path_190" data-name="Path 190" class="cls-13" d="M446.17,261.31c-12.74-2.24-25.67-3.18-37.72.38a99.8,99.8,0,0,0-3.5,23l-2.19,71.72L401.57,409l44.17,1.14,1.52-52.54,1.51-71.74A100.87,100.87,0,0,0,446.17,261.31Z"/><path id="Path_191" data-name="Path 191" class="cls-14" d="M401.57,409l-.14,6.78c0,1.32.61,2.41,1.45,2.43l20.54.53h0l20.53.53c.83,0,1.54-1,1.58-2.35l.19-6.78Z"/><path id="Path_192" data-name="Path 192" class="cls-13" d="M581.23,420.51l-9.3,17.13,38.63,1-10-17.71Z"/><path id="Path_193" data-name="Path 193" class="cls-13" d="M613,265.62c-12.74-2.24-25.67-3.19-37.72.37a99.8,99.8,0,0,0-3.5,23l-2.19,71.71-1.19,52.55,44.17,1.14,1.52-52.54,1.5-71.74A100.24,100.24,0,0,0,613,265.62Z"/><path id="Path_194" data-name="Path 194" class="cls-15" d="M568.4,413.29l-.15,6.78c0,1.32.62,2.41,1.46,2.44l20.53.53h0l20.53.52c.84,0,1.54-1,1.58-2.35l.19-6.78Z"/><path id="Path_195" data-name="Path 195" class="cls-13" d="M493.21,450.75l-12.83,23.6,53.24,1.38-13.8-24.41S490.44,450.68,493.21,450.75Z"/><path id="Path_196" data-name="Path 196" class="cls-16" d="M561.49,221.17s2.57-41.86-33.71-74.85c0,0-8.47-8.48-13.43-8.67h-.06c-5-.06-13.86,8-13.86,8-37.94,31.07-37.53,73-37.53,73l-3.39,101.46-1.82,87.32,49.61,1.28h.06L557,410l2.69-87.3Z"/><path id="Path_197" data-name="Path 197" class="cls-8" d="M473.87,345.72l-34.3,27.07s-19.14,16.43-19.69,37.7L419,444.38a6.08,6.08,0,0,0,5.92,6.24h0l46.17,1.14Z"/><path id="Path_198" data-name="Path 198" class="cls-8" d="M543.82,347.52l32.85,28.8s18.27,17.4,17.73,38.66l-.91,35a5,5,0,0,1-5.14,4.88h0l-47.24-1.26Z"/><g id="Group_151" data-name="Group 151"><path id="Path_199" data-name="Path 199" class="cls-13" d="M543.07,395.83l1.31-71.74a71.11,71.11,0,0,0-23.83-52.9s-6-6-9.49-6.14H511c-3.5,0-9.79,5.64-9.79,5.64a71.13,71.13,0,0,0-26.52,51.6L472.3,394l-1.09,52.55,70.25,1.81Z"/><path id="Path_200" data-name="Path 200" class="cls-17" d="M471.2,446.56l-.15,6.77a2.4,2.4,0,0,0,2.35,2.46l32.66.84h.05l32.66.84a2.4,2.4,0,0,0,2.47-2.33l.21-6.77Z"/></g><circle id="Ellipse_377" data-name="Ellipse 377" class="cls-18" cx="512.29" cy="212.09" r="21.72"/><circle id="Ellipse_378" data-name="Ellipse 378" class="cls-8" cx="512.29" cy="212.09" r="15.29"/><path id="Path_201" data-name="Path 201" class="cls-19" d="M522.16,407.41a4,4,0,0,0-3.91-4.08,3.88,3.88,0,0,0-2,.49l-9.85,5.39a1.09,1.09,0,0,1-1,0h0l-1.45-.88-.77-.47h0a1.1,1.1,0,0,1-.5-1,1.07,1.07,0,0,1,.57-.92l13.19-7.2A1.28,1.28,0,0,0,517,397a1.22,1.22,0,0,0-.45-.48L510.79,393a4,4,0,0,0-4-.09l-12.86,7-.16.1-.29.18v0a3.94,3.94,0,0,0-1.6,2.88v0l-.26,10.92a4,4,0,0,0,5.91,3.6l9.85-5.39a1.12,1.12,0,0,1,1,0h0l2.18,1.34.05,0h0a1.09,1.09,0,0,1-.08,1.87l-13.18,7.21a1.28,1.28,0,0,0-.51,1.74,1.27,1.27,0,0,0,.45.47l5.71,3.47a4,4,0,0,0,4,.09l12.85-7,.16-.1.29-.18v0a4,4,0,0,0,1.35-1.75,4.32,4.32,0,0,0,.26-1.13v0ZM507.37,394a2.78,2.78,0,0,1,2.79.06l5.71,3.47a.06.06,0,0,1,0,.07.07.07,0,0,1,0,.06l-13.19,7.21a2.27,2.27,0,0,0-1.19,1.9L496,403.45a3.15,3.15,0,0,1-.33-.22l-.09-.09-.19-.18-.1-.12-.15-.18-.08-.13a1.6,1.6,0,0,1-.11-.19.93.93,0,0,1-.07-.15,2.07,2.07,0,0,1-.08-.2c0-.08,0-.11,0-.16s0-.15-.05-.22l0-.16a1.8,1.8,0,0,0,0-.22V401ZM497,416.66a2.8,2.8,0,0,1-3.79-1.11,2.84,2.84,0,0,1-.34-1.4l.16-6.75.1-4.16a3.45,3.45,0,0,1,.18-.77,3,3,0,0,1,.26-.5h0a3.37,3.37,0,0,0,.1.34l0,.09c0,.08.06.17.1.26l0,.08c0,.11.11.21.16.31l0,0c0,.08.11.18.17.26l.05.08.19.23,0,.05.25.26.07.06.22.18.08.06a2.11,2.11,0,0,0,.31.21l7.17,4.32,4.14,2.53Zm9.45,10.88a2.81,2.81,0,0,1-2.79-.07L497.91,424h0a.06.06,0,0,1,0-.06.08.08,0,0,1,0-.07l13.18-7.2a2.26,2.26,0,0,0,1.19-1.91l5.51,3.32a2.75,2.75,0,0,1,.33.23l.1.09.19.18.09.11.15.19a1.17,1.17,0,0,1,.08.13,1.18,1.18,0,0,1,.11.19l.07.14a1.8,1.8,0,0,1,.08.21.58.58,0,0,1,0,.16,1.08,1.08,0,0,1,.05.21l0,.17c0,.05,0,.14,0,.22v.25Zm14.28-9.25a2.76,2.76,0,0,1-.44,1.27h0l-.09-.34a.32.32,0,0,1,0-.09l-.1-.25a.36.36,0,0,1,0-.09,3,3,0,0,0-.16-.31l0,0-.17-.27-.06-.08-.18-.22,0-.06-.25-.26-.07-.05-.22-.19-.08-.06-.3-.21-7.18-4.32-.05,0-4.09-2.5,9.71-5.32a2.79,2.79,0,0,1,3.79,1.11,2.84,2.84,0,0,1,.34,1.4l-.16,6.75Z"/></g></g><path id="Path_202" data-name="Path 202" class="cls-20" d="M173.57,487.77a1.22,1.22,0,0,1-1.58-.65,1.16,1.16,0,0,1-.08-.32c-1.67-13.24-11.37-16.08-13.64-27.39-4.32,1.82-13.59,3.38-13.76,3.65s9.85,51.17,10.38,50.83c7.35-4.76,78.34-19.82,80.41-26.56C236.74,482.61,183,483.92,173.57,487.77Z"/><path id="Path_203" data-name="Path 203" class="cls-21" d="M159,458.76a4,4,0,0,1-.21,1.71c-.34.65-4.22,1.62-4.88,1.86-6.36,2.29-13,4.62-19.56,3.39a2.36,2.36,0,0,1-1.17-.47,2.73,2.73,0,0,1-.66-1.3c-2.19-7.17-1.91-4.28-2.48-11.85-.72-9.53-6.72-49.78-5-52.68C126.39,401.17,160.18,428.49,159,458.76Z"/><path id="Path_204" data-name="Path 204" class="cls-18" d="M102.71,902.75a65.36,65.36,0,0,0-1.62-17c9.54,1.46,25.85-6.07,25.92-6.07,5.72,1.59,19.66,11.75,31.09,13.46,4.51.68,9.15.67,13.62,1.62a12.48,12.48,0,0,1,5.44,2.3,6.51,6.51,0,0,1,1.91,2.63C154.6,908,127.83,904.67,102.71,902.75Z"/><path id="Path_205" data-name="Path 205" class="cls-13" d="M102.71,902.75c25.12,1.92,51.89,5.23,76.36-3a4.76,4.76,0,0,1,.29,2.61,6.07,6.07,0,0,1-4.59,4.31c-2.14.56-55,6.06-67.84,4.38a5.41,5.41,0,0,1-3.67-1.54,6.06,6.06,0,0,1-.69-4.25C102.64,904.41,102.69,903.58,102.71,902.75Z"/><path id="Path_206" data-name="Path 206" class="cls-18" d="M67.5,915a65,65,0,0,0-1.61-17c9.54,1.47,25.85-6.07,25.92-6.07,5.72,1.59,19.65,11.75,31.08,13.47,4.53.67,9.15.66,13.63,1.61a12.57,12.57,0,0,1,5.43,2.31,6.5,6.5,0,0,1,1.92,2.62C119.39,920.23,92.62,916.93,67.5,915Z"/><path id="Path_207" data-name="Path 207" class="cls-13" d="M67.5,915c25.12,1.92,51.89,5.22,76.36-3a4.75,4.75,0,0,1,.29,2.61,6.05,6.05,0,0,1-4.59,4.31c-2.14.56-55,6.05-67.84,4.38a5.41,5.41,0,0,1-3.66-1.55,5.93,5.93,0,0,1-.69-4.24C67.43,916.67,67.47,915.84,67.5,915Z"/><path id="Path_208" data-name="Path 208" class="cls-22" d="M147.31,882a173.93,173.93,0,0,1-.25-18.69q10.24-141,10.13-282.11c-21.78,1.37-48.29,2-70.07,3.37-4.41,88.85.73,177.76,5.89,266.6.56,9.83,3.18,28.65,7.14,38.24C113.09,890,134.37,881.42,147.31,882Z"/><path id="Path_209" data-name="Path 209" class="cls-23" d="M109.26,893.17c2.14-5.76,3.76-8.1,4.16-14q10.24-148.92,10.13-298c-21.78,1.45-48.28,2.12-70.06,3.56-4.42,93.86.73,187.76,5.88,281.61.57,10.38.17,20.8,4.13,30.93C76.44,897.89,96,897.72,109.26,893.17Z"/><path id="Path_210" data-name="Path 210" class="cls-24" d="M71.16,316.67a32,32,0,0,0-4.64,6.92c-3.23,6.62-3.78,14.75-.42,21.3a51.2,51.2,0,0,1,5.1,24.25,8.67,8.67,0,0,0,.61,4.3A7.19,7.19,0,0,0,74,375.7a34.62,34.62,0,0,0,14.4,6.19,24.55,24.55,0,0,0-.47-11.77A12.66,12.66,0,0,0,80.29,362c.89-8.06,1.92-16.3,2.86-24.41C82.69,329.34,77.57,322.35,71.16,316.67Z"/><path id="Path_211" data-name="Path 211" class="cls-25" d="M87.63,371.4c8.82,6,25.26,9.8,35.87,10.6.37,3.72-.15,7.51.12,11.15-10.75-2.09-26.94-6.7-35.38-13.51A25.4,25.4,0,0,0,87.63,371.4Z"/><path id="Path_212" data-name="Path 212" class="cls-20" d="M88.24,379.64c8.45,6.81,24.63,11.42,35.38,13.51.39,5.25.75,10.47,1.29,15.84-9.33.73-40.29-5.66-49.65-5.85-4.26-6.48,7.06-11.31,11.51-19.29A14,14,0,0,0,88.24,379.64Z"/><path id="Path_213" data-name="Path 213" class="cls-20" d="M60.19,350.05c1.51-3.54,5.86-5.28,9.66-4.66a16.28,16.28,0,0,1,9.51,6.16A38.84,38.84,0,0,0,81,325.69c6.24-6,12-14.4,24.33-17.47A23.52,23.52,0,0,1,124.53,317c2.45,3.16,3.3,7.24,4,11.17a297.4,297.4,0,0,1,3.93,36.7c.24,4.57.58,9.84-2,13.57-3,4.29-7.9,4.09-14,3.54h0A58.08,58.08,0,0,1,87.63,371.4c0-.11,0-.21-.08-.31-1.13-3.78-3.58-8.21-7.51-8.56A8,8,0,0,1,72,366.26a14.48,14.48,0,0,1-8.14-4.52C60.77,358.67,58.49,354,60.19,350.05Z"/><path id="Path_214" data-name="Path 214" class="cls-25" d="M72,354.16c0-.54.62-.87.81-1.38a1.4,1.4,0,0,0-.09-1.08,2.66,2.66,0,0,0-1.4-1.4,4,4,0,0,0-2,0A4.37,4.37,0,0,0,67,351.48a3.94,3.94,0,0,0-1.17,2.26,4.81,4.81,0,0,0,1.55,4,9.39,9.39,0,0,0,3.89,2.09,4.15,4.15,0,0,0,1.6.23,1.62,1.62,0,0,0,1.32-.81,2.12,2.12,0,0,0-.27-2.1c-.45-.55-1.06-.88-1.48-1.45s-.78-1.37-.38-2"/><path id="Path_215" data-name="Path 215" class="cls-26" d="M69.54,351.58a4,4,0,0,0-.52,2,4.84,4.84,0,0,0,1,2.89,4.5,4.5,0,0,0,2.55,1.66,1.83,1.83,0,0,0,.93,0,.81.81,0,0,0,.56-.7c0-.41-.39-.69-.71-.94a3.28,3.28,0,0,1-1.08-1.23,1.69,1.69,0,0,1,0-1.59,6.46,6.46,0,0,0,.62-.86,1.27,1.27,0,0,0,0-.94,4,4,0,0,0-.51-.82c-.37-.49-.8-.89-1.42-.62A2.94,2.94,0,0,0,69.54,351.58Z"/><path id="Path_216" data-name="Path 216" class="cls-27" d="M62,465,60.4,476.32c.06.76.12,1.53.19,2.3Z"/><path id="Path_217" data-name="Path 217" class="cls-27" d="M60.6,478.62c-.07-.77-.14-1.54-.2-2.3l-1.1,7.73.72.13Z"/><path id="Path_218" data-name="Path 218" class="cls-13" d="M157.47,585.64c-3.72-59.91,3.16-129.56-32.42-186.21-.4-.17-24.7,1.43-45-7.63a193.37,193.37,0,0,1-26,16.12c-14.78,7.55-15.55,28-20.14,39.74-4.52,11.57-1.56,10.93-5.37,19.59C24.21,477,54.24,483.08,59.3,484l1.1-7.72c-.18-2.2-.32-4.38-.39-6.49.07,2.12.21,4.29.39,6.49L62,465l-1.43,13.66c-3.31,38.11-8.32,111.32-8.32,111.32C71,608.41,157.47,585.64,157.47,585.64Z"/><path id="Path_219" data-name="Path 219" class="cls-24" d="M143.5,325.34c.31.24-10.17-7.58-15.81-11.25-4.79-3.12-9-7.2-14.15-9.64a28.9,28.9,0,0,0-16.28-2.19,36.15,36.15,0,0,0-5.54,1.27c1.6,5.67,3.29,11.19,8,14.92-.1-.74-1-3.83-.48-2.18a19.56,19.56,0,0,0,4.2,3.82,50.28,50.28,0,0,0,9.72,4.75c8.54,3.43,17.57,6.93,26.7,5.73-1.92-1.48-6.46-3.4-6.92-6.14C134.8,325.83,141.24,326.07,143.5,325.34Z"/><path id="Path_220" data-name="Path 220" class="cls-1" d="M83.12,342.79a33.11,33.11,0,0,0-16.66-28.23"/><path id="Path_221" data-name="Path 221" class="cls-24" d="M99.66,318.44c-4.66-3.74-6.34-9.25-8-14.93a46.4,46.4,0,0,0-10,4.5,43.59,43.59,0,0,0-10.57,8.66,36.24,36.24,0,0,1,11.1,23.59,49.91,49.91,0,0,0,1.4-7.17l0,5.69a19.13,19.13,0,0,0,13-12.4l1.15,1.46A15.23,15.23,0,0,0,99.66,318.44Z"/><path id="Path_222" data-name="Path 222" class="cls-12" d="M114.57,341.85a27,27,0,0,0,4.29,9.81c.7,1,1.51,2.21,1,3.34s-1.75,1.4-2.88,1.6l-4.42.78a3.28,3.28,0,0,1-2-.05,2.26,2.26,0,0,1-1.16-1.93,7.09,7.09,0,0,1,.36-2.33,46.83,46.83,0,0,0,1.48-11.66c0-1-.55-4,1.19-3.83C114,337.73,114.35,340.85,114.57,341.85Z"/><path id="Path_223" data-name="Path 223" class="cls-28" d="M125,364.55c0-.06,0-.11,0-.16-1.22-3.29-5-1.44-7.3-1.11-3,.42-6.07.39-9.06.7a1.61,1.61,0,0,0-.86.26.81.81,0,0,0-.27.47A33.25,33.25,0,0,0,125,364.55Z"/><path id="Path_224" data-name="Path 224" class="cls-29" d="M107.48,364.71a1.27,1.27,0,0,0,.26,1,3.1,3.1,0,0,0,1.4.81,50.9,50.9,0,0,0,8.48,2.23,9.18,9.18,0,0,0,5.14-.19,3.61,3.61,0,0,0,2.27-4A33.29,33.29,0,0,1,107.48,364.71Z"/><path id="Path_225" data-name="Path 225" class="cls-24" d="M116.86,375.28a2.7,2.7,0,0,0,1.58,1.29,2,2,0,0,0,1.78-.76,5.74,5.74,0,0,0,.92-1.79c.34-.9.59-2.09-.18-2.65a2.11,2.11,0,0,0-1.07-.31,28.77,28.77,0,0,0-4.14-.54.84.84,0,0,0-.79.88.47.47,0,0,0,0,.17A21.49,21.49,0,0,0,116.86,375.28Z"/><path id="Path_226" data-name="Path 226" class="cls-21" d="M56.17,535.26s53.12-8.34,58.9-11.12c3.55.93-9.66,5.5-13.62,6.65-10.88,3.14-45.65,9.44-45.65,9.44Z"/><path id="Path_227" data-name="Path 227" class="cls-20" d="M132.2,507.36c-1,.45-3.13,2-4.1,2.52.42-1.44,4.31,2.09,5.16.82a29,29,0,0,1-1.2-5.7c-4.71,5.77-11.93,3-19.57,2.47-3-.21-7,1-8.52.39-.84,1.95,1.09,6.63.83,8.7a16.19,16.19,0,0,0,0,3.19c.23,2.76.32,5.6,2.55,7,3.46-.88,6.45-2.51,9.32-2.12a33.6,33.6,0,0,1,6.85,2.28,28.44,28.44,0,0,0,17.64.37c2.34-.69,29.29-9.58,31.33-19.17C165.55,504.19,135.2,514.58,132.2,507.36Z"/><path id="Path_228" data-name="Path 228" class="cls-23" d="M256.25,494.49c15-34.39,16.74-49.73,31.49-87.83-41.82,1.42-75.61,5.14-116.38,6.85-14.1,37.91-18.73,61.53-29.46,92.39"/><path id="Path_229" data-name="Path 229" class="cls-20" d="M115.78,507.78c-28.09-2.17-41.67,3.09-67,3.94A139.67,139.67,0,0,0,60.6,478.61c-13.51-6.75-26.17-8.72-29.27-20.25-4.57,8.22-15.94,42.33-17.27,47.21-5.56,20.33,3.27,28,10.66,29.55,12.38,2.57,27.53.91,40-1.11,24.53-4,31.05-3.41,51.24-9.94a4,4,0,0,0,2.46-1.6,4,4,0,0,0,.24-2.27C118.18,514.55,118.3,513.69,115.78,507.78Z"/><path id="Path_230" data-name="Path 230" class="cls-13" d="M25.44,467.73a35.7,35.7,0,0,0-1.64,4.62,5.68,5.68,0,0,0-.11,3.06c.54,1.71,2.32,2.87,4.08,3.79,9.65,5,22.15,6.46,33.5,6.3.34-5.76-.11-11.53.23-17.29.1-1.75.2-3.5.46-5.23a48.4,48.4,0,0,0,.68-4.81,21.9,21.9,0,0,0-1.85-8.66,10.76,10.76,0,0,0-2.25-3.92,13.29,13.29,0,0,0-3.95-2.43,21.91,21.91,0,0,0-5.8-2,19.59,19.59,0,0,0-8.36.83c-2.13.61-4.82,1-5.7,2.88-2.28,4.79-4,9.84-6,14.72Z"/><path id="Path_231" data-name="Path 231" class="cls-8" d="M142.18,505.8l-23.46-.19a6.19,6.19,0,0,0-2.85.43,2.13,2.13,0,0,0-1.24,2.36c.38,1.22,2,1.48,3.26,1.51l22.85.6C141.43,508.63,141.49,507.68,142.18,505.8Z"/><path id="Path_232" data-name="Path 232" class="cls-8" d="M255.45,498.79l-114.7,11.37,1.43-4.71,113.27-11Z"/><path id="Path_233" data-name="Path 233" class="cls-20" d="M215,503.05a16.67,16.67,0,0,0,29.94-.17c.52-1,1.56-2.58.06-3.11s-4,.36-5.44.52l-11.54,1.3Z"/><g id="Group_155" data-name="Group 155"><path id="Path_234" data-name="Path 234" class="cls-18" d="M864.27,984c22.1-9.85,27.11-35.62,38.91-54.87a13.84,13.84,0,0,0-4-3.41c-4.73-2.68-14.31-5.81-20.3-7.91-2.09-.73-3.9,6.46-5.18,8.05-4.31,5.39-4.7,15.2-6.36,21.38-1.93,7.23-2.56,17.41-2.55,24.81,0,2-.09,4.22-1.88,5.7-3.34,2.76-13.12,3.57-16,6.62a3.33,3.33,0,0,0-.67,1C852.4,985.79,858.68,986.39,864.27,984Z"/><path id="Path_235" data-name="Path 235" class="cls-13" d="M903.18,929.13c-11.79,19.24-16.81,45-38.91,54.87-5.59,2.39-11.87,1.8-18,1.39a4,4,0,0,0,.93,4.18c1.39,1.51,5.84.52,8.76.52,7.22,0,14.5-1.21,19.63-5.09s8.35-9,11.48-13.92l13.65-21.67c2.37-3.76,4.79-7.65,5.14-11.82A12,12,0,0,0,903.18,929.13Z"/><path id="Path_236" data-name="Path 236" class="cls-18" d="M741.85,962.11a69.85,69.85,0,0,1,1.75-18.34c-10.32,1.59-27.94-6.56-28-6.56-6.18,1.72-21.24,12.7-33.59,14.56-4.89.73-9.89.73-14.73,1.75a13.32,13.32,0,0,0-5.87,2.48,7,7,0,0,0-2.07,2.84C685.77,967.76,714.7,964.18,741.85,962.11Z"/><path id="Path_237" data-name="Path 237" class="cls-13" d="M741.85,962.11c-27.15,2.07-56.08,5.65-82.53-3.27a5.18,5.18,0,0,0-.31,2.83,6.54,6.54,0,0,0,5,4.66c2.32.61,59.45,6.55,73.32,4.74a5.85,5.85,0,0,0,4-1.68,6.46,6.46,0,0,0,.75-4.59C741.93,963.91,741.88,963,741.85,962.11Z"/><path id="Path_238" data-name="Path 238" class="cls-30" d="M813,604.14l5.68-.85a7.75,7.75,0,0,0,1.83-.44,6.88,6.88,0,0,0,1.6-1.07,18,18,0,0,0,3.18-3.16,8.07,8.07,0,0,0,1.69-4.33c-.56-.29-1.2-.47-1.76-.76a8.21,8.21,0,0,1-1.83-1.43,4.05,4.05,0,0,1-1.31-1.82c-2.15.8-5,2.06-6.16,4-1,1.59-.46,4.1-1.45,5.69A6.64,6.64,0,0,0,813,604.14Z"/><path id="Path_239" data-name="Path 239" class="cls-25" d="M815,602.57c-7.54,7.82-22.09,13.74-31.59,15.62-.08,4.4.64,4.82.65,9.11,9.54-3.41,23.61-8.44,30.75-17.18A23.33,23.33,0,0,1,815,602.57Z"/><path id="Path_240" data-name="Path 240" class="cls-20" d="M814.79,610.11c-9.24,7.92-21.21,13.77-30.75,17.17,0,6.19,0,16.35-.08,22.71,8.45,0,35.9-10.22,44.32-11.27,3.39-8-7.14-12.66-11.68-21.62A39.24,39.24,0,0,1,814.79,610.11Z"/><path id="Path_241" data-name="Path 241" class="cls-20" d="M839.34,575.58c-2.09-4-7.35-5.68-11.76-4.61s-2.42,4.79-5,8.5a45.72,45.72,0,0,1-4.19-30.2c-7.85-6.44-15.39-15.83-30.11-18.35a27.72,27.72,0,0,0-21.78,12c-2.6,3.92-3.22,8.78-3.69,13.46a347.92,347.92,0,0,0-1.37,43.43c.13,5.37.18,11.59,3.6,15.74,3.93,4.76,9.64,4.1,16.71,2.92h0a69.23,69.23,0,0,0,33.12-14.93c0-.12,0-.39.08-.5,1-4.54,3.23-9.85,7.82-10.6.24.41.59,4,4.24,3.22a17,17,0,0,0,9.15-6C839.43,585.75,841.69,580.11,839.34,575.58Z"/><path id="Path_242" data-name="Path 242" class="cls-25" d="M829.55,582.34c-.07-.53-.67-.81-.89-1.29a1.36,1.36,0,0,1,0-1,2.63,2.63,0,0,1,1.25-1.47,4,4,0,0,1,2-.15,4.41,4.41,0,0,1,2.29,1,3.93,3.93,0,0,1,1.3,2.12,4.69,4.69,0,0,1-1.21,4,9.3,9.3,0,0,1-3.63,2.32,4,4,0,0,1-1.53.34,1.58,1.58,0,0,1-1.34-.69,2,2,0,0,1,.11-2.06c.38-.58,1-.94,1.33-1.53a1.75,1.75,0,0,0,.22-1.93"/><path id="Path_243" data-name="Path 243" class="cls-31" d="M831.78,579.65a3.68,3.68,0,0,1,.65,1.92,4.67,4.67,0,0,1-.71,2.87,4.35,4.35,0,0,1-2.35,1.8,1.66,1.66,0,0,1-.91.07.77.77,0,0,1-.59-.63c0-.4.32-.71.62-1a3.28,3.28,0,0,0,1-1.28,1.68,1.68,0,0,0-.13-1.54,7.27,7.27,0,0,1-.68-.79,1.27,1.27,0,0,1,0-.92,3.11,3.11,0,0,1,.43-.83c.32-.5.71-.93,1.33-.71A2.84,2.84,0,0,1,831.78,579.65Z"/><path id="Path_244" data-name="Path 244" class="cls-12" d="M779.84,572.92a45.7,45.7,0,0,1-3.51,13.65c-.62,1.42-2.3,3.75-1.76,5.23.54,1.15,2.67,1.25,3.93,1.24l4.42.6a2.49,2.49,0,0,0,1.94-.27,3.53,3.53,0,0,0,1-2.72,12.6,12.6,0,0,0-.54-3.11A84.17,84.17,0,0,1,783,572c-.07-1.28.25-5.46-1.45-5C780.14,567.31,780,571.56,779.84,572.92Z"/><path id="Path_245" data-name="Path 245" class="cls-30" d="M831.58,570.72a28.13,28.13,0,0,0-2.6-17.19c-.9-1.81-2-3.53-2.8-5.38a82.76,82.76,0,0,1-3-9.36,8.85,8.85,0,0,0-1.25-2.74,9.12,9.12,0,0,0-1.75-1.65,44.79,44.79,0,0,0-8.07-5.2,43.65,43.65,0,0,0-20.6-3.71,68.86,68.86,0,0,0-21.92,4.4c-2.55,1-5.28,2.33-6.2,4.89a9.63,9.63,0,0,0-.33,3.77c.17,3.22.28,7.36.75,10.56a35.58,35.58,0,0,1,4.86-5.4,15.31,15.31,0,0,1,10.94-4.3c9-.66,18.52-1.19,26.76,2.59a54.86,54.86,0,0,1,11.19,7.59,61.63,61.63,0,0,0,1.09,23,18.94,18.94,0,0,0,3.87,6.85C825.41,576,827.58,571,831.58,570.72Z"/><path id="Path_246" data-name="Path 246" class="cls-20" d="M581.94,680.52a13.09,13.09,0,0,0-5.52,1.67,4,4,0,0,0-1.8,4.72L599,684.37a11.94,11.94,0,0,0-10.57,7.09,12.14,12.14,0,0,0,2,12.12,17.47,17.47,0,0,0,11.79,6,9.1,9.1,0,0,0,4.45-.46,3.8,3.8,0,0,0,2.52-3.22,2.65,2.65,0,0,0-2.74-2.56h-.14l24,2.59c.59-6.15,1.21-12.29,1.76-18.45.19-2.13.73-3.91-1.41-5.15s-6.71-1.34-9.31-1.71A142.35,142.35,0,0,0,581.94,680.52Z"/><path id="Path_247" data-name="Path 247" class="cls-20" d="M739.2,665.59c-3.23,2.6-40,24-40,24L629.7,681.9l-4.31,23.52,72.46,16.7a18.38,18.38,0,0,0,13.67-2.18L765,687.55a15.88,15.88,0,0,0-2.7-4.06C756,676.61,745.31,672.55,739.2,665.59Z"/><path id="Path_249" data-name="Path 249" class="cls-22" d="M728.58,841.45a42.16,42.16,0,0,0-13.64,16.4,45,45,0,0,0,.61,38.38c5.65,11.47,15.89,20.17,27.16,26.21s23.64,9.67,35.92,13.26l65.45,19.15c5,1.46,10.24,2.93,15.29,1.72,9.83-2.37,14.46-13.38,17.64-23,2-6,3.88-12.78.82-18.26-2.84-5.07-8.93-7.17-14.49-8.86l-59.42-18c-3.55-1.07-7.85-3.11-7.73-6.83.13-4,5.24-5.62,9.26-6.08l68.86-8c9.23-1.07,13.25-8.6,21.29-13.26s14.25-13.21,12.55-22.35c-1.46-7.87-2.83-8-10.38-10.63S882,818.88,874,819c-23.75.48-47.59.36-71.31,1.47-8.64.41-14.05,2.65-21.08,7.19s-13.59,4.08-21.91,4.44C748.77,832.63,737.66,835,728.58,841.45Z"/><path id="Path_250" data-name="Path 250" class="cls-8" d="M854.72,781.43c-11.18,4.08-23.63,3.57-35.19.69s-22.41-8-33.17-13.11c-18.72-8.88-28.12-11.49-46.84-20.37-8.68-4.11-20.1-3.68-29,0a37.35,37.35,0,0,0-19.83,19.9c-3.25,7.84-3.7,16.52-3.86,25-.36,19.36,7.14,132.63,9.38,151.86h49.46l-.34-130s97.26,70.78,139.57,50.88c26-12.2,42.46-44.75,31.54-68.92Z"/><path id="Path_251" data-name="Path 251" class="cls-30" d="M752.17,540.29a4,4,0,0,0,.73,3.06c2.22,3.39,6.89,6.18,10.93,5.75s7.66-3.78,11.53-5a49.77,49.77,0,0,1,41.56,5.54l-4.15,3.29c2.6,1.87,6.65-.2,7.52-3.29s-.69-6.41-3-8.67a19.58,19.58,0,0,0-8.78-4.68,57.41,57.41,0,0,0-10.69-1.54l-15.47-1.18c-4.2-.33-9.71-1.74-13.83-.56-2.49.71-4.16,2.87-6.57,3.79C760,537.55,752.17,536.78,752.17,540.29Z"/><path id="Path_252" data-name="Path 252" class="cls-27" d="M890.62,728.31c-10-23.38-19.77-46.27-33.51-74.09-9.06-18.31-25.62-26.85-31.09-30a2.42,2.42,0,0,0-3.36.6,2.39,2.39,0,0,0-.13.21c-.51.73-29,18.16-33.84,16.1-2.7-1.17-4-7.16-4.49-9.67C772.91,644.92,769,662.61,765.72,680a21.93,21.93,0,0,0-.71,7.52c3.31-.53,49.36,95.16,50.91,96.71,15.42,2.86,85.27,10.24,100.57,13.18C918.73,797.85,901.62,754.1,890.62,728.31Z"/><path id="Path_253" data-name="Path 253" class="cls-32" d="M765.71,680c3.3-17.4,7.19-35.09,18.49-48.52a8.48,8.48,0,0,0-.25-1.11c-8.76,1.42-51.37,27-67.69,40a3,3,0,0,0-.46,4.21,1.15,1.15,0,0,0,.14.17c7.56,8.14,16.08,15.18,23.59,23.44A19.23,19.23,0,0,1,741.7,701a3,3,0,0,0,4,1L765,687.54h0A22,22,0,0,1,765.71,680Z"/><path id="Path_254" data-name="Path 254" class="cls-20" d="M830.32,692.42c-5.29,8.8-19.64,55.71-23.26,64.11a1.65,1.65,0,0,1-2.08.9l-74-29.1c-.9-.33,2.94,4.17,2.67,5.1L730.29,745c-.22.77-1.41,1.24-.69,1.59l84.95,40.9a1.78,1.78,0,0,0,2.14-.65c38.18-45,56-99.57,56-99.57s-9.83-1.81-10.1-2.31c-.6-1.12-2.15,2.33-3.09,1.31-5.93-6.51-13.11,9.41-20.42,5.45C838.33,691.25,830.77,691.68,830.32,692.42Z"/><path id="Path_255" data-name="Path 255" class="cls-32" d="M826.16,690.64a4.64,4.64,0,0,0,4.55,4.59,127.73,127.73,0,0,0,29.88-3c3.85-.85,10.69-.9,12.37-4.46,1.46-3.1-2.13-8.09-3.33-11.3-3.74-10-12.74-25.44-19.18-34C845,635.37,834,629.07,826,624.26c-8.13-4.94-2.52,16.38-1.74,35.09Z"/><path id="Path_248" data-name="Path 248" class="cls-20" d="M715.9,730.28c-6,2.85-10.63,8-15,13.08a19.28,19.28,0,0,0-4.21,6.37,6.59,6.59,0,0,0,1.53,7.07c2.66,2.18,6.73,1,9.5-1.09s5.11-4.82,8.38-5.9,6.71-.29,9.92-1.25c5.75-1.73,11.31-10.72,8.81-16.65C731.93,725.13,720.85,728,715.9,730.28Z"/></g><circle id="Ellipse_359" data-name="Ellipse 359" class="cls-27" cx="778.39" cy="347.66" r="4.65"/><circle id="Ellipse_359-2" data-name="Ellipse 359-2" class="cls-13" cx="560.9" cy="67.17" r="4.39"/><circle id="Ellipse_359-3" data-name="Ellipse 359-3" class="cls-13" cx="465.89" cy="1.69" r="1.69"/><circle id="Ellipse_359-4" data-name="Ellipse 359-4" class="cls-33" cx="760.3" cy="211.05" r="3.26"/><circle id="Ellipse_359-5" data-name="Ellipse 359-5" class="cls-33" cx="280.58" cy="300.64" r="4.55"/><path id="Path_256" data-name="Path 256" class="cls-27" d="M676.4,78.18l2.43,13.21a.86.86,0,0,0,.61.66l15.11,3.86a.84.84,0,0,1,.6,1,.82.82,0,0,1-.63.6L680,100.62a.84.84,0,0,0-.64.68l-2.1,13a.83.83,0,0,1-1.61.1l-3.75-12.89a.82.82,0,0,0-.6-.57L657.6,97.58a.83.83,0,0,1,0-1.61l13.51-3.39a.82.82,0,0,0,.6-.63l3.07-13.79a.83.83,0,0,1,1-.63.82.82,0,0,1,.63.66Z"/><path id="Path_257" data-name="Path 257" class="cls-34" d="M357,49.2l2.43,13.21a.83.83,0,0,0,.61.65l15.11,3.87a.83.83,0,0,1,.59,1,.84.84,0,0,1-.62.6l-14.51,3.1a.82.82,0,0,0-.64.68l-2.1,13a.83.83,0,0,1-.95.69.85.85,0,0,1-.66-.59l-3.75-12.89a.82.82,0,0,0-.6-.57L338.15,68.6a.83.83,0,0,1-.59-1,.82.82,0,0,1,.59-.58l13.51-3.4a.85.85,0,0,0,.61-.62l3.06-13.79a.83.83,0,0,1,1-.62.86.86,0,0,1,.62.64Z"/><path id="Path_794" data-name="Path 794" class="cls-24" d="M118.15,381a13.1,13.1,0,0,0,9.36-1.59,4.38,4.38,0,0,1,1.12-.62,1.13,1.13,0,0,1,1.18.29,1.75,1.75,0,0,1,.17,1.43,15,15,0,0,1-.7,2.55,3.63,3.63,0,0,1-.5,1,3,3,0,0,1-1,.75,10.55,10.55,0,0,1-6.47.91c-2.18-.28-4.32-.93-6.5-1.3-1.31-.23-2.64-.35-3.93-.69s-3.38-.78-4.18-1.81c-1-1.24.26-2.33,1.4-2.5C111.47,378.85,114.9,380.44,118.15,381Z"/><path id="Path_801" data-name="Path 801" class="cls-24" d="M94.28,338.5c-.19.55.44,1.1,1,1.08a3.28,3.28,0,0,0,1.58-.7,11,11,0,0,1,6.33-1.71,8.53,8.53,0,0,0,1.75,0,1.82,1.82,0,0,0,1.39-.94c1.12-2.42-4.41-1.27-5.29-1.07C99.52,335.5,94.89,336.8,94.28,338.5Z"/><path id="Path_802" data-name="Path 802" class="cls-24" d="M126.17,333.68c.55.17,1.19.53,1.17,1.1a1,1,0,0,1-.94.79,4.43,4.43,0,0,1-1.35-.21,16.19,16.19,0,0,0-5.72.27c-2.68.36-2.77-1.88-.47-2.3A16.86,16.86,0,0,1,126.17,333.68Z"/><g id="Group_266" data-name="Group 266"><path id="Path_804" data-name="Path 804" class="cls-18" d="M771.49,571.93c.1.46-.29.91-1.08,1.07a6.72,6.72,0,0,1-1.27.07,4.16,4.16,0,0,1-2-.39,1.15,1.15,0,0,1-.32-.34,1,1,0,0,1,.46-1.52h0a3.33,3.33,0,0,1,4.13,1Z"/><path id="Path_807" data-name="Path 807" class="cls-18" d="M797.48,574.21c.08.45-.38.89-1.26,1a8.17,8.17,0,0,1-1.4,0,5.09,5.09,0,0,1-2.24-.47,1.21,1.21,0,0,1-.33-.35,1,1,0,0,1,.62-1.51h0a3.91,3.91,0,0,1,4.49,1.12Z"/><path id="Path_809" data-name="Path 809" class="cls-30" d="M805.63,567.28c.24.67-.53,1.34-1.24,1.31a3.89,3.89,0,0,1-1.92-.85,13.36,13.36,0,0,0-7.73-2.09,9.39,9.39,0,0,1-2.12,0,2.23,2.23,0,0,1-1.7-1.14c-1.35-3,5.39-1.56,6.46-1.31C799.24,563.62,804.89,565.21,805.63,567.28Z"/><path id="Path_810" data-name="Path 810" class="cls-30" d="M766.75,561.41c-.67.2-1.45.65-1.42,1.33a1.2,1.2,0,0,0,1.15,1,5.36,5.36,0,0,0,1.64-.26,19.68,19.68,0,0,1,7,.34c3.27.43,3.39-2.3.58-2.82A20.67,20.67,0,0,0,766.75,561.41Z"/></g><path id="Path_223-2" data-name="Path 223-2" class="cls-28" d="M772.51,601a1.42,1.42,0,0,1,.07-.22c1.63-4.39,6.67-1.92,9.74-1.48,4,.56,8.11.53,12.1.94a2.15,2.15,0,0,1,1.15.34,1.14,1.14,0,0,1,.36.63A44.42,44.42,0,0,1,772.51,601Z"/><path id="Path_224-2" data-name="Path 224-2" class="cls-29" d="M795.94,601.18a1.65,1.65,0,0,1-.35,1.34,3.92,3.92,0,0,1-1.86,1.09,68.11,68.11,0,0,1-11.32,3,12.26,12.26,0,0,1-6.87-.26,4.83,4.83,0,0,1-3-5.37A44.36,44.36,0,0,0,795.94,601.18Z"/><g id="Group_264" data-name="Group 264"><path id="Path_796" data-name="Path 796" class="cls-18" d="M100,344.24a1.26,1.26,0,0,0,.44,1.48,2.9,2.9,0,0,0,.84.38,2,2,0,0,0,1.51,0,1.08,1.08,0,0,0,.31-.33,1.7,1.7,0,0,0,.1-1.88,1.84,1.84,0,0,0-2.56-.47A1.9,1.9,0,0,0,100,344.24Z"/></g><g id="Group_264-2" data-name="Group 264"><path id="Path_796-2" data-name="Path 796" class="cls-18" d="M121.05,341.94a1.25,1.25,0,0,0,.43,1.47,3,3,0,0,0,.84.38,2,2,0,0,0,1.51,0,1.22,1.22,0,0,0,.31-.33,1.68,1.68,0,0,0,.1-1.87,1.83,1.83,0,0,0-2.55-.47A1.76,1.76,0,0,0,121.05,341.94Z"/></g></g></g></svg>