<svg xmlns="http://www.w3.org/2000/svg" xmlns:xlink="http://www.w3.org/1999/xlink" width="138.991" height="124.076" viewBox="0 0 138.991 124.076"><defs><style>.a{fill:url(#a);}</style><linearGradient id="a" y1="0.5" x2="1" y2="0.5" gradientUnits="objectBoundingBox"><stop offset="0" stop-color="#3bcee7"/><stop offset="1" stop-color="#09a7fe"/></linearGradient></defs><path class="a" d="M1333.926,213.209h-4.883a6.376,6.376,0,0,0-12.237,0h-23.218a1.834,1.834,0,1,0,0,3.667h23.218a6.376,6.376,0,0,0,12.237,0h4.883a1.834,1.834,0,0,0,0-3.667Zm-11,4.584a2.75,2.75,0,1,1,2.75-2.751A2.754,2.754,0,0,1,1322.925,217.793Zm11,10.085h-23.219a6.375,6.375,0,0,0-12.237,0h-4.883a1.833,1.833,0,1,0,0,3.667h4.883a6.375,6.375,0,0,0,12.237,0h23.219a1.833,1.833,0,1,0,0-3.667Zm-29.337,4.584a2.75,2.75,0,1,1,2.751-2.751A2.754,2.754,0,0,1,1304.589,232.462Zm40.077-17.513a2.169,2.169,0,0,1-2.169,2.169h-2.169a2.169,2.169,0,1,1,0-4.339h2.169A2.169,2.169,0,0,1,1344.666,214.949Zm-1.146-68.169h-5.245a25.506,25.506,0,0,0-1.615-3.9l3.706-3.706a4.846,4.846,0,0,0,0-6.847l-4.187-4.187a4.857,4.857,0,0,0-3.421-1.374h0a4.851,4.851,0,0,0-3.422,1.374l-3.706,3.705a25.574,25.574,0,0,0-3.9-1.614v-5.244a4.844,4.844,0,0,0-4.839-4.839h-5.918a4.844,4.844,0,0,0-4.839,4.839v5.245a25.68,25.68,0,0,0-3.9,1.614l-3.707-3.706a4.846,4.846,0,0,0-6.845,0l-4.189,4.187a4.849,4.849,0,0,0,0,6.845l3.706,3.707a25.6,25.6,0,0,0-1.614,3.9h-5.243a4.844,4.844,0,0,0-4.839,4.839v5.919a4.844,4.844,0,0,0,4.839,4.837h5.246a25.653,25.653,0,0,0,1.614,3.9l-3.706,3.707a4.845,4.845,0,0,0,0,6.845l4.187,4.189a4.849,4.849,0,0,0,6.845,0l3.707-3.706a25.548,25.548,0,0,0,3.9,1.614v5.243a4.844,4.844,0,0,0,4.839,4.839h5.918a4.844,4.844,0,0,0,4.839-4.839v-5.246a25.57,25.57,0,0,0,3.9-1.614l3.706,3.707a4.967,4.967,0,0,0,6.845,0l4.188-4.187a4.845,4.845,0,0,0,0-6.845l-3.706-3.707a25.619,25.619,0,0,0,1.614-3.9h5.244a4.845,4.845,0,0,0,4.839-4.839v-5.919A4.844,4.844,0,0,0,1343.521,146.78Zm1.079,10.757a1.08,1.08,0,0,1-1.079,1.079h-6.659a1.88,1.88,0,0,0-1.819,1.409,21.862,21.862,0,0,1-2.331,5.627,1.881,1.881,0,0,0,.29,2.284l4.705,4.707a1.086,1.086,0,0,1,0,1.529l-4.187,4.187a1.126,1.126,0,0,1-1.529,0l-4.7-4.7a1.883,1.883,0,0,0-2.286-.29,21.743,21.743,0,0,1-5.624,2.329,1.876,1.876,0,0,0-1.408,1.818v6.658a1.081,1.081,0,0,1-1.079,1.079h-5.918a1.08,1.08,0,0,1-1.079-1.079v-6.658a1.879,1.879,0,0,0-1.41-1.82,21.79,21.79,0,0,1-5.625-2.328,1.88,1.88,0,0,0-2.287.289l-4.7,4.7a1.085,1.085,0,0,1-1.529,0l-4.187-4.187a1.082,1.082,0,0,1,0-1.529l4.705-4.705a1.877,1.877,0,0,0,.289-2.284,21.847,21.847,0,0,1-2.329-5.625,1.876,1.876,0,0,0-1.818-1.41h-6.658a1.08,1.08,0,0,1-1.078-1.079v-5.919a1.08,1.08,0,0,1,1.078-1.079H1291a1.88,1.88,0,0,0,1.82-1.41,21.784,21.784,0,0,1,2.329-5.626,1.876,1.876,0,0,0-.29-2.284l-4.705-4.7a1.084,1.084,0,0,1,0-1.529l4.187-4.187a1.083,1.083,0,0,1,1.529,0l4.705,4.7a1.877,1.877,0,0,0,2.284.29,21.8,21.8,0,0,1,5.626-2.329,1.88,1.88,0,0,0,1.41-1.82v-6.658a1.08,1.08,0,0,1,1.079-1.079h5.918a1.081,1.081,0,0,1,1.079,1.079v6.658a1.88,1.88,0,0,0,1.41,1.82,21.745,21.745,0,0,1,5.624,2.329,1.877,1.877,0,0,0,2.286-.29l4.705-4.705a1.12,1.12,0,0,1,1.529,0l4.188,4.187a1.088,1.088,0,0,1,0,1.529L1333,141.22a1.879,1.879,0,0,0-.289,2.284,21.833,21.833,0,0,1,2.33,5.625,1.876,1.876,0,0,0,1.818,1.411h6.659a1.08,1.08,0,0,1,1.079,1.079Zm-30.671-16.676a13.717,13.717,0,1,0,13.717,13.717A13.732,13.732,0,0,0,1313.929,140.861Zm0,23.673a9.957,9.957,0,1,1,9.957-9.956A9.968,9.968,0,0,1,1313.929,164.534Zm97.636,15.241h-47.6a6.932,6.932,0,0,0-6.924,6.924v11.892h61.452V186.7A6.932,6.932,0,0,0,1411.564,179.775Zm3.722,15.613H1360.24V186.7a3.726,3.726,0,0,1,3.721-3.722h47.6a3.726,3.726,0,0,1,3.722,3.722Zm-58.18,47.445h.789a1.59,1.59,0,0,0,1.627,0h58.791V204.355h-61.206Zm7.716-3.2,22.928-13.861,23.219,13.861Zm50.288-1.258-24.256-14.479,24.256-14.663Zm-3.426-30.814-23.944,14.475-24.249-14.475Zm-51.375,1.831,24.326,14.521-24.326,14.705Zm6.2-42.529.045-.007,29.479-5.9a1.79,1.79,0,0,0,1.436-1.75,26.822,26.822,0,0,1,5.641-16.413l.1-.131.166.018a10.046,10.046,0,0,0,1.222.06,10.272,10.272,0,0,0,7.19-3.015,1.788,1.788,0,0,0,0-2.525l-17.7-17.7a1.774,1.774,0,0,0-1.262-.522h0a1.774,1.774,0,0,0-1.262.522,10.273,10.273,0,0,0-3.016,7.19,10.456,10.456,0,0,0,.061,1.222l.018.166-.131.1a26.826,26.826,0,0,1-16.412,5.642h0a1.789,1.789,0,0,0-1.75,1.435l-5.9,29.494c-.013.071-.019.114-.023.156a1.785,1.785,0,0,0,2.094,1.95Zm26.3-43.024.184-.381,14.842,14.842-.381.184a6.836,6.836,0,0,1-2.949.668,6.545,6.545,0,0,1-4.614-1.851l-5.9-5.9A6.71,6.71,0,0,1,1392.809,123.836Zm-19.254,13.525.232-.013a30.251,30.251,0,0,0,15.726-5.476l.266-.187.165.279a9.965,9.965,0,0,0,1.524,1.959l5.9,5.9a9.956,9.956,0,0,0,1.96,1.523l.278.166-.186.265a30.25,30.25,0,0,0-5.476,15.727l-.013.232-22.312,4.462,9.506-9.507.191.091a5.957,5.957,0,1,0-2.807-2.808l.092.192-9.507,9.507Zm7.941,10.048a2.383,2.383,0,1,1,.7,1.687A2.369,2.369,0,0,1,1381.5,147.409Z" transform="translate(-1279.498 -118.981)"/></svg>