<svg xmlns="http://www.w3.org/2000/svg" xmlns:xlink="http://www.w3.org/1999/xlink" width="70.715" height="129.241" viewBox="0 0 70.715 129.241"><defs><style>.a{fill:url(#a);}</style><linearGradient id="a" x1="-0.161" y1="-0.063" x2="1.235" y2="1.126" gradientUnits="objectBoundingBox"><stop offset="0.091" stop-color="#c570f2"/><stop offset="0.475" stop-color="#7d4bc3"/><stop offset="0.831" stop-color="#402c9b"/><stop offset="1" stop-color="#29218c"/></linearGradient></defs><path class="a" d="M328.254,93.894H273.909a8.209,8.209,0,0,0-8.185,8.185V214.95a8.21,8.21,0,0,0,8.185,8.185h54.345a8.21,8.21,0,0,0,8.185-8.185V102.079A8.209,8.209,0,0,0,328.254,93.894ZM311.1,97.722l-1.274,4.533h-17.7l-1.133-4.533ZM332.61,214.95a4.37,4.37,0,0,1-4.356,4.357H273.909a4.37,4.37,0,0,1-4.356-4.357V102.079a4.369,4.369,0,0,1,4.356-4.357h13.136l1.729,6.911a1.912,1.912,0,0,0,1.857,1.45h20.641a1.921,1.921,0,0,0,1.842-1.4l1.959-6.966h13.182a4.369,4.369,0,0,1,4.356,4.356Zm-39.362-3.088a1.916,1.916,0,0,1-1.914,1.914H276.7a1.914,1.914,0,0,1,0-3.828h14.632A1.916,1.916,0,0,1,293.249,211.863Zm8.361,0a1.916,1.916,0,0,1-1.914,1.914H297.6a1.914,1.914,0,1,1,0-3.828H299.7A1.916,1.916,0,0,1,301.61,211.863Zm5.769-65.532a1.9,1.9,0,0,1,.045,1.464l-8.634,22.8a1.914,1.914,0,1,1-3.58-1.356l8.633-22.8a1.914,1.914,0,0,1,3.535-.108Zm18.095,10.988a1.9,1.9,0,0,1,0,2.393l-8.361,10.451a1.915,1.915,0,0,1-2.989-2.393l7.4-9.254-7.4-9.255a1.915,1.915,0,0,1,1.491-3.111,2,2,0,0,1,.214.012,1.9,1.9,0,0,1,1.284.707Zm-48.314,2.393a1.9,1.9,0,0,1,0-2.393l8.361-10.451a1.914,1.914,0,1,1,2.989,2.393l-7.4,9.255,7.4,9.254a1.915,1.915,0,0,1-2.99,2.393h0Z" transform="translate(-265.724 -93.894)"/></svg>