<svg xmlns="http://www.w3.org/2000/svg" xmlns:xlink="http://www.w3.org/1999/xlink" width="1920.036" height="1241.106" viewBox="0 0 1920.036 1241.106"><defs><style>.a{fill:url(#a);}</style><linearGradient id="a" x1="0.004" y1="0.934" x2="1.002" y2="0.061" gradientUnits="objectBoundingBox"><stop offset="0" stop-color="#492bb2"/><stop offset="1" stop-color="#915dfd"/></linearGradient></defs><path class="a" d="M15281.5,1348.383c-15.9-3.205-31.781-6.511-47.708-9.541a23.624,23.624,0,0,0-2.41-.322l-9.344-1.25c-62.716-14.139-125.648-25.112-189.387-28.89-.393-.037-.76-.068-1.1-.091-20.853-1.464-42.436-1.488-42.445-1.488-18.511-.68-37.076-.266-55.6.363-12.872.437-25.724,1.839-38.564,3.061-11.232,1.069-22.442,2.408-33.649,3.779-9.371,1.148-18.725,2.474-28.074,3.793-13.119,1.851-26.246,3.649-39.338,5.692-12.518,1.956-24.991,4.242-37.5,6.3-12.051,1.983-24.119,3.834-36.174,5.791-12.845,2.086-25.683,4.23-38.523,6.348l-11.635,1.919h0l-16.891,2.446c-5.36.357-10.765,1.695-16.137,2.422-9.7,1.313-19.38,2.735-29.085,3.975s-19.43,2.408-29.16,3.444c-13.627,1.45-27.257,2.888-40.9,4.083a749.151,749.151,0,0,1-84.593,2.193c-14.138-.363-28.255-1.874-42.379-2.87-.689-.048-28.824-3.359-41.9-6.59-22.053-5.451-43.913-11.836-65.825-17.938-6.894-1.92-13.647-4.481-20.58-6.169-3.157-.768-28.842-8.46-39.163-11.2-19.628-5.206-39.239-10.541-58.979-15.2q-22.547-5.32-45.4-9.033c-18.074-2.912-36.222-5.489-54.418-7.245a402.666,402.666,0,0,0-70.761-.7c-12.851,1.025-25.728,1.945-38.508,3.679-13.329,1.808-26.629,4.112-39.8,6.965-17.674,3.829-35.225,8.327-52.8,12.665-14.217,3.509-28.352,7.417-42.6,10.762-13.813,3.243-27.7,6.122-41.6,8.925-12.988,2.617-26,5.142-39.052,7.3-11.359,1.88-22.78,3.347-34.2,4.721-15.436,1.854-30.878,3.668-46.347,5.082-12.734,1.163-25.508,2.2-38.277,2.447-30.289.594-60.585.829-90.876.935-20.3.072-40.559-1.55-60.818-2.772-13.222-.8-26.452-1.418-39.652-2.508-18.355-1.516-36.685-3.412-55.028-5.108-3.538-.328-7.915-.813-11.884-1.074v14.19c0,71.035.822,141.13.82,212.165h-.783v893.145q10.49,2.1,20.972,4.212c15.9,3.207,31.783,6.511,47.71,9.542a23.27,23.27,0,0,0,2.411.322l9.342,1.251c62.717,14.139,125.65,25.112,189.389,28.889.393.038.76.068,1.095.091,20.855,1.465,42.44,1.488,42.448,1.488,18.51.68,37.073.267,55.6-.363,12.874-.437,25.726-1.837,38.564-3.059,11.232-1.069,22.445-2.41,33.649-3.781,9.371-1.146,18.725-2.473,28.076-3.791,13.119-1.851,26.244-3.648,39.336-5.694,12.521-1.955,24.993-4.242,37.5-6.3,12.049-1.983,24.117-3.834,36.173-5.791,12.846-2.086,25.683-4.23,38.524-6.348q5.817-.959,11.633-1.92h0l16.891-2.444c5.358-.356,10.766-1.695,16.135-2.421,9.7-1.314,19.383-2.736,29.089-3.977s19.428-2.408,29.156-3.442c13.628-1.452,27.259-2.888,40.9-4.085a748.767,748.767,0,0,1,84.593-2.19c14.141.361,71.2,6.228,84.275,9.459,22.052,5.449,43.91,11.834,65.825,17.937,6.895,1.919,13.646,4.482,20.579,6.171,3.157.766,28.84,8.459,39.163,11.195,19.628,5.206,39.238,10.54,58.978,15.2q22.55,5.323,45.4,9.033c18.074,2.914,36.224,5.489,54.418,7.245a402.656,402.656,0,0,0,70.761.7c12.851-1.024,25.729-1.945,38.506-3.679,13.329-1.807,26.629-4.11,39.8-6.964,17.672-3.828,35.225-8.325,52.8-12.665,14.214-3.509,28.351-7.417,42.6-10.762,13.813-3.244,27.707-6.122,41.6-8.924,12.987-2.619,26-5.143,39.055-7.3,11.357-1.88,22.778-3.346,34.2-4.719,15.435-1.855,30.878-3.669,46.347-5.082,12.734-1.165,25.508-2.2,38.276-2.449,30.29-.594,60.585-.829,90.879-.935,20.3-.07,40.557,1.55,60.817,2.774,13.219.8,26.452,1.416,39.651,2.507,18.357,1.515,36.688,3.413,55.028,5.108,3.538.328,7.09.48,11.062.741v-12.917q0-106.553,0-213.106h.782V1352.6Q15291.984,1350.49,15281.5,1348.383Z" transform="translate(-13382.434 -1284.24)"/></svg>