<svg xmlns="http://www.w3.org/2000/svg" width="443.894" height="904.023" viewBox="0 0 443.894 904.023"><defs><style>.a{fill:rgba(101,74,206,0.04);}</style></defs><path class="a" d="M13455.154-210.044c-39.426-1.351-79.859-10.242-119.158-7.811-73.424,4.543-145.135,34.775-192.395,92.319-46.072,56.095-65.309,133.3-50.945,204.451,11.426,56.605,42.225,107.072,64.553,160.328,31.762,75.755,46.426,157.414,70.8,235.857,17.139,55.153,41.537,111.93,89.006,144.831,24.412,16.922,53.191,26.217,81.668,34.663,43.707,12.963,88.166,24.507,133.191,31.155v-894.6C13506.3-209.042,13480.719-209.169,13455.154-210.044Z" transform="translate(13531.877 685.749) rotate(-180)"/></svg>