<svg xmlns="http://www.w3.org/2000/svg" width="995.982" height="1278.586" viewBox="0 0 995.982 1278.586"><defs><style>.a{fill:rgba(101,74,206,0.04);}</style></defs><path class="a" d="M466.231,1137.475c-50.062,1.715-101.4,13.006-151.3,9.919-93.234-5.768-184.291-44.157-244.3-117.226C12.123,958.939-12.3,860.908,5.934,770.557,20.444,698.68,59.552,634.6,87.9,566.973c40.329-96.193,58.95-199.883,89.905-299.49,21.765-70.033,52.744-142.129,113.02-183.906,31-21.487,67.541-33.291,103.7-44.015C450.028,23.1,506.483,8.442,563.658,0V1135.955C531.177,1136.2,498.694,1136.364,466.231,1137.475Z" transform="translate(485.134) rotate(25)"/></svg>